<svg xmlns="http://www.w3.org/2000/svg" viewBox="0 0 137.88 190.95"><defs><style>.cls-1{isolation:isolate;}.cls-2{opacity:0.25;mix-blend-mode:multiply;}.cls-3{fill:#010101;}.cls-4,.cls-8{fill:none;stroke-miterlimit:10;stroke-width:0.75px;}.cls-4{stroke:#010101;}.cls-5{fill:#f8f7ef;}.cls-6{fill:#bfab6f;}.cls-7{fill:#192c55;}.cls-8{stroke:#152444;}</style></defs><title>card-wrapper</title><g class="cls-1"><g id="Layer_2" data-name="Layer 2"><g id="Objects"><g class="cls-2"><rect class="cls-3" x="3" y="3" width="134.88" height="187.95"/><path class="cls-3" d="M84.17,64.43"/><path class="cls-3" d="M53.19,48.86a.68.68,0,0,0-.28.14.62.62,0,0,0-.2.35,1.18,1.18,0,0,0,.44,1.14,1.74,1.74,0,0,0,1.22.33.74.74,0,0,0,.29-.07c.28-.15.33-.53.31-.85a1.47,1.47,0,0,0-.15-.64,1.11,1.11,0,0,0-1-.55S53.35,48.81,53.19,48.86Z"/><path class="cls-3" d="M52.44,47.25a.4.4,0,0,0,.06.19.4.4,0,0,0,.2.16.74.74,0,0,0,.75-.17,1.1,1.1,0,0,0,.32-.73.48.48,0,0,0,0-.19c-.07-.19-.3-.25-.5-.27a.93.93,0,0,0-.41,0,.7.7,0,0,0-.44.58S52.43,47.14,52.44,47.25Z"/><path class="cls-3" d="M32.33,68.15a.4.4,0,0,0,.06.19.38.38,0,0,0,.2.16.74.74,0,0,0,.75-.17,1.1,1.1,0,0,0,.32-.73.46.46,0,0,0,0-.19c-.06-.19-.3-.25-.5-.27a.93.93,0,0,0-.41,0,.7.7,0,0,0-.44.58S32.32,68,32.33,68.15Z"/><path class="cls-3" d="M25.29,83.62a.42.42,0,0,0,.06.19.39.39,0,0,0,.2.16.74.74,0,0,0,.75-.17,1.09,1.09,0,0,0,.32-.73.45.45,0,0,0,0-.19c-.07-.19-.3-.25-.5-.27a.93.93,0,0,0-.41,0,.7.7,0,0,0-.44.58S25.28,83.52,25.29,83.62Z"/><path class="cls-3" d="M14.49,106.85a.41.41,0,0,0,.06.19.39.39,0,0,0,.2.16.74.74,0,0,0,.75-.17,1.09,1.09,0,0,0,.32-.73.48.48,0,0,0,0-.19c-.07-.19-.3-.25-.5-.27a.92.92,0,0,0-.41,0,.7.7,0,0,0-.44.58S14.48,106.75,14.49,106.85Z"/><path class="cls-3" d="M24.61,102a.43.43,0,0,0,.06.19.4.4,0,0,0,.2.16.74.74,0,0,0,.75-.17,1.1,1.1,0,0,0,.32-.73.5.5,0,0,0,0-.19c-.06-.19-.3-.25-.5-.27a.94.94,0,0,0-.41,0,.7.7,0,0,0-.44.58S24.59,101.92,24.61,102Z"/><path class="cls-3" d="M35.31,129a.4.4,0,0,0,.06.19.39.39,0,0,0,.2.16.74.74,0,0,0,.75-.17,1.1,1.1,0,0,0,.32-.73.48.48,0,0,0,0-.19c-.07-.19-.3-.25-.5-.27a.94.94,0,0,0-.41,0,.7.7,0,0,0-.44.58S35.29,128.92,35.31,129Z"/><path class="cls-3" d="M47.55,149a.41.41,0,0,0,.06.19.39.39,0,0,0,.2.16.74.74,0,0,0,.75-.17,1.1,1.1,0,0,0,.32-.73.48.48,0,0,0,0-.19c-.07-.19-.3-.25-.5-.28a.94.94,0,0,0-.41,0,.7.7,0,0,0-.44.58S47.53,148.9,47.55,149Z"/><path class="cls-3" d="M73.15,140.67a.42.42,0,0,0,.06.19.39.39,0,0,0,.2.16.74.74,0,0,0,.75-.17,1.09,1.09,0,0,0,.32-.73.48.48,0,0,0,0-.19c-.07-.19-.3-.26-.5-.27a.92.92,0,0,0-.41,0,.7.7,0,0,0-.44.58S73.14,140.57,73.15,140.67Z"/><path class="cls-3" d="M94.12,135.7a.43.43,0,0,0,.06.19.39.39,0,0,0,.2.16.74.74,0,0,0,.75-.17,1.1,1.1,0,0,0,.32-.73.5.5,0,0,0,0-.19c-.06-.19-.3-.25-.5-.27a.91.91,0,0,0-.41,0,.7.7,0,0,0-.44.58S94.11,135.6,94.12,135.7Z"/><path class="cls-3" d="M112.12,128.95a.4.4,0,0,0,.06.19.39.39,0,0,0,.2.16.74.74,0,0,0,.75-.17,1.09,1.09,0,0,0,.32-.73.48.48,0,0,0,0-.19c-.07-.19-.3-.26-.5-.27a.93.93,0,0,0-.41,0,.7.7,0,0,0-.44.58S112.1,128.84,112.12,128.95Z"/><path class="cls-3" d="M116.53,99a.4.4,0,0,0,.06.19.39.39,0,0,0,.2.16.74.74,0,0,0,.75-.17,1.1,1.1,0,0,0,.32-.73.48.48,0,0,0,0-.19c-.07-.19-.3-.26-.5-.27a.92.92,0,0,0-.41,0,.7.7,0,0,0-.44.58S116.52,98.93,116.53,99Z"/><path class="cls-3" d="M119.36,75a.41.41,0,0,0,.06.19.38.38,0,0,0,.2.16.74.74,0,0,0,.75-.17,1.09,1.09,0,0,0,.32-.73.52.52,0,0,0,0-.19c-.07-.19-.3-.25-.5-.27a.93.93,0,0,0-.41,0,.7.7,0,0,0-.44.58S119.34,74.94,119.36,75Z"/><path class="cls-3" d="M99.11,53.44a.42.42,0,0,0,.06.19.4.4,0,0,0,.2.16.74.74,0,0,0,.75-.17,1.1,1.1,0,0,0,.32-.73.48.48,0,0,0,0-.19c-.07-.19-.3-.25-.5-.27a.93.93,0,0,0-.41,0,.7.7,0,0,0-.44.58S99.1,53.34,99.11,53.44Z"/><path class="cls-3" d="M73.15,52.13a.42.42,0,0,0,.06.19.39.39,0,0,0,.2.16.74.74,0,0,0,.75-.17,1.09,1.09,0,0,0,.32-.73.48.48,0,0,0,0-.19c-.07-.19-.3-.25-.5-.27a.92.92,0,0,0-.41,0,.7.7,0,0,0-.44.58S73.14,52,73.15,52.13Z"/><path class="cls-3" d="M34.37,69.35a1.36,1.36,0,0,0-.84,0A.85.85,0,0,0,33,70a1,1,0,0,0,.36.84,1.18,1.18,0,0,0,1,.31,1,1,0,0,0,.73-.79.71.71,0,0,0,0-.28.89.89,0,0,0-.12-.25,1.48,1.48,0,0,0-.46-.47.78.78,0,0,0-.62-.09"/><path class="cls-3" d="M13.85,82.69a1.36,1.36,0,0,0-.84,0,.85.85,0,0,0-.53.66,1,1,0,0,0,.36.84,1.18,1.18,0,0,0,1,.31,1,1,0,0,0,.73-.79.71.71,0,0,0,0-.28.89.89,0,0,0-.12-.25,1.48,1.48,0,0,0-.46-.47.77.77,0,0,0-.62-.09"/><path class="cls-3" d="M24.52,98.89a1.36,1.36,0,0,0-.84,0,.85.85,0,0,0-.54.66,1,1,0,0,0,.36.84,1.18,1.18,0,0,0,1,.31,1,1,0,0,0,.73-.79.69.69,0,0,0,0-.28.88.88,0,0,0-.12-.25,1.49,1.49,0,0,0-.46-.47.77.77,0,0,0-.62-.09"/><path class="cls-3" d="M21.24,123.28a1.36,1.36,0,0,0-.84,0,.85.85,0,0,0-.54.66,1,1,0,0,0,.36.84,1.18,1.18,0,0,0,1,.31,1,1,0,0,0,.73-.79.71.71,0,0,0,0-.28.88.88,0,0,0-.12-.25,1.47,1.47,0,0,0-.46-.47.77.77,0,0,0-.62-.09"/><path class="cls-3" d="M36.28,125.62a1.35,1.35,0,0,0-.84,0,.85.85,0,0,0-.53.66,1,1,0,0,0,.36.84,1.18,1.18,0,0,0,1,.31,1,1,0,0,0,.73-.79.71.71,0,0,0,0-.28.94.94,0,0,0-.12-.25,1.49,1.49,0,0,0-.46-.47.78.78,0,0,0-.62-.09"/><path class="cls-3" d="M51.87,146.3a1.36,1.36,0,0,0-.84,0,.85.85,0,0,0-.53.66,1,1,0,0,0,.36.84,1.18,1.18,0,0,0,1,.31,1,1,0,0,0,.73-.79.71.71,0,0,0,0-.28.87.87,0,0,0-.12-.25,1.48,1.48,0,0,0-.46-.47.78.78,0,0,0-.62-.09"/><path class="cls-3" d="M69.27,141.61a1.35,1.35,0,0,0-.84,0,.85.85,0,0,0-.54.66,1,1,0,0,0,.36.84,1.18,1.18,0,0,0,1,.31,1,1,0,0,0,.73-.79.71.71,0,0,0,0-.28.91.91,0,0,0-.12-.25,1.49,1.49,0,0,0-.46-.47.77.77,0,0,0-.62-.09"/><path class="cls-3" d="M89.84,136.36a1.36,1.36,0,0,0-.84,0,.85.85,0,0,0-.54.66,1,1,0,0,0,.36.84,1.18,1.18,0,0,0,1,.31,1,1,0,0,0,.73-.79.71.71,0,0,0,0-.28.92.92,0,0,0-.12-.25,1.48,1.48,0,0,0-.46-.47.78.78,0,0,0-.62-.09"/><path class="cls-3" d="M114.75,125.8a1.36,1.36,0,0,0-.84,0,.85.85,0,0,0-.54.66,1,1,0,0,0,.36.84,1.18,1.18,0,0,0,1,.31,1,1,0,0,0,.73-.79.68.68,0,0,0,0-.28.93.93,0,0,0-.12-.25,1.5,1.5,0,0,0-.46-.47.78.78,0,0,0-.62-.09"/><path class="cls-3" d="M115.49,100.73a1.36,1.36,0,0,0-.84,0,.85.85,0,0,0-.54.66,1,1,0,0,0,.36.84,1.18,1.18,0,0,0,1,.31,1,1,0,0,0,.73-.79.72.72,0,0,0,0-.28.93.93,0,0,0-.12-.25,1.48,1.48,0,0,0-.46-.47.78.78,0,0,0-.62-.09"/><path class="cls-3" d="M115.91,74.25a1.36,1.36,0,0,0-.84,0,.85.85,0,0,0-.54.66,1,1,0,0,0,.36.84,1.18,1.18,0,0,0,1,.31,1,1,0,0,0,.73-.79.7.7,0,0,0,0-.28.89.89,0,0,0-.13-.25,1.48,1.48,0,0,0-.46-.47.77.77,0,0,0-.62-.09"/><path class="cls-3" d="M97.89,61.46a1.37,1.37,0,0,0-.84,0,.85.85,0,0,0-.54.66,1,1,0,0,0,.36.84,1.18,1.18,0,0,0,1,.31,1,1,0,0,0,.73-.79.7.7,0,0,0,0-.28.9.9,0,0,0-.13-.25,1.5,1.5,0,0,0-.46-.47.78.78,0,0,0-.62-.09"/><path class="cls-3" d="M76.75,49.38a1.36,1.36,0,0,0-.84,0,.85.85,0,0,0-.53.66,1,1,0,0,0,.36.84,1.18,1.18,0,0,0,1,.31,1,1,0,0,0,.73-.79.71.71,0,0,0,0-.28.88.88,0,0,0-.12-.25,1.47,1.47,0,0,0-.46-.47.78.78,0,0,0-.62-.09"/><path class="cls-3" d="M122.48,113.63a.67.67,0,0,0-.42,0,.42.42,0,0,0-.27.33.5.5,0,0,0,.18.42.59.59,0,0,0,.51.15.48.48,0,0,0,.37-.39.33.33,0,0,0,0-.14.44.44,0,0,0-.06-.12.74.74,0,0,0-.23-.23.39.39,0,0,0-.31,0"/><path class="cls-3" d="M110.71,98.82a.67.67,0,0,0-.42,0,.43.43,0,0,0-.27.33.5.5,0,0,0,.18.42.59.59,0,0,0,.51.15.49.49,0,0,0,.37-.39.33.33,0,0,0,0-.14.44.44,0,0,0-.06-.13.78.78,0,0,0-.23-.23.39.39,0,0,0-.31,0"/><path class="cls-3" d="M118.78,77.51a.69.69,0,0,0-.42,0,.43.43,0,0,0-.27.33.5.5,0,0,0,.18.42.59.59,0,0,0,.51.15.48.48,0,0,0,.37-.4.35.35,0,0,0,0-.14.42.42,0,0,0-.06-.12.73.73,0,0,0-.23-.23.39.39,0,0,0-.31,0"/><path class="cls-3" d="M12,84.8a.68.68,0,0,0-.42,0,.43.43,0,0,0-.27.33.51.51,0,0,0,.18.42.59.59,0,0,0,.51.15.48.48,0,0,0,.37-.39.35.35,0,0,0,0-.14.47.47,0,0,0-.06-.12.78.78,0,0,0-.23-.23.39.39,0,0,0-.31,0"/><path class="cls-3" d="M96.72,51.64a.68.68,0,0,0-.42,0A.43.43,0,0,0,96,52a.51.51,0,0,0,.18.42.59.59,0,0,0,.51.15.49.49,0,0,0,.37-.4.37.37,0,0,0,0-.14.47.47,0,0,0-.06-.12.76.76,0,0,0-.23-.23.38.38,0,0,0-.31,0"/><path class="cls-3" d="M76.59,54.13a.69.69,0,0,0-.42,0,.42.42,0,0,0-.27.33.51.51,0,0,0,.18.42.59.59,0,0,0,.51.15.49.49,0,0,0,.37-.4.36.36,0,0,0,0-.14.43.43,0,0,0-.06-.12.74.74,0,0,0-.23-.23.39.39,0,0,0-.31,0"/><path class="cls-3" d="M84,151.32a.68.68,0,0,0-.42,0,.42.42,0,0,0-.27.33.5.5,0,0,0,.18.42.6.6,0,0,0,.51.15.49.49,0,0,0,.37-.4.35.35,0,0,0,0-.14.45.45,0,0,0-.06-.12.73.73,0,0,0-.23-.23.38.38,0,0,0-.31,0"/><path class="cls-3" d="M30.55,122.05a.68.68,0,0,0-.42,0,.43.43,0,0,0-.27.33.51.51,0,0,0,.18.42.59.59,0,0,0,.51.15.48.48,0,0,0,.37-.39.36.36,0,0,0,0-.14.48.48,0,0,0-.06-.12.76.76,0,0,0-.23-.23.39.39,0,0,0-.31,0"/><path class="cls-3" d="M50.09,47.85a.68.68,0,0,0-.42,0,.42.42,0,0,0-.27.33.51.51,0,0,0,.18.42.59.59,0,0,0,.51.15.49.49,0,0,0,.37-.4.35.35,0,0,0,0-.14.42.42,0,0,0-.06-.12.72.72,0,0,0-.23-.23.38.38,0,0,0-.31,0"/><path class="cls-3" d="M73.95,49.21c0,.18-1,.37-2.61.53l-6.28.54c-2.44.24-4.62.57-6.2.85s-2.57.48-2.63.3.83-.68,2.4-1.21A29.06,29.06,0,0,1,64.93,49a45.73,45.73,0,0,1,6.38-.16C72.94,48.87,73.94,49,73.95,49.21Z"/><path class="cls-3" d="M68.46,52.42c-.12.34-1.36.2-2.63-.56a6.4,6.4,0,0,1-.85-.6L64.65,51l-.22-.24-.28-.3c-.07-.07-.17-.12-.21-.2s0-.21.17-.31a1.06,1.06,0,0,1,.77,0,2.9,2.9,0,0,1,.41.17l.38.19c.26.14.55.29.84.47C67.66,51.41,68.59,52.07,68.46,52.42Z"/><path class="cls-3" d="M72.09,50.61c0,.18-.24.38-.7.43a3.68,3.68,0,0,1-1.6-.28c-.55-.2-1-.39-1.26-.53s-.55-.24-.6-.43.18-.42.65-.51a3.18,3.18,0,0,1,1.67.22,10.35,10.35,0,0,1,1.3.6C71.84,50.28,72.07,50.42,72.09,50.61Z"/><ellipse class="cls-3" cx="66.44" cy="48.28" rx="2.21" ry="0.66" transform="translate(-15.46 42.11) rotate(-31.7)"/><path class="cls-3" d="M61.92,48c.22.29-.27,1-1.11,1.68a5,5,0,0,1-.62.41c-.19.1-.34.17-.47.23a1.28,1.28,0,0,1-.63.17c-.18,0-.29-.37-.08-.79a2.27,2.27,0,0,1,.43-.58,5.18,5.18,0,0,1,.56-.49C60.84,48,61.69,47.74,61.92,48Z"/><path class="cls-3" d="M108.11,65.54c-.07.06-.5-.33-1.32-1s-2-1.5-3.61-2.53C100,60,95.84,57,90.9,54.16c-2.47-1.39-4.91-2.57-7.14-3.63s-4.26-2-5.95-2.84c-3.37-1.65-5.42-2.76-5.34-2.92s2.26.64,5.73,2.07c1.74.72,3.79,1.58,6.07,2.59S89,51.58,91.56,53a111.41,111.41,0,0,1,12.17,8.27,27.55,27.55,0,0,1,3.41,2.91C107.87,65,108.18,65.49,108.11,65.54Z"/><ellipse class="cls-3" cx="102.46" cy="56.12" rx="6.61" ry="0.66" transform="translate(-0.08 0.14) rotate(-0.08)"/><path class="cls-3" d="M106.64,58.29c-.36.09-.77-.31-1.07-.84s-.41-1.1-.14-1.35.92,0,1.3.71S107,58.2,106.64,58.29Z"/><ellipse class="cls-3" cx="104.25" cy="64.15" rx="1.86" ry="0.66" transform="translate(17.02 150.03) rotate(-76.16)"/><path class="cls-3" d="M107.59,60.32c.06.36-.82.8-2,.91s-2.09-.16-2.1-.52.87-.69,2-.8S107.53,60,107.59,60.32Z"/><path class="cls-3" d="M94,60.27c-.32.21-2.32-2.29-5.09-5.05s-5.25-4.79-5-5.1,3.11,1.28,6,4.17S94.27,60.09,94,60.27Z"/><path class="cls-3" d="M89.18,60.23c-.36,0-.53-1.28-.2-2.74a6.37,6.37,0,0,1,.67-1.79,3,3,0,0,1,.19-.28.84.84,0,0,1,.27-.27.34.34,0,0,1,.32,0,.11.11,0,0,1,.06.14s-.05.09,0,.12a.09.09,0,0,0,0,0l0,.07a.68.68,0,0,1,0,.16,3.12,3.12,0,0,1,0,.33,10.9,10.9,0,0,1-.28,1.81C90,59.15,89.54,60.26,89.18,60.23Z"/><path class="cls-3" d="M112.5,78.23c-.38.08-1.31-3.17-3.28-6.77A49.84,49.84,0,0,0,106.45,67c-.38-.57-.68-1-.92-1.28s-.37-.47-.32-.55.28,0,.65.15a5.8,5.8,0,0,1,1.31,1.08,21.26,21.26,0,0,1,5.17,9.55C112.66,77.32,112.67,78.2,112.5,78.23Z"/><path class="cls-3" d="M106.64,73.23c-.21-.31.3-1,1-1.78s1.3-1.36,1.63-1.19.16,1.16-.63,2.07S106.84,73.53,106.64,73.23Z"/><path class="cls-3" d="M108.75,76.34c-.33-.16-.17-1.19.23-2.37s.92-2.08,1.28-2,.4,1.19,0,2.44S109.08,76.49,108.75,76.34Z"/><path class="cls-3" d="M117,72c-.07.36-1.77.33-3.8.1s-3.7-.58-3.68-1,1.73-.61,3.83-.37S117.09,71.61,117,72Z"/><path class="cls-3" d="M111.1,67.9c.07.36-.72.83-1.8,1s-2-.1-2-.47.8-.71,1.82-.85S111,67.54,111.1,67.9Z"/><path class="cls-3" d="M121.59,100.21c-.18,0-.57-1.31-1.07-3.49s-1.15-5.19-2-8.44c-.46-1.62-1-3.15-1.44-4.53s-1-2.58-1.47-3.59c-.92-2-1.59-3.22-1.42-3.33s1.1.94,2.26,2.9a29.43,29.43,0,0,1,1.77,3.57,42.87,42.87,0,0,1,1.58,4.61,61.09,61.09,0,0,1,1.69,8.64C121.72,98.78,121.77,100.18,121.59,100.21Z"/><path class="cls-3" d="M112.72,95.62c-.34-.13.34-2.72,1.78-5.66s3-5.09,3.35-4.9-.75,2.59-2.15,5.48S113.07,95.76,112.72,95.62Z"/><path class="cls-3" d="M117.29,93.52c-.34.15-1-.57-1.59-1.53s-1-1.87-.68-2.1,1.15.35,1.81,1.4S117.62,93.37,117.29,93.52Z"/><ellipse class="cls-3" cx="124.81" cy="86.17" rx="0.66" ry="9.27" transform="translate(-9.91 155.83) rotate(-61.96)"/><path class="cls-3" d="M126.41,90.39c-.35-.12-.41-.84-.23-1.62s.55-1.4.92-1.35.58.79.37,1.65S126.75,90.51,126.41,90.39Z"/><ellipse class="cls-3" cx="127.7" cy="85.88" rx="2.75" ry="0.66" transform="translate(-9.97 17.1) rotate(-7.37)"/><path class="cls-3" d="M126.35,83.38c0,.37-1.12.79-2.58,1s-2.69.23-2.77-.13,1.05-.93,2.55-1.18S126.32,83,126.35,83.38Z"/><ellipse class="cls-3" cx="122.68" cy="92.48" rx="0.66" ry="3.3" transform="translate(-24.85 135.36) rotate(-53.21)"/><path class="cls-3" d="M118.36,97.64c-.33-.17-.1-1.29.51-2.51a7.08,7.08,0,0,1,1-1.48,1.05,1.05,0,0,1,.35-.29c.09,0,.14-.11.2-.17s.23,0,.31.19a1.43,1.43,0,0,1,0,.69,7.08,7.08,0,0,1-.61,1.65C119.44,97,118.68,97.81,118.36,97.64Z"/><path class="cls-3" d="M110.18,88.91c-.07-.36,1-.85,2.31-.93s2.43.27,2.41.63-1.06.61-2.32.69S110.25,89.27,110.18,88.91Z"/><path class="cls-3" d="M112.45,118.2c-.17-.08.16-1.16.79-2.84s1.57-4,2.5-6.52c.46-1.28.86-2.5,1.2-3.62s.61-2.14.82-3c.42-1.72.64-2.82.84-2.8s.28,1.15.09,3a25.62,25.62,0,0,1-.56,3.16,37.71,37.71,0,0,1-1.13,3.75,50.13,50.13,0,0,1-2.89,6.46C113.24,117.34,112.61,118.27,112.45,118.2Z"/><path class="cls-3" d="M115.66,111.13c.16.33-1.05,1.22-2.7,2a10.94,10.94,0,0,1-2.46.86l-.08-.76c.4.21.61.41.58.55s-.31.23-.77.23l-1,0,.94-.78a10.93,10.93,0,0,1,2.24-1.32C114,111.15,115.5,110.8,115.66,111.13Z"/><path class="cls-3" d="M117.59,117.49c-.36.07-.92-1.16-1.54-2.66-.31-.75-.58-1.45-.73-2,0-.13-.07-.25-.09-.37a.93.93,0,0,1,0-.41.37.37,0,0,1,.19-.29.11.11,0,0,1,.15,0s0,.09.05.12.08,0,.12.05l.16.11a3.7,3.7,0,0,1,.27.28,7.23,7.23,0,0,1,1.14,1.93C117.95,116,117.95,117.42,117.59,117.49Z"/><ellipse class="cls-3" cx="114.43" cy="108.3" rx="1.69" ry="0.66" transform="translate(-17.68 22.45) rotate(-10.41)"/><path class="cls-3" d="M120.11,110.7c-.19,0-.39-.24-.7-.6s-.76-.89-1.22-1.57a9.84,9.84,0,0,1-1-1.81,3.38,3.38,0,0,1-.14-.47c0-.1-.08-.16-.12-.25a.14.14,0,0,1,0-.15.36.36,0,0,1,.28-.09,1.27,1.27,0,0,1,.72.42,9.76,9.76,0,0,1,1.32,1.6,6.44,6.44,0,0,1,1,1.91C120.4,110.28,120.28,110.68,120.11,110.7Z"/><path class="cls-3" d="M98.78,137.1c-.08-.19,1.28-.83,3.21-2.2a23.84,23.84,0,0,0,6.3-6.6,41.37,41.37,0,0,0,2.34-4.54,17,17,0,0,1,2.29-3.71,8.78,8.78,0,0,1,2.26-1.91c.61-.35,1-.45,1-.37s-.24.34-.72.79a12.87,12.87,0,0,0-1.82,2.08,20.36,20.36,0,0,0-1.91,3.65,32.13,32.13,0,0,1-2.33,4.74,20.3,20.3,0,0,1-6.91,6.69C100.34,136.92,98.83,137.25,98.78,137.1Z"/><path class="cls-3" d="M103.4,141.31c-.35-.09.06-2.77,1.26-5.86s2.69-5.35,3-5.19-.61,2.64-1.77,5.66S103.76,141.4,103.4,141.31Z"/><path class="cls-3" d="M101.3,126.16c0-.37,2-.55,4.36-.4a12.53,12.53,0,0,1,2.53.38,4.25,4.25,0,0,1,1.49.67l.55.46-.54,0c-.2,0-.32-.05-.34-.13s0-.18.19-.31v.44a13,13,0,0,1-1.53,0l-2.43-.13C103.2,126.94,101.28,126.53,101.3,126.16Z"/><path class="cls-3" d="M115.47,124.09c-.11.14-.49.06-.95-.33a3.7,3.7,0,0,1-.78-4.28c.29-.53.62-.73.77-.64s.14.44.13.91a7.15,7.15,0,0,0,.63,3.44C115.46,123.63,115.6,123.94,115.47,124.09Z"/><ellipse class="cls-3" cx="104.22" cy="124.72" rx="0.66" ry="1.56" transform="translate(-25.6 26.93) rotate(-13.13)"/><path class="cls-3" d="M105.07,129.61c-.32-.18-.14-1.12.41-2.09a2.75,2.75,0,0,1,1.11-1.19c.46-.22.8-.09.82.09s-.11.38-.22.63-.28.62-.55,1.12C106.09,129.14,105.39,129.79,105.07,129.61Z"/><path class="cls-3" d="M98.07,134.11c.05-.36,1-.52,2-.12s1.58,1.14,1.38,1.44-1,.13-1.86-.21S98,134.48,98.07,134.11Z"/><path class="cls-3" d="M107.79,139.82c-.25.26-1.1-.13-1.81-1s-1-1.72-.68-1.93,1,.3,1.68,1.07S108,139.55,107.79,139.82Z"/><path class="cls-3" d="M94.68,146.25s0-.1,0-.15l-.08-.21a4.78,4.78,0,0,1-.2-1.13,14.48,14.48,0,0,1,.33-3.75l.74-3.55.13-.61.06-.26a.81.81,0,0,1,.14-.33.35.35,0,0,1,.47-.11.24.24,0,0,1,.08.29.21.21,0,0,1-.07.1.1.1,0,0,1-.11,0,.05.05,0,0,1,0-.08s0-.06,0,0,0,0,0,0a.17.17,0,0,0-.08,0h0a.16.16,0,0,0,.07,0s0,0,0,0h0l0,.07h0s0,0,.06,0l0,0h0v0l0,.07c0,.07,0,.17,0,.26a5.33,5.33,0,0,1,.07.66,15.69,15.69,0,0,1-.37,3.73c-.28,1.41-.55,2.64-.7,3.54-.08.46-.14.8-.22,1.1a.59.59,0,0,1-.23.37C94.76,146.33,94.69,146.29,94.68,146.25Z"/><path class="cls-3" d="M96,140.37c.34.12.24,1.26-.55,2.37s-1.86,1.55-2.07,1.27.33-1.11,1-2S95.63,140.24,96,140.37Z"/><path class="cls-3" d="M98.27,143.71c-.28.23-1.23-.45-2.17-1.48s-1.52-2-1.26-2.3,1.29.35,2.25,1.41S98.55,143.48,98.27,143.71Z"/><path class="cls-3" d="M80.76,149.27c-.2-.34,3.27-2.62,6.95-6.09,1.86-1.72,3.42-3.41,4.55-4.63.57-.61,1-1.12,1.37-1.45l.16-.15s0,0,0,0,0,0,0,0l0-.05s0,0-.06,0-.06,0-.07-.07a.21.21,0,0,1,.19-.17.24.24,0,0,1,.22.08.36.36,0,0,1,.08.25,1,1,0,0,1-.14.39,15.87,15.87,0,0,1-1,1.73,32.61,32.61,0,0,1-9.68,9C81.84,149,80.85,149.42,80.76,149.27Z"/><path class="cls-3" d="M85.32,146.39c0,.36-1,.79-2.36.78a5.23,5.23,0,0,1-1.7-.26l-.34-.14a.68.68,0,0,1-.28-.27.3.3,0,0,1,0-.33.11.11,0,0,1,.15,0l.09.07s0,0,.12-.08a.86.86,0,0,1,.11-.08s.13-.06.23-.08a8.54,8.54,0,0,1,1.63-.13C84.23,145.85,85.28,146,85.32,146.39Z"/><path class="cls-3" d="M86.21,148.71c-.36-.08-.49-.92-.34-1.89s.5-1.74.87-1.71.59.88.44,1.9S86.57,148.78,86.21,148.71Z"/><path class="cls-3" d="M84.65,142.27c.12-.35.91-.39,1.79-.15s1.54.68,1.46,1-.89.49-1.81.24S84.53,142.62,84.65,142.27Z"/><path class="cls-3" d="M90.48,145.58c-.37,0-.58-1.07-.55-2.33s.3-2.29.67-2.3.69,1,.66,2.33S90.84,145.6,90.48,145.58Z"/><path class="cls-3" d="M54.9,147.77c.05-.09.41.07,1.07.14a9.85,9.85,0,0,0,2.84-.22c2.46-.43,5.84-1.05,9.52-2s7-1.94,9.34-2.71,3.79-1.33,3.88-1.18c.23.41-5.4,3.33-12.91,5.18a60.57,60.57,0,0,1-9.73,1.61,7.55,7.55,0,0,1-3.07-.2C55.14,148.17,54.85,147.84,54.9,147.77Z"/><path class="cls-3" d="M57.44,141.2c.17-.33,2.85.72,6.09,2.12s5.84,2.65,5.71,3-3-.35-6.24-1.78S57.27,141.52,57.44,141.2Z"/><path class="cls-3" d="M63.85,137.24c.36.06.38,1.69,0,3.64a14.58,14.58,0,0,1-.62,2.46A2.92,2.92,0,0,1,63,144a1.08,1.08,0,0,0-.09.12s0,.09,0,.14-.07.07-.15,0a.42.42,0,0,1-.24-.26,3,3,0,0,1-.1-.86,14.69,14.69,0,0,1,.24-2.53C62.92,138.71,63.49,137.18,63.85,137.24Z"/><ellipse class="cls-3" cx="61.27" cy="150.43" rx="3.63" ry="0.66" transform="translate(-89.96 91.18) rotate(-46.44)"/><path class="cls-3" d="M55.31,145.42c.14-.12.44,0,.88.13a9.08,9.08,0,0,1,1.7.88c1.26.82,2.13,1.73,1.93,2s-1.39-.11-2.65-.92a8.07,8.07,0,0,1-1.53-1.23C55.28,145.91,55.18,145.54,55.31,145.42Z"/><path class="cls-3" d="M60.17,139c.37,0,.59.81.64,1.73s-.1,1.71-.46,1.78-.81-.69-.86-1.72S59.81,139,60.17,139Z"/><ellipse class="cls-3" cx="60.95" cy="144.71" rx="2.73" ry="0.66" transform="matrix(1, -0.05, 0.05, 1, -7.09, 3.2)"/><path class="cls-3" d="M61.55,153.61c-.37,0-.64-.62-.85-1.31s-.28-1.35,0-1.56,1,.27,1.25,1.2S61.91,153.64,61.55,153.61Z"/><path class="cls-3" d="M69,150.76c-.22-.3,1.29-1.76,3.11-3.55.92-.89,1.74-1.7,2.38-2.27a9.16,9.16,0,0,1,.75-.61c.15-.1.2-.2.29-.24s.1,0,.15.09a.56.56,0,0,1,0,.38,4,4,0,0,1-.5,1A15.35,15.35,0,0,1,73,148.16C71.11,150,69.18,151.06,69,150.76Z"/><path class="cls-3" d="M49.93,142.57c-.1.15-1.46-.54-3.59-1.78s-5-3-8.13-5.16a41.59,41.59,0,0,1-7.36-6.32c-1.66-1.87-2.4-3.24-2.27-3.33s1.15,1,2.94,2.68A67.17,67.17,0,0,0,39,134.54c3.06,2.12,5.9,4,7.89,5.46S50,142.41,49.93,142.57Z"/><path class="cls-3" d="M31.45,125.8c.32-.17,1.17.79,1.89,2.14.18.34.33.67.46,1a2.91,2.91,0,0,1,.25,1,1.17,1.17,0,0,1-.2.76c-.12.15-.25.18-.33.14s-.12-.15-.17-.27a3.68,3.68,0,0,0-.22-.42c-.1-.17-.24-.38-.41-.64a10.64,10.64,0,0,1-.55-.93C31.45,127.21,31.13,126,31.45,125.8Z"/><path class="cls-3" d="M36.64,133.55c0,.37-1.45.51-3.16.41s-3.09-.42-3.09-.78,1.42-.65,3.17-.54S36.68,133.19,36.64,133.55Z"/><path class="cls-3" d="M38.67,129.71c.37,0,.66,1.32,1,2.89s.68,2.88.35,3-1.24-1-1.64-2.75S38.31,129.7,38.67,129.71Z"/><path class="cls-3" d="M42.43,137.08c.11.36-.87,1-2.08,1.59s-2.28,1.06-2.5.77.56-1.27,1.9-1.95S42.33,136.74,42.43,137.08Z"/><path class="cls-3" d="M43.55,134.8c.35-.11,1,.9,1.51,2.2s.85,2.43.53,2.61-1.17-.72-1.75-2.1S43.2,134.9,43.55,134.8Z"/><path class="cls-3" d="M39.32,144.87c-.1-.34,3.34-1.58,7.78-2.11s8.07-.16,8.06.2-3.56.59-7.9,1.12S39.42,145.23,39.32,144.87Z"/><path class="cls-3" d="M42.44,146.3c-.35-.09-.43-.92.08-1.71s1.29-1.08,1.52-.8,0,.89-.4,1.51S42.8,146.39,42.44,146.3Z"/><path class="cls-3" d="M47.17,146.51c-.36,0-.63-.81-.4-1.76s.85-1.53,1.18-1.37.31.89.11,1.69S47.53,146.53,47.17,146.51Z"/><path class="cls-3" d="M40.47,140.4c.23-.29,1.35.24,2.6,1a9.07,9.07,0,0,1,1.85,1.42l-.48.25c.14-.23.28-.35.4-.33s.21.18.27.44l.06.29-.54,0a5.65,5.65,0,0,1-2.25-.9C41,141.71,40.24,140.68,40.47,140.4Z"/><path class="cls-3" d="M17.18,108.38c.21,0,.28,1.17.66,3l.16.7c.06.24.14.49.21.75.13.52.34,1.06.54,1.63A20.46,20.46,0,0,0,22.85,121c.42.43.81.86,1.21,1.21.2.18.38.37.58.52l.56.46c1.43,1.15,2.45,1.73,2.36,1.92s-1.24-.14-2.9-1.15l-.64-.41c-.22-.15-.43-.32-.66-.49A16.15,16.15,0,0,1,22,121.9a17.29,17.29,0,0,1-4.37-7.06,16.1,16.1,0,0,1-.45-1.77c-.05-.28-.12-.55-.15-.81l-.08-.76C16.75,109.56,17,108.37,17.18,108.38Z"/><path class="cls-3" d="M21.9,98.37c.17.13-.71,1.2-1.18,3.24a12.08,12.08,0,0,0-.24,3.64,18,18,0,0,0,1,4.4c.54,1.53,1.18,3,1.77,4.28s1.12,2.52,1.51,3.55c.79,2.08,1,3.46.81,3.5s-.68-1.2-1.67-3.13l-1.75-3.4a36.37,36.37,0,0,1-1.92-4.37,16.32,16.32,0,0,1-1-4.77,11,11,0,0,1,.56-4A7.52,7.52,0,0,1,21.11,99C21.53,98.51,21.84,98.32,21.9,98.37Z"/><path class="cls-3" d="M24.16,104c.28.26-.84,1.81-1.66,3.94s-1.07,4-1.46,4c-.18,0-.35-.5-.38-1.33a8.68,8.68,0,0,1,2.31-5.9C23.56,104.12,24,103.87,24.16,104Z"/><path class="cls-3" d="M25.54,107c.09.35-.68.85-1.74.9s-1.87-.36-1.82-.72.83-.56,1.75-.61S25.45,106.61,25.54,107Z"/><path class="cls-3" d="M16.15,101.84c.22-.3,1-.08,2,.28s1.66.76,1.61,1.13-1,.53-2.1.1S15.94,102.13,16.15,101.84Z"/><path class="cls-3" d="M17.77,97.41c.36-.09.87.75,1.55,1.64s1.32,1.63,1.13,2c-.1.15-.41.16-.84,0a3.81,3.81,0,0,1-2.05-2.76C17.5,97.76,17.59,97.46,17.77,97.41Z"/><path class="cls-3" d="M13.35,113.63c.11-.35,1.3-.29,2.61.28s2.16,1.41,2,1.72-1.28,0-2.51-.5S13.24,114,13.35,113.63Z"/><path class="cls-3" d="M20.59,118.83c0-.12.11-.22.3-.31l-.06.63a5.51,5.51,0,0,1-2,.1c-1.23-.11-2.23-.39-2.23-.76s1-.67,2.34-.56a4.18,4.18,0,0,1,2,.59l-.06.63C20.68,119.06,20.58,119,20.59,118.83Z"/><path class="cls-3" d="M21.69,118.36c.14-.11.39-.08.67.13a2.44,2.44,0,0,1,.86,2.3c-.08.33-.24.52-.42.53-.37,0-.67-.62-.94-1.33S21.41,118.6,21.69,118.36Z"/><ellipse class="cls-3" cx="19.62" cy="114.96" rx="0.66" ry="1.72"/><path class="cls-3" d="M26.25,70.73c.15.15-1,1.35-2.34,3.64a26.72,26.72,0,0,0-3.22,9.7,49,49,0,0,0-.12,10.36c.21,2.67.38,4.34.19,4.37s-.67-1.58-1.12-4.26a36.14,36.14,0,0,1-.26-10.65,23,23,0,0,1,3.74-10C24.71,71.59,26.15,70.61,26.25,70.73Z"/><path class="cls-3" d="M28,79.35c0,.18-.56.48-1.51.89A26.3,26.3,0,0,0,23,82a12.36,12.36,0,0,0-1.69,1.27,6.07,6.07,0,0,0-1.07,1.27c-.5.79-.51,1.43-.7,1.46s-.21-.14-.28-.47a2.69,2.69,0,0,1,.13-1.39,5,5,0,0,1,1.06-1.74,9,9,0,0,1,1.86-1.53,11.66,11.66,0,0,1,4-1.52C27.31,79.15,28,79.18,28,79.35Z"/><path class="cls-3" d="M12,71.66c.29-.21,2.46,2.34,4.62,5.84s3.48,6.57,3.16,6.75-2.15-2.59-4.29-6S11.66,71.88,12,71.66Z"/><path class="cls-3" d="M17.24,79.67c-.09.36-1.07.41-2.19.22s-2-.58-2-1,1-.57,2.22-.36S17.33,79.32,17.24,79.67Z"/><path class="cls-3" d="M15.63,73.06c.37,0,.66,1,.66,2.18a6.57,6.57,0,0,1-.05.84l-.08.56c0,.15,0,.26,0,.37a.55.55,0,0,1-.07.29.26.26,0,0,1-.32.05,1,1,0,0,1-.47-.45,2.26,2.26,0,0,1-.24-.81,6.67,6.67,0,0,1-.05-.86C15,74,15.27,73.06,15.63,73.06Z"/><path class="cls-3" d="M20.54,73.08c.31-.18,1.08.57,1.46,1.77s.18,2.26-.18,2.29-.75-.83-1.09-1.89S20.22,73.27,20.54,73.08Z"/><ellipse class="cls-3" cx="24.56" cy="73.72" rx="1.9" ry="0.66" transform="translate(-28.76 17.19) rotate(-24.9)"/><path class="cls-3" d="M23.6,78c.15.33-.37.9-1.17,1.25a3,3,0,0,1-1.1.28c-.07,0-.17,0-.19,0s.09-.1,0-.32-.13-.07-.16-.06a.19.19,0,0,0-.07.08s0,.09,0,.09H21a.08.08,0,0,1,.07,0,.1.1,0,0,1,0,.13.24.24,0,0,1-.15.08.23.23,0,0,1-.24-.12.45.45,0,0,1,.14-.54c.08-.08.09-.12.16-.18a3,3,0,0,1,.94-.63C22.68,77.69,23.45,77.68,23.6,78Z"/><path class="cls-3" d="M25.72,77.59c.18,0,.38.09.53.37a2.07,2.07,0,0,1-.3,2.22c-.22.23-.45.3-.61.22-.32-.19-.31-.8-.23-1.46S25.37,77.68,25.72,77.59Z"/><path class="cls-3" d="M22.64,84.81c.24.28-.17,1-.84,1.69s-1.4,1.09-1.69.85,0-1.06.75-1.79S22.4,84.53,22.64,84.81Z"/><path class="cls-3" d="M19.21,90.59c-.26.26-1.13-.19-2-.92s-1.48-1.51-1.27-1.81,1.19,0,2.12.79S19.47,90.33,19.21,90.59Z"/><path class="cls-3" d="M31.22,63.65c.11.16-.27.58-.53,1.4a11.2,11.2,0,0,0-.37,1.51l-.37,2c-.51,2.78-.8,5.08-1.18,5.08s-.67-2.41-.13-5.32a18.3,18.3,0,0,1,.49-2,6.28,6.28,0,0,1,.72-1.63,2.73,2.73,0,0,1,.88-.88C31,63.59,31.17,63.58,31.22,63.65Z"/><path class="cls-3" d="M39.44,62.72c.13.35-1.72,1.37-4.08,2.45S31,67,30.84,66.63s1.58-1.58,4-2.67S39.31,62.38,39.44,62.72Z"/><path class="cls-3" d="M26.16,64.36c.27-.25,1.1.22,2,.93s1.48,1.43,1.29,1.75-1.19.06-2.13-.72S25.89,64.6,26.16,64.36Z"/><path class="cls-3" d="M26,68c.22-.3,1-.06,1.87.36s1.51.92,1.42,1.28-1,.4-2-.09S25.77,68.25,26,68Z"/><ellipse class="cls-3" cx="35.81" cy="65.72" rx="0.66" ry="2.67" transform="translate(-38.91 69.86) rotate(-64.59)"/><path class="cls-3" d="M57.22,54.7c0,.39-5.8,1-12.86,2.34S31.67,60,31.54,59.61s5.4-2.52,12.56-3.88S57.21,54.35,57.22,54.7Z"/><path class="cls-3" d="M43.67,51.34c.24.27-1.34,2.08-3.54,4a32.22,32.22,0,0,1-2.94,2.36,7.69,7.69,0,0,1-1,.6s-.06,0-.07,0h0l-.07,0s-.06,0-.07,0,0,0,0,.07a.06.06,0,0,1,0,.06s-.13,0-.16-.11a.4.4,0,0,1,0-.23.42.42,0,0,1,0-.13l.07-.11a7.59,7.59,0,0,1,.71-.92,32,32,0,0,1,2.68-2.65C41.45,52.43,43.43,51.07,43.67,51.34Z"/><path class="cls-3" d="M56.34,59.7c0,.17-.58.39-1.58.42A9.47,9.47,0,0,1,51,59.38a9.77,9.77,0,0,1-1.88-1,13.27,13.27,0,0,1-1.3-1.07c-.65-.6-1.14-.78-1.14-1s.17-.17.47-.17a2.84,2.84,0,0,1,1.19.35c.46.24.91.54,1.43.82a17.31,17.31,0,0,0,1.74.84C54,59.23,56.32,59.32,56.34,59.7Z"/><path class="cls-3" d="M51.45,61.55a.53.53,0,0,1-.58-.2,1.78,1.78,0,0,1-.19-2c.15-.24.35-.35.52-.31.36.09.53.63.6,1.2S51.79,61.39,51.45,61.55Z"/><path class="cls-3" d="M55.07,61.84c-.24.27-1,0-1.38-.77s-.22-1.53.14-1.57.74.41,1,1S55.32,61.56,55.07,61.84Z"/><path class="cls-3" d="M55.67,56.71c-.28.24-1-.14-1.78-.65s-1.4-1-1.29-1.39,1.08-.34,2,.29S56,56.48,55.67,56.71Z"/><path class="cls-3" d="M38.13,51.85c.34-.16.89.32,1.43.92s.95,1.21.75,1.52-1.06.13-1.74-.64S37.8,52,38.13,51.85Z"/><ellipse class="cls-3" cx="43.21" cy="53.56" rx="0.66" ry="1.62" transform="translate(-14.73 90.69) rotate(-83.76)"/><path class="cls-3" d="M48.75,53.28c.28.24.1.9-.24,1.56s-.8,1.17-1.16,1.07-.45-.89,0-1.7S48.48,53,48.75,53.28Z"/><path class="cls-3" d="M81.06,53.9c-.35-.07-.43-1.12.14-2.21s1.46-1.63,1.73-1.38-.08,1.08-.55,2S81.42,54,81.06,53.9Z"/><path class="cls-3" d="M92.87,50.91c.07.36-1.12.9-2.62,1.33a12.07,12.07,0,0,1-2,.41l-.36,0a.65.65,0,0,1-.55-.15l-.05-.08a.33.33,0,0,1,0-.14.24.24,0,0,1,.12-.2.23.23,0,0,1,.2,0,.19.19,0,0,1,.09.08.08.08,0,0,1,0,.09.07.07,0,0,1-.07,0l0,0h0s0,0,0,0,0,.07,0,0l0,0h0l0,0h0a.31.31,0,0,0,0-.2c0-.05,0,0,0-.09l.31-.21a8,8,0,0,1,1.92-.8C91.44,50.52,92.8,50.55,92.87,50.91Z"/><path class="cls-3" d="M95,53.18c.1.35-.71.84-1.8,1.1s-2,.16-2.1-.2.74-.85,1.8-1.1S94.92,52.82,95,53.18Z"/><path class="cls-3" d="M111.06,138.81c-.15-.26,2.49-2,5.29-4.68,1.41-1.32,2.6-2.61,3.46-3.56.43-.47.78-.86,1-1.11l.13-.12s0,0,0,0,0,0,0,0l0,0s0,0,0,0,0,0-.05-.05a.15.15,0,0,1,.14-.13.18.18,0,0,1,.17.06.27.27,0,0,1,.06.19.75.75,0,0,1-.1.3,12.35,12.35,0,0,1-.8,1.32A24.92,24.92,0,0,1,113,138C111.88,138.63,111.13,138.92,111.06,138.81Z"/><path class="cls-3" d="M114.53,136.59c0,.28-.77.6-1.8.61a4,4,0,0,1-1.3-.19l-.26-.11a.52.52,0,0,1-.21-.21.23.23,0,0,1,0-.25.08.08,0,0,1,.11,0l.07,0a.18.18,0,0,0,.09-.06.49.49,0,0,1,.08-.06s.1,0,.17-.06a6.52,6.52,0,0,1,1.25-.1C113.69,136.18,114.5,136.31,114.53,136.59Z"/><path class="cls-3" d="M115.22,138.36c-.27-.06-.37-.7-.27-1.44s.38-1.33.66-1.31.46.67.34,1.45S115.49,138.41,115.22,138.36Z"/><path class="cls-3" d="M114,133.44c.09-.27.7-.3,1.36-.12s1.17.51,1.12.79-.68.38-1.38.19S113.92,133.71,114,133.44Z"/><path class="cls-3" d="M118.47,135.95c-.28,0-.45-.81-.43-1.78s.22-1.75.5-1.76.53.79.51,1.78S118.75,136,118.47,135.95Z"/><path class="cls-3" d="M28.17,141c-.24.18-2.28-2.24-5.25-4.72C21.45,135,20,134,19,133.26c-.52-.37-.94-.68-1.22-.91l-.13-.11s0,0,0,0,0,0,0,0l0,0s0,0,0,0,0,0,0,.06a.15.15,0,0,1-.15-.13.19.19,0,0,1,0-.17.27.27,0,0,1,.18-.08A.73.73,0,0,1,18,132a12.23,12.23,0,0,1,1.4.64,23.94,23.94,0,0,1,4.2,2.87,23.76,23.76,0,0,1,3.53,3.66C27.89,140.22,28.27,140.94,28.17,141Z"/><path class="cls-3" d="M25.57,137.82c.27-.07.69.69.81,1.72a4,4,0,0,1,0,1.31c0,.09,0,.14-.08.28a.53.53,0,0,1-.18.23.23.23,0,0,1-.25,0,.08.08,0,0,1,0-.11l0-.07s0,0-.07-.08a.51.51,0,0,1-.07-.08s-.05-.09-.08-.16a6.64,6.64,0,0,1-.25-1.23C25.26,138.7,25.3,137.89,25.57,137.82Z"/><path class="cls-3" d="M27.25,136.94c0,.28-.65.45-1.4.43s-1.37-.23-1.37-.51.62-.53,1.4-.51S27.27,136.66,27.25,136.94Z"/><path class="cls-3" d="M22.5,138.7c-.27-.06-.38-.66-.28-1.34s.38-1.23.66-1.2.45.63.35,1.35S22.78,138.76,22.5,138.7Z"/><path class="cls-3" d="M24.49,134c0,.28-.76.54-1.72.63s-1.76,0-1.8-.3.72-.62,1.71-.71S24.48,133.7,24.49,134Z"/><path class="cls-3" d="M60.75,39.86c0,.3-3.08.85-6.72,2.17-1.82.65-3.43,1.36-4.59,1.88-.58.26-1.05.47-1.39.6l-.16.06s0,0,0,0,0,0,0,0l0,.05s0,0,.05,0,0,0,0,.07a.16.16,0,0,1-.19.06.18.18,0,0,1-.13-.13.27.27,0,0,1,0-.2.72.72,0,0,1,.21-.23,12,12,0,0,1,1.26-.9,24.95,24.95,0,0,1,9.53-3.42C59.92,39.7,60.73,39.73,60.75,39.86Z"/><path class="cls-3" d="M56.68,40.51c.08-.27.94-.25,1.89.16a4,4,0,0,1,1.11.7l.2.2a.51.51,0,0,1,.11.27.23.23,0,0,1-.1.23.08.08,0,0,1-.11,0l0-.07a.19.19,0,0,0-.11,0l-.1,0s-.11,0-.18,0a6.47,6.47,0,0,1-1.18-.4C57.29,41.22,56.6,40.78,56.68,40.51Z"/><path class="cls-3" d="M56.76,38.62c.23.16.06.79-.33,1.43s-.88,1.07-1.13.94-.15-.8.26-1.47S56.53,38.45,56.76,38.62Z"/><path class="cls-3" d="M55.91,43.6c-.19.21-.76,0-1.3-.43s-.87-.94-.71-1.17.77-.08,1.34.38S56.09,43.4,55.91,43.6Z"/><path class="cls-3" d="M52.81,39.52c.25.13.09.93-.31,1.8s-.9,1.52-1.16,1.41-.17-.93.24-1.83S52.57,39.39,52.81,39.52Z"/><rect class="cls-4" x="8.87" y="8.8" width="123.15" height="176.34"/><path class="cls-3" d="M84.56,80.09a1.29,1.29,0,0,0-.79,0,.8.8,0,0,0-.5.62,1,1,0,0,0,.34.78,1.11,1.11,0,0,0,1,.29.91.91,0,0,0,.69-.74.64.64,0,0,0,0-.27.84.84,0,0,0-.12-.23,1.41,1.41,0,0,0-.43-.44.73.73,0,0,0-.58-.09"/><path class="cls-3" d="M90.28,19.94a.7.7,0,0,0-.44,0,.44.44,0,0,0-.28.34.52.52,0,0,0,.19.43.61.61,0,0,0,.53.16.5.5,0,0,0,.38-.41.35.35,0,0,0,0-.15.45.45,0,0,0-.06-.13.77.77,0,0,0-.24-.24.39.39,0,0,0-.32,0"/><path class="cls-3" d="M110.5,32.75a.7.7,0,0,0-.44,0,.44.44,0,0,0-.28.34.52.52,0,0,0,.19.43.61.61,0,0,0,.53.16.5.5,0,0,0,.38-.41.39.39,0,0,0,0-.15.47.47,0,0,0-.06-.13.78.78,0,0,0-.24-.24.4.4,0,0,0-.32,0"/><path class="cls-3" d="M118.4,17.42a.7.7,0,0,0-.44,0,.44.44,0,0,0-.28.34.52.52,0,0,0,.19.43.61.61,0,0,0,.53.16.5.5,0,0,0,.38-.41.36.36,0,0,0,0-.15.46.46,0,0,0-.06-.13.75.75,0,0,0-.24-.24.4.4,0,0,0-.32,0"/><path class="cls-3" d="M108.82,50.91a.71.71,0,0,0-.44,0,.44.44,0,0,0-.28.34.52.52,0,0,0,.19.43.61.61,0,0,0,.53.16.5.5,0,0,0,.38-.41.36.36,0,0,0,0-.15.43.43,0,0,0-.06-.13.76.76,0,0,0-.24-.24.4.4,0,0,0-.32,0"/><path class="cls-3" d="M121.9,30a1,1,0,0,0-.59,0,.6.6,0,0,0-.37.46.71.71,0,0,0,.25.59.83.83,0,0,0,.72.22.68.68,0,0,0,.51-.55.51.51,0,0,0,0-.2.65.65,0,0,0-.09-.17A1,1,0,0,0,122,30a.54.54,0,0,0-.43-.06"/><path class="cls-3" d="M124.78,46.43a1,1,0,0,0-.59,0,.59.59,0,0,0-.37.46.71.71,0,0,0,.25.59.83.83,0,0,0,.72.21.68.68,0,0,0,.51-.55.5.5,0,0,0,0-.2.66.66,0,0,0-.09-.18,1,1,0,0,0-.32-.33.55.55,0,0,0-.43-.06"/><path class="cls-3" d="M123.1,152.9a1,1,0,0,0-.59,0,.6.6,0,0,0-.37.46.71.71,0,0,0,.25.59.83.83,0,0,0,.72.21.68.68,0,0,0,.51-.55.48.48,0,0,0,0-.2.63.63,0,0,0-.09-.18,1,1,0,0,0-.33-.33.55.55,0,0,0-.43-.06"/><path class="cls-3" d="M123.1,128.09a1,1,0,0,0-.59,0,.6.6,0,0,0-.37.46.71.71,0,0,0,.25.59.83.83,0,0,0,.72.22.68.68,0,0,0,.51-.55.49.49,0,0,0,0-.2.63.63,0,0,0-.09-.17,1,1,0,0,0-.33-.33.54.54,0,0,0-.43-.06"/><path class="cls-3" d="M97.49,147.7a1,1,0,0,0-.59,0,.6.6,0,0,0-.37.46.7.7,0,0,0,.25.59.83.83,0,0,0,.72.22.68.68,0,0,0,.51-.55.47.47,0,0,0,0-.2.6.6,0,0,0-.09-.18,1,1,0,0,0-.32-.33.54.54,0,0,0-.43-.06"/><path class="cls-3" d="M33.48,158.88a1,1,0,0,0-.59,0,.6.6,0,0,0-.37.46.7.7,0,0,0,.25.59.83.83,0,0,0,.72.22.68.68,0,0,0,.51-.55.49.49,0,0,0,0-.2.6.6,0,0,0-.09-.17,1,1,0,0,0-.32-.33.55.55,0,0,0-.43-.06"/><path class="cls-3" d="M16.76,160.56a1,1,0,0,0-.59,0,.6.6,0,0,0-.37.46.71.71,0,0,0,.25.59.83.83,0,0,0,.72.21.68.68,0,0,0,.51-.55.51.51,0,0,0,0-.2.66.66,0,0,0-.09-.18,1,1,0,0,0-.32-.33.55.55,0,0,0-.43-.06"/><path class="cls-3" d="M31.55,146.69a1,1,0,0,0-.59,0,.6.6,0,0,0-.37.46.71.71,0,0,0,.25.59.83.83,0,0,0,.72.21.68.68,0,0,0,.51-.55.51.51,0,0,0,0-.2A.61.61,0,0,0,32,147a1,1,0,0,0-.33-.33.55.55,0,0,0-.43-.06"/><path class="cls-3" d="M104.3,165.55a1,1,0,0,0-.59,0,.6.6,0,0,0-.37.46.71.71,0,0,0,.25.59.83.83,0,0,0,.72.22.68.68,0,0,0,.51-.55.5.5,0,0,0,0-.2.62.62,0,0,0-.09-.18,1,1,0,0,0-.33-.33.54.54,0,0,0-.43-.06"/><path class="cls-3" d="M87.45,161.92a1,1,0,0,0-.59,0,.6.6,0,0,0-.37.46.71.71,0,0,0,.26.59.83.83,0,0,0,.72.22.68.68,0,0,0,.51-.55.47.47,0,0,0,0-.2.61.61,0,0,0-.09-.18,1,1,0,0,0-.32-.33.54.54,0,0,0-.43-.06"/><path class="cls-3" d="M20.38,177.45a1,1,0,0,0-.59,0,.6.6,0,0,0-.37.46.7.7,0,0,0,.25.59.83.83,0,0,0,.72.21.68.68,0,0,0,.51-.55.47.47,0,0,0,0-.2.6.6,0,0,0-.09-.18,1,1,0,0,0-.32-.33.55.55,0,0,0-.43-.06"/><path class="cls-3" d="M59.29,161.24a1,1,0,0,0-.59,0,.6.6,0,0,0-.37.46.71.71,0,0,0,.26.59.83.83,0,0,0,.72.22.68.68,0,0,0,.51-.55.48.48,0,0,0,0-.2.63.63,0,0,0-.09-.18,1,1,0,0,0-.32-.33.54.54,0,0,0-.43-.06"/><path class="cls-3" d="M16.72,58.2a1.31,1.31,0,0,0-.81,0,.82.82,0,0,0-.51.63,1,1,0,0,0,.35.8,1.13,1.13,0,0,0,1,.29.93.93,0,0,0,.7-.76.67.67,0,0,0,0-.27.85.85,0,0,0-.12-.24,1.41,1.41,0,0,0-.44-.45.74.74,0,0,0-.59-.09"/><path class="cls-3" d="M57.2,21a1.3,1.3,0,0,0-.81,0,.81.81,0,0,0-.51.63,1,1,0,0,0,.35.8,1.13,1.13,0,0,0,1,.29.93.93,0,0,0,.7-.76.66.66,0,0,0,0-.27.85.85,0,0,0-.12-.24,1.42,1.42,0,0,0-.44-.45.74.74,0,0,0-.59-.09"/><path class="cls-3" d="M115.1,41.92a1.31,1.31,0,0,0-.81,0,.81.81,0,0,0-.51.63,1,1,0,0,0,.35.8,1.13,1.13,0,0,0,1,.29.93.93,0,0,0,.7-.76.69.69,0,0,0,0-.27.9.9,0,0,0-.12-.24,1.42,1.42,0,0,0-.44-.45.74.74,0,0,0-.59-.09"/><path class="cls-3" d="M115.1,141.74a1.31,1.31,0,0,0-.81,0,.81.81,0,0,0-.51.63,1,1,0,0,0,.35.8,1.13,1.13,0,0,0,1,.29.93.93,0,0,0,.7-.76.69.69,0,0,0,0-.27.88.88,0,0,0-.12-.24,1.42,1.42,0,0,0-.44-.45.74.74,0,0,0-.59-.09"/><path class="cls-3" d="M122.16,166.25a1.3,1.3,0,0,0-.81,0,.82.82,0,0,0-.51.63,1,1,0,0,0,.35.8,1.13,1.13,0,0,0,1,.29.93.93,0,0,0,.7-.76.67.67,0,0,0,0-.27.87.87,0,0,0-.12-.24,1.43,1.43,0,0,0-.44-.45.74.74,0,0,0-.59-.09"/><path class="cls-3" d="M58.38,176.3a1.3,1.3,0,0,0-.81,0,.81.81,0,0,0-.51.63,1,1,0,0,0,.35.8,1.13,1.13,0,0,0,1,.29.93.93,0,0,0,.7-.75.67.67,0,0,0,0-.27.86.86,0,0,0-.12-.24,1.43,1.43,0,0,0-.44-.45.74.74,0,0,0-.59-.09"/><path class="cls-3" d="M102,25a1,1,0,0,0-.59,0,.6.6,0,0,0-.37.46.7.7,0,0,0,.25.59.83.83,0,0,0,.72.22.68.68,0,0,0,.51-.55.47.47,0,0,0,0-.2.58.58,0,0,0-.09-.18,1,1,0,0,0-.32-.33.55.55,0,0,0-.43-.06"/><path class="cls-3" d="M25.6,19.27a1,1,0,0,0-.59,0,.6.6,0,0,0-.37.46.71.71,0,0,0,.26.59.82.82,0,0,0,.72.21.68.68,0,0,0,.51-.55.49.49,0,0,0,0-.2.59.59,0,0,0-.09-.17,1,1,0,0,0-.32-.33.54.54,0,0,0-.43-.06"/><path class="cls-3" d="M72.37,16.76a1,1,0,0,0-.59,0,.6.6,0,0,0-.37.46.71.71,0,0,0,.25.59.83.83,0,0,0,.72.22.68.68,0,0,0,.51-.55.5.5,0,0,0,0-.2.64.64,0,0,0-.09-.18,1,1,0,0,0-.33-.33.54.54,0,0,0-.43-.06"/><path class="cls-3" d="M55.67,33.59a1,1,0,0,0-.59,0,.6.6,0,0,0-.37.46.71.71,0,0,0,.25.59.83.83,0,0,0,.72.21.68.68,0,0,0,.51-.55.49.49,0,0,0,0-.2.63.63,0,0,0-.09-.17,1,1,0,0,0-.33-.33.55.55,0,0,0-.43-.06"/><path class="cls-3" d="M35.27,34.77a1,1,0,0,0-.59,0,.6.6,0,0,0-.37.46.71.71,0,0,0,.25.59.83.83,0,0,0,.72.22.68.68,0,0,0,.51-.55.5.5,0,0,0,0-.2.6.6,0,0,0-.09-.18,1,1,0,0,0-.33-.33.54.54,0,0,0-.43-.06"/><path class="cls-3" d="M106.5,12.29a1,1,0,0,0-.59,0,.6.6,0,0,0-.37.46.71.71,0,0,0,.25.59.83.83,0,0,0,.72.21A.68.68,0,0,0,107,13a.48.48,0,0,0,0-.2.61.61,0,0,0-.09-.17,1,1,0,0,0-.32-.33.54.54,0,0,0-.43-.06"/><path class="cls-3" d="M118.4,61.41a.7.7,0,0,0-.44,0,.44.44,0,0,0-.28.34.52.52,0,0,0,.19.43.61.61,0,0,0,.53.16.5.5,0,0,0,.38-.41.36.36,0,0,0,0-.15.46.46,0,0,0-.06-.13.75.75,0,0,0-.24-.24.4.4,0,0,0-.32,0"/><path class="cls-3" d="M123.79,141.63a.7.7,0,0,0-.44,0,.44.44,0,0,0-.28.34.52.52,0,0,0,.19.43.61.61,0,0,0,.53.16.5.5,0,0,0,.38-.41.39.39,0,0,0,0-.15.45.45,0,0,0-.07-.13.75.75,0,0,0-.24-.24.4.4,0,0,0-.32,0"/><path class="cls-3" d="M124.72,107.08a.71.71,0,0,0-.44,0,.44.44,0,0,0-.28.34.52.52,0,0,0,.19.43.61.61,0,0,0,.53.16.5.5,0,0,0,.38-.41.36.36,0,0,0,0-.15.44.44,0,0,0-.06-.13.76.76,0,0,0-.24-.24.39.39,0,0,0-.32,0"/><path class="cls-3" d="M106.62,149.6a.71.71,0,0,0-.44,0,.44.44,0,0,0-.28.34.52.52,0,0,0,.19.43.61.61,0,0,0,.53.16.5.5,0,0,0,.38-.41.35.35,0,0,0,0-.15.49.49,0,0,0-.06-.13.78.78,0,0,0-.24-.24.4.4,0,0,0-.32,0"/><path class="cls-3" d="M72.31,153.74a.7.7,0,0,0-.44,0,.44.44,0,0,0-.28.34.52.52,0,0,0,.19.43.6.6,0,0,0,.53.16.5.5,0,0,0,.38-.41.37.37,0,0,0,0-.15.48.48,0,0,0-.06-.13.77.77,0,0,0-.24-.24.4.4,0,0,0-.32,0"/><path class="cls-3" d="M35.57,172.7a.71.71,0,0,0-.44,0,.44.44,0,0,0-.28.34.52.52,0,0,0,.19.43.61.61,0,0,0,.53.16.5.5,0,0,0,.38-.41.39.39,0,0,0,0-.15.48.48,0,0,0-.06-.13.78.78,0,0,0-.24-.24.4.4,0,0,0-.32,0"/><path class="cls-3" d="M91.33,172.7a.71.71,0,0,0-.44,0,.44.44,0,0,0-.28.34.52.52,0,0,0,.19.43.61.61,0,0,0,.53.16.5.5,0,0,0,.38-.41.37.37,0,0,0,0-.15.49.49,0,0,0-.06-.13.78.78,0,0,0-.24-.24.4.4,0,0,0-.32,0"/><path class="cls-3" d="M106.07,178.88a.7.7,0,0,0-.44,0,.44.44,0,0,0-.28.34.52.52,0,0,0,.19.43.61.61,0,0,0,.53.16.5.5,0,0,0,.38-.41.35.35,0,0,0,0-.15.46.46,0,0,0-.06-.13.78.78,0,0,0-.24-.24.4.4,0,0,0-.32,0"/><path class="cls-3" d="M78.18,175.26a.71.71,0,0,0-.44,0,.44.44,0,0,0-.28.34.52.52,0,0,0,.19.43.61.61,0,0,0,.53.16.5.5,0,0,0,.38-.41.36.36,0,0,0,0-.15.45.45,0,0,0-.07-.13.77.77,0,0,0-.24-.24.4.4,0,0,0-.32,0"/><path class="cls-3" d="M113.81,157.86a.71.71,0,0,0-.44,0,.44.44,0,0,0-.28.34.53.53,0,0,0,.19.43.61.61,0,0,0,.53.16.5.5,0,0,0,.38-.41.37.37,0,0,0,0-.15.45.45,0,0,0-.06-.13.76.76,0,0,0-.24-.24.4.4,0,0,0-.32,0"/><path class="cls-3" d="M49.3,154.8a.7.7,0,0,0-.44,0,.44.44,0,0,0-.28.34.52.52,0,0,0,.19.43.61.61,0,0,0,.53.16.5.5,0,0,0,.38-.41.35.35,0,0,0,0-.15.43.43,0,0,0-.06-.13.76.76,0,0,0-.24-.24.4.4,0,0,0-.32,0"/><path class="cls-3" d="M16.71,150.1a.71.71,0,0,0-.44,0,.44.44,0,0,0-.28.34.52.52,0,0,0,.19.43.61.61,0,0,0,.53.16.5.5,0,0,0,.38-.41.39.39,0,0,0,0-.15.49.49,0,0,0-.06-.13.78.78,0,0,0-.24-.24.4.4,0,0,0-.32,0"/><path class="cls-3" d="M97.43,41.81a.71.71,0,0,0-.44,0,.44.44,0,0,0-.28.34.52.52,0,0,0,.19.43.61.61,0,0,0,.53.16.5.5,0,0,0,.38-.41.35.35,0,0,0,0-.15.43.43,0,0,0-.06-.13.76.76,0,0,0-.24-.24.4.4,0,0,0-.32,0"/><path class="cls-3" d="M91.28,33.25a.7.7,0,0,0-.44,0,.44.44,0,0,0-.28.34.52.52,0,0,0,.19.43.61.61,0,0,0,.53.16.5.5,0,0,0,.38-.41.33.33,0,0,0,0-.15.45.45,0,0,0-.06-.13.78.78,0,0,0-.24-.24.39.39,0,0,0-.32,0"/><path class="cls-3" d="M82.46,39.45a.7.7,0,0,0-.44,0,.44.44,0,0,0-.28.34.52.52,0,0,0,.19.43.61.61,0,0,0,.53.16.5.5,0,0,0,.38-.41.35.35,0,0,0,0-.15.42.42,0,0,0-.06-.13.77.77,0,0,0-.24-.24.4.4,0,0,0-.32,0"/><path class="cls-3" d="M71,38.95a.71.71,0,0,0-.44,0,.44.44,0,0,0-.28.34.52.52,0,0,0,.19.43.61.61,0,0,0,.53.16.5.5,0,0,0,.38-.41.35.35,0,0,0,0-.15.46.46,0,0,0-.06-.13A.76.76,0,0,0,71.1,39a.4.4,0,0,0-.32,0"/><path class="cls-3" d="M75.69,24.52a.7.7,0,0,0-.44,0,.44.44,0,0,0-.28.34.52.52,0,0,0,.19.43.61.61,0,0,0,.53.16.5.5,0,0,0,.38-.41.37.37,0,0,0,0-.15.52.52,0,0,0-.06-.13.75.75,0,0,0-.24-.24.4.4,0,0,0-.32,0"/><path class="cls-3" d="M42.67,12.45a.7.7,0,0,0-.44,0,.44.44,0,0,0-.28.34.52.52,0,0,0,.19.43.61.61,0,0,0,.53.16.5.5,0,0,0,.38-.41.37.37,0,0,0,0-.15.48.48,0,0,0-.06-.13.78.78,0,0,0-.24-.24.4.4,0,0,0-.32,0"/><path class="cls-3" d="M42.28,24.52a.7.7,0,0,0-.44,0,.44.44,0,0,0-.28.34.52.52,0,0,0,.19.43.61.61,0,0,0,.53.16.5.5,0,0,0,.38-.41.35.35,0,0,0,0-.15.43.43,0,0,0-.06-.13.75.75,0,0,0-.24-.24.4.4,0,0,0-.32,0"/><path class="cls-3" d="M16.71,29.46a.71.71,0,0,0-.44,0,.44.44,0,0,0-.28.34.52.52,0,0,0,.19.43.61.61,0,0,0,.53.16.5.5,0,0,0,.38-.41.39.39,0,0,0,0-.15.48.48,0,0,0-.06-.13.76.76,0,0,0-.24-.24.4.4,0,0,0-.32,0"/><path class="cls-3" d="M23.88,41.81a.71.71,0,0,0-.44,0,.44.44,0,0,0-.28.34.52.52,0,0,0,.19.43.61.61,0,0,0,.53.16.5.5,0,0,0,.38-.41.35.35,0,0,0,0-.15.45.45,0,0,0-.06-.13.76.76,0,0,0-.24-.24.4.4,0,0,0-.32,0"/><path class="cls-3" d="M31.78,50.45a.71.71,0,0,0-.44,0,.44.44,0,0,0-.28.34.52.52,0,0,0,.19.43.6.6,0,0,0,.53.16.5.5,0,0,0,.38-.41.37.37,0,0,0,0-.15.48.48,0,0,0-.06-.13.76.76,0,0,0-.24-.24.4.4,0,0,0-.32,0"/></g><rect class="cls-5" width="134.88" height="187.95"/><path class="cls-6" d="M81.17,61.43"/><path class="cls-7" d="M50.19,45.86a.68.68,0,0,0-.28.14.62.62,0,0,0-.2.35,1.18,1.18,0,0,0,.44,1.14,1.74,1.74,0,0,0,1.22.33.74.74,0,0,0,.29-.07c.28-.15.33-.53.31-.85a1.47,1.47,0,0,0-.15-.64,1.11,1.11,0,0,0-1-.55S50.35,45.81,50.19,45.86Z"/><path class="cls-7" d="M49.44,44.25a.4.4,0,0,0,.06.19.4.4,0,0,0,.2.16.74.74,0,0,0,.75-.17,1.1,1.1,0,0,0,.32-.73.48.48,0,0,0,0-.19c-.07-.19-.3-.25-.5-.27a.93.93,0,0,0-.41,0,.7.7,0,0,0-.44.58S49.43,44.14,49.44,44.25Z"/><path class="cls-7" d="M29.33,65.15a.4.4,0,0,0,.06.19.38.38,0,0,0,.2.16.74.74,0,0,0,.75-.17,1.1,1.1,0,0,0,.32-.73.46.46,0,0,0,0-.19c-.06-.19-.3-.25-.5-.27a.93.93,0,0,0-.41,0,.7.7,0,0,0-.44.58S29.32,65,29.33,65.15Z"/><path class="cls-7" d="M22.29,80.62a.42.42,0,0,0,.06.19.39.39,0,0,0,.2.16.74.74,0,0,0,.75-.17,1.09,1.09,0,0,0,.32-.73.45.45,0,0,0,0-.19c-.07-.19-.3-.25-.5-.27a.93.93,0,0,0-.41,0,.7.7,0,0,0-.44.58S22.28,80.52,22.29,80.62Z"/><path class="cls-7" d="M11.49,103.85a.41.41,0,0,0,.06.19.39.39,0,0,0,.2.16.74.74,0,0,0,.75-.17,1.09,1.09,0,0,0,.32-.73.48.48,0,0,0,0-.19c-.07-.19-.3-.25-.5-.27a.92.92,0,0,0-.41,0,.7.7,0,0,0-.44.58S11.48,103.75,11.49,103.85Z"/><path class="cls-7" d="M21.61,99a.43.43,0,0,0,.06.19.4.4,0,0,0,.2.16.74.74,0,0,0,.75-.17,1.1,1.1,0,0,0,.32-.73.5.5,0,0,0,0-.19c-.06-.19-.3-.25-.5-.27A.94.94,0,0,0,22,98a.7.7,0,0,0-.44.58S21.59,98.92,21.61,99Z"/><path class="cls-7" d="M32.31,126a.4.4,0,0,0,.06.19.39.39,0,0,0,.2.16.74.74,0,0,0,.75-.16,1.1,1.1,0,0,0,.32-.73.48.48,0,0,0,0-.19c-.07-.19-.3-.25-.5-.27a.94.94,0,0,0-.41,0,.7.7,0,0,0-.44.58S32.29,125.92,32.31,126Z"/><path class="cls-7" d="M44.55,146a.41.41,0,0,0,.06.19.39.39,0,0,0,.2.16.74.74,0,0,0,.75-.17,1.1,1.1,0,0,0,.32-.73.48.48,0,0,0,0-.19c-.07-.19-.3-.25-.5-.28a.94.94,0,0,0-.41,0,.7.7,0,0,0-.44.58S44.53,145.9,44.55,146Z"/><path class="cls-7" d="M70.15,137.67a.42.42,0,0,0,.06.19.39.39,0,0,0,.2.16.74.74,0,0,0,.75-.17,1.09,1.09,0,0,0,.32-.73.48.48,0,0,0,0-.19c-.07-.19-.3-.26-.5-.27a.92.92,0,0,0-.41,0,.7.7,0,0,0-.44.58S70.14,137.57,70.15,137.67Z"/><path class="cls-7" d="M91.12,132.7a.43.43,0,0,0,.06.19.39.39,0,0,0,.2.16.74.74,0,0,0,.75-.17,1.1,1.1,0,0,0,.32-.73.5.5,0,0,0,0-.19c-.06-.19-.3-.25-.5-.27a.91.91,0,0,0-.41,0,.7.7,0,0,0-.44.58S91.11,132.6,91.12,132.7Z"/><path class="cls-7" d="M109.12,125.95a.4.4,0,0,0,.06.19.39.39,0,0,0,.2.16.74.74,0,0,0,.75-.17,1.09,1.09,0,0,0,.32-.73.48.48,0,0,0,0-.19c-.07-.19-.3-.26-.5-.27a.93.93,0,0,0-.41,0,.7.7,0,0,0-.44.58S109.1,125.84,109.12,125.95Z"/><path class="cls-7" d="M113.53,96a.4.4,0,0,0,.06.19.39.39,0,0,0,.2.16.74.74,0,0,0,.75-.17,1.1,1.1,0,0,0,.32-.73.48.48,0,0,0,0-.19c-.07-.19-.3-.26-.5-.27a.92.92,0,0,0-.41,0,.7.7,0,0,0-.44.58S113.52,95.93,113.53,96Z"/><path class="cls-7" d="M116.36,72a.41.41,0,0,0,.06.19.38.38,0,0,0,.2.16.74.74,0,0,0,.75-.17,1.09,1.09,0,0,0,.32-.73.52.52,0,0,0,0-.19c-.07-.19-.3-.25-.5-.27a.93.93,0,0,0-.41,0,.7.7,0,0,0-.44.58S116.34,71.94,116.36,72Z"/><path class="cls-7" d="M96.11,50.44a.42.42,0,0,0,.06.19.4.4,0,0,0,.2.16.74.74,0,0,0,.75-.17,1.1,1.1,0,0,0,.32-.73.48.48,0,0,0,0-.19c-.07-.19-.3-.25-.5-.27a.93.93,0,0,0-.41,0,.7.7,0,0,0-.44.58S96.1,50.34,96.11,50.44Z"/><path class="cls-7" d="M70.15,49.13a.42.42,0,0,0,.06.19.39.39,0,0,0,.2.16.74.74,0,0,0,.75-.17,1.09,1.09,0,0,0,.32-.73.48.48,0,0,0,0-.19c-.07-.19-.3-.25-.5-.27a.92.92,0,0,0-.41,0,.7.7,0,0,0-.44.58S70.14,49,70.15,49.13Z"/><path class="cls-7" d="M31.37,66.35a1.36,1.36,0,0,0-.84,0A.85.85,0,0,0,30,67a1,1,0,0,0,.36.84,1.18,1.18,0,0,0,1,.31,1,1,0,0,0,.73-.79.71.71,0,0,0,0-.28.89.89,0,0,0-.12-.25,1.48,1.48,0,0,0-.46-.47.78.78,0,0,0-.62-.09"/><path class="cls-7" d="M10.85,79.69a1.36,1.36,0,0,0-.84,0,.85.85,0,0,0-.53.66,1,1,0,0,0,.36.84,1.18,1.18,0,0,0,1,.31,1,1,0,0,0,.73-.79.71.71,0,0,0,0-.28.89.89,0,0,0-.12-.25,1.48,1.48,0,0,0-.46-.47.77.77,0,0,0-.62-.09"/><path class="cls-7" d="M21.52,95.89a1.36,1.36,0,0,0-.84,0,.85.85,0,0,0-.54.66,1,1,0,0,0,.36.84,1.18,1.18,0,0,0,1,.31,1,1,0,0,0,.73-.79.69.69,0,0,0,0-.28.88.88,0,0,0-.12-.25,1.49,1.49,0,0,0-.46-.47.77.77,0,0,0-.62-.09"/><path class="cls-7" d="M18.24,120.28a1.36,1.36,0,0,0-.84,0,.85.85,0,0,0-.54.66,1,1,0,0,0,.36.84,1.18,1.18,0,0,0,1,.31,1,1,0,0,0,.73-.79.71.71,0,0,0,0-.28.88.88,0,0,0-.12-.25,1.47,1.47,0,0,0-.46-.47.77.77,0,0,0-.62-.09"/><path class="cls-7" d="M33.28,122.62a1.35,1.35,0,0,0-.84,0,.85.85,0,0,0-.53.66,1,1,0,0,0,.36.84,1.18,1.18,0,0,0,1,.31,1,1,0,0,0,.73-.79.71.71,0,0,0,0-.28.94.94,0,0,0-.12-.25,1.49,1.49,0,0,0-.46-.47.78.78,0,0,0-.62-.09"/><path class="cls-7" d="M48.87,143.3a1.36,1.36,0,0,0-.84,0,.85.85,0,0,0-.53.66,1,1,0,0,0,.36.84,1.18,1.18,0,0,0,1,.31,1,1,0,0,0,.73-.79.71.71,0,0,0,0-.28.87.87,0,0,0-.12-.25,1.48,1.48,0,0,0-.46-.47.78.78,0,0,0-.62-.09"/><path class="cls-7" d="M66.27,138.61a1.35,1.35,0,0,0-.84,0,.85.85,0,0,0-.54.66,1,1,0,0,0,.36.84,1.18,1.18,0,0,0,1,.31,1,1,0,0,0,.73-.79.71.71,0,0,0,0-.28.91.91,0,0,0-.12-.25,1.49,1.49,0,0,0-.46-.47.77.77,0,0,0-.62-.09"/><path class="cls-7" d="M86.84,133.36a1.36,1.36,0,0,0-.84,0,.85.85,0,0,0-.54.66,1,1,0,0,0,.36.84,1.18,1.18,0,0,0,1,.31,1,1,0,0,0,.73-.79.71.71,0,0,0,0-.28.92.92,0,0,0-.12-.25,1.48,1.48,0,0,0-.46-.47.78.78,0,0,0-.62-.09"/><path class="cls-7" d="M111.75,122.8a1.36,1.36,0,0,0-.84,0,.85.85,0,0,0-.54.66,1,1,0,0,0,.36.84,1.18,1.18,0,0,0,1,.31,1,1,0,0,0,.73-.79.68.68,0,0,0,0-.28.93.93,0,0,0-.12-.25,1.5,1.5,0,0,0-.46-.47.78.78,0,0,0-.62-.09"/><path class="cls-7" d="M112.49,97.73a1.36,1.36,0,0,0-.84,0,.85.85,0,0,0-.54.66,1,1,0,0,0,.36.84,1.18,1.18,0,0,0,1,.31,1,1,0,0,0,.73-.79.72.72,0,0,0,0-.28.93.93,0,0,0-.12-.25,1.48,1.48,0,0,0-.46-.47.78.78,0,0,0-.62-.09"/><path class="cls-7" d="M112.91,71.25a1.36,1.36,0,0,0-.84,0,.85.85,0,0,0-.54.66,1,1,0,0,0,.36.84,1.18,1.18,0,0,0,1,.31,1,1,0,0,0,.73-.79.7.7,0,0,0,0-.28.89.89,0,0,0-.13-.25,1.48,1.48,0,0,0-.46-.47.77.77,0,0,0-.62-.09"/><path class="cls-7" d="M94.89,58.46a1.37,1.37,0,0,0-.84,0,.85.85,0,0,0-.54.66,1,1,0,0,0,.36.84,1.18,1.18,0,0,0,1,.31,1,1,0,0,0,.73-.79.7.7,0,0,0,0-.28.9.9,0,0,0-.13-.25,1.5,1.5,0,0,0-.46-.47.78.78,0,0,0-.62-.09"/><path class="cls-7" d="M73.75,46.38a1.36,1.36,0,0,0-.84,0,.85.85,0,0,0-.53.66,1,1,0,0,0,.36.84,1.18,1.18,0,0,0,1,.31,1,1,0,0,0,.73-.79.71.71,0,0,0,0-.28.88.88,0,0,0-.12-.25,1.47,1.47,0,0,0-.46-.47.78.78,0,0,0-.62-.09"/><path class="cls-7" d="M119.48,110.63a.67.67,0,0,0-.42,0,.42.42,0,0,0-.27.33.5.5,0,0,0,.18.42.59.59,0,0,0,.51.15.48.48,0,0,0,.37-.39.33.33,0,0,0,0-.14.44.44,0,0,0-.06-.12.74.74,0,0,0-.23-.23.39.39,0,0,0-.31,0"/><path class="cls-7" d="M107.71,95.82a.67.67,0,0,0-.42,0,.43.43,0,0,0-.27.33.5.5,0,0,0,.18.42.59.59,0,0,0,.51.15.49.49,0,0,0,.37-.39.33.33,0,0,0,0-.14.44.44,0,0,0-.06-.13.78.78,0,0,0-.23-.23.39.39,0,0,0-.31,0"/><path class="cls-7" d="M115.78,74.51a.69.69,0,0,0-.42,0,.43.43,0,0,0-.27.33.5.5,0,0,0,.18.42.59.59,0,0,0,.51.15.48.48,0,0,0,.37-.4.35.35,0,0,0,0-.14.42.42,0,0,0-.06-.12.73.73,0,0,0-.23-.23.39.39,0,0,0-.31,0"/><path class="cls-7" d="M9,81.8a.68.68,0,0,0-.42,0,.43.43,0,0,0-.27.33.51.51,0,0,0,.18.42.59.59,0,0,0,.51.15.48.48,0,0,0,.37-.39.35.35,0,0,0,0-.14A.47.47,0,0,0,9.29,82a.78.78,0,0,0-.23-.23.39.39,0,0,0-.31,0"/><path class="cls-7" d="M93.72,48.64a.68.68,0,0,0-.42,0A.43.43,0,0,0,93,49a.51.51,0,0,0,.18.42.59.59,0,0,0,.51.15.49.49,0,0,0,.37-.4.37.37,0,0,0,0-.14.47.47,0,0,0-.06-.12.76.76,0,0,0-.23-.23.38.38,0,0,0-.31,0"/><path class="cls-7" d="M73.59,51.13a.69.69,0,0,0-.42,0,.42.42,0,0,0-.27.33.51.51,0,0,0,.18.42.59.59,0,0,0,.51.15.49.49,0,0,0,.37-.4.36.36,0,0,0,0-.14.43.43,0,0,0-.06-.12.74.74,0,0,0-.23-.23.39.39,0,0,0-.31,0"/><path class="cls-7" d="M81,148.32a.68.68,0,0,0-.42,0,.42.42,0,0,0-.27.33.5.5,0,0,0,.18.42.6.6,0,0,0,.51.15.49.49,0,0,0,.37-.4.35.35,0,0,0,0-.14.45.45,0,0,0-.06-.12.73.73,0,0,0-.23-.23.38.38,0,0,0-.31,0"/><path class="cls-7" d="M27.55,119.05a.68.68,0,0,0-.42,0,.43.43,0,0,0-.27.33.51.51,0,0,0,.18.42.59.59,0,0,0,.51.15.48.48,0,0,0,.37-.39.36.36,0,0,0,0-.14.48.48,0,0,0-.06-.12.76.76,0,0,0-.23-.23.39.39,0,0,0-.31,0"/><path class="cls-7" d="M47.09,44.85a.68.68,0,0,0-.42,0,.42.42,0,0,0-.27.33.51.51,0,0,0,.18.42.59.59,0,0,0,.51.15.49.49,0,0,0,.37-.4.35.35,0,0,0,0-.14.42.42,0,0,0-.06-.12.72.72,0,0,0-.23-.23.38.38,0,0,0-.31,0"/><path class="cls-6" d="M70.95,46.21c0,.18-1,.37-2.61.53l-6.28.54c-2.44.24-4.62.57-6.2.85s-2.57.48-2.63.3.83-.68,2.4-1.21A29.06,29.06,0,0,1,61.93,46a45.73,45.73,0,0,1,6.38-.16C69.94,45.87,70.94,46,70.95,46.21Z"/><path class="cls-6" d="M65.46,49.42c-.12.34-1.36.2-2.63-.56a6.4,6.4,0,0,1-.85-.6L61.65,48l-.22-.24-.28-.3c-.07-.07-.17-.12-.21-.2s0-.21.17-.31a1.06,1.06,0,0,1,.77,0,2.9,2.9,0,0,1,.41.17l.38.19c.26.14.55.29.84.47C64.66,48.41,65.59,49.07,65.46,49.42Z"/><path class="cls-6" d="M69.09,47.61c0,.18-.24.38-.7.43a3.68,3.68,0,0,1-1.6-.28c-.55-.2-1-.39-1.26-.53s-.55-.24-.6-.43.18-.42.65-.51a3.18,3.18,0,0,1,1.67.22,10.35,10.35,0,0,1,1.3.6C68.84,47.28,69.07,47.42,69.09,47.61Z"/><ellipse class="cls-6" cx="63.44" cy="45.28" rx="2.21" ry="0.66" transform="translate(-14.33 40.08) rotate(-31.7)"/><path class="cls-6" d="M58.92,45c.22.29-.27,1-1.11,1.68a5,5,0,0,1-.62.41c-.19.1-.34.17-.47.23a1.28,1.28,0,0,1-.63.17c-.18,0-.29-.37-.08-.79a2.27,2.27,0,0,1,.43-.58,5.18,5.18,0,0,1,.56-.49C57.84,45,58.69,44.74,58.92,45Z"/><path class="cls-6" d="M105.11,62.54c-.07.06-.5-.33-1.32-1s-2-1.5-3.61-2.53C97,57,92.84,54,87.9,51.16c-2.47-1.39-4.91-2.57-7.14-3.63s-4.26-2-5.95-2.84c-3.37-1.65-5.42-2.76-5.34-2.92s2.26.64,5.73,2.07c1.74.72,3.79,1.58,6.07,2.59S86,48.58,88.56,50a111.41,111.41,0,0,1,12.17,8.27,27.55,27.55,0,0,1,3.41,2.91C104.87,62,105.18,62.49,105.11,62.54Z"/><ellipse class="cls-6" cx="99.46" cy="53.12" rx="6.61" ry="0.66" transform="translate(-0.07 0.14) rotate(-0.08)"/><path class="cls-6" d="M103.64,55.29c-.36.09-.77-.31-1.07-.84s-.41-1.1-.14-1.35.92,0,1.3.71S104,55.2,103.64,55.29Z"/><ellipse class="cls-6" cx="101.25" cy="61.15" rx="1.86" ry="0.66" transform="translate(17.65 144.84) rotate(-76.16)"/><path class="cls-6" d="M104.59,57.32c.06.36-.82.8-2,.91s-2.09-.16-2.1-.52.87-.69,2-.8S104.53,57,104.59,57.32Z"/><path class="cls-6" d="M91,57.27c-.32.21-2.32-2.29-5.09-5.05s-5.25-4.79-5-5.1,3.11,1.28,6,4.17S91.27,57.09,91,57.27Z"/><path class="cls-6" d="M86.18,57.23c-.36,0-.53-1.28-.2-2.74a6.37,6.37,0,0,1,.67-1.79,3,3,0,0,1,.19-.28.84.84,0,0,1,.27-.27.34.34,0,0,1,.32,0,.11.11,0,0,1,.06.14s-.05.09,0,.12a.09.09,0,0,0,0,0l0,.07a.68.68,0,0,1,0,.16,3.12,3.12,0,0,1,0,.33,10.9,10.9,0,0,1-.28,1.81C87,56.15,86.54,57.26,86.18,57.23Z"/><path class="cls-6" d="M109.5,75.23c-.38.08-1.31-3.17-3.28-6.77A49.84,49.84,0,0,0,103.45,64c-.38-.57-.68-1-.92-1.28s-.37-.47-.32-.55.28,0,.65.15a5.8,5.8,0,0,1,1.31,1.08,21.26,21.26,0,0,1,5.17,9.55C109.66,74.32,109.67,75.2,109.5,75.23Z"/><path class="cls-6" d="M103.64,70.23c-.21-.31.3-1,1-1.78s1.3-1.36,1.63-1.19.16,1.16-.63,2.07S103.84,70.53,103.64,70.23Z"/><path class="cls-6" d="M105.75,73.34c-.33-.16-.17-1.19.23-2.37s.92-2.08,1.28-2,.4,1.19,0,2.44S106.08,73.49,105.75,73.34Z"/><path class="cls-6" d="M114,69c-.07.36-1.77.33-3.8.1s-3.7-.58-3.68-1,1.73-.61,3.83-.37S114.09,68.61,114,69Z"/><path class="cls-6" d="M108.1,64.9c.07.36-.72.83-1.8,1s-2-.1-2-.47.8-.71,1.82-.85S108,64.54,108.1,64.9Z"/><path class="cls-6" d="M118.59,97.21c-.18,0-.57-1.31-1.07-3.49s-1.15-5.19-2-8.44c-.46-1.62-1-3.15-1.44-4.53s-1-2.58-1.47-3.59c-.92-2-1.59-3.22-1.42-3.33s1.1.94,2.26,2.9a29.43,29.43,0,0,1,1.77,3.57,42.87,42.87,0,0,1,1.58,4.61,61.09,61.09,0,0,1,1.69,8.64C118.72,95.78,118.77,97.18,118.59,97.21Z"/><path class="cls-6" d="M109.72,92.62c-.34-.13.34-2.72,1.78-5.66s3-5.09,3.35-4.9-.75,2.59-2.15,5.48S110.07,92.76,109.72,92.62Z"/><path class="cls-6" d="M114.29,90.52c-.34.15-1-.57-1.59-1.53s-1-1.87-.68-2.1,1.15.35,1.81,1.4S114.62,90.37,114.29,90.52Z"/><ellipse class="cls-6" cx="121.81" cy="83.17" rx="0.66" ry="9.27" transform="translate(-8.85 151.59) rotate(-61.96)"/><path class="cls-6" d="M123.41,87.39c-.35-.12-.41-.84-.23-1.62s.55-1.4.92-1.35.58.79.37,1.65S123.75,87.51,123.41,87.39Z"/><ellipse class="cls-6" cx="124.7" cy="82.88" rx="2.75" ry="0.66" transform="translate(-9.61 16.69) rotate(-7.37)"/><path class="cls-6" d="M123.35,80.38c0,.37-1.12.79-2.58,1s-2.69.23-2.77-.13,1.05-.93,2.55-1.18S123.32,80,123.35,80.38Z"/><ellipse class="cls-6" cx="119.68" cy="89.48" rx="0.66" ry="3.3" transform="translate(-23.65 131.75) rotate(-53.21)"/><path class="cls-6" d="M115.36,94.64c-.33-.17-.1-1.29.51-2.51a7.08,7.08,0,0,1,1-1.48,1.05,1.05,0,0,1,.35-.29c.09,0,.14-.11.2-.17s.23,0,.31.19a1.43,1.43,0,0,1,0,.69,7.08,7.08,0,0,1-.61,1.65C116.44,94,115.68,94.81,115.36,94.64Z"/><path class="cls-6" d="M107.18,85.91c-.07-.36,1-.85,2.31-.93s2.43.27,2.41.63-1.06.61-2.32.69S107.25,86.27,107.18,85.91Z"/><path class="cls-6" d="M109.45,115.2c-.17-.08.16-1.16.79-2.84s1.57-4,2.5-6.52c.46-1.28.86-2.5,1.2-3.62s.61-2.14.82-3c.42-1.72.64-2.82.84-2.8s.28,1.15.09,3a25.62,25.62,0,0,1-.56,3.16,37.71,37.71,0,0,1-1.13,3.75,50.13,50.13,0,0,1-2.89,6.46C110.24,114.34,109.61,115.27,109.45,115.2Z"/><path class="cls-6" d="M112.66,108.13c.16.33-1.05,1.22-2.7,2a10.94,10.94,0,0,1-2.46.86l-.08-.76c.4.21.61.41.58.55s-.31.23-.77.23l-1,0,.94-.78a10.93,10.93,0,0,1,2.24-1.32C111,108.15,112.5,107.8,112.66,108.13Z"/><path class="cls-6" d="M114.59,114.49c-.36.07-.92-1.16-1.54-2.66-.31-.75-.58-1.45-.73-2,0-.13-.07-.25-.09-.37a.93.93,0,0,1,0-.41.37.37,0,0,1,.19-.29.11.11,0,0,1,.15,0s0,.09.05.12.08,0,.12.05l.16.11a3.7,3.7,0,0,1,.27.28,7.23,7.23,0,0,1,1.14,1.93C114.95,113,114.95,114.42,114.59,114.49Z"/><ellipse class="cls-6" cx="111.43" cy="105.3" rx="1.69" ry="0.66" transform="translate(-17.19 21.86) rotate(-10.41)"/><path class="cls-6" d="M117.11,107.7c-.19,0-.39-.24-.7-.6s-.76-.89-1.22-1.57a9.84,9.84,0,0,1-1-1.81,3.38,3.38,0,0,1-.14-.47c0-.1-.08-.16-.12-.25a.14.14,0,0,1,0-.15.36.36,0,0,1,.28-.09,1.27,1.27,0,0,1,.72.42,9.76,9.76,0,0,1,1.32,1.6,6.44,6.44,0,0,1,1,1.91C117.4,107.28,117.28,107.68,117.11,107.7Z"/><path class="cls-6" d="M95.78,134.1c-.08-.19,1.28-.83,3.21-2.2a23.84,23.84,0,0,0,6.3-6.6,41.37,41.37,0,0,0,2.34-4.54,17,17,0,0,1,2.29-3.71,8.78,8.78,0,0,1,2.26-1.91c.61-.35,1-.45,1-.37s-.24.34-.72.79a12.87,12.87,0,0,0-1.82,2.08,20.36,20.36,0,0,0-1.91,3.65,32.13,32.13,0,0,1-2.33,4.74,20.3,20.3,0,0,1-6.91,6.69C97.34,133.92,95.83,134.25,95.78,134.1Z"/><path class="cls-6" d="M100.4,138.31c-.35-.09.06-2.77,1.26-5.86s2.69-5.35,3-5.19-.61,2.64-1.77,5.66S100.76,138.4,100.4,138.31Z"/><path class="cls-6" d="M98.3,123.16c0-.37,2-.55,4.36-.4a12.53,12.53,0,0,1,2.53.38,4.25,4.25,0,0,1,1.49.67l.55.46-.54,0c-.2,0-.32-.05-.34-.13s0-.18.19-.31v.44a13,13,0,0,1-1.53,0l-2.43-.13C100.2,123.94,98.28,123.53,98.3,123.16Z"/><path class="cls-6" d="M112.47,121.09c-.11.14-.49.06-.95-.33a3.7,3.7,0,0,1-.78-4.28c.29-.53.62-.73.77-.64s.14.44.13.91a7.15,7.15,0,0,0,.63,3.44C112.46,120.63,112.6,120.94,112.47,121.09Z"/><ellipse class="cls-6" cx="101.22" cy="121.72" rx="0.66" ry="1.56" transform="translate(-25 26.17) rotate(-13.13)"/><path class="cls-6" d="M102.07,126.61c-.32-.18-.14-1.12.41-2.09a2.75,2.75,0,0,1,1.11-1.19c.46-.22.8-.09.82.09s-.11.38-.22.63-.28.62-.55,1.12C103.09,126.14,102.39,126.79,102.07,126.61Z"/><path class="cls-6" d="M95.07,131.11c.05-.36,1-.52,2-.12s1.58,1.14,1.38,1.44-1,.13-1.86-.21S95,131.48,95.07,131.11Z"/><path class="cls-6" d="M104.79,136.82c-.25.26-1.1-.13-1.81-1s-1-1.72-.68-1.93,1,.3,1.68,1.07S105,136.55,104.79,136.82Z"/><path class="cls-6" d="M91.68,143.25s0-.1,0-.15l-.08-.21a4.78,4.78,0,0,1-.2-1.13,14.48,14.48,0,0,1,.33-3.75l.74-3.55.13-.61.06-.26a.81.81,0,0,1,.14-.33.35.35,0,0,1,.47-.11.24.24,0,0,1,.08.29.21.21,0,0,1-.07.1.1.1,0,0,1-.11,0,.05.05,0,0,1,0-.08s0-.06,0,0,0,0,0,0a.17.17,0,0,0-.08,0h0a.16.16,0,0,0,.07,0s0,0,0,0h0l0,.07h0s0,0,.06,0l0,0h0v0l0,.07c0,.07,0,.17,0,.26a5.33,5.33,0,0,1,.07.66,15.69,15.69,0,0,1-.37,3.73c-.28,1.41-.55,2.64-.7,3.54-.08.46-.14.8-.22,1.1a.59.59,0,0,1-.23.37C91.76,143.33,91.69,143.29,91.68,143.25Z"/><path class="cls-6" d="M93,137.37c.34.12.24,1.26-.55,2.37s-1.86,1.55-2.07,1.27.33-1.11,1-2S92.63,137.24,93,137.37Z"/><path class="cls-6" d="M95.27,140.71c-.28.23-1.23-.45-2.17-1.48s-1.52-2-1.26-2.3,1.29.35,2.25,1.41S95.55,140.48,95.27,140.71Z"/><path class="cls-6" d="M77.76,146.27c-.2-.34,3.27-2.62,6.95-6.09,1.86-1.72,3.42-3.41,4.55-4.63.57-.61,1-1.12,1.37-1.45l.16-.15s0,0,0,0,0,0,0,0l0-.05s0,0-.06,0-.06,0-.07-.07a.21.21,0,0,1,.19-.17.24.24,0,0,1,.22.08.36.36,0,0,1,.08.25,1,1,0,0,1-.14.39,15.87,15.87,0,0,1-1,1.73,32.61,32.61,0,0,1-9.68,9C78.84,146,77.85,146.42,77.76,146.27Z"/><path class="cls-6" d="M82.32,143.39c0,.36-1,.79-2.36.78a5.23,5.23,0,0,1-1.7-.26l-.34-.14a.68.68,0,0,1-.28-.27.3.3,0,0,1,0-.33.11.11,0,0,1,.15,0l.09.07s0,0,.12-.08a.86.86,0,0,1,.11-.08s.13-.06.23-.08a8.54,8.54,0,0,1,1.63-.13C81.23,142.85,82.28,143,82.32,143.39Z"/><path class="cls-6" d="M83.21,145.71c-.36-.08-.49-.92-.34-1.89s.5-1.74.87-1.71.59.88.44,1.9S83.57,145.78,83.21,145.71Z"/><path class="cls-6" d="M81.65,139.27c.12-.35.91-.39,1.79-.15s1.54.68,1.46,1-.89.49-1.81.24S81.53,139.62,81.65,139.27Z"/><path class="cls-6" d="M87.48,142.58c-.37,0-.58-1.07-.55-2.33s.3-2.29.67-2.3.69,1,.66,2.33S87.84,142.6,87.48,142.58Z"/><path class="cls-6" d="M51.9,144.77c.05-.09.41.07,1.07.14a9.85,9.85,0,0,0,2.84-.22c2.46-.43,5.84-1.05,9.52-2s7-1.94,9.34-2.71,3.79-1.33,3.88-1.18c.23.41-5.4,3.33-12.91,5.18a60.57,60.57,0,0,1-9.73,1.61,7.55,7.55,0,0,1-3.07-.2C52.14,145.17,51.85,144.84,51.9,144.77Z"/><path class="cls-6" d="M54.44,138.2c.17-.33,2.85.72,6.09,2.12s5.84,2.65,5.71,3-3-.35-6.24-1.78S54.27,138.52,54.44,138.2Z"/><path class="cls-6" d="M60.85,134.24c.36.06.38,1.69,0,3.64a14.58,14.58,0,0,1-.62,2.46A2.92,2.92,0,0,1,60,141a1.08,1.08,0,0,0-.09.12s0,.09,0,.14-.07.07-.15,0a.42.42,0,0,1-.24-.26,3,3,0,0,1-.1-.86,14.69,14.69,0,0,1,.24-2.53C59.92,135.71,60.49,134.18,60.85,134.24Z"/><ellipse class="cls-6" cx="58.27" cy="147.43" rx="3.63" ry="0.66" transform="translate(-88.72 88.07) rotate(-46.44)"/><path class="cls-6" d="M52.31,142.42c.14-.12.44,0,.88.13a9.08,9.08,0,0,1,1.7.88c1.26.82,2.13,1.73,1.93,2s-1.39-.11-2.65-.92a8.07,8.07,0,0,1-1.53-1.23C52.28,142.91,52.18,142.54,52.31,142.42Z"/><path class="cls-6" d="M57.17,136c.37,0,.59.81.64,1.73s-.1,1.71-.46,1.78-.81-.69-.86-1.72S56.81,136,57.17,136Z"/><ellipse class="cls-6" cx="57.95" cy="141.71" rx="2.73" ry="0.66" transform="matrix(1, -0.05, 0.05, 1, -6.95, 3.04)"/><path class="cls-6" d="M58.55,150.61c-.37,0-.64-.62-.85-1.31s-.28-1.35,0-1.56,1,.27,1.25,1.2S58.91,150.64,58.55,150.61Z"/><path class="cls-6" d="M66,147.76c-.22-.3,1.29-1.76,3.11-3.55.92-.89,1.74-1.7,2.38-2.27a9.16,9.16,0,0,1,.75-.61c.15-.1.2-.2.29-.24s.1,0,.15.09a.56.56,0,0,1,0,.38,4,4,0,0,1-.5,1A15.35,15.35,0,0,1,70,145.16C68.11,147,66.18,148.06,66,147.76Z"/><path class="cls-6" d="M46.93,139.57c-.1.15-1.46-.54-3.59-1.78s-5-3-8.13-5.16a41.59,41.59,0,0,1-7.36-6.32c-1.66-1.87-2.4-3.24-2.27-3.33s1.15,1,2.94,2.68A67.17,67.17,0,0,0,36,131.54c3.06,2.12,5.9,4,7.89,5.46S47,139.41,46.93,139.57Z"/><path class="cls-6" d="M28.45,122.8c.32-.17,1.17.79,1.89,2.14.18.34.33.67.46,1a2.91,2.91,0,0,1,.25,1,1.17,1.17,0,0,1-.2.76c-.12.15-.25.18-.33.14s-.12-.15-.17-.27a3.68,3.68,0,0,0-.22-.42c-.1-.17-.24-.38-.41-.64a10.64,10.64,0,0,1-.55-.93C28.45,124.21,28.13,123,28.45,122.8Z"/><path class="cls-6" d="M33.64,130.55c0,.37-1.45.51-3.16.41s-3.09-.42-3.09-.78,1.42-.65,3.17-.54S33.68,130.19,33.64,130.55Z"/><path class="cls-6" d="M35.67,126.71c.37,0,.66,1.32,1,2.89s.68,2.88.35,3-1.24-1-1.64-2.75S35.31,126.7,35.67,126.71Z"/><path class="cls-6" d="M39.43,134.08c.11.36-.87,1-2.08,1.59s-2.28,1.06-2.5.77.56-1.27,1.9-1.95S39.33,133.74,39.43,134.08Z"/><path class="cls-6" d="M40.55,131.8c.35-.11,1,.9,1.51,2.2s.85,2.43.53,2.61-1.17-.72-1.75-2.1S40.2,131.9,40.55,131.8Z"/><path class="cls-6" d="M36.32,141.87c-.1-.34,3.34-1.58,7.78-2.11s8.07-.16,8.06.2-3.56.59-7.9,1.12S36.42,142.23,36.32,141.87Z"/><path class="cls-6" d="M39.44,143.3c-.35-.09-.43-.92.08-1.71s1.29-1.08,1.52-.8,0,.89-.4,1.51S39.8,143.39,39.44,143.3Z"/><path class="cls-6" d="M44.17,143.51c-.36,0-.63-.81-.4-1.76s.85-1.53,1.18-1.37.31.89.11,1.69S44.53,143.53,44.17,143.51Z"/><path class="cls-6" d="M37.47,137.4c.23-.29,1.35.24,2.6,1a9.07,9.07,0,0,1,1.85,1.42l-.48.25c.14-.23.28-.35.4-.33s.21.18.27.44l.06.29-.54,0a5.65,5.65,0,0,1-2.25-.9C38,138.71,37.24,137.68,37.47,137.4Z"/><path class="cls-6" d="M14.18,105.38c.21,0,.28,1.17.66,3l.16.7c.06.24.14.49.21.75.13.52.34,1.06.54,1.63A20.46,20.46,0,0,0,19.85,118c.42.43.81.86,1.21,1.21.2.18.38.37.58.52l.56.46c1.43,1.15,2.45,1.73,2.36,1.92s-1.24-.14-2.9-1.15l-.64-.41c-.22-.15-.43-.32-.66-.49A16.15,16.15,0,0,1,19,118.9a17.29,17.29,0,0,1-4.37-7.06,16.1,16.1,0,0,1-.45-1.77c-.05-.28-.12-.55-.15-.81l-.08-.76C13.75,106.56,14,105.37,14.18,105.38Z"/><path class="cls-6" d="M18.9,95.37c.17.13-.71,1.2-1.18,3.24a12.08,12.08,0,0,0-.24,3.64,18,18,0,0,0,1,4.4c.54,1.53,1.18,3,1.77,4.28s1.12,2.52,1.51,3.55c.79,2.08,1,3.46.81,3.5s-.68-1.2-1.67-3.13l-1.75-3.4a36.37,36.37,0,0,1-1.92-4.37,16.32,16.32,0,0,1-1-4.77,11,11,0,0,1,.56-4A7.52,7.52,0,0,1,18.11,96C18.53,95.51,18.84,95.32,18.9,95.37Z"/><path class="cls-6" d="M21.16,101c.28.26-.84,1.81-1.66,3.94s-1.07,4-1.46,4c-.18,0-.35-.5-.38-1.33a8.68,8.68,0,0,1,2.31-5.9C20.56,101.12,21,100.87,21.16,101Z"/><path class="cls-6" d="M22.54,104c.09.35-.68.85-1.74.9s-1.87-.36-1.82-.72.83-.56,1.75-.61S22.45,103.61,22.54,104Z"/><path class="cls-6" d="M13.15,98.84c.22-.3,1-.08,2,.28s1.66.76,1.61,1.13-1,.53-2.1.1S12.94,99.13,13.15,98.84Z"/><path class="cls-6" d="M14.77,94.41c.36-.09.87.75,1.55,1.64s1.32,1.63,1.13,2c-.1.15-.41.16-.84,0a3.81,3.81,0,0,1-2.05-2.76C14.5,94.76,14.59,94.46,14.77,94.41Z"/><path class="cls-6" d="M10.35,110.63c.11-.35,1.3-.29,2.61.28s2.16,1.41,2,1.72-1.28,0-2.51-.5S10.24,111,10.35,110.63Z"/><path class="cls-6" d="M17.59,115.83c0-.12.11-.22.3-.31l-.06.63a5.51,5.51,0,0,1-2,.1c-1.23-.11-2.23-.39-2.23-.76s1-.67,2.34-.56a4.18,4.18,0,0,1,2,.59l-.06.63C17.68,116.06,17.58,116,17.59,115.83Z"/><path class="cls-6" d="M18.69,115.36c.14-.11.39-.08.67.13a2.44,2.44,0,0,1,.86,2.3c-.08.33-.24.52-.42.53-.37,0-.67-.62-.94-1.33S18.41,115.6,18.69,115.36Z"/><ellipse class="cls-6" cx="16.62" cy="111.96" rx="0.66" ry="1.72"/><path class="cls-6" d="M23.25,67.73c.15.15-1,1.35-2.34,3.64a26.72,26.72,0,0,0-3.22,9.7,49,49,0,0,0-.12,10.36c.21,2.67.38,4.34.19,4.37s-.67-1.58-1.12-4.26a36.14,36.14,0,0,1-.26-10.65,23,23,0,0,1,3.74-10C21.71,68.59,23.15,67.61,23.25,67.73Z"/><path class="cls-6" d="M25,76.35c0,.18-.56.48-1.51.89A26.3,26.3,0,0,0,20,79a12.36,12.36,0,0,0-1.69,1.27,6.07,6.07,0,0,0-1.07,1.27c-.5.79-.51,1.43-.7,1.46s-.21-.14-.28-.47a2.69,2.69,0,0,1,.13-1.39,5,5,0,0,1,1.06-1.74,9,9,0,0,1,1.86-1.53,11.66,11.66,0,0,1,4-1.52C24.31,76.15,25,76.18,25,76.35Z"/><path class="cls-6" d="M9,68.66c.29-.21,2.46,2.34,4.62,5.84s3.48,6.57,3.16,6.75-2.15-2.59-4.29-6S8.66,68.88,9,68.66Z"/><path class="cls-6" d="M14.24,76.67c-.09.36-1.07.41-2.19.22s-2-.58-2-1,1-.57,2.22-.36S14.33,76.32,14.24,76.67Z"/><path class="cls-6" d="M12.63,70.06c.37,0,.66,1,.66,2.18a6.57,6.57,0,0,1-.05.84l-.08.56c0,.15,0,.26,0,.37a.55.55,0,0,1-.07.29.26.26,0,0,1-.32.05,1,1,0,0,1-.47-.45,2.26,2.26,0,0,1-.24-.81,6.67,6.67,0,0,1-.05-.86C12,71,12.27,70.06,12.63,70.06Z"/><path class="cls-6" d="M17.54,70.08c.31-.18,1.08.57,1.46,1.77s.18,2.26-.18,2.29-.75-.83-1.09-1.89S17.22,70.27,17.54,70.08Z"/><ellipse class="cls-6" cx="21.56" cy="70.72" rx="1.9" ry="0.66" transform="translate(-27.77 15.65) rotate(-24.9)"/><path class="cls-6" d="M20.6,75c.15.33-.37.9-1.17,1.25a3,3,0,0,1-1.1.28c-.07,0-.17,0-.19,0s.09-.1,0-.32-.13-.07-.16-.06a.19.19,0,0,0-.07.08s0,.09,0,.09H18a.08.08,0,0,1,.07,0,.1.1,0,0,1,0,.13.24.24,0,0,1-.15.08.23.23,0,0,1-.24-.12.45.45,0,0,1,.14-.54c.08-.08.09-.12.16-.18a3,3,0,0,1,.94-.63C19.68,74.69,20.45,74.68,20.6,75Z"/><path class="cls-6" d="M22.72,74.59c.18,0,.38.09.53.37a2.07,2.07,0,0,1-.3,2.22c-.22.23-.45.3-.61.22-.32-.19-.31-.8-.23-1.46S22.37,74.68,22.72,74.59Z"/><path class="cls-6" d="M19.64,81.81c.24.28-.17,1-.84,1.69s-1.4,1.09-1.69.85,0-1.06.75-1.79S19.4,81.53,19.64,81.81Z"/><path class="cls-6" d="M16.21,87.59c-.26.26-1.13-.19-2-.92s-1.48-1.51-1.27-1.81,1.19,0,2.12.79S16.47,87.33,16.21,87.59Z"/><path class="cls-6" d="M28.22,60.65c.11.16-.27.58-.53,1.4a11.2,11.2,0,0,0-.37,1.51l-.37,2c-.51,2.78-.8,5.08-1.18,5.08s-.67-2.41-.13-5.32a18.3,18.3,0,0,1,.49-2,6.28,6.28,0,0,1,.72-1.63,2.73,2.73,0,0,1,.88-.88C28,60.59,28.17,60.58,28.22,60.65Z"/><path class="cls-6" d="M36.44,59.72c.13.35-1.72,1.37-4.08,2.45S28,64,27.84,63.63s1.58-1.58,4-2.67S36.31,59.38,36.44,59.72Z"/><path class="cls-6" d="M23.16,61.36c.27-.25,1.1.22,2,.93s1.48,1.43,1.29,1.75-1.19.06-2.13-.72S22.89,61.6,23.16,61.36Z"/><path class="cls-6" d="M23,65c.22-.3,1-.06,1.87.36s1.51.92,1.42,1.28-1,.4-2-.09S22.77,65.25,23,65Z"/><ellipse class="cls-6" cx="32.81" cy="62.72" rx="0.66" ry="2.67" transform="translate(-37.92 65.44) rotate(-64.59)"/><path class="cls-6" d="M54.22,51.7c0,.39-5.8,1-12.86,2.34S28.67,57,28.54,56.61s5.4-2.52,12.56-3.88S54.21,51.35,54.22,51.7Z"/><path class="cls-6" d="M40.67,48.34c.24.27-1.34,2.08-3.54,4a32.22,32.22,0,0,1-2.94,2.36,7.69,7.69,0,0,1-1,.6s-.06,0-.07,0h0l-.07,0s-.06,0-.07,0,0,0,0,.07a.06.06,0,0,1,0,.06s-.13,0-.16-.11a.4.4,0,0,1,0-.23.42.42,0,0,1,0-.13l.07-.11a7.59,7.59,0,0,1,.71-.92,32,32,0,0,1,2.68-2.65C38.45,49.43,40.43,48.07,40.67,48.34Z"/><path class="cls-6" d="M53.34,56.7c0,.17-.58.39-1.58.42A9.47,9.47,0,0,1,48,56.38a9.77,9.77,0,0,1-1.88-1,13.27,13.27,0,0,1-1.3-1.07c-.65-.6-1.14-.78-1.14-1s.17-.17.47-.17a2.84,2.84,0,0,1,1.19.35c.46.24.91.54,1.43.82a17.31,17.31,0,0,0,1.74.84C51,56.23,53.32,56.32,53.34,56.7Z"/><path class="cls-6" d="M48.45,58.55a.53.53,0,0,1-.58-.2,1.78,1.78,0,0,1-.19-2c.15-.24.35-.35.52-.31.36.09.53.63.6,1.2S48.79,58.39,48.45,58.55Z"/><path class="cls-6" d="M52.07,58.84c-.24.27-1,0-1.38-.77s-.22-1.53.14-1.57.74.41,1,1S52.32,58.56,52.07,58.84Z"/><path class="cls-6" d="M52.67,53.71c-.28.24-1-.14-1.78-.65s-1.4-1-1.29-1.39,1.08-.34,2,.29S53,53.48,52.67,53.71Z"/><path class="cls-6" d="M35.13,48.85c.34-.16.89.32,1.43.92s.95,1.21.75,1.52-1.06.13-1.74-.64S34.8,49,35.13,48.85Z"/><ellipse class="cls-6" cx="40.21" cy="50.56" rx="0.66" ry="1.62" transform="translate(-14.42 85.03) rotate(-83.76)"/><path class="cls-6" d="M45.75,50.28c.28.24.1.9-.24,1.56s-.8,1.17-1.16,1.07-.45-.89,0-1.7S45.48,50,45.75,50.28Z"/><path class="cls-6" d="M78.06,50.9c-.35-.07-.43-1.12.14-2.21s1.46-1.63,1.73-1.38-.08,1.08-.55,2S78.42,51,78.06,50.9Z"/><path class="cls-6" d="M89.87,47.91c.07.36-1.12.9-2.62,1.33a12.07,12.07,0,0,1-2,.41l-.36,0a.65.65,0,0,1-.55-.15l-.05-.08a.33.33,0,0,1,0-.14.24.24,0,0,1,.12-.2.23.23,0,0,1,.2,0,.19.19,0,0,1,.09.08.08.08,0,0,1,0,.09.07.07,0,0,1-.07,0l0,0h0s0,0,0,0,0,.07,0,0l0,0h0l0,0h0a.31.31,0,0,0,0-.2c0-.05,0,0,0-.09l.31-.21a8,8,0,0,1,1.92-.8C88.44,47.52,89.8,47.55,89.87,47.91Z"/><path class="cls-6" d="M92,50.18c.1.35-.71.84-1.8,1.1s-2,.16-2.1-.2.74-.85,1.8-1.1S91.92,49.82,92,50.18Z"/><path class="cls-6" d="M108.06,135.81c-.15-.26,2.49-2,5.29-4.68,1.41-1.32,2.6-2.61,3.46-3.56.43-.47.78-.86,1-1.11l.13-.12s0,0,0,0,0,0,0,0l0,0s0,0,0,0,0,0-.05-.05a.15.15,0,0,1,.14-.13.18.18,0,0,1,.17.06.27.27,0,0,1,.06.19.75.75,0,0,1-.1.3,12.35,12.35,0,0,1-.8,1.32A24.92,24.92,0,0,1,110,135C108.88,135.63,108.13,135.92,108.06,135.81Z"/><path class="cls-6" d="M111.53,133.59c0,.28-.77.6-1.8.61a4,4,0,0,1-1.3-.19l-.26-.11a.52.52,0,0,1-.21-.21.23.23,0,0,1,0-.25.08.08,0,0,1,.11,0l.07,0a.18.18,0,0,0,.09-.06.49.49,0,0,1,.08-.06s.1,0,.17-.06a6.52,6.52,0,0,1,1.25-.1C110.69,133.18,111.5,133.31,111.53,133.59Z"/><path class="cls-6" d="M112.22,135.36c-.27-.06-.37-.7-.27-1.44s.38-1.33.66-1.31.46.67.34,1.45S112.49,135.41,112.22,135.36Z"/><path class="cls-6" d="M111,130.44c.09-.27.7-.3,1.36-.12s1.17.51,1.12.79-.68.38-1.38.19S110.92,130.71,111,130.44Z"/><path class="cls-6" d="M115.47,132.95c-.28,0-.45-.81-.43-1.78s.22-1.75.5-1.76.53.79.51,1.78S115.75,133,115.47,132.95Z"/><path class="cls-6" d="M25.17,138c-.24.18-2.28-2.24-5.25-4.72C18.45,132,17,131,16,130.26c-.52-.37-.94-.68-1.22-.91l-.13-.11s0,0,0,0,0,0,0,0l0,0s0,0,0,0,0,0,0,.06a.15.15,0,0,1-.15-.13.19.19,0,0,1,0-.17.27.27,0,0,1,.18-.08A.73.73,0,0,1,15,129a12.23,12.23,0,0,1,1.4.64,23.94,23.94,0,0,1,4.2,2.87,23.76,23.76,0,0,1,3.53,3.66C24.89,137.22,25.27,137.94,25.17,138Z"/><path class="cls-6" d="M22.57,134.82c.27-.07.69.69.81,1.72a4,4,0,0,1,0,1.31c0,.09,0,.14-.08.28a.53.53,0,0,1-.18.23.23.23,0,0,1-.25,0,.08.08,0,0,1,0-.11l0-.07s0,0-.07-.08a.51.51,0,0,1-.07-.08s-.05-.09-.08-.16a6.64,6.64,0,0,1-.25-1.23C22.26,135.7,22.3,134.89,22.57,134.82Z"/><path class="cls-6" d="M24.25,133.94c0,.28-.65.45-1.4.43s-1.37-.23-1.37-.51.62-.53,1.4-.51S24.27,133.66,24.25,133.94Z"/><path class="cls-6" d="M19.5,135.7c-.27-.06-.38-.66-.28-1.34s.38-1.23.66-1.2.45.63.35,1.35S19.78,135.76,19.5,135.7Z"/><path class="cls-6" d="M21.49,131c0,.28-.76.54-1.72.63s-1.76,0-1.8-.3.72-.62,1.71-.71S21.48,130.7,21.49,131Z"/><path class="cls-6" d="M57.75,36.86c0,.3-3.08.85-6.72,2.17-1.82.65-3.43,1.36-4.59,1.88-.58.26-1.05.47-1.39.6l-.16.06s0,0,0,0,0,0,0,0l0,.05s0,0,.05,0,0,0,0,.07a.16.16,0,0,1-.19.06.18.18,0,0,1-.13-.13.27.27,0,0,1,0-.2.72.72,0,0,1,.21-.23,12,12,0,0,1,1.26-.9,24.95,24.95,0,0,1,9.53-3.42C56.92,36.7,57.73,36.73,57.75,36.86Z"/><path class="cls-6" d="M53.68,37.51c.08-.27.94-.25,1.89.16a4,4,0,0,1,1.11.7l.2.2a.51.51,0,0,1,.11.27.23.23,0,0,1-.1.23.08.08,0,0,1-.11,0l0-.07a.19.19,0,0,0-.11,0l-.1,0s-.11,0-.18,0a6.47,6.47,0,0,1-1.18-.4C54.29,38.22,53.6,37.78,53.68,37.51Z"/><path class="cls-6" d="M53.76,35.62c.23.16.06.79-.33,1.43s-.88,1.07-1.13.94-.15-.8.26-1.47S53.53,35.45,53.76,35.62Z"/><path class="cls-6" d="M52.91,40.6c-.19.21-.76,0-1.3-.43s-.87-.94-.71-1.17.77-.08,1.34.38S53.09,40.4,52.91,40.6Z"/><path class="cls-6" d="M49.81,36.52c.25.13.09.93-.31,1.8s-.9,1.52-1.16,1.41-.17-.93.24-1.83S49.57,36.39,49.81,36.52Z"/><rect class="cls-8" x="5.87" y="5.8" width="123.15" height="176.34"/><path class="cls-7" d="M81.56,77.09a1.29,1.29,0,0,0-.79,0,.8.8,0,0,0-.5.62,1,1,0,0,0,.34.78,1.11,1.11,0,0,0,1,.29.91.91,0,0,0,.69-.74.64.64,0,0,0,0-.27.84.84,0,0,0-.12-.23,1.41,1.41,0,0,0-.43-.44.73.73,0,0,0-.58-.09"/><path class="cls-6" d="M87.28,16.94a.7.7,0,0,0-.44,0,.44.44,0,0,0-.28.34.52.52,0,0,0,.19.43.61.61,0,0,0,.53.16.5.5,0,0,0,.38-.41.35.35,0,0,0,0-.15.45.45,0,0,0-.06-.13.77.77,0,0,0-.24-.24.39.39,0,0,0-.32,0"/><path class="cls-6" d="M107.5,29.75a.7.7,0,0,0-.44,0,.44.44,0,0,0-.28.34.52.52,0,0,0,.19.43.61.61,0,0,0,.53.16.5.5,0,0,0,.38-.41.39.39,0,0,0,0-.15.47.47,0,0,0-.06-.13.78.78,0,0,0-.24-.24.4.4,0,0,0-.32,0"/><path class="cls-6" d="M115.4,14.42a.7.7,0,0,0-.44,0,.44.44,0,0,0-.28.34.52.52,0,0,0,.19.43.61.61,0,0,0,.53.16.5.5,0,0,0,.38-.41.36.36,0,0,0,0-.15.46.46,0,0,0-.06-.13.75.75,0,0,0-.24-.24.4.4,0,0,0-.32,0"/><path class="cls-6" d="M105.82,47.91a.71.71,0,0,0-.44,0,.44.44,0,0,0-.28.34.52.52,0,0,0,.19.43.61.61,0,0,0,.53.16.5.5,0,0,0,.38-.41.36.36,0,0,0,0-.15.43.43,0,0,0-.06-.13.76.76,0,0,0-.24-.24.4.4,0,0,0-.32,0"/><path class="cls-6" d="M118.9,27a1,1,0,0,0-.59,0,.6.6,0,0,0-.37.46.71.71,0,0,0,.25.59.83.83,0,0,0,.72.22.68.68,0,0,0,.51-.55.51.51,0,0,0,0-.2.65.65,0,0,0-.09-.17A1,1,0,0,0,119,27a.54.54,0,0,0-.43-.06"/><path class="cls-6" d="M121.78,43.43a1,1,0,0,0-.59,0,.59.59,0,0,0-.37.46.71.71,0,0,0,.25.59.83.83,0,0,0,.72.21.68.68,0,0,0,.51-.55.5.5,0,0,0,0-.2.66.66,0,0,0-.09-.18,1,1,0,0,0-.32-.33.55.55,0,0,0-.43-.06"/><path class="cls-6" d="M120.1,149.9a1,1,0,0,0-.59,0,.6.6,0,0,0-.37.46.71.71,0,0,0,.25.59.83.83,0,0,0,.72.21.68.68,0,0,0,.51-.55.48.48,0,0,0,0-.2.63.63,0,0,0-.09-.18,1,1,0,0,0-.33-.33.55.55,0,0,0-.43-.06"/><path class="cls-6" d="M120.1,125.09a1,1,0,0,0-.59,0,.6.6,0,0,0-.37.46.71.71,0,0,0,.25.59.83.83,0,0,0,.72.22.68.68,0,0,0,.51-.55.49.49,0,0,0,0-.2.63.63,0,0,0-.09-.17,1,1,0,0,0-.33-.33.54.54,0,0,0-.43-.06"/><path class="cls-6" d="M94.49,144.7a1,1,0,0,0-.59,0,.6.6,0,0,0-.37.46.7.7,0,0,0,.25.59.83.83,0,0,0,.72.22.68.68,0,0,0,.51-.55.47.47,0,0,0,0-.2.6.6,0,0,0-.09-.18,1,1,0,0,0-.32-.33.54.54,0,0,0-.43-.06"/><path class="cls-6" d="M30.48,155.88a1,1,0,0,0-.59,0,.6.6,0,0,0-.37.46.7.7,0,0,0,.25.59.83.83,0,0,0,.72.22.68.68,0,0,0,.51-.55.49.49,0,0,0,0-.2.6.6,0,0,0-.09-.17,1,1,0,0,0-.32-.33.55.55,0,0,0-.43-.06"/><path class="cls-6" d="M13.76,157.56a1,1,0,0,0-.59,0,.6.6,0,0,0-.37.46.71.71,0,0,0,.25.59.83.83,0,0,0,.72.21.68.68,0,0,0,.51-.55.51.51,0,0,0,0-.2.66.66,0,0,0-.09-.18,1,1,0,0,0-.32-.33.55.55,0,0,0-.43-.06"/><path class="cls-6" d="M28.55,143.69a1,1,0,0,0-.59,0,.6.6,0,0,0-.37.46.71.71,0,0,0,.25.59.83.83,0,0,0,.72.21.68.68,0,0,0,.51-.55.51.51,0,0,0,0-.2A.61.61,0,0,0,29,144a1,1,0,0,0-.33-.33.55.55,0,0,0-.43-.06"/><path class="cls-6" d="M101.3,162.55a1,1,0,0,0-.59,0,.6.6,0,0,0-.37.46.71.71,0,0,0,.25.59.83.83,0,0,0,.72.22.68.68,0,0,0,.51-.55.5.5,0,0,0,0-.2.62.62,0,0,0-.09-.18,1,1,0,0,0-.33-.33.54.54,0,0,0-.43-.06"/><path class="cls-6" d="M84.45,158.92a1,1,0,0,0-.59,0,.6.6,0,0,0-.37.46.71.71,0,0,0,.26.59.83.83,0,0,0,.72.22.68.68,0,0,0,.51-.55.47.47,0,0,0,0-.2.61.61,0,0,0-.09-.18,1,1,0,0,0-.32-.33.54.54,0,0,0-.43-.06"/><path class="cls-6" d="M17.38,174.45a1,1,0,0,0-.59,0,.6.6,0,0,0-.37.46.7.7,0,0,0,.25.59.83.83,0,0,0,.72.21.68.68,0,0,0,.51-.55.47.47,0,0,0,0-.2.6.6,0,0,0-.09-.18,1,1,0,0,0-.32-.33.55.55,0,0,0-.43-.06"/><path class="cls-6" d="M56.29,158.24a1,1,0,0,0-.59,0,.6.6,0,0,0-.37.46.71.71,0,0,0,.26.59.83.83,0,0,0,.72.22.68.68,0,0,0,.51-.55.48.48,0,0,0,0-.2.63.63,0,0,0-.09-.18,1,1,0,0,0-.32-.33.54.54,0,0,0-.43-.06"/><path class="cls-6" d="M13.72,55.2a1.31,1.31,0,0,0-.81,0,.82.82,0,0,0-.51.63,1,1,0,0,0,.35.8,1.13,1.13,0,0,0,1,.29.93.93,0,0,0,.7-.76.67.67,0,0,0,0-.27.85.85,0,0,0-.12-.24,1.41,1.41,0,0,0-.44-.45.74.74,0,0,0-.59-.09"/><path class="cls-6" d="M54.2,18a1.3,1.3,0,0,0-.81,0,.81.81,0,0,0-.51.63,1,1,0,0,0,.35.8,1.13,1.13,0,0,0,1,.29.93.93,0,0,0,.7-.76.66.66,0,0,0,0-.27.85.85,0,0,0-.12-.24,1.42,1.42,0,0,0-.44-.45.74.74,0,0,0-.59-.09"/><path class="cls-6" d="M112.1,38.92a1.31,1.31,0,0,0-.81,0,.81.81,0,0,0-.51.63,1,1,0,0,0,.35.8,1.13,1.13,0,0,0,1,.29.93.93,0,0,0,.7-.76.69.69,0,0,0,0-.27.9.9,0,0,0-.12-.24,1.42,1.42,0,0,0-.44-.45.74.74,0,0,0-.59-.09"/><path class="cls-6" d="M112.1,138.74a1.31,1.31,0,0,0-.81,0,.81.81,0,0,0-.51.63,1,1,0,0,0,.35.8,1.13,1.13,0,0,0,1,.29.93.93,0,0,0,.7-.76.69.69,0,0,0,0-.27.88.88,0,0,0-.12-.24,1.42,1.42,0,0,0-.44-.45.74.74,0,0,0-.59-.09"/><path class="cls-6" d="M119.16,163.25a1.3,1.3,0,0,0-.81,0,.82.82,0,0,0-.51.63,1,1,0,0,0,.35.8,1.13,1.13,0,0,0,1,.29.93.93,0,0,0,.7-.76.67.67,0,0,0,0-.27.87.87,0,0,0-.12-.24,1.43,1.43,0,0,0-.44-.45.74.74,0,0,0-.59-.09"/><path class="cls-6" d="M55.38,173.3a1.3,1.3,0,0,0-.81,0,.81.81,0,0,0-.51.63,1,1,0,0,0,.35.8,1.13,1.13,0,0,0,1,.29.93.93,0,0,0,.7-.75.67.67,0,0,0,0-.27.86.86,0,0,0-.12-.24,1.43,1.43,0,0,0-.44-.45.74.74,0,0,0-.59-.09"/><path class="cls-6" d="M99,22a1,1,0,0,0-.59,0,.6.6,0,0,0-.37.46.7.7,0,0,0,.25.59.83.83,0,0,0,.72.22.68.68,0,0,0,.51-.55.47.47,0,0,0,0-.2.58.58,0,0,0-.09-.18,1,1,0,0,0-.32-.33.55.55,0,0,0-.43-.06"/><path class="cls-6" d="M22.6,16.27a1,1,0,0,0-.59,0,.6.6,0,0,0-.37.46.71.71,0,0,0,.26.59.82.82,0,0,0,.72.21.68.68,0,0,0,.51-.55.49.49,0,0,0,0-.2.59.59,0,0,0-.09-.17,1,1,0,0,0-.32-.33.54.54,0,0,0-.43-.06"/><path class="cls-6" d="M69.37,13.76a1,1,0,0,0-.59,0,.6.6,0,0,0-.37.46.71.71,0,0,0,.25.59.83.83,0,0,0,.72.22.68.68,0,0,0,.51-.55.5.5,0,0,0,0-.2.64.64,0,0,0-.09-.18,1,1,0,0,0-.33-.33.54.54,0,0,0-.43-.06"/><path class="cls-6" d="M52.67,30.59a1,1,0,0,0-.59,0,.6.6,0,0,0-.37.46.71.71,0,0,0,.25.59.83.83,0,0,0,.72.21.68.68,0,0,0,.51-.55.49.49,0,0,0,0-.2.63.63,0,0,0-.09-.17,1,1,0,0,0-.33-.33.55.55,0,0,0-.43-.06"/><path class="cls-6" d="M32.27,31.77a1,1,0,0,0-.59,0,.6.6,0,0,0-.37.46.71.71,0,0,0,.25.59.83.83,0,0,0,.72.22.68.68,0,0,0,.51-.55.5.5,0,0,0,0-.2.6.6,0,0,0-.09-.18,1,1,0,0,0-.33-.33.54.54,0,0,0-.43-.06"/><path class="cls-6" d="M103.5,9.29a1,1,0,0,0-.59,0,.6.6,0,0,0-.37.46.71.71,0,0,0,.25.59.83.83,0,0,0,.72.21A.68.68,0,0,0,104,10a.48.48,0,0,0,0-.2.61.61,0,0,0-.09-.17,1,1,0,0,0-.32-.33.54.54,0,0,0-.43-.06"/><path class="cls-6" d="M115.4,58.41a.7.7,0,0,0-.44,0,.44.44,0,0,0-.28.34.52.52,0,0,0,.19.43.61.61,0,0,0,.53.16.5.5,0,0,0,.38-.41.36.36,0,0,0,0-.15.46.46,0,0,0-.06-.13.75.75,0,0,0-.24-.24.4.4,0,0,0-.32,0"/><path class="cls-6" d="M120.79,138.63a.7.7,0,0,0-.44,0,.44.44,0,0,0-.28.34.52.52,0,0,0,.19.43.61.61,0,0,0,.53.16.5.5,0,0,0,.38-.41.39.39,0,0,0,0-.15.45.45,0,0,0-.07-.13.75.75,0,0,0-.24-.24.4.4,0,0,0-.32,0"/><path class="cls-6" d="M121.72,104.08a.71.71,0,0,0-.44,0,.44.44,0,0,0-.28.34.52.52,0,0,0,.19.43.61.61,0,0,0,.53.16.5.5,0,0,0,.38-.41.36.36,0,0,0,0-.15.44.44,0,0,0-.06-.13.76.76,0,0,0-.24-.24.39.39,0,0,0-.32,0"/><path class="cls-6" d="M103.62,146.6a.71.71,0,0,0-.44,0,.44.44,0,0,0-.28.34.52.52,0,0,0,.19.43.61.61,0,0,0,.53.16.5.5,0,0,0,.38-.41.35.35,0,0,0,0-.15.49.49,0,0,0-.06-.13.78.78,0,0,0-.24-.24.4.4,0,0,0-.32,0"/><path class="cls-6" d="M69.31,150.74a.7.7,0,0,0-.44,0,.44.44,0,0,0-.28.34.52.52,0,0,0,.19.43.6.6,0,0,0,.53.16.5.5,0,0,0,.38-.41.37.37,0,0,0,0-.15.48.48,0,0,0-.06-.13.77.77,0,0,0-.24-.24.4.4,0,0,0-.32,0"/><path class="cls-6" d="M32.57,169.7a.71.71,0,0,0-.44,0,.44.44,0,0,0-.28.34.52.52,0,0,0,.19.43.61.61,0,0,0,.53.16.5.5,0,0,0,.38-.41.39.39,0,0,0,0-.15.48.48,0,0,0-.06-.13.78.78,0,0,0-.24-.24.4.4,0,0,0-.32,0"/><path class="cls-6" d="M88.33,169.7a.71.71,0,0,0-.44,0,.44.44,0,0,0-.28.34.52.52,0,0,0,.19.43.61.61,0,0,0,.53.16.5.5,0,0,0,.38-.41.37.37,0,0,0,0-.15.49.49,0,0,0-.06-.13.78.78,0,0,0-.24-.24.4.4,0,0,0-.32,0"/><path class="cls-6" d="M103.07,175.88a.7.7,0,0,0-.44,0,.44.44,0,0,0-.28.34.52.52,0,0,0,.19.43.61.61,0,0,0,.53.16.5.5,0,0,0,.38-.41.35.35,0,0,0,0-.15.46.46,0,0,0-.06-.13.78.78,0,0,0-.24-.24.4.4,0,0,0-.32,0"/><path class="cls-6" d="M75.18,172.26a.71.71,0,0,0-.44,0,.44.44,0,0,0-.28.34.52.52,0,0,0,.19.43.61.61,0,0,0,.53.16.5.5,0,0,0,.38-.41.36.36,0,0,0,0-.15.45.45,0,0,0-.07-.13.77.77,0,0,0-.24-.24.4.4,0,0,0-.32,0"/><path class="cls-6" d="M110.81,154.86a.71.71,0,0,0-.44,0,.44.44,0,0,0-.28.34.53.53,0,0,0,.19.43.61.61,0,0,0,.53.16.5.5,0,0,0,.38-.41.37.37,0,0,0,0-.15.45.45,0,0,0-.06-.13.76.76,0,0,0-.24-.24.4.4,0,0,0-.32,0"/><path class="cls-6" d="M46.3,151.8a.7.7,0,0,0-.44,0,.44.44,0,0,0-.28.34.52.52,0,0,0,.19.43.61.61,0,0,0,.53.16.5.5,0,0,0,.38-.41.35.35,0,0,0,0-.15.43.43,0,0,0-.06-.13.76.76,0,0,0-.24-.24.4.4,0,0,0-.32,0"/><path class="cls-6" d="M13.71,147.1a.71.71,0,0,0-.44,0,.44.44,0,0,0-.28.34.52.52,0,0,0,.19.43.61.61,0,0,0,.53.16.5.5,0,0,0,.38-.41.39.39,0,0,0,0-.15.49.49,0,0,0-.06-.13.78.78,0,0,0-.24-.24.4.4,0,0,0-.32,0"/><path class="cls-6" d="M94.43,38.81a.71.71,0,0,0-.44,0,.44.44,0,0,0-.28.34.52.52,0,0,0,.19.43.61.61,0,0,0,.53.16.5.5,0,0,0,.38-.41.35.35,0,0,0,0-.15.43.43,0,0,0-.06-.13.76.76,0,0,0-.24-.24.4.4,0,0,0-.32,0"/><path class="cls-6" d="M88.28,30.25a.7.7,0,0,0-.44,0,.44.44,0,0,0-.28.34.52.52,0,0,0,.19.43.61.61,0,0,0,.53.16.5.5,0,0,0,.38-.41.33.33,0,0,0,0-.15.45.45,0,0,0-.06-.13.78.78,0,0,0-.24-.24.39.39,0,0,0-.32,0"/><path class="cls-6" d="M79.46,36.45a.7.7,0,0,0-.44,0,.44.44,0,0,0-.28.34.52.52,0,0,0,.19.43.61.61,0,0,0,.53.16.5.5,0,0,0,.38-.41.35.35,0,0,0,0-.15.42.42,0,0,0-.06-.13.77.77,0,0,0-.24-.24.4.4,0,0,0-.32,0"/><path class="cls-6" d="M68,35.95a.71.71,0,0,0-.44,0,.44.44,0,0,0-.28.34.52.52,0,0,0,.19.43.61.61,0,0,0,.53.16.5.5,0,0,0,.38-.41.35.35,0,0,0,0-.15.46.46,0,0,0-.06-.13A.76.76,0,0,0,68.1,36a.4.4,0,0,0-.32,0"/><path class="cls-6" d="M72.69,21.52a.7.7,0,0,0-.44,0,.44.44,0,0,0-.28.34.52.52,0,0,0,.19.43.61.61,0,0,0,.53.16.5.5,0,0,0,.38-.41.37.37,0,0,0,0-.15.52.52,0,0,0-.06-.13.75.75,0,0,0-.24-.24.4.4,0,0,0-.32,0"/><path class="cls-6" d="M39.67,9.45a.7.7,0,0,0-.44,0A.44.44,0,0,0,39,9.8a.52.52,0,0,0,.19.43.61.61,0,0,0,.53.16.5.5,0,0,0,.38-.41.37.37,0,0,0,0-.15A.48.48,0,0,0,40,9.71a.78.78,0,0,0-.24-.24.4.4,0,0,0-.32,0"/><path class="cls-6" d="M39.28,21.52a.7.7,0,0,0-.44,0,.44.44,0,0,0-.28.34.52.52,0,0,0,.19.43.61.61,0,0,0,.53.16.5.5,0,0,0,.38-.41.35.35,0,0,0,0-.15.43.43,0,0,0-.06-.13.75.75,0,0,0-.24-.24.4.4,0,0,0-.32,0"/><path class="cls-6" d="M13.71,26.46a.71.71,0,0,0-.44,0,.44.44,0,0,0-.28.34.52.52,0,0,0,.19.43.61.61,0,0,0,.53.16.5.5,0,0,0,.38-.41.39.39,0,0,0,0-.15.48.48,0,0,0-.06-.13.76.76,0,0,0-.24-.24.4.4,0,0,0-.32,0"/><path class="cls-6" d="M20.88,38.81a.71.71,0,0,0-.44,0,.44.44,0,0,0-.28.34.52.52,0,0,0,.19.43.61.61,0,0,0,.53.16.5.5,0,0,0,.38-.41.35.35,0,0,0,0-.15.45.45,0,0,0-.06-.13.76.76,0,0,0-.24-.24.4.4,0,0,0-.32,0"/><path class="cls-6" d="M28.78,47.45a.71.71,0,0,0-.44,0,.44.44,0,0,0-.28.34.52.52,0,0,0,.19.43.6.6,0,0,0,.53.16.5.5,0,0,0,.38-.41.37.37,0,0,0,0-.15.48.48,0,0,0-.06-.13.76.76,0,0,0-.24-.24.4.4,0,0,0-.32,0"/></g></g></g></svg>