<svg xmlns="http://www.w3.org/2000/svg" xmlns:xlink="http://www.w3.org/1999/xlink" viewBox="0 0 125 225"><defs><style>.cls-1{fill:none;}.cls-2{fill:#fff;}.cls-3{fill:#826560;}.cls-4{clip-path:url(#clip-path);}.cls-5{fill:#eac99d;}.cls-6{fill:#f9e2c0;}.cls-7{fill:#6b504c;}.cls-8{fill:#e3091b;}.cls-9{clip-path:url(#clip-path-2);}.cls-10{fill:#f1d19a;}.cls-11{fill:#543d3b;}.cls-12{clip-path:url(#clip-path-3);}.cls-13{clip-path:url(#clip-path-4);}.cls-14{fill:#917470;}.cls-15{clip-path:url(#clip-path-5);}.cls-16{clip-path:url(#clip-path-6);}.cls-17{fill:url(#Новий_зразок_візерунка_2);}</style><clipPath id="clip-path"><polygon class="cls-1" points="41.55 154.59 30.24 219.98 109.33 233.12 119.16 168.76 41.55 154.59"/></clipPath><clipPath id="clip-path-2"><path class="cls-1" d="M72.27,109.43c-8-4.27-11.55-15.64-8.67-25.43,2.64-9,16.71-14.82,25.53-11.44C115.43,82.64,101.55,125,72.27,109.43Z"/></clipPath><clipPath id="clip-path-3"><path class="cls-1" d="M131,241.28A20.74,20.74,0,0,1,138.43,220c7.77-6.11,18.83-2.72,25.1,4.44s6.63,20.49-.28,27.28c-6.76,6.63-18.35,6.89-25.57.84A20.75,20.75,0,0,1,131,241.28Z"/></clipPath><clipPath id="clip-path-4"><path class="cls-1" d="M44.83,68.65a16.92,16.92,0,0,1-9.53-2.74C29.36,62,21.67,54.57,22,46.83A14.27,14.27,0,0,1,35,32.76c13.73-1.19,30.88,21.42,18.56,32.59A13.29,13.29,0,0,1,44.83,68.65Z"/></clipPath><clipPath id="clip-path-5"><polygon class="cls-1" points="41.55 -45.41 30.24 19.98 109.33 33.12 119.16 -31.24 41.55 -45.41"/></clipPath><clipPath id="clip-path-6"><path class="cls-1" d="M131,41.28A20.74,20.74,0,0,1,138.43,20c7.77-6.11,18.83-2.72,25.1,4.44s6.63,20.49-.28,27.28c-6.76,6.63-18.35,6.89-25.57.84A20.74,20.74,0,0,1,131,41.28Z"/></clipPath><pattern id="Новий_зразок_візерунка_2" data-name="Новий зразок візерунка 2" width="200" height="200" patternUnits="userSpaceOnUse" viewBox="0 0 200 200"><rect class="cls-1" width="200" height="200"/><rect class="cls-2" y="5" width="200" height="200"/><path class="cls-3" d="M151.39,179.09c-5.66-2.15-9.45-7.68-15.42-9l.16-.23c6.82,1.15,12,6,18.35,8.42,1.11.41,1.83-1.28.72-1.7-6.24-2.34-11.3-6.92-17.83-8.36.23-.3.45-.6.68-.89,6.6,1.15,11.63,6.3,18.33,7.29a.92.92,0,0,0,.24-1.83c-6.33-.93-11.17-5.6-17.29-7.07l.2-.26c6.59,0,11.87,5.35,18.41,6.11a.92.92,0,0,0,.24-1.83c-6.2-.72-11.1-5.26-17.17-6,.3-.34.58-.69.88-1,6.28.61,11.41,4.75,17.65,5.6a.92.92,0,0,0,.24-1.82c-5.81-.8-10.65-4.45-16.38-5.43l1-1c6.1.88,11.35,4.36,17.39,5.56,1.17.23,1.4-1.59.24-1.82-5.6-1.11-10.5-4.18-16.05-5.33l.79-.79c5.84-.86,11.31,2.86,16.58,4.86,1.11.42,1.83-1.27.72-1.7-4.89-1.86-9.85-5-15.17-5.13.37-.33.73-.68,1.11-1,5.6,0,10.26,3.81,15.57,5.14,1.15.29,1.38-1.54.24-1.83-4.86-1.22-9-4.22-13.84-5l.66-.56a1,1,0,0,0,.44.09c5.68-.26,10.87,3.84,16.24,5.21,1.15.29,1.38-1.54.24-1.83-5-1.28-9.57-4.61-14.75-5.14.29-.21.56-.44.85-.65,6.27.8,11.52,4.88,18,4.68,1.18,0,.92-1.86-.25-1.82-5.58.17-10.34-3.09-15.63-4.34l1.31-.87c2.75.22,5.08,1.55,7.74,2.2a79.92,79.92,0,0,0,9.12,1.46.92.92,0,0,0,.24-1.83,62.21,62.21,0,0,1-10.2-1.79c-1.59-.48-3-1.1-4.55-1.51l.36-.22c5.77.09,11.42,1.67,17.22,1.53,1.18,0,.92-1.85-.25-1.83-4.72.11-9.33-.92-14-1.36l.68-.36c4.51.07,9,.49,13.53.3,1.18-.05.93-1.88-.25-1.83-3.24.14-6.47-.05-9.7-.19l.68-.31c3-.37,6-.25,8.95-.5,1.18-.1.93-1.92-.25-1.82-1,.08-2,.12-3,.16.73-.25,1.45-.5,2.19-.72,1.71-.51.63-3.06-1.07-2.55-.54.16-1.06.35-1.58.52.54-.5,1.09-1,1.67-1.44a.92.92,0,0,0-1.12-1.46c-1.51,1.17-2.83,2.55-4.23,3.85a1,1,0,0,0-.26.46c-.49.19-1,.41-1.45.61a24.13,24.13,0,0,1,5.13-4.64c1-.61-.11-2.06-1.12-1.46-2.87,1.7-4.73,4.48-7.17,6.68l-.21.08c1.65-2.56,3.31-5.11,5.92-6.8,1-.65-.13-2.1-1.12-1.46-3.82,2.47-5.7,6.67-8.34,10.22-.19.13,7.09-2.75,6.91-2.61,1.71-3.26-4.48-3.72-2.34-6.75.68-1-.77-2.1-1.45-1.13-2.53,3.58-3.85,7.78-6.11,11.51a.71.71,0,0,0-.37.17c.69-3.25,1.11-6.58,3.13-9.33.7-1-.75-2.09-1.46-1.13-3,4.07-2.5,9.25-4.42,13.66l-.8.55a64,64,0,0,1,3.13-11.92c.41-1.11-1.28-1.83-1.7-.72a67.61,67.61,0,0,0-3.53,14.12l-.14.11c-.39-4.34,1.69-8.44,1.83-12.83,0-1.17-1.79-1.43-1.83-.24-.16,4.92-2.61,9.45-1.68,14.37-.29.23-.58.48-.87.71-.18-4.69-.61-9.44,1.42-13.82.5-1.08-1.2-1.79-1.7-.72-2.31,5-1.67,10.38-1.52,15.7-.47-4-1.46-8-.2-12,.36-1.12-1.34-1.85-1.7-.72-1.54,4.85-.11,9.55.23,14.44l-.87.8c-.45-4.25-1.95-8.39-1.35-12.71a.92.92,0,0,0-1.83-.24c-.68,5,1.37,9.6,1.48,14.52l-.15.15c-.51-4-2.39-7.71-2.4-11.8,0-1.17-1.83-1.43-1.83-.24,0,4.74,2.53,9,2.52,13.73-.45.45-.88.91-1.32,1.37-.32-4.1-2.37-8-1.83-12.16a.92.92,0,0,0-1.83-.24c-.65,5,2.32,9.5,1.79,14.42l-.08.09c-1.14-4.58-4.54-9.42-2.36-13.42.57-1-1.13-1.75-1.7-.72-2.81,5.18,2.23,10.56,2.57,15.88-.51.6-1,1.21-1.5,1.83a42.27,42.27,0,0,0-1.5-6.19c-.4-1.44-2.56-6.57-1.59-8,.65-1-.8-2.12-1.45-1.13-1.22,1.86,0,5,.52,6.87.82,3.18,2.15,6.46,2.28,9.78a.76.76,0,0,0,.27.58l-.26.34c-.57-5.19-5-9.37-4.71-14.79.05-1.18-1.77-1.43-1.83-.24-.27,6.08,5.22,10.79,4.72,16.72-1.59-5-5.94-9.06-5.48-14.5.1-1.18-1.73-1.43-1.82-.24-.55,6.5,5,10.74,5.92,16.83a.9.9,0,0,0,.18.41c-.83,1.21-1.65,2.43-2.42,3.68-.93,1.5,1.25,3.21,2.18,1.69s1.94-3,3-4.47c6.22.89,10.14,6.84,15.88,9C151.77,181.21,152.49,179.51,151.39,179.09Z"/><g class="cls-4"><polygon class="cls-5" points="41.55 154.59 30.24 219.98 109.33 233.12 119.16 168.76 41.55 154.59"/><path class="cls-6" d="M126.62,161.36a1,1,0,0,0-1.83-.24c-1.94,3.48-3.77,7.07-5.5,10.73-.2-.84-.42-1.67-.68-2.49a1,1,0,0,0-1.83-.24,59.73,59.73,0,0,0-4.21,6.47,29.17,29.17,0,0,0-1.46-4.73,1,1,0,0,0-1.67-.44l-.13.15a28.11,28.11,0,0,0-3.3-11.44,1,1,0,0,0-1.37-.36,17,17,0,0,0-3.7,2.95,43.07,43.07,0,0,0-1.33-5.85,1,1,0,0,0-1.67-.44,37.77,37.77,0,0,0-7.54,14.44,57.42,57.42,0,0,0-2.29-10.49,1,1,0,0,0-1.67-.44c-.55.62-1.05,1.27-1.53,1.93-.24-1-.5-2-.79-3-.19-.65-1.19-1.07-1.67-.44-3.55,4.58-5.62,10-7,15.58A40.38,40.38,0,0,0,72,156.62a1,1,0,0,0-1.73,0q-.52,1-1,2a7.26,7.26,0,0,0-3.87-3,1,1,0,0,0-1,.26,30.86,30.86,0,0,0-5.2,8.07A26.64,26.64,0,0,0,56,158.12a1,1,0,0,0-1.57-.2,14.43,14.43,0,0,0-4.11,5.56,24.12,24.12,0,0,0-6-10.06,1,1,0,0,0-1.57.2,58.55,58.55,0,0,0-4.54,21.46,21.61,21.61,0,0,0-2.89-3.16,1,1,0,0,0-1.41,0c-3.08,3.79-3.92,8.67-3.86,13.79-.55-.79-1.12-1.55-1.72-2.29a1,1,0,0,0-1.41,0c-4.59,5.93-4.41,14-3.71,21.14a88.79,88.79,0,0,0,6.46,25.33c.49,1.17,2.43.66,1.93-.53a95.34,95.34,0,0,1-5.9-21.18,60.09,60.09,0,0,1-.77-12.38,28,28,0,0,1,1-6.31c.46-1.65,1.13-4.62,2.71-2.34.57.81,1.09,1.65,1.59,2.51.43,5,1.39,10,1.69,14.31.73,10.38-.07,24.62,7.47,32.86a1,1,0,0,0,1.71-.71,107,107,0,0,0-2.49-28.26,67.63,67.63,0,0,0-6.41-18.67c-.37-5.1-.1-10.12,2.07-14.39.8-1.57,2.85,2,3.86,3.93,0,5.88.4,11.77.87,17.46.61,7.21,1.47,14.4,2.19,21.6.64,6.42,1.11,13.48,5.06,18.85a1,1,0,0,0,1.73,0,16.79,16.79,0,0,0,2.28-7.44,22,22,0,0,0,3.15,5.65c.52.66,1.43.17,1.67-.44a32.52,32.52,0,0,0,1.56-5.16c.19.47.39.94.61,1.4a1,1,0,0,0,1.73,0,29.65,29.65,0,0,0,1.53-3.35c.2,1,.41,2.08.65,3.11a1,1,0,0,0,1.83.24A77,77,0,0,0,66.72,220c-.58,3.45-1.56,6.92-1.56,10.4h0a2.42,2.42,0,0,1,0,.27c-.14,1.16,1.66,1.3,2,.27C70.72,219,72,206.34,73.59,194c.23-1.31.47-2.61.68-3.92,1.64-9.87,2.73-21.14,8.47-29.67q.36,1.39.64,2.8c-4.33,7.39-5.52,16.72-6.6,25-1.88,14.37-3.51,29-2.13,43.48a1,1,0,0,0,2,.27,223.93,223.93,0,0,0,8.73-37.35c1.43-10.17,2.08-20.86.14-31q.59-.92,1.25-1.79A63.05,63.05,0,0,1,88.9,175.8c-1.09,5.11-1.77,10.31-2.49,15.09-2.66,17.69-3.65,35.36-4.25,53.23a1,1,0,0,0,2,.27c.33-1.33.64-2.67.93-4a.94.94,0,0,0,1.47-.25c6.1-13.71,8.61-28.58,11.46-43.22,2.06-10.59,4.45-21.79,3.31-32.64a16.65,16.65,0,0,1,3.46-3.21,28.38,28.38,0,0,1,2.76,11.66c-5.75,7.5-7.9,17.63-9.58,26.68-2.35,12.73-4.14,26.31-3.28,39.23a1,1,0,0,0,2,.27c.37-1.12.7-2.25,1-3.37,0,0,0,.07,0,.11a1,1,0,0,0,2,.27c1.83-5.58,3.83-11.1,5.74-16.65a113.62,113.62,0,0,0-.7,13.89,1,1,0,0,0,2,.27q1.48-3.85,2.92-7.72c-.45,1.73-.91,3.46-1.35,5.18a1,1,0,0,0,1.93.53c3.37-13.23,7.07-26.62,11.3-39.6C124.58,182.13,128.79,171.67,126.62,161.36ZM37.3,211.13a101.27,101.27,0,0,1,2,22.21c-5.14-7.71-4.68-19.61-5.22-28.29-.2-3.14-.72-6.56-1.18-10A89.36,89.36,0,0,1,37.3,211.13Zm26.6-51.4c1.69-2.53,2.53-1.94,4,.42.14.23.27.47.4.72a98.45,98.45,0,0,0-6,19.17,56.11,56.11,0,0,0-2-13.13A35.26,35.26,0,0,1,63.89,159.74Zm-2.76,54.52c-.1-2.67-.09-5.35,0-8C61.25,208.92,61.27,211.6,61.14,214.25ZM55,160.13a27.46,27.46,0,0,1,3.16,6.62c-2.74,7.52-3.4,16-3.79,23.74q-.07,1.5-.14,3c-.19-1.47-.35-2.94-.46-4.38-.51-6.62-.66-15.05-2.52-22.56A16,16,0,0,1,55,160.13Zm-11-4.19c2.72,3.18,4.05,7.37,5,11.49-.41,1.51-.72,3-1,4.5-1.3,7.09-1.33,14.43-1.19,21.62.11,5.72.36,11.46.67,17.18a63.41,63.41,0,0,1-1.25-6.32c-1.11-8.41-1.78-18.62-6.1-26.42C40.21,170.38,41.19,162.85,44,155.94Zm3.07,78.2c-3.08-5.24-3.37-11.81-4-17.73-.63-6.25-1.34-12.49-1.92-18.74-.43-4.64-.85-9.47-1-14.33.51,1.52.94,3.07,1.34,4.61a133.75,133.75,0,0,1,2.71,16.46C45.36,213.3,51,225.34,47.06,234.14Zm6.8-2.16c-3.75-5.92-4-13.84-4.36-20.6-.28-5.58-.52-11.18-.68-16.76a134.75,134.75,0,0,1,.62-18.93c.13-1.13.28-2.33.47-3.55,1.05,6,1.45,12,1.91,18.07.38,5,1.35,10.16,2.2,15.33,0,1.65.1,3.29.21,4.91.31,4.73.19,9.59,1.11,14.22A34.34,34.34,0,0,1,53.87,232Zm4.36-4.26a26,26,0,0,1-.87-2.8c.61-6.25-.19-12.69-1.21-19.08,0-.39,0-.78,0-1.16A211.92,211.92,0,0,1,57,182.25a68.27,68.27,0,0,1,2.15-11.85c1.43,6.55,1.37,13.68,1.4,20.14,0,.22-.06.43-.09.65-1.37,10.49-2,21.31-.55,31.85A30.45,30.45,0,0,1,58.22,227.71Zm4.29-35.37c0-.63,0-1.27,0-1.92a110,110,0,0,1,6.77-26.79c.21.84.38,1.68.54,2.5,2.16,11.49.09,24.23-1.75,35.61-1.32,8.16-2.66,17-5.59,24.93-.22-1.21-.42-2.41-.59-3.63C64.29,213.2,62.62,202.32,62.52,192.35Zm9.25-3.42c.77-7.46,1.17-15.1.09-22.55a23.57,23.57,0,0,0-1.39-5.51c.2-.45.41-.9.62-1.34,4.09,10.68,2,23.15.54,34.16q-.48,2.71-1,5.41C71.06,195.64,71.43,192.23,71.77,188.92Zm11.44,6.65a206.86,206.86,0,0,1-6.91,30.63c-.47-11,.7-21.87,1.88-32.81.92-8.53,1.74-18.9,5.76-27.08C85.37,176,84.56,186,83.21,195.58Zm15-37.32a44,44,0,0,1,1,5.49c-5.08,6.86-6.7,17.17-8.12,24.76-.19,1-.37,2-.56,3.07a131.56,131.56,0,0,0,.34-16C92.31,169.23,94.45,163.12,98.2,158.26ZM88,193.87c.27-1.83.53-3.74.8-5.68-.22,3.85-.56,7.69-.88,11.48-.91,10.68-1.59,21.42-3.25,32A369.67,369.67,0,0,1,88,193.87Zm7.78,4C93.41,210,91.27,222.2,87,233.74c.93-13.91,3.1-27.55,5.46-41.32,1.28-7.43,2.54-18.22,7.07-25.64C100.14,177.16,97.72,187.82,95.76,197.9Zm21.5-26c.25,1,.45,2,.61,3.08q-2.43,5.42-4.5,11a42.19,42.19,0,0,0-.23-7.27A64.1,64.1,0,0,1,117.26,171.88ZM109.8,173a30,30,0,0,1,1.26,5.38c-.79,1.56-1.53,3.16-2.22,4.77a64.16,64.16,0,0,0,.64-9.77ZM96.46,232.59c0-10,1.37-20.18,2.95-30,1.39-8.68,3.21-18.72,8.12-26.42a109.83,109.83,0,0,1-2.51,17.5c-.7,2.22-1.34,4.45-1.94,6.67a158.39,158.39,0,0,0-4.71,25.14C97.77,227.85,97.14,230.23,96.46,232.59Zm3.66-4.33c.07-.82.15-1.65.24-2.47,2.63-10.46,4.56-21.07,6.59-31.69l0-.25a98.86,98.86,0,0,1,4.4-11.57,60.68,60.68,0,0,1-1.64,14.88c-.8,2.84-1.53,5.7-2.16,8.57C105.47,213.36,102.74,220.79,100.12,228.26Zm10.31-25.32c.48-1.82.94-3.7,1.35-5.61A159.92,159.92,0,0,1,118.29,179c.43,7.74-1.22,15.66-3.1,23.07a234.17,234.17,0,0,1-8.44,25.42,123.48,123.48,0,0,1,2.85-21.55C109.89,204.92,110.17,203.93,110.43,202.94Zm9.16-11.89a54.24,54.24,0,0,0,.36-15.84q2.42-5.36,5.16-10.46C126,173.59,122.45,182.65,119.59,191.05Z"/></g><polygon class="cls-7" points="66.11 212.82 68.88 197.63 58.27 191.6 70.29 189.65 72.61 176.93 78.05 188.67 87.66 189.65 80.18 195.99 87.66 209.2 75.34 200.97 66.11 212.82"/><path class="cls-8" d="M114.92,200.83c-5.23-2.26-10.69-3.17-16.31-3.89-4.91-.63-9.78-1.41-14.65-2.25A25.77,25.77,0,0,0,91,190.63c3.75-3.09,8.63-9.72,5.69-14.91-2.49-4.39-7.57-3.16-11.28-1.09a20.15,20.15,0,0,0-6.37,6c1.13-6,2.17-12,3-18.07.27-1.89-2.62-2.71-2.89-.8-1.3,9.1-3,18.13-4.8,27.14l-.74,1.6c-2.68-8.7-2.43-27.25-13.82-24.86-5.68,1.19-4.57,8-3.43,12.19,1.75,6.44,6.06,10,10.67,13.87-4.07-.74-8.15-1.48-12.23-2.18-6.75-1.16-13.88-.72-20.3-3.3-1.8-.72-2.57,2.18-.8,2.89,5.06,2,10.46,2.17,15.83,2.66,7.37.67,14.76,2.43,22,3.79a1.31,1.31,0,0,0,.4.08l.31.06.66.12c-2.13,10.31-4.35,20.6-6.3,30.94-.36,1.89,2.54,2.7,2.89.8,1.95-10.36,4.17-20.67,6.31-31,.28,0,.56,0,.84-.06,5.53,1,11.07,2,16.64,2.82,6.78.93,13.65,1.39,20,4.13C115.16,204.17,116.69,201.59,114.92,200.83ZM80.75,183.68c1.55-2.44,11.25-12.95,13.52-5.89,1.57,4.87-3.6,9.6-7.09,11.9a24.54,24.54,0,0,1-10.34,3.75h0l-.26,0c.23-1.1.44-2.21.67-3.31A68.8,68.8,0,0,1,80.75,183.68Zm-20.57-4.11a25.6,25.6,0,0,1-1.69-6.77c-.38-3.77,2.72-5.7,5.73-3,3.39,3,4,9.44,4.87,13.6.46,2.32.76,5,1.45,7.39C66.52,187.49,62.14,184.56,60.18,179.57Z"/><g class="cls-9"><path class="cls-6" d="M72.27,109.43c-8-4.27-11.55-15.64-8.67-25.43,2.64-9,16.71-14.82,25.53-11.44C115.43,82.64,101.55,125,72.27,109.43Z"/><path class="cls-10" d="M104.66,81c-1,2.09-2.42,4-4.19,4.29,0-.17,0-.34,0-.51-.37-3.2-6.3-4.12-4.9-.79a7.29,7.29,0,0,0,2.95,2.87c0,.08-.07.16-.12.24-.84,1.34-3,1.17-4.27,1a7.92,7.92,0,0,1-3-1.2l-.21-.15a3.12,3.12,0,0,0,.3-4.41c-1.21-1.58-2.73.11-3.14,1.33a3.11,3.11,0,0,0,.55,2.87l-.25.15C85.17,89,80.57,89.22,79.27,85c2.36-1.79,4.56-4.83.33-5.31-1.58-.18-2.17,1.8-2.16,3a11.57,11.57,0,0,0,.14,1.68,6.15,6.15,0,0,1-1.75.59,9.23,9.23,0,0,1-3.07.09,6.67,6.67,0,0,1-2.68-3.23,10.55,10.55,0,0,0,2.57-.86c4.06-2.09,1-6.35-2.72-3.16a5.59,5.59,0,0,0-1.56,2.73c-.57,0-1.14,0-1.67,0-1.95-.07-4.81-.62-5.53-2.7-.32-.93-1.73-.33-1.4.59,1.06,3,4.93,3.94,8.4,3.67a3.54,3.54,0,0,0,.59,2c1.88,2.62,5.56,3.14,8.51,2.05a5.53,5.53,0,0,0,.68-.31,5.94,5.94,0,0,0,2.65,3.49c2,1.13,6.44.26,9.13-1.59a8.93,8.93,0,0,0,1,.75c2.75,1.71,7.76,1.79,9.26-1.09a2,2,0,0,0,.51,0c2.9-.55,4.36-3.28,5.52-5.76C106.48,80.7,105.07,80.11,104.66,81ZM71.43,78.47l1,.78a5.15,5.15,0,0,1-1.53.78,6.07,6.07,0,0,1-.75.21A4.11,4.11,0,0,1,71.43,78.47Zm7.91,4.63-.35.26A9,9,0,0,1,79,82Q81.12,82.08,79.34,83.1Zm18.59.52a2.11,2.11,0,0,1,.94,1.4,5.37,5.37,0,0,1-1.64-1.23Z"/><path class="cls-10" d="M105,100.47A6.27,6.27,0,0,1,101.4,102a5.58,5.58,0,0,1-2.93-.51,3.61,3.61,0,0,0-1.25-3.85c-.72-.57-2.33-.41-2.37.75a4.33,4.33,0,0,0,1.48,3.64,6.9,6.9,0,0,0,0,.75c-1.54,2.34-4.27,1.67-6,0a5.16,5.16,0,0,0,1-2.64c.21-3.2-4.91-3.33-3.82,1.29a4.42,4.42,0,0,0,.61,1.38c-.37.32-.77.62-1.16.9a6.74,6.74,0,0,1-6.14,1.12,4.85,4.85,0,0,1-2.41-2.79A8.2,8.2,0,0,0,80,99.9c.67-1.36-.55-4.1-2.35-3.34-2.23.94-2.17,3.09-1.15,5.18a3.3,3.3,0,0,1-.93.41c-1.88,1-3.93,0-5.5-1a2.64,2.64,0,0,1-1.52-2.49c1.26-.55,2.75-1.59,2.8-3.09,0-1.08-1.28-2.32-2.3-1.47A5,5,0,0,0,67,97.92c-2.84.93-6.63.17-6.86-2.82-.07-1-1.58-.77-1.51.21.35,4.61,4.93,5,8.55,3.85.78,2.62,3.9,4.79,7,4.9a5.34,5.34,0,0,0,3.14-1c1.24,1.82,3,3.36,4.39,3.66,2.28.51,5.47-.69,7.55-2.62,2.6,2.17,7.27,2.34,8.76-1.07a8.54,8.54,0,0,0,7.92-1.33C106.63,101,105.71,99.82,105,100.47Zm-15.16-.08a3.45,3.45,0,0,1-.5,1.11,3.8,3.8,0,0,1-.47-1.88Z"/><path class="cls-10" d="M106.78,89.38A74,74,0,0,1,83,91.5c-7.55-.54-16.33-1.87-23-5.59-.86-.48-1.44.93-.59,1.4C66,90.94,74.19,92.1,81.51,92.89a72.22,72.22,0,0,0,25.48-2C107.93,90.65,107.73,89.13,106.78,89.38Z"/></g><path class="cls-11" d="M94,75.7a4.83,4.83,0,0,0-1.89-3.16c-1-.58-1.47-.82-1.41-2.13,0-.27.48-1.56.55-2.44l-.63-.21c.9-1.88,2-4.89-.42-5.71a2.26,2.26,0,0,0-3,1.37,9.26,9.26,0,0,0-.42,3L86,66.14a16.27,16.27,0,0,1-1,2.93c-.77,1.17-2.19.66-3.3,1a2.91,2.91,0,0,0-1.26.89,1.64,1.64,0,0,0,1.31,2.77c.91,0,1.28-.61,1.71-1.35-1.28,2.22,3.09,5,3.67,2.08.11,2.72,3.76,3.21,3.3.08A5,5,0,0,0,91.63,77,1.4,1.4,0,0,0,94,75.7Zm-6.3-9c.1-1.58.06-3.78,1.54-3.84,2.35-.1,1.13,3,.39,4.52Z"/><path class="cls-3" d="M102.12,47.47c-1.79-3.09-5.71-1.33-7.52.71a19.2,19.2,0,0,0-2.1,2.89,14.74,14.74,0,0,0,.36-3.22c0-2.07-1.23-7-4.3-6.57-2.56.37-2.83,3.89-3,5.92-.35,4.37,1.67,8.23,2.48,12.38-4.38-3.22-12.35-1.52-16.6.79-.85.46-.27,1.87.59,1.4,3.76-2,12.2-4.14,15.75-.47C78.42,60.37,69.42,65,63,71.6c-.69.71.53,1.63,1.2.93C70.6,65.93,79.76,61.44,89.12,63a.64.64,0,0,0,.31,0l.09,0h0a.65.65,0,0,0,.22-.13c3.12-2.46,7.23-3.18,10.32-5.74C102.76,54.82,103.91,50.56,102.12,47.47Zm-14.36-3.7q2.46-.9,3.12,1.27a6.59,6.59,0,0,1,.45,2.16,17.11,17.11,0,0,1-1,5.89c-.39,1.43-.88,2.85-1.27,4.28C88,52.86,86,48.51,87.76,43.77Zm13.11,9.72c-1.52,4-6.67,5-10.36,7a36.23,36.23,0,0,1,3-8.1,13.58,13.58,0,0,1,3.35-4.2C100.89,44.79,101.87,50.87,100.87,53.49Z"/><g class="cls-12"><path class="cls-8" d="M131,241.28A20.74,20.74,0,0,1,138.43,220c7.77-6.11,18.83-2.72,25.1,4.44s6.63,20.49-.28,27.28c-6.76,6.63-18.35,6.89-25.57.84A20.75,20.75,0,0,1,131,241.28Z"/><path class="cls-6" d="M178.13,234.8a140.15,140.15,0,0,0-46.4-16.11c-.55-.09-.81.75-.25.85a139.41,139.41,0,0,1,46.19,16C178.16,235.83,178.63,235.08,178.13,234.8Z"/><path class="cls-6" d="M175.08,236.79c-14.82-7.64-30.39-14.06-47.17-15.5-.57,0-.59.83,0,.88,16.62,1.42,32,7.8,46.73,15.37C175.12,237.8,175.58,237.05,175.08,236.79Z"/><path class="cls-6" d="M166.45,255c-13.89-4.28-27.13-10.33-40.71-15.45-.53-.2-.78.64-.25.84,13.59,5.12,26.82,11.17,40.71,15.45A.44.44,0,0,0,166.45,255Z"/><path class="cls-6" d="M170.78,258.52c-14.5-4.67-30.29-6.79-43.17-15.44-.47-.32-.94.43-.47.75,12.95,8.7,28.82,10.85,43.39,15.54A.44.44,0,0,0,170.78,258.52Z"/><path class="cls-6" d="M178.13,254c-3.85-1.78-7.75-3.41-11.7-4.94-1.61-1.73-2.57-3.88-3.75-5.9,5,2,10,4,15,5.89.53.2.78-.64.25-.85-5.07-2-10.12-4-15.19-6,.45-.14.89-.33,1.34-.5a12.92,12.92,0,0,1,4.75-.58h.06l8.34,3.2c.53.2.78-.64.25-.84-10.17-3.92-20.34-7.84-30.56-11.65q-4.45-1.66-8.92-3.29c-3.67-1.34-8.21-1.83-11-4.78-.39-.41-1,.19-.65.6,2.37,2.49,5.89,3.3,9.08,4.24l1.62.5a66.7,66.7,0,0,1-6.48,2.06l-2.15-.55c-.55-.13-.8.71-.25.85l2.08.53a.35.35,0,0,0,.31.08l.14,0a17.18,17.18,0,0,0,2.31,2.52,15.93,15.93,0,0,1,2.54,3.81,46.27,46.27,0,0,1-7.36-3.06c-.5-.27-1,.48-.47.75a60.21,60.21,0,0,0,10.72,4.19c3,.93,5.89,1.89,8.83,2.87l.08,0,4,1.32a255.73,255.73,0,0,1,26.32,10.17C178.18,255,178.65,254.23,178.13,254Zm-15.82-15.38,4.48,1.72a15.78,15.78,0,0,0-1.74.19c-1.33.23-2.48,1.16-3.86,1.07h-.06q-2.82-1.1-5.64-2.18a26.38,26.38,0,0,1,6.62-.77A.42.42,0,0,0,162.32,238.62ZM155,235.83l5.19,2a39.19,39.19,0,0,0-6.19,1.05c-1.72-.64-3.43-1.28-5.15-1.9C150.91,236.7,152.93,236,155,235.83Zm-6-2.25,4.28,1.61c-2.24.43-4.46,1.17-6.75.94h0c-1.33-.46-2.66-.92-4-1.37a34.33,34.33,0,0,0,5.44-1.59Zm-6.15-2.35,3.8,1.46c-.69-.26-3.47,1.09-4.4,1.2a11.19,11.19,0,0,1-4.71-.7c1.79-.53,3.46-1.41,5.26-1.93Zm-4.65-1.63.06,0c1.1.38,2.2.78,3.29,1.18a34.73,34.73,0,0,1-5.4,1.88.4.4,0,0,0-.19.09c-1.25-.37-2.5-.73-3.76-1.08A42.44,42.44,0,0,0,138.24,229.59ZM141,240.24l-4.28-1.38a.44.44,0,0,0-.06-.18,35,35,0,0,0-2-3.43,34.44,34.44,0,0,0-2.54-2.72c1.36.37,2.72.77,4.08,1.17a32.4,32.4,0,0,1,4.91,6.57Zm1.42.47h0a57.42,57.42,0,0,0-4.5-6.47l2.7.86c2.77,1.5,4.22,4.31,5.79,6.94Zm5.29,1.73c-1.39-2.22-2.6-4.67-4.45-6.5q2.11.71,4.21,1.46c1.59,1.95,2.42,4.46,4.07,6.31Zm6.32,2.11-.35-.12a.48.48,0,0,0-.14-.14c-2.29-1.47-3.19-4.13-4.61-6.36q2.39.86,4.76,1.76a.35.35,0,0,0,.07.07c2.1,1.46,2.77,4.08,4.17,6.15Zm5.48,1.92c-1.7-1.71-2.36-4.16-3.81-6q2.81,1.07,5.6,2.16c1.24,1.89,2.15,4,3.47,5.8Q162.16,247.42,159.53,246.47Z"/></g><path class="cls-7" d="M161,221.07a4.66,4.66,0,0,0-1.86-3c-.94-.55-1.43-.77-1.38-2,0-.26.44-1.51.5-2.36l-.61-.19c.85-1.82,1.87-4.74-.47-5.5a2.18,2.18,0,0,0-2.89,1.36,8.88,8.88,0,0,0-.37,2.89l-.72-.25a15.66,15.66,0,0,1-.91,2.84c-.73,1.14-2.1.66-3.17,1a2.82,2.82,0,0,0-1.2.87,1.58,1.58,0,0,0,1.3,2.65c.87,0,1.23-.6,1.63-1.32-1.21,2.16,3,4.75,3.57,2,.14,2.62,3.67,3,3.19,0a4.81,4.81,0,0,0,1.17,2.34A1.35,1.35,0,0,0,161,221.07Zm-6.18-8.57c.07-1.53,0-3.65,1.44-3.72,2.27-.12,1.12,2.88.43,4.36Z"/><path class="cls-5" d="M158.48,207.82s0,0,0-.06a.67.67,0,0,0,.18-.21,6.08,6.08,0,0,0,.34-.74c6-4.52,23.42-15.71,11.92-22.41-9-5.26-10.87,15.7-13,21.56h0c0-6.21-7.39-20.63-13.71-15.78-5.33,4.09-.68,9,4.68,12.69a23,23,0,0,0-7.37-.59c-4.53.4-9,1.77-13.46,2.47-.85.13-.54,1.44.3,1.3,4.22-.66,8.36-1.78,12.59-2.37a21.67,21.67,0,0,1,9.58,1c-9.27.19-17.93,12.65-26.75,13.7-.86.1-.54,1.41.3,1.3,5.42-.65,10.19-5.07,14.52-8,5-3.41,11.7-7.83,17.55-3.86a.67.67,0,0,0,.2.08.58.58,0,0,0,.51.25h.23s.08-.07.07-.06a5.24,5.24,0,0,1-.48.95c-.78,1.25.36,2,1.14.71a4,4,0,0,0,.7-1.69C158.57,207.94,158.5,207.93,158.48,207.82Zm-3.5-2.73a.67.67,0,0,0-.32-.28l-.53-.21c-1.25-.73-2.49-1.47-3.69-2.27-2.66-1.76-8-5.21-7-9.07,1.63-6.15,8,.37,9.54,2.69,1.77,2.6,4,6.7,3.65,10.1Zm4.71-.45c1.77-6.95,3.3-21.13,9.8-19.41a5.13,5.13,0,0,1,3.42,6.68c-.84,2.59-3.12,4.72-5.06,6.51A86.18,86.18,0,0,1,159.69,204.64Z"/><path class="cls-5" d="M226.47,85.07c-2.79-1.42-5.88.06-8.38,1.46a17.18,17.18,0,0,0-3,2.13c-1.67-10.42-14.61-11.73-20.4-19.2a1.13,1.13,0,0,0-.23-.22c-.12-.67-.22-1.35-.28-2-.43-4.66-.91-9.42,0-14,2.7-7.87,6.26-15.46,8.93-23.44.43-1.3-1.62-1.82-2.05-.53-1.23,3.66-2.63,7.24-4,10.79a55.72,55.72,0,0,0,1.27-5.67c.23-1.34-1.82-1.88-2-.53a54.33,54.33,0,0,1-2.46,9.36c-1.34,2.92-2.69,5.84-4,8.76a71.87,71.87,0,0,1-12.25,15.65c-2.19,2.15-4.49,4.19-6.77,6.23v0c-.86-2.49-1-5.27-1.63-7.82-.6-2.3-1.65-5.42-4.27-6-3.38-.8-4.22,3.23-3.9,5.66.54,4,3.58,6.07,6.5,8.46a41.5,41.5,0,0,0-16.92,4.64l0,0v0a.63.63,0,0,0-.41-.53,9.09,9.09,0,0,0-1.46-1.4,16.85,16.85,0,0,0-8-9.51c-1.93-.9-5-2.24-7.12-1.26a3.52,3.52,0,0,0-1.66,4.73c2.85,4.91,10.52,3.92,15.15,6.84.71,3,0,6-.59,9.24-.27,1.44-2.93,12.91,2.46,10.23,6.29-3.12,3.44-10.82,2.09-16.23a1.09,1.09,0,0,0,.45-.13,39.08,39.08,0,0,1,16.78-4.48c-5.87,5.37-11.23,11.05-13.64,19.1-3.19,1.67-6.5,3.75-8.64,6.68-1.11,1.52-1.28,5,.91,5.69s4.26-2.8,5.2-4.08l.48-.67a14.56,14.56,0,0,0-.32,4c.15,2,2.23,4.88,4.56,4.1,2.16-.73,1.51-4.69,1.32-6.28a47.53,47.53,0,0,0-1.72-8.13.94.94,0,0,0,0-.11c3.59-13.07,15.59-20.14,24.55-29.28Q183,65,184.83,62.75a204.48,204.48,0,0,0-8,21.12.72.72,0,0,0,0,.08,47,47,0,0,0-8.59,3.38c-2.29,1.11-6.72,3.13-6.65,6.24s4.83,3.65,7,2.73c3.16-1.38,5.09-4.76,7-7.81a113,113,0,0,0-2.74,12.91.69.69,0,0,0-.52.93,48.28,48.28,0,0,0-6.08,4.41c-1.31,1.11-4.27,3.57-3.25,5.65,1.14,2.31,4.38,1.64,5.9.22a8.74,8.74,0,0,0,1.78-2.45c-.25,3,.14,5.92,2.43,6.64a2.71,2.71,0,0,0,2.53-.41,9.36,9.36,0,0,0,1-.2c4.08-1,5.4-4.5,7.71-7.47,1.94,4.27,9.09,12.38,12.86,8.75,2.11-2,.48-5.05-1.14-6.88a9.89,9.89,0,0,0-5.17-2.65,4.06,4.06,0,0,0,.32-.38c3,.67,5.81,2.72,8.87,3.8,2.26.8,6.28,1,7.37-1.68a2.23,2.23,0,0,0,.14-1.13c2.93,4.22,6.46,11.4,10.3,5.77s-6.33-9.13-10.63-10.31a24,24,0,0,0-.31-3.54,15.61,15.61,0,0,0,1.77-1.68c2.13-2.41,3.85-4.89,5.83-7.07,4.14.83,11.3,3.1,13.43-.61C228.9,89.34,228.47,86.08,226.47,85.07Zm-22.65-6.33c3.52,2.05,7.1,4.4,8.6,8.1-.67,3.47-4.53,4.58-7.72,6.2-1.7-4.19-4-8.21-6-12.17a57.61,57.61,0,0,1-3.24-7.59A53.25,53.25,0,0,0,203.82,78.74Zm-27.39,29c-.57-1.39-1.28-2.74-1.91-4.09v0a113.3,113.3,0,0,1,3.67-17c4.26,5.26,6.77,12.89,5.9,19.51a.75.75,0,0,0,0,.08A21.72,21.72,0,0,0,176.42,107.77Zm2.49-23.56c3.29-10.53,7.78-20.65,12.41-30.73.34-.6.67-1.21,1-1.82q-.16.67-.28,1.34a73.75,73.75,0,0,0-3.47,14.34,70.43,70.43,0,0,0,.19,19c.92,6.39,2.38,13,1.25,19.42a9,9,0,0,0-3.83.48A29.39,29.39,0,0,0,178.91,84.22Zm12.45,4.9c-.75-6.67-1.52-12.9-.92-19.65a57.53,57.53,0,0,1,1.21-7.57c.07,1.23.17,2.46.27,3.69A38.44,38.44,0,0,0,195,77.75c2.34,5.38,5.74,10.71,7.93,16.33a5.33,5.33,0,0,0-2.58,5c.23,3.88,2.4,3.87,4.57,2.7a22.59,22.59,0,0,1,.15,2.38,1,1,0,0,0,0,.16.85.85,0,0,0-.67.58,5.6,5.6,0,0,0-.9-.39c-3.71-1.17-7.51-.4-11.24.35C192.9,99.59,192,94.42,191.36,89.12Z"/><path class="cls-8" d="M205,63c-4.23-3.34-5.34-8.51-8-12.93,6.57,1.45,16.43-4,16.07-10.71-.25-4.6-5.27-5.38-8.74-4.18s-5.82,4.39-7.54,7.75a24.76,24.76,0,0,0-1.78-9.36c-1.38-3.47-4.93-7.65-9.1-6.79-3.39.71-2.75,6.38-2.33,8.66.76,4.16,4.15,7.79,7.73,10.58-.45.32-.6,1,0,1.31s1.51.67,2.27,1a.94.94,0,0,0-.11.41,18.8,18.8,0,0,1-2.61-1.17c-.91-.51-1.75,1-.84,1.54,1.43.81,3,1.09,4.55,1.8-.17,5.55.58,11.11,3.64,15.88.56.88,2,.06,1.4-.82-2.66-4.15-3.44-8.9-3.44-13.71,2.37,3.94,3.6,8.89,7.6,12C204.65,65,205.83,63.7,205,63ZM187.07,39c-1.25-1.83-4.85-13,1.79-10.23,6,2.52,7.1,11.83,6,17.77A28.74,28.74,0,0,1,187.07,39Zm9.81,9.32a.26.26,0,0,0,0,0s0-.06,0-.1a.75.75,0,0,0,0-.18.94.94,0,0,0-.05-.13l-.08-.1a.68.68,0,0,0-.15-.14l0,0-.06,0a50.39,50.39,0,0,1,3.38-6.49,12.2,12.2,0,0,1,4.22-4c3.18-1.85,8.13-.79,7.42,3.9C210.72,46,201.92,49.7,196.88,48.35Z"/><path class="cls-8" d="M140.5,77.78l-.4.41a4.55,4.55,0,1,0,6.56,6.31l.4-.41a4.55,4.55,0,1,0-6.56-6.31Z"/><path class="cls-3" d="M140.27,81.93a.92.92,0,0,0,0,1.29l.16.15a.91.91,0,0,0,1.26-1.31l-.15-.15A.92.92,0,0,0,140.27,81.93Z"/><path class="cls-8" d="M180.11,113.86l.08.57a4.55,4.55,0,1,0,9-1.22l-.08-.57a4.55,4.55,0,1,0-9,1.22Z"/><path class="cls-3" d="M183.22,116.62a.92.92,0,0,0,1,.78l.21,0a.91.91,0,0,0-.25-1.8l-.21,0A.92.92,0,0,0,183.22,116.62Z"/><path class="cls-8" d="M210.71,96.66l.3.48a4.55,4.55,0,0,0,7.72-4.83l-.31-.48a4.55,4.55,0,1,0-7.71,4.83Z"/><path class="cls-3" d="M214.68,97.89a.92.92,0,0,0,1.25.29l.18-.11a.91.91,0,1,0-1-1.54l-.18.11A.92.92,0,0,0,214.68,97.89Z"/><path class="cls-8" d="M149.18,107l.26.41a3.88,3.88,0,0,0,6.57-4.11l-.26-.41a3.87,3.87,0,1,0-6.57,4.11Z"/><path class="cls-3" d="M152.56,108.06a.78.78,0,0,0,1.07.25l.15-.1a.77.77,0,1,0-.82-1.31l-.16.1A.78.78,0,0,0,152.56,108.06Z"/><path class="cls-8" d="M174.91,88.52l.26.41a3.87,3.87,0,0,0,6.57-4.11l-.26-.41a3.87,3.87,0,1,0-6.57,4.11Z"/><path class="cls-3" d="M178.28,89.57a.78.78,0,0,0,1.07.24l.15-.1a.78.78,0,1,0-.82-1.31l-.16.1A.78.78,0,0,0,178.28,89.57Z"/><path class="cls-8" d="M166.06,111.83l-.11.45a3.71,3.71,0,1,0,7.22,1.71l.11-.45a3.71,3.71,0,0,0-7.22-1.71Z"/><path class="cls-3" d="M167.62,114.84a.75.75,0,0,0,.55.89l.17,0a.74.74,0,1,0,.34-1.45l-.17,0A.75.75,0,0,0,167.62,114.84Z"/><path class="cls-8" d="M165.71,72.28l-.39.25a3.71,3.71,0,0,0,4.05,6.21l.39-.25a3.71,3.71,0,1,0-4.05-6.21Z"/><path class="cls-3" d="M164.77,75.53a.75.75,0,0,0-.22,1l.1.15a.74.74,0,1,0,1.24-.81l-.1-.15A.74.74,0,0,0,164.77,75.53Z"/><path class="cls-8" d="M53.73,89.17a56.46,56.46,0,0,0-9.57,7.77c.28-2.12.48-4.24.63-6.37,1.34-1.29,2.37-2.89,4-3.91.84-.54-.07-1.79-.9-1.25a14.56,14.56,0,0,0-2.92,2.81c.09-2,.15-3.9.12-5.86,0-1.49-2.32-1.23-2.3.25,0,1.31,0,2.62,0,3.93a11.55,11.55,0,0,0-2.3-2.58c-.76-.64-1.73.56-1,1.2a8,8,0,0,1,3.07,5.28c-.1,1.48-.23,2.95-.39,4.42a35.85,35.85,0,0,0-4.19-7.91.77.77,0,0,0-1.25.9,32.69,32.69,0,0,1,5,10.64q-.4,2.69-.94,5.35a64.75,64.75,0,0,0-3.54-7.48c-.44-.88-1.89-.34-1.44.55,1.69,3.38,3.72,6.62,4.23,10.37-.49,2.09-1,4.16-1.64,6.22a36.1,36.1,0,0,0-4.61-11.1c-.54-.84-1.79.07-1.25.9a36.25,36.25,0,0,1,4.94,13.15c-.41,1.26-.84,2.51-1.3,3.75a42.81,42.81,0,0,0-4.91-10.58c-.54-.84-1.79.07-1.25.9a42.48,42.48,0,0,1,5.26,12c-.44,1.12-.89,2.24-1.37,3.35a110.56,110.56,0,0,0-4.72-10c-.47-.88-1.72,0-1.25.9A111.88,111.88,0,0,1,33,127.84c-.52,1.15-1.05,2.3-1.61,3.43-.94-3.05-2.89-5.7-4.18-8.62-.4-.91-1.84-.36-1.44.55,1.48,3.37,4,6.39,4.53,10.11a.59.59,0,0,0,0,.08c-1.63,3.14-3.4,6.21-5.31,9.17-.8,1.24,1,2.71,1.8,1.45a115.68,115.68,0,0,0,5.95-10.37c2-3,6.51-4,9.72-4.9,1-.26.4-1.7-.55-1.44A30.15,30.15,0,0,0,34.47,130c.11-.24.23-.48.34-.72a.65.65,0,0,0,.16-.37c.23-.51.45-1,.67-1.55,4.08-2,7.88-4.16,12.6-3.85,1,.07,1.23-1.46.23-1.53-4.48-.3-8.1,1.39-11.91,3.23.45-1.09.88-2.2,1.3-3.3,2.92-2,6.56-2.9,10-3.46,1-.16.82-1.69-.16-1.54a29.6,29.6,0,0,0-9,2.67c.34-1,.67-2,1-2.93,3.75-2.4,7.31-5.07,11.53-6.63a.77.77,0,0,0-.55-1.44c-3.73,1.38-7,3.6-10.26,5.77.54-1.81,1-3.63,1.48-5.46a75.43,75.43,0,0,1,9.18-7.15c.83-.56-.08-1.81-.9-1.25a80.9,80.9,0,0,0-7.68,5.82c.36-1.64.7-3.28,1-4.94a.65.65,0,0,0,.2-.62c0-.09,0-.17,0-.26.06-.36.1-.72.16-1.08a60.79,60.79,0,0,1,10.83-9C55.48,89.89,54.57,88.65,53.73,89.17Z"/><polygon class="cls-6" points="185.5 180.69 190.89 166.81 182.06 157.52 193.93 159.97 202.26 146.46 204.85 162.52 214.34 166.69 204.43 171.76 207.24 183.56 197.81 173.18 185.5 180.69"/><polygon class="cls-7" points="62.31 149.21 58.86 137.52 49.24 137.03 57.02 131.39 54.14 121.6 62.15 127.94 69.28 125.22 66.25 132.35 76.22 139.01 64.61 137.58 62.31 149.21"/><g class="cls-13"><path class="cls-14" d="M44.83,68.65a16.92,16.92,0,0,1-9.53-2.74C29.36,62,21.67,54.57,22,46.83A14.27,14.27,0,0,1,35,32.76c13.73-1.19,30.88,21.42,18.56,32.59A13.29,13.29,0,0,1,44.83,68.65Z"/><path class="cls-7" d="M55.38,39.26c-.8,3.1-4.27,3.06-6.71,1.87a4.39,4.39,0,0,0,1.55-6.44c-.46-.78-1.57.07-1.12.84,1.37,2.33.16,3.94-1.77,4.75a.69.69,0,0,0-.93.31,7.54,7.54,0,0,1-4.67-.19l.32-.29c2.95-3,2.29-7.2-.7-9.81-.68-.59-1.54.52-.86,1.11A5.12,5.12,0,0,1,41.17,39c-1.4,1.72-3.77,2.57-5.5,1-.14-.16-.07-.48-.2-.65h0s-.32.09-.37,0-.39-.08-.52-.08a5.19,5.19,0,0,0-2.71-7.94c-.85-.28-1.42,1-.56,1.3a3.71,3.71,0,0,1,2.51,5c-.86,2.39-3.18,2.66-5.1,1.56l0-.13a.65.65,0,0,0-1.11-.22.68.68,0,0,0-.15,1.17l.11.07c.45,1.66.73,4.07-1.13,4.81s-3.9-1.72-4.71-3.14c-.45-.78-1.56.07-1.12.84,1.27,2.2,3.59,4.42,6.34,3.6a15.65,15.65,0,0,1-1,4.31c-.61,1.53-2.25,2.34-3.62.94a4.5,4.5,0,0,1-.73-4.19c.26-.86-1-1.41-1.29-.54-.77,2.54.31,7.45,3.92,6.87a3.7,3.7,0,0,0,1.09-.35c.47,2.36,1.45,6.45-1.53,6.65-.9.06-.74,1.45.16,1.39,3.39-.22,3.44-3.4,3.06-6.23a4.11,4.11,0,0,0,5.51,1l.14-.09c1.22,2.58,1.24,7.13-2.71,6.46a.7.7,0,0,0-.2,1.39,4.11,4.11,0,0,0,3.33-.66c1.16,1.91,2.43,3.95,2.35,6.26,0,.89,1.35,1.1,1.39.19a11.32,11.32,0,0,0-1.91-6.11c1.72,1.17,3.5,1.87,5.43.73.9,1.84,2.94,5.6.39,6.82-.81.39-.3,1.7.52,1.3,2.67-1.28,2.29-4,1.38-6.37a6,6,0,0,0,6-.36,6.76,6.76,0,0,1,.93,5.13c-.16.89,1.23,1.08,1.39.2a8.32,8.32,0,0,0-.36-4.54c1.7.62,3.59,1,5.1-.09,2.07-1.43.79-5,.1-6.72l0,0c1.57-1.78.87-4.25-.1-6.39a4.89,4.89,0,0,0,5.11-1.67c.6-.67-.51-1.53-1.11-.86a3.34,3.34,0,0,1-4.88.47l.12-.16c1.63-2.39.61-6-.45-8.48a4.76,4.76,0,0,0,2.28-3.08C57,38.58,55.6,38.39,55.38,39.26Zm-12.55,3a8.58,8.58,0,0,0,4-.27c1.15,2.13,1.06,5.39-.2,7a.79.79,0,0,0-.7.64c-.83.52-2,.51-3.4-.42C44.33,47.15,44,44.48,42.83,42.23Zm-.19,8.61a4,4,0,0,0,3.55.2.73.73,0,0,0,.2.15l.39.19c.84,1.51,1.63,3.32,1.17,4.87-.64,2.18-4.32.43-6.15-.49A5.07,5.07,0,0,0,42.63,50.85ZM39.77,56c-2,1.37-4.39.65-6-.84a7,7,0,0,0,1.72-5.61c1.68,1,3.72,1.56,5.45.87A4,4,0,0,1,39.77,56Zm-3-13.65a5.84,5.84,0,0,0,3.83-1C42,43.17,43.2,45.81,41.72,48c-1.61,2.4-4.74,1-6.56-.38l0,0A4,4,0,0,0,36.75,42.31ZM29.1,41a4.5,4.5,0,0,0,4.64-.78.63.63,0,0,0,.13.35,5,5,0,0,0,.73.77C36,43,36.36,45,34.38,46.47a.74.74,0,0,0-1,.53,4.52,4.52,0,0,1-5-1.68A5.75,5.75,0,0,0,29.1,41ZM27,52.42a.67.67,0,0,0-.27-.34,10.75,10.75,0,0,0,1.51-4.91,5.69,5.69,0,0,0,5.58,1.1,5.8,5.8,0,0,1-1.42,6.24C30.14,56.51,27.87,54.75,27,52.42Zm7.39,9a7.45,7.45,0,0,0,.21-4,6,6,0,0,0,6-.48,5,5,0,0,1-.12,5.53C38.56,64.88,36.05,62.75,34.37,61.42Zm7.12,2.07-.06,0a5.81,5.81,0,0,0,.94-5.88c1.68.76,3.71,1.45,5.22.88.88,1.48,1.73,3.21,1.18,4.94C47.74,66.58,43,65.3,41.48,63.5Zm13.39,1.77c-1.18,1.14-3.72,0-5.12-.66A4.82,4.82,0,0,0,50,60.4a4.5,4.5,0,0,0,4.67.14C55.2,61.92,56,64.13,54.87,65.26Zm.42-8c-.45,4.12-4.78,2.16-6.53.31a3.42,3.42,0,0,0,.25-.37c.88-1.48.45-3.33-.3-5,1.68.58,3.51.83,4.94,0C54.5,53.8,55.5,55.42,55.3,57.28ZM54,49.69c-.89,2.69-4.2,1.57-6.28.61L47.56,50a8.2,8.2,0,0,0,1.1-7.29,7.53,7.53,0,0,0,4.53.38C54.06,45.1,54.76,47.52,54,49.69Z"/></g><polygon class="cls-8" points="124.34 142.5 117.98 129.04 105.16 129.05 115.11 122.12 111.04 106.78 124.47 115.96 134.03 111.93 130.88 122.62 141.39 128.7 127.36 128.4 124.34 142.5"/><circle class="cls-8" cx="15.65" cy="15.73" r="6.3"/><circle class="cls-8" cx="100" cy="154.59" r="6.3"/><circle class="cls-6" cx="189.24" cy="200" r="6.3"/><circle class="cls-6" cx="89.18" cy="127.9" r="6.3"/><circle class="cls-6" cx="116.86" cy="44.38" r="6.3"/><circle class="cls-6" cx="9.04" cy="134.52" r="2.76"/><circle class="cls-6" cx="74.7" cy="41.24" r="2.76"/><circle class="cls-6" cx="119.16" cy="92.21" r="2.76"/><circle class="cls-6" cx="173.37" cy="171.5" r="2.76"/><circle class="cls-7" cx="178.17" cy="18.49" r="2.76"/><circle class="cls-7" cx="152.59" cy="124.64" r="2.76"/><circle class="cls-7" cx="15.65" cy="67.5" r="2.76"/><circle class="cls-7" cx="18.41" cy="187.29" r="2.76"/><circle class="cls-7" cx="192" cy="144.48" r="2.76"/><circle class="cls-8" cx="113.13" cy="71.23" r="3.73"/><circle class="cls-8" cx="130.42" cy="187.29" r="3.73"/><circle class="cls-8" cx="30.24" cy="165.01" r="3.73"/><path class="cls-5" d="M26.47,85.07c-2.79-1.42-5.88.06-8.38,1.46a17.18,17.18,0,0,0-3,2.13C13.43,78.23.5,76.92-5.29,69.45a1.13,1.13,0,0,0-.23-.22c-.12-.67-.22-1.35-.28-2-.43-4.66-.91-9.42,0-14C-3.14,45.3.43,37.71,3.1,29.73c.43-1.3-1.62-1.82-2.05-.53C-.18,32.86-1.58,36.44-3,40a55.72,55.72,0,0,0,1.27-5.67c.23-1.34-1.82-1.88-2-.53a54.33,54.33,0,0,1-2.46,9.36c-1.34,2.92-2.69,5.84-4,8.76A71.87,71.87,0,0,1-22.53,67.55c-2.19,2.15-4.49,4.19-6.77,6.23v0c-.86-2.49-1-5.27-1.63-7.82-.6-2.3-1.65-5.42-4.27-6-3.38-.8-4.22,3.23-3.9,5.66.54,4,3.58,6.07,6.5,8.46a41.5,41.5,0,0,0-16.92,4.64l0,0v0a.63.63,0,0,0-.41-.53,9.09,9.09,0,0,0-1.46-1.4,16.85,16.85,0,0,0-8-9.51c-1.93-.9-5-2.24-7.12-1.26a3.52,3.52,0,0,0-1.66,4.73c2.85,4.91,10.52,3.92,15.15,6.84.71,3,0,6-.59,9.24-.27,1.44-2.93,12.91,2.46,10.23,6.29-3.12,3.44-10.82,2.09-16.23a1.09,1.09,0,0,0,.45-.13A39.08,39.08,0,0,1-31.87,76.1c-5.87,5.37-11.23,11.05-13.64,19.1-3.19,1.67-6.5,3.75-8.64,6.68-1.11,1.52-1.28,5,.91,5.69s4.26-2.8,5.2-4.08l.48-.67a14.56,14.56,0,0,0-.32,4c.15,2,2.23,4.88,4.56,4.1,2.16-.73,1.51-4.69,1.32-6.28a47.53,47.53,0,0,0-1.72-8.13.94.94,0,0,0,0-.11c3.59-13.07,15.59-20.14,24.55-29.28Q-17,65-15.17,62.75a204.48,204.48,0,0,0-8,21.12.72.72,0,0,0,0,.08,47,47,0,0,0-8.59,3.38c-2.29,1.11-6.72,3.13-6.65,6.24s4.83,3.65,7,2.73c3.16-1.38,5.09-4.76,7-7.81a113,113,0,0,0-2.74,12.91.69.69,0,0,0-.52.93,48.28,48.28,0,0,0-6.08,4.41c-1.31,1.11-4.27,3.57-3.25,5.65,1.14,2.31,4.38,1.64,5.9.22a8.74,8.74,0,0,0,1.78-2.45c-.25,3,.14,5.92,2.43,6.64a2.71,2.71,0,0,0,2.53-.41,9.36,9.36,0,0,0,1-.2c4.08-1,5.4-4.5,7.71-7.47,1.94,4.27,9.09,12.38,12.86,8.75,2.11-2,.48-5.05-1.14-6.88a9.89,9.89,0,0,0-5.17-2.65,4.06,4.06,0,0,0,.32-.38c3,.67,5.81,2.72,8.87,3.8,2.26.8,6.28,1,7.37-1.68a2.23,2.23,0,0,0,.14-1.13c2.93,4.22,6.46,11.4,10.3,5.77S11.47,105.18,7.16,104a24,24,0,0,0-.31-3.54,15.61,15.61,0,0,0,1.77-1.68c2.13-2.41,3.85-4.89,5.83-7.07,4.14.83,11.3,3.1,13.43-.61C28.9,89.34,28.47,86.08,26.47,85.07ZM3.82,78.74c3.52,2.05,7.1,4.4,8.6,8.1-.67,3.47-4.53,4.58-7.72,6.2-1.7-4.19-4-8.21-6-12.17a57.61,57.61,0,0,1-3.24-7.59A53.25,53.25,0,0,0,3.82,78.74Zm-27.39,29c-.57-1.39-1.28-2.74-1.91-4.09v0a113.3,113.3,0,0,1,3.67-17c4.26,5.26,6.77,12.89,5.9,19.51a.75.75,0,0,0,0,.08A21.72,21.72,0,0,0-23.58,107.77Zm2.49-23.56c3.29-10.53,7.78-20.65,12.41-30.73.34-.6.67-1.21,1-1.82Q-7.84,52.33-8,53a73.75,73.75,0,0,0-3.47,14.34,70.43,70.43,0,0,0,.19,19c.92,6.39,2.38,13,1.25,19.42a9,9,0,0,0-3.83.48A29.39,29.39,0,0,0-21.09,84.22Zm12.45,4.9c-.75-6.67-1.52-12.9-.92-19.65A57.53,57.53,0,0,1-8.35,61.9c.07,1.23.16,2.46.27,3.69A38.44,38.44,0,0,0-5,77.75C-2.68,83.13.72,88.46,2.91,94.08a5.33,5.33,0,0,0-2.58,5C.57,103,2.74,103,4.9,101.8a22.59,22.59,0,0,1,.15,2.38,1,1,0,0,0,0,.16.85.85,0,0,0-.67.58,5.6,5.6,0,0,0-.9-.39c-3.71-1.17-7.51-.4-11.24.35C-7.1,99.59-8,94.42-8.64,89.12Z"/><path class="cls-8" d="M5,63C.78,59.71-.32,54.54-3,50.12c6.57,1.45,16.43-4,16.07-10.71-.25-4.6-5.27-5.38-8.74-4.18S-1.44,39.62-3.17,43a24.76,24.76,0,0,0-1.78-9.36c-1.38-3.47-4.93-7.65-9.1-6.79-3.39.71-2.75,6.38-2.33,8.66.76,4.16,4.15,7.79,7.73,10.58-.45.32-.6,1,0,1.31s1.51.67,2.27,1a.94.94,0,0,0-.11.41,18.8,18.8,0,0,1-2.61-1.17c-.91-.51-1.75,1-.84,1.54,1.43.81,3,1.09,4.55,1.8-.17,5.55.58,11.11,3.64,15.88.56.88,2,.06,1.4-.82C-3,61.84-3.77,57.1-3.76,52.28c2.37,3.94,3.6,8.89,7.6,12C4.65,65,5.83,63.7,5,63ZM-12.93,39c-1.25-1.83-4.85-13,1.79-10.23,6,2.52,7.1,11.83,6,17.77A28.74,28.74,0,0,1-12.93,39Zm9.81,9.32a.26.26,0,0,0,0,0s0-.06,0-.1a.75.75,0,0,0,0-.18.94.94,0,0,0-.05-.13l-.08-.1a.68.68,0,0,0-.15-.14l0,0-.06,0A50.39,50.39,0,0,1-.17,41.11a12.2,12.2,0,0,1,4.22-4c3.18-1.85,8.13-.79,7.42,3.9C10.72,46,1.92,49.7-3.12,48.35Z"/><path class="cls-8" d="M10.71,96.66l.3.48a4.55,4.55,0,0,0,7.72-4.83l-.31-.48a4.55,4.55,0,1,0-7.71,4.83Z"/><path class="cls-3" d="M14.68,97.89a.92.92,0,0,0,1.25.29l.18-.11a.91.91,0,1,0-1-1.54l-.18.11A.92.92,0,0,0,14.68,97.89Z"/><polygon class="cls-6" points="-14.5 180.69 -9.11 166.81 -17.94 157.52 -6.07 159.97 2.27 146.46 4.85 162.52 14.35 166.69 4.43 171.76 7.24 183.56 -2.19 173.18 -14.5 180.69"/><rect class="cls-2" y="-195" width="200" height="200"/><g class="cls-15"><polygon class="cls-5" points="41.55 -45.41 30.24 19.98 109.33 33.12 119.16 -31.24 41.55 -45.41"/><path class="cls-6" d="M126.62-38.64a1,1,0,0,0-1.83-.24c-1.94,3.48-3.77,7.07-5.5,10.73-.2-.84-.42-1.67-.68-2.49a1,1,0,0,0-1.83-.24,59.73,59.73,0,0,0-4.21,6.47,29.17,29.17,0,0,0-1.46-4.73,1,1,0,0,0-1.67-.44l-.13.15A28.11,28.11,0,0,0,106-40.88a1,1,0,0,0-1.37-.36,17,17,0,0,0-3.7,2.95,43.07,43.07,0,0,0-1.33-5.85A1,1,0,0,0,98-44.58a37.77,37.77,0,0,0-7.54,14.44,57.42,57.42,0,0,0-2.29-10.49,1,1,0,0,0-1.67-.44c-.55.62-1.05,1.27-1.53,1.93-.24-1-.5-2-.79-3-.19-.65-1.19-1.07-1.67-.44-3.55,4.58-5.62,10-7,15.58A40.38,40.38,0,0,0,72-43.38a1,1,0,0,0-1.73,0q-.52,1-1,2a7.26,7.26,0,0,0-3.87-3,1,1,0,0,0-1,.26A30.86,30.86,0,0,0,59.25-36,26.64,26.64,0,0,0,56-41.88a1,1,0,0,0-1.57-.2,14.43,14.43,0,0,0-4.11,5.56,24.12,24.12,0,0,0-6-10.06,1,1,0,0,0-1.57.2,58.55,58.55,0,0,0-4.54,21.46,21.61,21.61,0,0,0-2.89-3.16,1,1,0,0,0-1.41,0C30.87-24.29,30-19.41,30.09-14.3c-.55-.79-1.12-1.55-1.72-2.29a1,1,0,0,0-1.41,0c-4.59,5.93-4.41,14-3.71,21.14A88.79,88.79,0,0,0,29.7,29.89c.49,1.17,2.43.66,1.93-.53a95.34,95.34,0,0,1-5.9-21.18A60.09,60.09,0,0,1,24.95-4.2a28,28,0,0,1,1-6.31c.46-1.65,1.13-4.62,2.71-2.34.57.81,1.09,1.65,1.59,2.51.43,5,1.39,10,1.69,14.31.73,10.38-.07,24.62,7.47,32.86a1,1,0,0,0,1.71-.71A107,107,0,0,0,38.67,7.86a67.63,67.63,0,0,0-6.41-18.67c-.37-5.1-.1-10.12,2.07-14.39.8-1.57,2.85,2,3.86,3.93,0,5.87.4,11.77.87,17.46.61,7.21,1.47,14.4,2.19,21.6.64,6.42,1.11,13.48,5.06,18.85a1,1,0,0,0,1.73,0,16.79,16.79,0,0,0,2.28-7.44,22,22,0,0,0,3.15,5.65c.52.66,1.43.17,1.67-.44a32.52,32.52,0,0,0,1.56-5.16c.19.47.39.94.61,1.4a1,1,0,0,0,1.73,0,29.65,29.65,0,0,0,1.53-3.35c.2,1,.41,2.08.65,3.11a1,1,0,0,0,1.83.24A77,77,0,0,0,66.72,20c-.58,3.45-1.56,6.92-1.56,10.4h0a2.42,2.42,0,0,1,0,.27c-.14,1.16,1.66,1.3,2,.27C70.72,19,72,6.34,73.59-6c.23-1.31.47-2.61.68-3.92,1.64-9.87,2.73-21.14,8.47-29.67q.36,1.39.64,2.8c-4.33,7.39-5.52,16.72-6.6,25-1.88,14.37-3.51,29-2.13,43.48a1,1,0,0,0,2,.27A223.93,223.93,0,0,0,85.36-5.46c1.43-10.17,2.08-20.86.14-31q.59-.92,1.25-1.79A63.05,63.05,0,0,1,88.9-24.2c-1.09,5.11-1.77,10.31-2.49,15.09-2.66,17.69-3.65,35.36-4.25,53.23a1,1,0,0,0,2,.27c.33-1.33.64-2.67.93-4a.94.94,0,0,0,1.47-.25C92.62,26.41,95.14,11.54,98-3.1c2.06-10.59,4.45-21.79,3.31-32.64a16.65,16.65,0,0,1,3.46-3.21,28.38,28.38,0,0,1,2.76,11.66c-5.75,7.5-7.9,17.62-9.58,26.68C95.59,12.12,93.8,25.7,94.66,38.62a1,1,0,0,0,2,.27c.37-1.12.7-2.25,1-3.37,0,0,0,.07,0,.11a1,1,0,0,0,2,.27c1.83-5.58,3.83-11.1,5.74-16.65a113.62,113.62,0,0,0-.7,13.89,1,1,0,0,0,2,.27q1.48-3.85,2.92-7.72c-.45,1.73-.91,3.46-1.35,5.18a1,1,0,0,0,1.93.53c3.37-13.23,7.07-26.62,11.3-39.6C124.58-17.87,128.79-28.33,126.62-38.64ZM37.3,11.13a101.27,101.27,0,0,1,2,22.21c-5.14-7.71-4.68-19.61-5.22-28.29-.2-3.14-.72-6.56-1.18-10A89.36,89.36,0,0,1,37.3,11.13Zm26.6-51.4c1.69-2.53,2.53-1.94,4,.42.14.23.27.47.4.72A98.45,98.45,0,0,0,62.3-20a56.11,56.11,0,0,0-2-13.13A35.26,35.26,0,0,1,63.89-40.26ZM61.14,14.25c-.1-2.67-.09-5.35,0-8C61.25,8.92,61.27,11.6,61.14,14.25ZM55-39.87a27.46,27.46,0,0,1,3.16,6.62c-2.74,7.52-3.4,16-3.79,23.74q-.07,1.5-.14,3C54-8,53.86-9.42,53.75-10.87c-.51-6.62-.66-15.05-2.52-22.56A16,16,0,0,1,55-39.87ZM44-44.06c2.72,3.18,4.05,7.37,5,11.49-.41,1.51-.72,3-1,4.5C46.69-21,46.66-13.64,46.8-6.46c.11,5.72.36,11.46.67,17.18A63.41,63.41,0,0,1,46.22,4.4C45.11-4,44.44-14.22,40.11-22,40.21-29.62,41.19-37.15,44-44.06Zm3.07,78.2c-3.08-5.24-3.37-11.81-4-17.73-.63-6.25-1.34-12.49-1.92-18.74-.43-4.64-.85-9.47-1-14.33.51,1.52.94,3.07,1.34,4.61A133.75,133.75,0,0,1,44.22,4.4C45.36,13.3,51,25.34,47.06,34.14ZM53.87,32c-3.75-5.92-4-13.84-4.36-20.6C49.23,5.8,49,.21,48.83-5.38a134.75,134.75,0,0,1,.62-18.93c.13-1.13.28-2.33.47-3.55,1.05,6,1.45,12,1.91,18.07.38,5,1.35,10.16,2.2,15.33,0,1.65.1,3.29.21,4.91.31,4.73.19,9.59,1.11,14.22A34.34,34.34,0,0,1,53.87,32Zm4.36-4.26a26,26,0,0,1-.87-2.8c.61-6.25-.19-12.69-1.21-19.08,0-.39,0-.78,0-1.16A211.92,211.92,0,0,1,57-17.75,68.27,68.27,0,0,1,59.11-29.6c1.43,6.55,1.37,13.68,1.4,20.14,0,.22-.06.43-.09.65C59,1.68,58.46,12.5,59.86,23A30.45,30.45,0,0,1,58.22,27.71ZM62.52-7.65c0-.63,0-1.27,0-1.92a110,110,0,0,1,6.77-26.79c.21.83.38,1.68.54,2.5C72-22.37,69.89-9.63,68.06,1.75c-1.32,8.16-2.66,17-5.59,24.93-.22-1.2-.42-2.41-.59-3.63C64.29,13.2,62.62,2.32,62.52-7.65Zm9.25-3.42c.77-7.46,1.17-15.1.09-22.55a23.57,23.57,0,0,0-1.39-5.51c.2-.45.41-.9.62-1.34,4.09,10.68,2,23.15.54,34.16q-.48,2.71-1,5.41C71.06-4.36,71.43-7.77,71.77-11.08ZM83.21-4.42A206.86,206.86,0,0,1,76.29,26.2c-.47-11,.7-21.87,1.88-32.81.92-8.53,1.74-18.9,5.76-27.08C85.37-24,84.56-14,83.21-4.42Zm15-37.32a44,44,0,0,1,1,5.49c-5.08,6.86-6.7,17.17-8.12,24.76-.19,1-.37,2-.56,3.07a131.56,131.56,0,0,0,.34-16C92.31-30.77,94.45-36.88,98.2-41.74ZM88-6.13c.27-1.83.53-3.74.8-5.68C88.55-8,88.22-4.12,87.89-.34c-.91,10.68-1.59,21.42-3.25,32A369.67,369.67,0,0,1,88-6.13Zm7.78,4C93.41,10,91.27,22.2,87,33.74c.93-13.91,3.1-27.55,5.46-41.32C93.72-15,95-25.81,99.51-33.22,100.14-22.84,97.72-12.18,95.76-2.1Zm21.5-26c.25,1,.45,2,.61,3.08q-2.43,5.42-4.5,11a42.19,42.19,0,0,0-.23-7.27A64.1,64.1,0,0,1,117.26-28.12ZM109.8-27a30,30,0,0,1,1.26,5.37c-.79,1.56-1.53,3.16-2.22,4.77a64.16,64.16,0,0,0,.64-9.77ZM96.46,32.59c0-10,1.37-20.18,2.95-30,1.39-8.68,3.21-18.72,8.12-26.42A109.83,109.83,0,0,1,105-6.34c-.7,2.22-1.34,4.45-1.94,6.67a158.39,158.39,0,0,0-4.71,25.14C97.77,27.85,97.14,30.23,96.46,32.59Zm3.66-4.33c.07-.82.15-1.65.24-2.47,2.63-10.46,4.56-21.07,6.59-31.69l0-.25a98.86,98.86,0,0,1,4.4-11.57,60.68,60.68,0,0,1-1.64,14.88c-.8,2.84-1.53,5.7-2.16,8.57C105.47,13.36,102.74,20.79,100.12,28.26ZM110.43,2.94c.48-1.82.94-3.7,1.35-5.61A159.92,159.92,0,0,1,118.29-21c.43,7.74-1.22,15.66-3.1,23.07a234.17,234.17,0,0,1-8.44,25.42A123.48,123.48,0,0,1,109.61,5.9C109.89,4.92,110.17,3.93,110.43,2.94Zm9.16-11.89a54.24,54.24,0,0,0,.36-15.84q2.42-5.36,5.16-10.46C126-26.41,122.45-17.35,119.59-8.95Z"/></g><polygon class="cls-7" points="66.11 12.82 68.88 -2.37 58.27 -8.4 70.29 -10.35 72.61 -23.07 78.05 -11.33 87.66 -10.35 80.18 -4.01 87.66 9.2 75.34 0.97 66.11 12.82"/><path class="cls-8" d="M114.92.83c-5.23-2.26-10.69-3.17-16.31-3.89C93.7-3.69,88.82-4.47,84-5.3A25.77,25.77,0,0,0,91-9.37c3.75-3.09,8.63-9.72,5.69-14.91-2.49-4.39-7.57-3.16-11.28-1.09a20.15,20.15,0,0,0-6.37,6c1.13-6,2.17-12,3-18.07.27-1.89-2.62-2.71-2.89-.8-1.3,9.1-3,18.13-4.8,27.14l-.74,1.6C71-18.24,71.25-36.79,59.86-34.4c-5.68,1.19-4.57,8-3.43,12.19,1.75,6.44,6.06,10,10.67,13.87C63-9.08,58.95-9.82,54.86-10.52c-6.75-1.16-13.88-.72-20.3-3.3-1.8-.72-2.57,2.18-.8,2.89,5.06,2,10.46,2.17,15.83,2.66,7.37.67,14.76,2.43,22,3.79a1.31,1.31,0,0,0,.4.08l.31.06.66.12c-2.13,10.31-4.35,20.6-6.3,30.94-.36,1.89,2.54,2.7,2.89.8,1.95-10.36,4.17-20.67,6.31-31,.28,0,.56,0,.84-.06,5.53,1,11.07,2,16.64,2.82,6.78.93,13.65,1.39,20,4.13C115.16,4.17,116.69,1.59,114.92.83ZM80.75-16.32C82.3-18.76,92-29.27,94.27-22.21c1.57,4.87-3.6,9.6-7.09,11.9A24.54,24.54,0,0,1,76.84-6.56h0l-.26,0c.23-1.1.44-2.21.67-3.31A68.8,68.8,0,0,1,80.75-16.32ZM60.18-20.43A25.6,25.6,0,0,1,58.5-27.2c-.38-3.77,2.72-5.7,5.73-3,3.39,3,4,9.44,4.87,13.6.46,2.32.76,5,1.45,7.39C66.52-12.51,62.14-15.44,60.18-20.43Z"/><g class="cls-16"><path class="cls-8" d="M131,41.28A20.74,20.74,0,0,1,138.43,20c7.77-6.11,18.83-2.72,25.1,4.44s6.63,20.49-.28,27.28c-6.76,6.63-18.35,6.89-25.57.84A20.74,20.74,0,0,1,131,41.28Z"/><path class="cls-6" d="M178.13,34.8a140.15,140.15,0,0,0-46.4-16.11c-.55-.09-.81.75-.25.85a139.41,139.41,0,0,1,46.19,16C178.16,35.83,178.63,35.08,178.13,34.8Z"/><path class="cls-6" d="M175.08,36.79c-14.82-7.64-30.39-14.06-47.17-15.5-.57,0-.59.83,0,.88,16.62,1.42,32,7.8,46.73,15.37C175.12,37.8,175.58,37.05,175.08,36.79Z"/><path class="cls-6" d="M166.45,55c-13.89-4.28-27.13-10.33-40.71-15.45-.53-.2-.78.64-.25.84,13.59,5.12,26.82,11.17,40.71,15.45A.44.44,0,0,0,166.45,55Z"/><path class="cls-6" d="M170.78,58.52c-14.5-4.67-30.29-6.79-43.17-15.44-.47-.32-.94.43-.47.75,12.95,8.7,28.82,10.85,43.39,15.54A.44.44,0,0,0,170.78,58.52Z"/><path class="cls-6" d="M178.13,54c-3.85-1.78-7.75-3.41-11.7-4.94-1.61-1.73-2.57-3.88-3.75-5.9,5,2,10,4,15,5.89.53.2.78-.64.25-.85-5.07-2-10.12-4-15.19-6,.45-.14.89-.33,1.34-.5a12.92,12.92,0,0,1,4.75-.58h.06l8.34,3.2c.53.2.78-.64.25-.84-10.17-3.92-20.34-7.84-30.56-11.65Q142.5,30.2,138,28.57c-3.67-1.34-8.21-1.83-11-4.78-.39-.41-1,.19-.65.6,2.37,2.49,5.89,3.3,9.08,4.24l1.62.5a66.7,66.7,0,0,1-6.48,2.06l-2.15-.55c-.55-.13-.8.71-.25.85l2.08.53a.35.35,0,0,0,.31.08l.14,0A17.18,17.18,0,0,0,133,34.67a15.93,15.93,0,0,1,2.54,3.81,46.27,46.27,0,0,1-7.36-3.06c-.5-.27-1,.48-.47.75a60.21,60.21,0,0,0,10.72,4.19c3,.93,5.89,1.89,8.83,2.87l.08,0,4,1.32a255.73,255.73,0,0,1,26.32,10.17C178.18,55,178.65,54.23,178.13,54ZM162.32,38.62l4.48,1.72a15.78,15.78,0,0,0-1.74.19c-1.33.23-2.48,1.16-3.86,1.07h-.06q-2.82-1.1-5.64-2.18a26.38,26.38,0,0,1,6.62-.77A.42.42,0,0,0,162.32,38.62ZM155,35.83l5.19,2A39.19,39.19,0,0,0,154,38.86c-1.72-.64-3.43-1.28-5.15-1.9C150.91,36.7,152.93,36,155,35.83Zm-6-2.25,4.28,1.61c-2.24.43-4.46,1.17-6.75.94h0c-1.33-.46-2.66-.92-4-1.37A34.33,34.33,0,0,0,148,33.17Zm-6.15-2.35,3.8,1.46c-.69-.26-3.47,1.09-4.4,1.2a11.19,11.19,0,0,1-4.71-.7c1.79-.53,3.46-1.41,5.26-1.93Zm-4.65-1.63.06,0c1.1.37,2.2.78,3.29,1.18a34.73,34.73,0,0,1-5.4,1.88.4.4,0,0,0-.19.09c-1.25-.37-2.5-.73-3.76-1.08A42.44,42.44,0,0,0,138.24,29.59ZM141,40.24l-4.28-1.38a.44.44,0,0,0-.06-.18,35,35,0,0,0-2-3.43,34.44,34.44,0,0,0-2.54-2.72c1.36.37,2.72.77,4.08,1.17a32.4,32.4,0,0,1,4.91,6.57Zm1.42.47h0a57.42,57.42,0,0,0-4.5-6.47l2.7.86c2.77,1.5,4.22,4.31,5.79,6.94Zm5.29,1.73c-1.39-2.22-2.6-4.67-4.45-6.5q2.11.71,4.21,1.46c1.59,1.95,2.42,4.46,4.07,6.31ZM154,44.55l-.35-.12a.48.48,0,0,0-.14-.14c-2.29-1.47-3.19-4.13-4.61-6.36q2.39.86,4.76,1.76a.35.35,0,0,0,.07.07c2.1,1.46,2.77,4.08,4.17,6.15Zm5.48,1.92c-1.7-1.71-2.36-4.16-3.81-6q2.81,1.07,5.6,2.16c1.24,1.89,2.15,4,3.47,5.8Q162.16,47.42,159.53,46.47Z"/></g><path class="cls-7" d="M161,21.07a4.66,4.66,0,0,0-1.86-3c-.94-.55-1.43-.77-1.38-2,0-.26.44-1.51.5-2.36l-.61-.19c.85-1.82,1.87-4.74-.47-5.5a2.18,2.18,0,0,0-2.89,1.36,8.88,8.88,0,0,0-.37,2.89l-.72-.25a15.66,15.66,0,0,1-.91,2.84c-.73,1.14-2.1.66-3.17,1a2.82,2.82,0,0,0-1.2.87,1.58,1.58,0,0,0,1.3,2.65c.87,0,1.23-.6,1.63-1.32-1.21,2.16,3,4.75,3.57,2,.14,2.62,3.67,3,3.19,0a4.81,4.81,0,0,0,1.17,2.34A1.35,1.35,0,0,0,161,21.07Zm-6.18-8.57c.07-1.53,0-3.65,1.44-3.72,2.27-.12,1.12,2.88.43,4.36Z"/><path class="cls-5" d="M158.48,7.82s0,0,0-.06a.67.67,0,0,0,.18-.21,6.08,6.08,0,0,0,.34-.74c6-4.52,23.42-15.71,11.92-22.41-9-5.26-10.87,15.7-13,21.56h0c0-6.21-7.39-20.63-13.71-15.78-5.33,4.09-.68,9,4.68,12.69a23,23,0,0,0-7.37-.59c-4.53.4-9,1.77-13.46,2.47-.85.13-.54,1.44.3,1.3,4.22-.66,8.36-1.78,12.59-2.37a21.67,21.67,0,0,1,9.58,1c-9.27.19-17.93,12.65-26.75,13.7-.86.1-.54,1.41.3,1.3,5.42-.65,10.19-5.07,14.52-8,5-3.41,11.7-7.83,17.55-3.86a.67.67,0,0,0,.2.08.58.58,0,0,0,.51.25h.23s.08-.07.07-.06a5.24,5.24,0,0,1-.48.95c-.78,1.25.36,2,1.14.71a4,4,0,0,0,.7-1.69C158.57,7.94,158.5,7.93,158.48,7.82ZM155,5.09a.67.67,0,0,0-.32-.28l-.53-.21c-1.25-.73-2.49-1.47-3.69-2.27-2.66-1.76-8-5.21-7-9.07,1.63-6.15,8,.37,9.54,2.69,1.77,2.6,4,6.7,3.65,10.1Zm4.71-.45c1.77-6.95,3.3-21.13,9.8-19.41a5.13,5.13,0,0,1,3.42,6.68c-.84,2.59-3.12,4.72-5.06,6.51A86.18,86.18,0,0,1,159.69,4.64Z"/><circle class="cls-6" cx="189.24" r="6.3"/></pattern></defs><title>card-1</title><g id="Layer_2" data-name="Layer 2"><g id="Pattern"><rect class="cls-17" width="125" height="225" rx="4" ry="4"/></g></g></svg>