<svg xmlns="http://www.w3.org/2000/svg" viewBox="0 0 53.35 37.25"><defs><style>.cls-1{fill:#f8f7ef;}</style></defs><title>leaf-4</title><g id="Layer_2" data-name="Layer 2"><g id="Objects"><path class="cls-1" d="M52.1,30.79a35.32,35.32,0,0,0-3.9-3.13c-.88-.65-1.88-1.33-3-2a34,34,0,0,0-1.33-14.83,5.58,5.58,0,0,0-.4-1,.61.61,0,0,0-.26-.28.55.55,0,0,0-.49.08c-.86.52-.84,1.74-.69,2.72a131.91,131.91,0,0,0,2.62,13c-1.05-.64-2.18-1.29-3.4-1.92a25.87,25.87,0,0,0-1-12.36,3.79,3.79,0,0,0-.34-.78.41.41,0,0,0-.22-.2.56.56,0,0,0-.43.12,2.3,2.3,0,0,0-.63,2.34,95.62,95.62,0,0,0,2.21,10.67c-1.5-.77-3.11-1.51-4.82-2.2A27.83,27.83,0,0,0,37.82,7.22a4,4,0,0,0-.2-.89.43.43,0,0,0-.2-.26.63.63,0,0,0-.5.05,2.58,2.58,0,0,0-1.22,2.4,101.49,101.49,0,0,0,.08,12l.1.37c-.76-.3-1.53-.59-2.33-.87l-1.27-.42a35.31,35.31,0,0,0,2-15.75,5.6,5.6,0,0,0-.2-1.1.61.61,0,0,0-.21-.34.62.62,0,0,0-.54,0c-1,.38-1.3,1.66-1.37,2.7a135.26,135.26,0,0,0-.17,14.33q-1.05-.34-2.09-.63A27.84,27.84,0,0,0,29,4.89a4,4,0,0,0-.36-.84.43.43,0,0,0-.24-.22.64.64,0,0,0-.48.14,2.58,2.58,0,0,0-.76,2.58,101,101,0,0,0,2.24,11.81l.2.41c-1.41-.39-2.77-.72-4.1-1A35.28,35.28,0,0,0,25.27,2,5.74,5.74,0,0,0,24.93.91a.61.61,0,0,0-.26-.31.63.63,0,0,0-.54.06c-1,.52-1.06,1.82-1,2.87a134.82,134.82,0,0,0,1.78,14.13c-.95-.19-1.86-.34-2.74-.47a27.5,27.5,0,0,0-1-12.59,4,4,0,0,0-.36-.84.42.42,0,0,0-.24-.22.63.63,0,0,0-.48.14,2.57,2.57,0,0,0-.76,2.58,101.38,101.38,0,0,0,2,10.82q-1.55-.21-2.92-.3A39.11,39.11,0,0,0,13.37,1.26a6.5,6.5,0,0,0-.68-1A.7.7,0,0,0,12.34,0a.61.61,0,0,0-.52.2c-.82.77-.49,2.12-.09,3.17q2.63,6.82,5.91,13.36l-.26,0c-.82,0-1.55-.06-2.24-.06A34,34,0,0,0,6.67,4.16a5.58,5.58,0,0,0-.83-.67.6.6,0,0,0-.36-.12.55.55,0,0,0-.39.31c-.5.87.12,1.93.72,2.71a132,132,0,0,0,8.82,10.27c-.63,0-1.18,0-1.68.07h0A22.15,22.15,0,0,0,3.06,11.5a3.24,3.24,0,0,0-.72-.1.34.34,0,0,0-.25.08.51.51,0,0,0-.1.39c.06.83.81,1.29,1.45,1.57a80.28,80.28,0,0,0,8.8,3.23q-5-.46-9.93-.51c-.87,0-1.93.12-2.26.92a.47.47,0,0,0,0,.43.54.54,0,0,0,.28.19,5.06,5.06,0,0,0,.91.22,30.16,30.16,0,0,0,12-.39c1.07.09,2.41.21,4,.41l.11,0q-6.53,2.22-12.85,5c-1,.46-2.22,1.18-2.18,2.3a.61.61,0,0,0,.23.51.7.7,0,0,0,.43.07,6.37,6.37,0,0,0,1.19-.23,39.12,39.12,0,0,0,14.68-7.46c.78.11,1.62.26,2.47.41a101.46,101.46,0,0,0-8.27,8.3,2.57,2.57,0,0,0-.82,2.56.64.64,0,0,0,.32.39.43.43,0,0,0,.32,0,4,4,0,0,0,.77-.5A27.72,27.72,0,0,0,21.9,18.66h0l0,.05v0l2,.41a101,101,0,0,0-6.45,9.18,2.57,2.57,0,0,0-.38,2.66.64.64,0,0,0,.38.33.44.44,0,0,0,.31-.1,4.07,4.07,0,0,0,.67-.62,27.58,27.58,0,0,0,6.16-11.31l1.56.38a91,91,0,0,0-2.94,10.5,2.39,2.39,0,0,0,.5,2.43.61.61,0,0,0,.43.18.38.38,0,0,0,.24-.17,3.49,3.49,0,0,0,.39-.73,25.11,25.11,0,0,0,1.79-12.1c.89.23,1.8.49,2.72.76v0a137.83,137.83,0,0,0-1.47,14c-.06,1,0,2.27,1,2.69a.55.55,0,0,0,.5,0,.63.63,0,0,0,.23-.31,5.81,5.81,0,0,0,.31-1.05,35.32,35.32,0,0,0-.05-15.22c1.05.32,2.11.66,3.19,1l.86.32-.12.19a90.9,90.9,0,0,0-3,10.57,2.39,2.39,0,0,0,.5,2.43.6.6,0,0,0,.43.18.38.38,0,0,0,.24-.17,3.53,3.53,0,0,0,.39-.73A25.2,25.2,0,0,0,34.1,22.07c1.16.43,2.29.87,3.37,1.34a91.22,91.22,0,0,0-2.89,10.34,2.39,2.39,0,0,0,.5,2.43.6.6,0,0,0,.43.18.38.38,0,0,0,.24-.17,3.55,3.55,0,0,0,.39-.73A25,25,0,0,0,38,23.62q1.11.49,2.16,1l0,.18A81.15,81.15,0,0,0,40,34.23,2,2,0,0,0,41,36.09a.48.48,0,0,0,.38,0,.34.34,0,0,0,.15-.21,3.24,3.24,0,0,0,.15-.71,22,22,0,0,0-1.25-10.48,75.62,75.62,0,0,1,7.14,3.93c1.81,1,3.16,2,4.16,2.65s1.58.93,1.65.83S53,31.58,52.1,30.79Z"/></g></g></svg>