<svg xmlns="http://www.w3.org/2000/svg" viewBox="0 0 84.5 58.99"><defs><style>.cls-1{fill:#f8f7ef;}</style></defs><title>leaf-1</title><g id="Layer_2" data-name="Layer 2"><g id="Objects"><path class="cls-1" d="M2,48.76a55.76,55.76,0,0,1,6.18-5c1.39-1,3-2.1,4.71-3.19A53.91,53.91,0,0,1,15,17.12a8.76,8.76,0,0,1,.63-1.56.94.94,0,0,1,.41-.44.87.87,0,0,1,.77.13c1.37.82,1.33,2.76,1.09,4.31a208.51,208.51,0,0,1-4.15,20.54c1.66-1,3.46-2,5.38-3a41,41,0,0,1,1.57-19.58,6,6,0,0,1,.54-1.23.65.65,0,0,1,.35-.32.87.87,0,0,1,.68.19c1.21.84,1.19,2.44,1,3.7a151.83,151.83,0,0,1-3.5,16.9c2.38-1.22,4.92-2.4,7.63-3.49a44.06,44.06,0,0,1-2.79-21.8A6.28,6.28,0,0,1,24.91,10a.68.68,0,0,1,.32-.41,1,1,0,0,1,.79.09c1.51.68,1.85,2.41,1.92,3.8a159.84,159.84,0,0,1-.12,19l-.16.58c1.2-.48,2.43-.94,3.69-1.38.67-.24,1.34-.45,2-.67A55.92,55.92,0,0,1,30.21,6.13a9,9,0,0,1,.31-1.75,1,1,0,0,1,.34-.54,1,1,0,0,1,.86,0c1.65.6,2.05,2.62,2.16,4.28a213.94,213.94,0,0,1,.26,22.7q1.67-.54,3.31-1A44.08,44.08,0,0,1,38.63,7.75a6.3,6.3,0,0,1,.57-1.33.68.68,0,0,1,.39-.34,1,1,0,0,1,.76.23c1.36.95,1.38,2.71,1.21,4.08A160.16,160.16,0,0,1,38,29.09l-.32.65c2.22-.62,4.39-1.14,6.49-1.58a55.93,55.93,0,0,1,.31-25A8.88,8.88,0,0,1,45,1.45,1,1,0,0,1,45.43,1a1,1,0,0,1,.85.1c1.55.82,1.68,2.88,1.56,4.54A214,214,0,0,1,45,28c1.5-.3,2.94-.54,4.34-.74A43.56,43.56,0,0,1,50.88,7.3,6.35,6.35,0,0,1,51.45,6a.68.68,0,0,1,.39-.34,1,1,0,0,1,.76.23C54,6.79,54,8.56,53.8,9.93a160.66,160.66,0,0,1-3.18,17.13q2.45-.32,4.63-.47A62,62,0,0,1,63.32,2,10.27,10.27,0,0,1,64.4.41,1.11,1.11,0,0,1,65,0a1,1,0,0,1,.82.31c1.3,1.21.78,3.35.13,5q-4.16,10.8-9.36,21.17l.41,0c1.29-.07,2.45-.09,3.54-.09A53.89,53.89,0,0,1,73.95,6.59a8.8,8.8,0,0,1,1.31-1.06.94.94,0,0,1,.57-.19.87.87,0,0,1,.61.49c.79,1.38-.19,3.05-1.14,4.29a209.07,209.07,0,0,1-14,16.27c1,0,1.87.06,2.66.11h0a35.07,35.07,0,0,1,15.63-8.28,5,5,0,0,1,1.14-.16.54.54,0,0,1,.39.12.81.81,0,0,1,.16.61c-.09,1.31-1.28,2-2.29,2.49a127.05,127.05,0,0,1-13.93,5.11q7.84-.73,15.73-.81c1.37,0,3.05.19,3.58,1.46a.75.75,0,0,1,0,.68A.85.85,0,0,1,84,28a7.86,7.86,0,0,1-1.44.35,47.73,47.73,0,0,1-19.08-.61c-1.69.14-3.83.33-6.32.66l-.18,0q10.34,3.51,20.35,7.93c1.63.72,3.51,1.86,3.45,3.64a1,1,0,0,1-.36.8,1.1,1.1,0,0,1-.68.11,10.15,10.15,0,0,1-1.89-.36A62,62,0,0,1,54.58,28.74c-1.24.18-2.56.41-3.92.66A160,160,0,0,1,63.76,42.54c.92,1,1.89,2.51,1.3,4.06a1,1,0,0,1-.5.62.68.68,0,0,1-.51-.07,6.31,6.31,0,0,1-1.22-.78,43.89,43.89,0,0,1-13-16.81h0l0,.08v-.07q-1.54.3-3.16.65A160.35,160.35,0,0,1,56.79,44.76c.73,1.18,1.44,2.79.6,4.22a1,1,0,0,1-.6.52.68.68,0,0,1-.49-.15,6.31,6.31,0,0,1-1.07-1,43.66,43.66,0,0,1-9.76-17.91q-1.22.28-2.47.6a144,144,0,0,1,4.66,16.64c.27,1.24.38,2.85-.79,3.85a1,1,0,0,1-.68.28.61.61,0,0,1-.38-.28,5.71,5.71,0,0,1-.62-1.16,39.77,39.77,0,0,1-2.84-19.17c-1.4.36-2.85.77-4.3,1.21l0,.06A218,218,0,0,1,40.4,54.61c.09,1.61-.06,3.59-1.51,4.27a.88.88,0,0,1-.79,0,1,1,0,0,1-.37-.5,9.3,9.3,0,0,1-.49-1.66,56,56,0,0,1,.09-24.11c-1.66.51-3.35,1-5.06,1.65-.46.16-.91.34-1.37.5l.18.3a143.88,143.88,0,0,1,4.7,16.74c.27,1.24.38,2.85-.79,3.85a1,1,0,0,1-.68.28.61.61,0,0,1-.38-.28,5.57,5.57,0,0,1-.62-1.16A39.87,39.87,0,0,1,30.49,35c-1.84.68-3.63,1.38-5.34,2.12a144.21,144.21,0,0,1,4.58,16.38c.27,1.24.38,2.85-.79,3.85a1,1,0,0,1-.68.28.61.61,0,0,1-.38-.28,5.63,5.63,0,0,1-.62-1.16,39.64,39.64,0,0,1-2.87-18.73Q22.62,38.19,21,39l.08.29a128.49,128.49,0,0,1,.09,15c-.06,1.09-.32,2.44-1.48,2.95a.76.76,0,0,1-.61.05.55.55,0,0,1-.24-.33,5.1,5.1,0,0,1-.24-1.12,34.84,34.84,0,0,1,2-16.59A119.63,119.63,0,0,0,9.23,45.41c-2.87,1.62-5,3.24-6.59,4.19S.13,51.07,0,50.92.6,50,2,48.76Z"/></g></g></svg>