<svg xmlns="http://www.w3.org/2000/svg" viewBox="0 0 60.14 42.06"><defs><style>.cls-1{fill:none;stroke:#f8f7ef;stroke-miterlimit:10;stroke-width:0.25px;}</style></defs><title>leaf-3</title><g id="Layer_2" data-name="Layer 2"><g id="Objects"><path class="cls-1" d="M58.6,34.68a39.61,39.61,0,0,0-4.38-3.51c-1-.73-2.11-1.49-3.34-2.26a38.19,38.19,0,0,0-1.5-16.65,6.21,6.21,0,0,0-.45-1.11.67.67,0,0,0-.29-.31.62.62,0,0,0-.55.09c-1,.58-.94,2-.77,3.05a147.81,147.81,0,0,0,2.94,14.55c-1.18-.72-2.45-1.44-3.81-2.16a29,29,0,0,0-1.11-13.87,4.36,4.36,0,0,0-.38-.87.47.47,0,0,0-.25-.23.61.61,0,0,0-.48.14,2.58,2.58,0,0,0-.71,2.63,107.55,107.55,0,0,0,2.48,12c-1.68-.86-3.49-1.7-5.41-2.47a31.24,31.24,0,0,0,2-15.45,4.35,4.35,0,0,0-.22-1,.48.48,0,0,0-.22-.29.72.72,0,0,0-.56.06,2.89,2.89,0,0,0-1.36,2.69,113.78,113.78,0,0,0,.08,13.49l.12.41q-1.28-.51-2.61-1c-.48-.17-1-.32-1.42-.47A39.63,39.63,0,0,0,38.6,4.47a6.23,6.23,0,0,0-.22-1.24.68.68,0,0,0-.24-.38.7.7,0,0,0-.61,0c-1.17.42-1.46,1.86-1.53,3A151.14,151.14,0,0,0,35.82,22q-1.19-.38-2.35-.71a31.26,31.26,0,0,0-.83-15.63,4.41,4.41,0,0,0-.4-.95A.48.48,0,0,0,32,4.43a.72.72,0,0,0-.54.16,2.89,2.89,0,0,0-.86,2.89,113.45,113.45,0,0,0,2.52,13.26l.23.46c-1.58-.44-3.11-.81-4.6-1.12a39.64,39.64,0,0,0-.22-17.74,6.36,6.36,0,0,0-.39-1.2.68.68,0,0,0-.29-.34.7.7,0,0,0-.6.07c-1.1.58-1.19,2-1.1,3.22a151.84,151.84,0,0,0,2,15.86C27,19.75,26,19.58,25,19.43A30.87,30.87,0,0,0,24,5.3a4.47,4.47,0,0,0-.4-.95.49.49,0,0,0-.27-.24.72.72,0,0,0-.54.16,2.89,2.89,0,0,0-.85,2.89A113.66,113.66,0,0,0,24.14,19.3q-1.73-.23-3.28-.34A43.91,43.91,0,0,0,15.14,1.54,7.35,7.35,0,0,0,14.37.42.78.78,0,0,0,14,.13a.69.69,0,0,0-.58.22c-.92.86-.55,2.38-.1,3.55q2.95,7.65,6.63,15l-.29,0c-.91-.05-1.74-.07-2.51-.07a38.2,38.2,0,0,0-9.52-14A6.22,6.22,0,0,0,6.68,4a.66.66,0,0,0-.41-.13.62.62,0,0,0-.43.34c-.56,1,.13,2.16.81,3a147.8,147.8,0,0,0,9.9,11.53c-.71,0-1.33,0-1.89.08h0A24.86,24.86,0,0,0,3.56,13a3.52,3.52,0,0,0-.81-.11.38.38,0,0,0-.28.09.57.57,0,0,0-.11.43c.06.93.91,1.45,1.62,1.76a90.28,90.28,0,0,0,9.87,3.62q-5.56-.52-11.14-.58c-1,0-2.17.13-2.54,1a.53.53,0,0,0,0,.48A.6.6,0,0,0,.49,20a5.69,5.69,0,0,0,1,.25A33.85,33.85,0,0,0,15,19.78c1.2.1,2.71.23,4.48.47l.13,0q-7.33,2.49-14.42,5.62c-1.15.51-2.49,1.32-2.44,2.58A.69.69,0,0,0,3,29a.78.78,0,0,0,.48.08,7.22,7.22,0,0,0,1.34-.25,43.91,43.91,0,0,0,16.48-8.37c.88.13,1.82.29,2.78.46a113.24,113.24,0,0,0-9.28,9.32,2.89,2.89,0,0,0-.92,2.87.72.72,0,0,0,.36.44.48.48,0,0,0,.36,0,4.42,4.42,0,0,0,.86-.56,31.09,31.09,0,0,0,9.22-11.91h0l0,.06v-.05c.73.14,1.47.29,2.24.46a113.74,113.74,0,0,0-7.24,10.31,2.89,2.89,0,0,0-.42,3,.72.72,0,0,0,.42.37.48.48,0,0,0,.35-.11,4.46,4.46,0,0,0,.76-.69,31,31,0,0,0,6.91-12.69l1.75.42a102.12,102.12,0,0,0-3.3,11.79,2.68,2.68,0,0,0,.56,2.73.68.68,0,0,0,.48.2.43.43,0,0,0,.27-.2,4,4,0,0,0,.44-.82,28.17,28.17,0,0,0,2-13.58c1,.26,2,.55,3,.85v0a154.6,154.6,0,0,0-1.65,15.68c-.06,1.14,0,2.54,1.07,3a.62.62,0,0,0,.56,0,.69.69,0,0,0,.26-.35,6.66,6.66,0,0,0,.35-1.18,39.65,39.65,0,0,0-.06-17.09c1.18.36,2.37.74,3.59,1.17l1,.36L38,25a101.93,101.93,0,0,0-3.33,11.86,2.68,2.68,0,0,0,.56,2.73.68.68,0,0,0,.48.2.43.43,0,0,0,.27-.2,4,4,0,0,0,.44-.82,28.27,28.27,0,0,0,2-13.88c1.3.48,2.57,1,3.78,1.5A102.38,102.38,0,0,0,38.94,38a2.68,2.68,0,0,0,.56,2.73.68.68,0,0,0,.48.2.43.43,0,0,0,.27-.2,4,4,0,0,0,.44-.82,28.11,28.11,0,0,0,2-13.27q1.25.55,2.43,1.11l-.06.2A91.07,91.07,0,0,0,45,38.55a2.22,2.22,0,0,0,1,2.09.54.54,0,0,0,.43,0,.39.39,0,0,0,.17-.23,3.5,3.5,0,0,0,.17-.79,24.68,24.68,0,0,0-1.4-11.76,84.8,84.8,0,0,1,8,4.41c2,1.15,3.54,2.29,4.67,3s1.77,1,1.86.94S59.58,35.57,58.6,34.68Z"/></g></g></svg>