<svg xmlns="http://www.w3.org/2000/svg" viewBox="0 0 33.21 23.18"><defs><style>.cls-1{fill:#469d8c;}</style></defs><title>leaf-2</title><g id="Layer_2" data-name="Layer 2"><g id="Objects"><path class="cls-1" d="M32.43,19.16A21.93,21.93,0,0,0,30,17.22c-.55-.4-1.17-.83-1.85-1.25a21.18,21.18,0,0,0-.83-9.23,3.56,3.56,0,0,0-.25-.61.38.38,0,0,0-.16-.17.35.35,0,0,0-.31,0c-.54.32-.52,1.08-.43,1.69a82.27,82.27,0,0,0,1.63,8.07c-.65-.4-1.36-.8-2.11-1.2a16.1,16.1,0,0,0-.62-7.69,2.39,2.39,0,0,0-.21-.48.25.25,0,0,0-.14-.13.34.34,0,0,0-.27.08,1.43,1.43,0,0,0-.4,1.46,59.78,59.78,0,0,0,1.38,6.64c-.93-.48-1.93-.94-3-1.37a17.31,17.31,0,0,0,1.1-8.57,2.41,2.41,0,0,0-.12-.56.27.27,0,0,0-.12-.16.4.4,0,0,0-.31,0,1.6,1.6,0,0,0-.76,1.49,63.05,63.05,0,0,0,0,7.48l.06.23q-.71-.28-1.45-.54l-.79-.26a22,22,0,0,0,1.24-9.8,3.53,3.53,0,0,0-.12-.69.38.38,0,0,0-.13-.21.39.39,0,0,0-.34,0c-.65.23-.81,1-.85,1.68a83.62,83.62,0,0,0-.1,8.92l-1.3-.39A17.33,17.33,0,0,0,18,3a2.49,2.49,0,0,0-.22-.52.27.27,0,0,0-.15-.14.4.4,0,0,0-.3.09,1.6,1.6,0,0,0-.47,1.6,63.15,63.15,0,0,0,1.4,7.35l.13.26q-1.31-.37-2.55-.62a22,22,0,0,0-.12-9.83,3.47,3.47,0,0,0-.22-.66.37.37,0,0,0-.16-.19.39.39,0,0,0-.33,0c-.61.32-.66,1.13-.61,1.78A84.29,84.29,0,0,0,15.52,11c-.59-.12-1.16-.21-1.71-.29a17.12,17.12,0,0,0-.6-7.84A2.42,2.42,0,0,0,13,2.34a.27.27,0,0,0-.15-.13.39.39,0,0,0-.3.09,1.6,1.6,0,0,0-.47,1.6,63,63,0,0,0,1.25,6.73q-1-.13-1.82-.19A24.34,24.34,0,0,0,8.32.79,4,4,0,0,0,7.9.16.44.44,0,0,0,7.68,0a.38.38,0,0,0-.32.12c-.51.48-.3,1.32-.05,2Q8.94,6.34,11,10.42h-.16c-.51,0-1,0-1.39,0A21.18,21.18,0,0,0,4.15,2.59a3.51,3.51,0,0,0-.52-.42.37.37,0,0,0-.22-.07.34.34,0,0,0-.24.19c-.31.54.07,1.2.45,1.69A82.08,82.08,0,0,0,9.1,10.37c-.39,0-.74,0-1,0H8A13.78,13.78,0,0,0,1.91,7.16a2,2,0,0,0-.45-.06.22.22,0,0,0-.15,0,.32.32,0,0,0-.06.24c0,.52.5.8.9,1a50.13,50.13,0,0,0,5.47,2c-2.05-.19-4.12-.3-6.18-.32-.54,0-1.2.07-1.41.57a.29.29,0,0,0,0,.27A.33.33,0,0,0,.2,11a2.94,2.94,0,0,0,.57.14,18.74,18.74,0,0,0,7.5-.24c.66.05,1.5.13,2.49.26h.07q-4.06,1.38-8,3.12c-.64.28-1.38.73-1.36,1.43a.38.38,0,0,0,.14.32.43.43,0,0,0,.27,0,4,4,0,0,0,.74-.14,24.33,24.33,0,0,0,9.14-4.64l1.54.26a63.19,63.19,0,0,0-5.15,5.17,1.6,1.6,0,0,0-.51,1.59.4.4,0,0,0,.2.24.27.27,0,0,0,.2,0,2.5,2.5,0,0,0,.48-.31,17.25,17.25,0,0,0,5.11-6.61h0l0,0v0l1.24.26a63.19,63.19,0,0,0-4,5.72,1.6,1.6,0,0,0-.23,1.66.4.4,0,0,0,.24.21.27.27,0,0,0,.19-.06A2.43,2.43,0,0,0,11.5,19a17.13,17.13,0,0,0,3.83-7l1,.23a56.5,56.5,0,0,0-1.83,6.54,1.49,1.49,0,0,0,.31,1.51.38.38,0,0,0,.27.11.24.24,0,0,0,.15-.11,2.21,2.21,0,0,0,.25-.46,15.65,15.65,0,0,0,1.11-7.53c.55.14,1.12.3,1.69.47v0a85.7,85.7,0,0,0-.91,8.69c0,.63,0,1.41.59,1.68a.35.35,0,0,0,.31,0,.39.39,0,0,0,.15-.2,3.69,3.69,0,0,0,.19-.65,22,22,0,0,0,0-9.47c.65.2,1.32.41,2,.65l.54.2-.07.12a56.58,56.58,0,0,0-1.85,6.58,1.49,1.49,0,0,0,.31,1.51.38.38,0,0,0,.27.11.25.25,0,0,0,.15-.11,2.2,2.2,0,0,0,.24-.46,15.67,15.67,0,0,0,1.1-7.7c.72.27,1.43.54,2.1.83A56.44,56.44,0,0,0,21.52,21a1.49,1.49,0,0,0,.31,1.51.37.37,0,0,0,.27.11.24.24,0,0,0,.15-.11,2.2,2.2,0,0,0,.25-.46,15.57,15.57,0,0,0,1.13-7.36l1.35.62,0,.11a50.37,50.37,0,0,0,0,5.88,1.23,1.23,0,0,0,.58,1.16.29.29,0,0,0,.24,0,.21.21,0,0,0,.1-.13,2.06,2.06,0,0,0,.1-.44,13.69,13.69,0,0,0-.78-6.52,46.94,46.94,0,0,1,4.44,2.45c1.13.64,2,1.27,2.59,1.65s1,.58,1,.52S33,19.66,32.43,19.16Z"/></g></g></svg>