<svg xmlns="http://www.w3.org/2000/svg" viewBox="0 0 44.04 45.83"><defs><style>.cls-1{fill:#f8f7ef;opacity:0.43;}</style></defs><title>leaf-5</title><g id="Layer_2" data-name="Layer 2"><g id="Objects"><path class="cls-1" d="M42.34.74a35.42,35.42,0,0,0-4.25,2.63c-.9.61-1.87,1.33-2.89,2.13A34,34,0,0,0,20.77,1.82a5.52,5.52,0,0,0-1.06,0,.6.6,0,0,0-.35.15.55.55,0,0,0-.09.49c.2,1,1.36,1.37,2.33,1.56A131.74,131.74,0,0,0,34.7,5.91c-1,.78-1.94,1.63-2.94,2.56a25.88,25.88,0,0,0-12-3.19,3.86,3.86,0,0,0-.84.06.41.41,0,0,0-.27.14.55.55,0,0,0,0,.45c.24.89,1.2,1.22,2,1.38a95.66,95.66,0,0,0,10.8,1.47C30.2,9.95,29,11.21,27.74,12.59A27.83,27.83,0,0,0,15.35,6.34a4,4,0,0,0-.91-.11.44.44,0,0,0-.31.1.64.64,0,0,0-.12.49c.09,1,1,1.61,1.86,1.94a101,101,0,0,0,11.36,3.94l.38,0q-.81.92-1.6,1.91c-.28.35-.55.7-.82,1.05A35.33,35.33,0,0,0,11,8.57a5.57,5.57,0,0,0-1.11-.18.6.6,0,0,0-.39.09A.62.62,0,0,0,9.33,9c0,1.11,1.13,1.78,2.09,2.19A135.06,135.06,0,0,0,24.88,16.1q-.67.88-1.29,1.76a27.84,27.84,0,0,0-13.37-3.95A4,4,0,0,0,9.3,14a.43.43,0,0,0-.29.16.64.64,0,0,0,0,.5,2.58,2.58,0,0,0,2.18,1.58A101.3,101.3,0,0,0,23,18L23.5,18c-.84,1.19-1.61,2.37-2.3,3.53a35.3,35.3,0,0,0-15-5.08,5.53,5.53,0,0,0-1.12,0,.61.61,0,0,0-.38.14.62.62,0,0,0-.12.53C4.78,18.17,6,18.67,7,19a135.33,135.33,0,0,0,13.92,3c-.49.83-.94,1.64-1.36,2.43A27.51,27.51,0,0,0,7.36,21.12a3.94,3.94,0,0,0-.91.06.43.43,0,0,0-.29.16.64.64,0,0,0,0,.5,2.58,2.58,0,0,0,2.18,1.58,101,101,0,0,0,10.87,1.71q-.71,1.39-1.26,2.66a39.13,39.13,0,0,0-16.34-.37,6.39,6.39,0,0,0-1.17.31A.68.68,0,0,0,.06,28a.61.61,0,0,0,0,.55c.45,1,1.83,1.17,3,1.14q7.31-.2,14.57-1.11l-.1.24c-.31.75-.57,1.44-.8,2.09A34,34,0,0,0,2.08,34.7a5.48,5.48,0,0,0-.91.56.59.59,0,0,0-.23.3.55.55,0,0,0,.16.47c.66.76,1.86.53,2.8.22a131.82,131.82,0,0,0,12.62-4.89c-.2.6-.36,1.13-.49,1.61v0A22.15,22.15,0,0,0,7.8,40.54a3.14,3.14,0,0,0-.33.65.35.35,0,0,0,0,.26.51.51,0,0,0,.33.22,2,2,0,0,0,2-.84,80.36,80.36,0,0,0,6-7.22c-1.39,3-2.66,6.07-3.79,9.19-.3.81-.53,1.86.11,2.44a.47.47,0,0,0,.4.14.53.53,0,0,0,.27-.2,5,5,0,0,0,.51-.78,30.14,30.14,0,0,0,3.65-11.49c.44-1,1-2.21,1.72-3.63l.05-.1q-.09,6.9.44,13.78c.09,1.12.37,2.48,1.44,2.82a.61.61,0,0,0,.55,0,.69.69,0,0,0,.21-.38,6.37,6.37,0,0,0,.18-1.2,39.13,39.13,0,0,0-2.14-16.33c.37-.7.78-1.44,1.21-2.2A101.17,101.17,0,0,0,25.63,36.2a2.58,2.58,0,0,0,2.14,1.63.64.64,0,0,0,.47-.17.44.44,0,0,0,.07-.32,4,4,0,0,0-.21-.89,27.7,27.7,0,0,0-7.27-11.28h.06l0,0q.5-.86,1.05-1.75a101.52,101.52,0,0,0,6.51,9.14,2.58,2.58,0,0,0,2.38,1.24.64.64,0,0,0,.44-.25.43.43,0,0,0,0-.33,4,4,0,0,0-.36-.84,27.58,27.58,0,0,0-8.61-9.58c.28-.44.57-.89.87-1.34a90.81,90.81,0,0,0,8.92,6.28,2.39,2.39,0,0,0,2.46.34.61.61,0,0,0,.31-.35.38.38,0,0,0-.09-.28,3.47,3.47,0,0,0-.56-.62A25.12,25.12,0,0,0,23.4,21.07c.51-.76,1.06-1.53,1.62-2.31l0,0a137.81,137.81,0,0,0,12.68,6c.94.39,2.15.72,2.86,0a.55.55,0,0,0,.19-.46.62.62,0,0,0-.22-.33,5.87,5.87,0,0,0-.89-.64,35.3,35.3,0,0,0-14.37-5c.65-.88,1.33-1.77,2-2.66l.59-.71.14.17a90.77,90.77,0,0,0,9,6.32,2.39,2.39,0,0,0,2.46.34.61.61,0,0,0,.31-.35.39.39,0,0,0-.08-.29,3.58,3.58,0,0,0-.56-.61A25.18,25.18,0,0,0,28.11,14.8c.79-1,1.59-1.87,2.38-2.73a90.8,90.8,0,0,0,8.79,6.17,2.39,2.39,0,0,0,2.46.34.61.61,0,0,0,.31-.35A.38.38,0,0,0,42,18a3.51,3.51,0,0,0-.56-.62,25,25,0,0,0-10.54-5.65q.83-.89,1.66-1.71l.15.11a81.07,81.07,0,0,0,8.88,3.2A2,2,0,0,0,43.62,13a.48.48,0,0,0,.16-.35.35.35,0,0,0-.14-.21,3.29,3.29,0,0,0-.61-.38A22,22,0,0,0,32.73,9.76a75.79,75.79,0,0,1,6.09-5.42C40.39,3,41.8,2,42.7,1.3S44.1.12,44,0,43.38.18,42.34.74Z"/></g></g></svg>