<svg xmlns="http://www.w3.org/2000/svg" viewBox="0 0 37.94 26.48"><defs><style>.cls-1{fill:#469d8c;}</style></defs><title>leaf-6</title><g id="Layer_2" data-name="Layer 2"><g id="Objects"><path class="cls-1" d="M.89,4.59A24.83,24.83,0,0,0,3.67,6.82c.63.46,1.33.94,2.11,1.43A24.2,24.2,0,0,0,6.73,18.8a4,4,0,0,0,.28.7.43.43,0,0,0,.18.2.39.39,0,0,0,.35-.06c.61-.37.59-1.24.49-1.93A93.77,93.77,0,0,0,6.17,8.49c.75.46,1.55.92,2.42,1.37a18.4,18.4,0,0,0,.7,8.79,2.73,2.73,0,0,0,.24.55.3.3,0,0,0,.16.14.4.4,0,0,0,.31-.09,1.64,1.64,0,0,0,.45-1.66A68.28,68.28,0,0,0,8.87,10c1.07.55,2.21,1.08,3.42,1.57A19.8,19.8,0,0,0,11,21.35a2.81,2.81,0,0,0,.14.63.31.31,0,0,0,.14.18.45.45,0,0,0,.35,0,1.83,1.83,0,0,0,.86-1.7,71.67,71.67,0,0,0-.05-8.55l-.07-.26c.54.21,1.09.42,1.66.62l.9.3a25.11,25.11,0,0,0-1.42,11.2,4,4,0,0,0,.14.79.43.43,0,0,0,.15.24.44.44,0,0,0,.39,0c.74-.27.92-1.18,1-1.92a96.15,96.15,0,0,0,.12-10.19q.75.24,1.49.45a19.78,19.78,0,0,0,.52,9.9,2.79,2.79,0,0,0,.25.6.3.3,0,0,0,.17.15.45.45,0,0,0,.34-.1,1.83,1.83,0,0,0,.54-1.83,72,72,0,0,0-1.59-8.4l-.14-.29c1,.28,2,.51,2.91.71A25.12,25.12,0,0,0,20,25.07a4,4,0,0,0,.25.76.42.42,0,0,0,.18.22.45.45,0,0,0,.38,0c.7-.37.75-1.29.7-2a96,96,0,0,0-1.27-10c.67.13,1.32.24,2,.33a19.54,19.54,0,0,0,.68,9,2.78,2.78,0,0,0,.25.6.31.31,0,0,0,.17.15.45.45,0,0,0,.34-.1A1.83,1.83,0,0,0,24.15,22a71.87,71.87,0,0,0-1.43-7.69c.73.1,1.43.17,2.08.21a27.83,27.83,0,0,0,3.62,11,4.7,4.7,0,0,0,.49.71.49.49,0,0,0,.25.18.43.43,0,0,0,.37-.14c.58-.54.35-1.5.06-2.25q-1.87-4.85-4.2-9.5h.18c.58,0,1.1,0,1.59,0a24.2,24.2,0,0,0,6,8.89,3.88,3.88,0,0,0,.59.47.41.41,0,0,0,.26.08.39.39,0,0,0,.27-.22c.36-.62-.08-1.37-.51-1.93a93.82,93.82,0,0,0-6.27-7.3c.45,0,.84,0,1.19-.05h0a15.74,15.74,0,0,0,7,3.72,2.25,2.25,0,0,0,.51.07.24.24,0,0,0,.17-.05.35.35,0,0,0,.07-.27c0-.59-.58-.92-1-1.12a57.31,57.31,0,0,0-6.25-2.29q3.52.33,7.06.37c.62,0,1.37-.08,1.61-.65a.34.34,0,0,0,0-.3.38.38,0,0,0-.2-.13,3.49,3.49,0,0,0-.65-.16,21.43,21.43,0,0,0-8.57.28c-.76-.06-1.72-.15-2.84-.29h-.08q4.64-1.58,9.13-3.56c.73-.32,1.58-.84,1.55-1.63a.44.44,0,0,0-.16-.36.5.5,0,0,0-.3-.05,4.64,4.64,0,0,0-.85.16,27.82,27.82,0,0,0-10.44,5.3c-.56-.08-1.15-.18-1.76-.29a72,72,0,0,0,5.88-5.9,1.83,1.83,0,0,0,.58-1.82A.46.46,0,0,0,29,5.29a.31.31,0,0,0-.23,0,2.91,2.91,0,0,0-.55.35,19.7,19.7,0,0,0-5.84,7.55h0l0,0v0l-1.42-.29A72,72,0,0,0,25.5,6.39a1.83,1.83,0,0,0,.27-1.89.46.46,0,0,0-.27-.24.3.3,0,0,0-.22.07,2.82,2.82,0,0,0-.48.44,19.59,19.59,0,0,0-4.38,8l-1.11-.27A64.82,64.82,0,0,0,21.4,5.07,1.7,1.7,0,0,0,21,3.34a.42.42,0,0,0-.31-.13.27.27,0,0,0-.17.12,2.54,2.54,0,0,0-.28.52A17.86,17.86,0,0,0,19,12.47c-.63-.16-1.28-.35-1.93-.54v0a97.89,97.89,0,0,0,1-9.93c0-.72,0-1.61-.68-1.92a.39.39,0,0,0-.36,0,.44.44,0,0,0-.17.22,4.18,4.18,0,0,0-.22.75,25.1,25.1,0,0,0,0,10.82c-.75-.23-1.5-.47-2.27-.74l-.61-.23.08-.13a65,65,0,0,0,2.11-7.51,1.7,1.7,0,0,0-.36-1.73.43.43,0,0,0-.31-.13.27.27,0,0,0-.17.12,2.59,2.59,0,0,0-.28.52,17.92,17.92,0,0,0-1.26,8.79c-.83-.3-1.63-.62-2.4-1a64.62,64.62,0,0,0,2.05-7.35A1.7,1.7,0,0,0,13,.76a.43.43,0,0,0-.31-.13.27.27,0,0,0-.17.12,2.54,2.54,0,0,0-.28.52,17.8,17.8,0,0,0-1.29,8.41c-.53-.23-1-.47-1.54-.7l0-.13a57.85,57.85,0,0,0,0-6.71A1.41,1.41,0,0,0,8.82.82a.34.34,0,0,0-.27,0,.24.24,0,0,0-.11.15,2.27,2.27,0,0,0-.11.5,15.64,15.64,0,0,0,.89,7.45A53.78,53.78,0,0,1,4.14,6.1c-1.29-.73-2.24-1.45-3-1.88S.06,3.56,0,3.62.27,4,.89,4.59Z"/></g></g></svg>