<svg xmlns="http://www.w3.org/2000/svg" viewBox="0 0 420.86 67.53"><defs><style>.cls-1{fill:#f7c481;}.cls-2,.cls-6{fill:#3d613d;}.cls-10,.cls-11,.cls-12,.cls-13,.cls-15,.cls-2,.cls-22,.cls-7,.cls-8,.cls-9{fill-rule:evenodd;}.cls-3,.cls-7{fill:#91ba91;}.cls-4,.cls-8{fill:#b83c33;}.cls-5{fill:#c7544c;}.cls-12,.cls-18,.cls-19,.cls-9{fill:#d6625a;}.cls-10{fill:#bf8c49;}.cls-11{fill:#ecb469;}.cls-12{stroke:#d6625a;}.cls-12,.cls-19{stroke-miterlimit:22.93;stroke-width:0.22px;}.cls-13,.cls-14{fill:#a3c5a4;}.cls-15,.cls-20{fill:#d45755;}.cls-16{fill:#2b524f;}.cls-17{fill:#4a7370;}.cls-19{stroke:#de495d;}.cls-21{fill:#fff;}.cls-22{fill:none;stroke:#fff;stroke-linecap:round;stroke-linejoin:round;stroke-width:1.92px;}</style></defs><title>pattern-2</title><g id="Layer_2" data-name="Layer 2"><g id="OBJECTS"><path class="cls-1" d="M.79,10.21A.9.9,0,1,1,1,8.43c12.18,1.46,34.48,2.06,54.33,1.2C71,8.94,85.19,7.34,91.46,4.53a.9.9,0,0,1,.73,1.64c-6.49,2.91-20.87,4.55-36.78,5.25C35.46,12.29,13,11.68.79,10.21Z"/><path class="cls-1" d="M44.91,11.74a.9.9,0,0,1,0-1.79,19.05,19.05,0,0,0,8.7-2.71A24,24,0,0,0,61.06.67a.9.9,0,0,1,1.46,1A25.83,25.83,0,0,1,54.45,8.8,20.83,20.83,0,0,1,44.91,11.74Z"/><path class="cls-1" d="M75.09,9.91a.9.9,0,1,1-.23-1.78c2-.27,5.58.23,9.37,1.06A81.25,81.25,0,0,1,96.4,12.76a.9.9,0,1,1-.69,1.66,79.35,79.35,0,0,0-11.86-3.47C80.23,10.16,76.85,9.68,75.09,9.91Z"/><path class="cls-1" d="M81.07,7.93a.9.9,0,1,0,.21,1.78c12.18-1.46,34.48-2.06,54.33-1.2,15.72.69,29.86,2.29,36.13,5.1a.9.9,0,0,0,.73-1.64C166,9.07,151.59,7.42,135.68,6.73,115.73,5.85,93.31,6.46,81.07,7.93Z"/><path class="cls-1" d="M125.18,6.4a.9.9,0,0,0,0,1.79,19,19,0,0,1,8.7,2.71,24,24,0,0,1,7.49,6.57.9.9,0,0,0,1.46-1,25.83,25.83,0,0,0-8.07-7.09A20.83,20.83,0,0,0,125.18,6.4Z"/><path class="cls-1" d="M155.36,8.23a.9.9,0,1,0-.23,1.78c2,.27,5.58-.23,9.38-1.06a81.25,81.25,0,0,0,12.17-3.57A.9.9,0,0,0,176,3.73,79.35,79.35,0,0,1,164.12,7.2C160.5,8,157.12,8.47,155.36,8.23Z"/><path class="cls-1" d="M161,10.21a.9.9,0,0,1,.21-1.78c12.18,1.46,34.48,2.06,54.33,1.2,15.72-.69,29.86-2.29,36.13-5.1a.9.9,0,1,1,.73,1.64c-6.49,2.91-20.87,4.55-36.78,5.25C195.7,12.29,173.28,11.68,161,10.21Z"/><path class="cls-1" d="M205.15,11.74a.9.9,0,1,1,0-1.79,19.05,19.05,0,0,0,8.7-2.71A24,24,0,0,0,221.3.67a.9.9,0,0,1,1.46,1A25.84,25.84,0,0,1,214.7,8.8,20.83,20.83,0,0,1,205.15,11.74Z"/><path class="cls-1" d="M235.33,9.91a.9.9,0,1,1-.23-1.78c2-.27,5.58.23,9.37,1.06a81.25,81.25,0,0,1,12.17,3.57.9.9,0,0,1-.69,1.66,79.35,79.35,0,0,0-11.86-3.47C240.47,10.16,237.09,9.68,235.33,9.91Z"/><path class="cls-1" d="M241.31,7.93a.9.9,0,0,0,.21,1.78C253.7,8.25,276,7.65,295.85,8.52c15.72.69,29.86,2.29,36.13,5.1a.9.9,0,1,0,.73-1.64c-6.49-2.91-20.87-4.55-36.78-5.25C276,5.85,253.56,6.46,241.31,7.93Z"/><path class="cls-1" d="M285.42,6.4a.9.9,0,0,0,0,1.79,19,19,0,0,1,8.7,2.71,24,24,0,0,1,7.49,6.57.9.9,0,0,0,1.46-1A25.83,25.83,0,0,0,295,9.34,20.83,20.83,0,0,0,285.42,6.4Z"/><path class="cls-1" d="M315.61,8.23a.9.9,0,1,0-.23,1.78c2,.27,5.58-.23,9.37-1.06a81.25,81.25,0,0,0,12.17-3.57.9.9,0,0,0-.69-1.66A79.35,79.35,0,0,1,324.37,7.2C320.75,8,317.37,8.47,315.61,8.23Z"/><path class="cls-1" d="M321.28,10.21a.9.9,0,0,1,.21-1.78c12.18,1.46,34.48,2.06,54.33,1.2,15.72-.69,29.86-2.29,36.13-5.1a.9.9,0,0,1,.73,1.64c-6.49,2.91-20.87,4.55-36.78,5.25C355.95,12.29,333.53,11.68,321.28,10.21Z"/><path class="cls-1" d="M346.7,11.45a.9.9,0,0,1,0-1.79,19.05,19.05,0,0,0,8.7-2.71A24,24,0,0,0,362.85.38a.9.9,0,0,1,1.46,1,25.84,25.84,0,0,1-8.07,7.09A20.83,20.83,0,0,1,346.7,11.45Z"/><path class="cls-1" d="M395.58,9.91a.9.9,0,0,1-.23-1.78c2-.27,5.58.23,9.37,1.06a81.26,81.26,0,0,1,12.17,3.57.9.9,0,0,1-.69,1.66,79.35,79.35,0,0,0-11.86-3.47C400.72,10.16,397.34,9.68,395.58,9.91Z"/><path class="cls-2" d="M242.78,29.14a7.66,7.66,0,0,1,5.44-6.43c-3.29-.5-6-5.49-1.37-8.43-3.29-.5-5.31-4.06-5.92-7.78-.51,4.25-2.12,7.51-5.35,8.31,4.91,2.49,2.65,7.72-.58,8.52,2.4.37,5.59,2.78,5.91,5.88.28,2.74.87,4.66,1.78,5.1C243.18,34.55,242.58,33.05,242.78,29.14Z"/><path class="cls-3" d="M243.24,37.9a.44.44,0,0,0,.81-.33,48.06,48.06,0,0,1-2.75-13.13c-.44-5.14-.28-10.06.52-12.73a.44.44,0,0,0-.84-.25c-.83,2.77-1,7.81-.56,13A48.93,48.93,0,0,0,243.24,37.9Z"/><circle class="cls-4" cx="247.2" cy="29.6" r="4.69" transform="translate(37.17 163.29) rotate(-39.31)"/><circle class="cls-5" cx="249.12" cy="29.74" r="1.59" transform="translate(37.51 164.53) rotate(-39.3)"/><circle class="cls-4" cx="237.62" cy="32.5" r="4.69" transform="translate(33.17 157.88) rotate(-39.31)"/><circle class="cls-5" cx="239.55" cy="32.64" r="1.59" transform="translate(33.52 159.14) rotate(-39.31)"/><circle class="cls-4" cx="245.02" cy="38.76" r="4.69" transform="translate(30.88 163.99) rotate(-39.31)"/><circle class="cls-5" cx="246.95" cy="38.9" r="1.59" transform="translate(31.23 165.23) rotate(-39.31)"/><path class="cls-6" d="M38,9.57a.37.37,0,1,0-.51.54c4.38,4.08,7.22,10.27,8.84,17A68.51,68.51,0,0,1,47.5,51.73a.37.37,0,0,0,.74.11A69.3,69.3,0,0,0,47.06,27C45.4,20.08,42.5,13.76,38,9.57Z"/><path class="cls-7" d="M45.24,63.18c4.39.89,5.13-11.1,3-14.9C44.76,51.09,40.85,62.29,45.24,63.18Z"/><path class="cls-2" d="M46,59.43c2.09.42,3.09-8.46,2.26-11.16C46.41,50.54,43.91,59,46,59.43Z"/><path class="cls-7" d="M57.14,54.51c3.71-2.5-4.31-11.44-8.5-12.61C48.19,46.37,53.43,57,57.14,54.51Z"/><path class="cls-2" d="M55,51.34c1.76-1.19-3.87-8.13-6.37-9.44C48.94,44.81,53.23,52.53,55,51.34Z"/><path class="cls-7" d="M35.66,53.62c-2.44-3.75,8.42-8.86,12.74-8.3C47.08,49.6,38.1,57.37,35.66,53.62Z"/><path class="cls-2" d="M38.86,51.53c-1.16-1.78,6.73-6,9.54-6.21C47,47.87,40,53.32,38.86,51.53Z"/><path class="cls-7" d="M36.3,46.13C33.58,42.57,44,36.66,48.38,36.9,47.38,41.26,39,49.68,36.3,46.13Z"/><path class="cls-2" d="M39.33,43.81c-1.29-1.69,6.26-6.48,9-6.91C47.15,39.54,40.63,45.5,39.33,43.81Z"/><path class="cls-7" d="M57.21,43.65c3.49-2.8-5.25-11-9.52-11.85C47.61,36.28,53.72,46.45,57.21,43.65Z"/><path class="cls-2" d="M54.81,40.67c1.66-1.33-4.53-7.78-7.13-8.87C48.24,34.66,53.15,42,54.81,40.67Z"/><path class="cls-7" d="M36.55,37.81c-3.36-3,5.72-10.8,10-11.43C46.46,30.86,39.91,40.76,36.55,37.81Z"/><path class="cls-2" d="M39.08,34.94c-1.6-1.4,4.86-7.58,7.51-8.55C45.91,29.22,40.68,36.34,39.08,34.94Z"/><path class="cls-7" d="M57.18,29.1C59.73,25.42,49,20,44.67,20.46,45.88,24.78,54.64,32.78,57.18,29.1Z"/><path class="cls-2" d="M54,26.93c1.21-1.75-6.56-6.17-9.37-6.47C46,23,52.83,28.68,54,26.93Z"/><path class="cls-7" d="M35.51,29.81C31.61,27.62,38.85,18,42.93,16.53,43.75,20.94,39.42,32,35.51,29.81Z"/><path class="cls-2" d="M37.38,26.47c-1.86-1,3.17-8.43,5.55-9.94C42.86,19.45,39.24,27.51,37.38,26.47Z"/><path class="cls-7" d="M54.29,17.36c1.54-4.2-10.2-6.74-14.28-5.23C42.27,16,52.76,21.57,54.29,17.36Z"/><path class="cls-2" d="M50.7,16.05c.73-2-7.9-4.32-10.69-3.91C42,14.3,50,18,50.7,16.05Z"/><path class="cls-6" d="M276.12,6.47a.37.37,0,0,1,.51.54c-4.38,4.08-7.22,10.27-8.84,17a68.52,68.52,0,0,0-1.16,24.59.37.37,0,1,1-.73.11,69.3,69.3,0,0,1,1.18-24.88C268.72,17,271.62,10.66,276.12,6.47Z"/><path class="cls-7" d="M268.88,60.09c-4.39.89-5.13-11.1-3-14.9C269.35,48,273.26,59.2,268.88,60.09Z"/><path class="cls-2" d="M268.12,56.34c-2.09.42-3.09-8.46-2.26-11.16C267.7,47.44,270.2,55.92,268.12,56.34Z"/><path class="cls-7" d="M257,51.42c-3.71-2.5,4.31-11.44,8.5-12.61C265.93,43.27,260.69,53.92,257,51.42Z"/><path class="cls-2" d="M259.12,48.25c-1.76-1.19,3.86-8.13,6.37-9.44C265.17,41.71,260.88,49.44,259.12,48.25Z"/><path class="cls-7" d="M278.45,50.53c2.44-3.75-8.42-8.86-12.74-8.3C267,46.51,276,54.28,278.45,50.53Z"/><path class="cls-2" d="M275.25,48.44c1.16-1.78-6.73-6-9.54-6.21C267.13,44.78,274.09,50.22,275.25,48.44Z"/><path class="cls-7" d="M277.82,43c2.72-3.55-7.73-9.47-12.08-9.23C266.74,38.17,275.1,46.59,277.82,43Z"/><path class="cls-2" d="M274.78,40.71c1.29-1.69-6.26-6.48-9-6.91C267,36.45,273.48,42.41,274.78,40.71Z"/><path class="cls-7" d="M256.91,40.55c-3.49-2.8,5.25-11,9.52-11.85C266.5,33.18,260.39,43.36,256.91,40.55Z"/><path class="cls-2" d="M259.3,37.57c-1.66-1.33,4.53-7.78,7.13-8.87C265.88,31.57,261,38.91,259.3,37.57Z"/><path class="cls-7" d="M277.56,34.72c3.36-3-5.72-10.8-10-11.43C267.65,27.77,274.2,37.67,277.56,34.72Z"/><path class="cls-2" d="M275,31.84c1.6-1.4-4.86-7.58-7.51-8.55C268.21,26.13,273.44,33.25,275,31.84Z"/><path class="cls-7" d="M256.93,26c-2.54-3.68,8.18-9.09,12.51-8.64C268.23,21.68,259.47,29.69,256.93,26Z"/><path class="cls-2" d="M260.08,23.84c-1.21-1.75,6.56-6.17,9.36-6.47C268.09,20,261.29,25.59,260.08,23.84Z"/><path class="cls-7" d="M278.6,26.71c3.91-2.18-3.33-11.76-7.42-13.27C270.36,17.85,274.69,28.9,278.6,26.71Z"/><path class="cls-2" d="M276.73,23.38c1.86-1-3.17-8.43-5.55-9.94C271.25,16.36,274.88,24.41,276.73,23.38Z"/><path class="cls-7" d="M259.82,14.27C258.28,10.07,270,7.53,274.1,9,271.84,12.92,261.36,18.47,259.82,14.27Z"/><path class="cls-2" d="M263.41,13c-.73-2,7.9-4.32,10.69-3.91C272.14,11.21,264.14,15,263.41,13Z"/><polygon class="cls-8" points="113.61 33.57 121.19 25.8 130.91 30.64 125.86 21.03 133.47 13.29 122.77 15.12 117.76 5.49 116.19 16.23 105.48 18.02 115.22 22.83 113.61 33.57"/><polygon class="cls-9" points="117.28 26.19 120.39 22.99 124.39 24.99 122.32 21.03 125.45 17.84 121.04 18.6 118.98 14.63 118.34 19.05 113.93 19.79 117.94 21.77 117.28 26.19"/><polygon class="cls-10" points="330.74 33 340.69 28.66 347.87 36.8 346.81 26 356.78 21.69 346.18 19.36 345.16 8.55 339.67 17.91 329.07 15.53 336.28 23.66 330.74 33"/><polygon class="cls-11" points="336.92 27.54 341.01 25.75 343.96 29.11 343.53 24.66 347.63 22.89 343.27 21.93 342.85 17.48 340.59 21.33 336.23 20.36 339.19 23.7 336.92 27.54"/><path class="cls-2" d="M91.7,27.52a7.66,7.66,0,0,0-5.44-6.43c3.29-.5,6-5.49,1.37-8.43,3.29-.5,5.31-4.06,5.92-7.78.51,4.25,2.12,7.51,5.35,8.31-4.91,2.49-2.65,7.72.58,8.52-2.4.37-5.59,2.78-5.91,5.88-.28,2.74-.87,4.66-1.78,5.1C91.3,32.93,91.91,31.43,91.7,27.52Z"/><path class="cls-3" d="M91.25,36.28a.44.44,0,0,1-.81-.33,48.06,48.06,0,0,0,2.75-13.13c.44-5.14.27-10.06-.52-12.73a.44.44,0,0,1,.84-.25c.83,2.77,1,7.81.56,13A48.93,48.93,0,0,1,91.25,36.28Z"/><circle class="cls-4" cx="87.29" cy="27.98" r="4.69" transform="translate(10.34 77.8) rotate(-50.69)"/><circle class="cls-5" cx="85.36" cy="28.12" r="1.59" transform="translate(9.53 76.37) rotate(-50.7)"/><circle class="cls-4" cx="96.86" cy="30.88" r="4.69" transform="translate(11.6 86.26) rotate(-50.69)"/><circle class="cls-5" cx="94.94" cy="31.02" r="1.59" transform="translate(10.79 84.82) rotate(-50.69)"/><circle class="cls-4" cx="89.46" cy="37.14" r="4.69" transform="translate(4.05 82.83) rotate(-50.69)"/><circle class="cls-5" cx="87.54" cy="37.28" r="1.59" transform="translate(3.24 81.4) rotate(-50.69)"/><path class="cls-12" d="M356.72,49.22a17.73,17.73,0,0,0,11.13-12.69c1.47-7.59-1-14.63-5.83-14.88S350.8,27.3,351.43,35.44C352,42.07,356.61,44.49,356.72,49.22Z"/><path class="cls-4" d="M362.35,25.43A10.63,10.63,0,0,0,358,27.79,9.11,9.11,0,0,0,355.22,32a.35.35,0,0,0,.69.18,8.39,8.39,0,0,1,2.58-3.85,10,10,0,0,1,3.91-2.17,32.48,32.48,0,0,1-.18,5.7A10.7,10.7,0,0,0,357.9,34a8.41,8.41,0,0,0-2.2,3,.35.35,0,0,0,.65.29,7.7,7.7,0,0,1,2-2.72,9.85,9.85,0,0,1,3.75-1.93q-.07.5-.17,1a32.69,32.69,0,0,1-.9,3.69A15.36,15.36,0,0,0,357.6,39a4,4,0,0,0-1.72,2,.35.35,0,1,0,.68.17A3.36,3.36,0,0,1,358,39.61a13.88,13.88,0,0,1,2.77-1.43,39.75,39.75,0,0,1-2.16,5.19.35.35,0,1,0,.63.31,40.76,40.76,0,0,0,2.1-5,4.94,4.94,0,0,1-.25,4.25.35.35,0,0,0,.65.27,5.77,5.77,0,0,0,.06-5.35l-.1-.27a33.49,33.49,0,0,0,.93-3.83q.05-.29.1-.58a13.19,13.19,0,0,1,.68,1.68,21.46,21.46,0,0,1,.84,3.55.35.35,0,0,0,.7-.11,22.36,22.36,0,0,0-.87-3.67A10.93,10.93,0,0,0,362.9,32a32.76,32.76,0,0,0,.22-5.37,10.5,10.5,0,0,1,1.6,3,19.63,19.63,0,0,1,1,5.56.35.35,0,0,0,.71,0,20.39,20.39,0,0,0-1.05-5.77,10.37,10.37,0,0,0-2.33-3.92c-.05-.76-.21-3-.57-5.9A104.49,104.49,0,0,0,360.66,9a.35.35,0,0,0-.69.16,103.78,103.78,0,0,1,1.82,10.61C362.13,22.47,362.29,24.56,362.35,25.43Z"/><path class="cls-9" d="M196.08,49.81a17.73,17.73,0,0,1-11.13-12.69c-1.47-7.59,1-14.63,5.83-14.88S202,27.89,201.36,36C200.84,42.66,196.18,45.08,196.08,49.81Z"/><path class="cls-4" d="M190.44,26a10.64,10.64,0,0,1,4.34,2.36,9.11,9.11,0,0,1,2.79,4.21.35.35,0,1,1-.69.18,8.38,8.38,0,0,0-2.58-3.85,10,10,0,0,0-3.91-2.17,32.44,32.44,0,0,0,.18,5.7,10.71,10.71,0,0,1,4.32,2.16,8.41,8.41,0,0,1,2.2,3,.35.35,0,0,1-.65.29,7.71,7.71,0,0,0-2-2.72,9.83,9.83,0,0,0-3.75-1.93q.07.5.17,1a32.69,32.69,0,0,0,.9,3.69,15.35,15.35,0,0,1,3.45,1.71,4,4,0,0,1,1.72,2,.35.35,0,0,1-.68.17,3.36,3.36,0,0,0-1.44-1.64A13.86,13.86,0,0,0,192,38.77,39.81,39.81,0,0,0,194.18,44a.35.35,0,1,1-.63.31,40.87,40.87,0,0,1-2.1-5,5,5,0,0,0,.25,4.25.35.35,0,0,1-.65.27,5.77,5.77,0,0,1-.05-5.35l.1-.27a33.37,33.37,0,0,1-.93-3.83q-.05-.29-.1-.58a13.24,13.24,0,0,0-.68,1.68,21.54,21.54,0,0,0-.84,3.55.35.35,0,0,1-.7-.11,22.25,22.25,0,0,1,.87-3.67,10.93,10.93,0,0,1,1.18-2.59,32.79,32.79,0,0,1-.22-5.37,10.52,10.52,0,0,0-1.6,3,19.66,19.66,0,0,0-1,5.56.35.35,0,1,1-.71,0,20.38,20.38,0,0,1,1.05-5.77,10.36,10.36,0,0,1,2.33-3.92c.05-.76.21-3,.57-5.9a104.54,104.54,0,0,1,1.83-10.69.35.35,0,1,1,.69.16A103.84,103.84,0,0,0,191,20.32C190.66,23.06,190.5,25.15,190.44,26Z"/><path class="cls-9" d="M64.53,49.45A17.73,17.73,0,0,0,75.66,36.76c1.47-7.59-1-14.63-5.83-14.88S58.62,27.53,59.25,35.66C59.77,42.3,64.43,44.72,64.53,49.45Z"/><path class="cls-4" d="M70.17,25.66A10.64,10.64,0,0,0,65.83,28,9.11,9.11,0,0,0,63,32.23a.35.35,0,1,0,.69.18,8.38,8.38,0,0,1,2.58-3.85,10,10,0,0,1,3.91-2.17,32.44,32.44,0,0,1-.18,5.7,10.71,10.71,0,0,0-4.32,2.16,8.41,8.41,0,0,0-2.2,3,.35.35,0,0,0,.65.29,7.71,7.71,0,0,1,2-2.72,9.83,9.83,0,0,1,3.75-1.93q-.07.5-.17,1a32.7,32.7,0,0,1-.9,3.69,15.35,15.35,0,0,0-3.45,1.71,4,4,0,0,0-1.72,2,.35.35,0,0,0,.68.17,3.36,3.36,0,0,1,1.44-1.64,13.86,13.86,0,0,1,2.77-1.43,39.79,39.79,0,0,1-2.16,5.19.35.35,0,1,0,.63.31,40.86,40.86,0,0,0,2.1-5,5,5,0,0,1-.25,4.25.35.35,0,0,0,.65.27,5.77,5.77,0,0,0,.05-5.35l-.1-.27A33.33,33.33,0,0,0,70.46,34q.05-.29.1-.58a13.27,13.27,0,0,1,.68,1.68,21.55,21.55,0,0,1,.84,3.55.35.35,0,1,0,.7-.11,22.25,22.25,0,0,0-.87-3.67,10.93,10.93,0,0,0-1.18-2.59,32.8,32.8,0,0,0,.22-5.37,10.53,10.53,0,0,1,1.6,3,19.66,19.66,0,0,1,1,5.56.35.35,0,0,0,.71,0,20.37,20.37,0,0,0-1.05-5.77,10.36,10.36,0,0,0-2.33-3.92c-.05-.76-.21-3-.57-5.9A104.51,104.51,0,0,0,68.48,9.18a.35.35,0,1,0-.69.16A103.85,103.85,0,0,1,69.61,20C69.95,22.7,70.11,24.79,70.17,25.66Z"/><path class="cls-13" d="M360,8.7a18,18,0,0,1,15.24,16.37A18,18,0,0,1,360,8.7Z"/><path class="cls-6" d="M360,9a.26.26,0,1,1,.33-.4,93,93,0,0,1,7.55,7.06,51.35,51.35,0,0,1,5.38,6.41.26.26,0,1,1-.43.29A50.84,50.84,0,0,0,367.49,16,92.6,92.6,0,0,0,360,9Z"/><path class="cls-6" d="M369,17.6a.26.26,0,1,1,.39-.34,3.87,3.87,0,0,1,.81,2.22,4.47,4.47,0,0,1-.42,2.45.26.26,0,1,1-.45-.26,4,4,0,0,0,.36-2.15A3.37,3.37,0,0,0,369,17.6Z"/><path class="cls-6" d="M365.95,14.44a.26.26,0,0,1,.44-.28,3.88,3.88,0,0,1,.44,2.32,4.47,4.47,0,0,1-.82,2.35.26.26,0,0,1-.4-.33,4,4,0,0,0,.7-2.07A3.37,3.37,0,0,0,365.95,14.44Z"/><path class="cls-6" d="M367.42,16a.26.26,0,0,1,.39-.34,3.37,3.37,0,0,0,1.82.92,3.94,3.94,0,0,0,2.18-.09.26.26,0,0,1,.2.48,4.47,4.47,0,0,1-2.49.12A3.87,3.87,0,0,1,367.42,16Z"/><path class="cls-6" d="M363.4,12a.26.26,0,0,1,.39-.34,3.37,3.37,0,0,0,1.82.92,3.94,3.94,0,0,0,2.18-.09.26.26,0,0,1,.2.48,4.47,4.47,0,0,1-2.49.12A3.87,3.87,0,0,1,363.4,12Z"/><path class="cls-13" d="M193.24,9.12a18,18,0,0,1-15.92,15.72A18,18,0,0,1,193.24,9.12Z"/><path class="cls-6" d="M192.94,9.15a.26.26,0,1,1,.41.31,93,93,0,0,1-6.84,7.75,51.36,51.36,0,0,1-6.25,5.56.26.26,0,0,1-.3-.42,50.83,50.83,0,0,0,6.18-5.51A92.59,92.59,0,0,0,192.94,9.15Z"/><path class="cls-6" d="M184.61,18.38a.26.26,0,1,1,.36.38,3.88,3.88,0,0,1-2.2.88,4.47,4.47,0,0,1-2.47-.35.26.26,0,1,1,.24-.46,4,4,0,0,0,2.16.29A3.37,3.37,0,0,0,184.61,18.38Z"/><path class="cls-6" d="M187.67,15.27a.26.26,0,0,1,.29.43,3.88,3.88,0,0,1-2.31.51,4.47,4.47,0,0,1-2.38-.75.26.26,0,0,1,.31-.41,4,4,0,0,0,2.09.64A3.37,3.37,0,0,0,187.67,15.27Z"/><path class="cls-6" d="M186.21,16.79a.26.26,0,0,1,.35.38A3.37,3.37,0,0,0,185.7,19a3.94,3.94,0,0,0,.15,2.18.26.26,0,0,1-.47.21,4.47,4.47,0,0,1-.19-2.48A3.87,3.87,0,0,1,186.21,16.79Z"/><path class="cls-6" d="M190,12.65a.26.26,0,0,1,.35.38,3.37,3.37,0,0,0-.86,1.85,3.94,3.94,0,0,0,.15,2.18.26.26,0,0,1-.47.21,4.48,4.48,0,0,1-.19-2.48A3.87,3.87,0,0,1,190,12.65Z"/><path class="cls-13" d="M67.75,8.35A18,18,0,0,1,80.6,26.66,18,18,0,0,1,67.75,8.35Z"/><path class="cls-6" d="M67.72,8.64a.26.26,0,1,1,.38-.35,92.89,92.89,0,0,1,6.51,8,51.35,51.35,0,0,1,4.45,7.09.26.26,0,1,1-.47.23,50.89,50.89,0,0,0-4.4-7A92.67,92.67,0,0,0,67.72,8.64Z"/><path class="cls-6" d="M75.44,18.39a.26.26,0,1,1,.43-.29,3.87,3.87,0,0,1,.5,2.31,4.47,4.47,0,0,1-.76,2.37.26.26,0,0,1-.41-.32,4,4,0,0,0,.65-2.08A3.37,3.37,0,0,0,75.44,18.39Z"/><path class="cls-6" d="M72.88,14.86a.26.26,0,0,1,.47-.22A3.88,3.88,0,0,1,73.48,17a4.47,4.47,0,0,1-1.13,2.22.26.26,0,0,1-.35-.38,4,4,0,0,0,1-2A3.37,3.37,0,0,0,72.88,14.86Z"/><path class="cls-6" d="M74.14,16.55a.26.26,0,0,1,.43-.28,3.37,3.37,0,0,0,1.68,1.16,3.94,3.94,0,0,0,2.17.21.26.26,0,0,1,.13.5,4.47,4.47,0,0,1-2.48-.23A3.88,3.88,0,0,1,74.14,16.55Z"/><path class="cls-6" d="M70.69,12.09a.26.26,0,1,1,.43-.28A3.37,3.37,0,0,0,72.8,13a3.94,3.94,0,0,0,2.17.21.26.26,0,0,1,.13.5,4.48,4.48,0,0,1-2.48-.23A3.88,3.88,0,0,1,70.69,12.09Z"/><path class="cls-14" d="M386.84,22v0q.13.86.21,1.71l0,.37h0a6.73,6.73,0,0,1-.57,3.17h0a6.1,6.1,0,0,1-2,2.39.35.35,0,0,0,.41.56,6.79,6.79,0,0,0,2.21-2.66h0l.06-.13c0,.83,0,1.64-.11,2.44h0v0q0,.44-.08.87a3.37,3.37,0,0,1-1.43,2.29,7.53,7.53,0,0,1-3.48,1.21.35.35,0,0,0,.08.69A8.21,8.21,0,0,0,386,33.67a4.7,4.7,0,0,0,.72-.64,25.38,25.38,0,0,1-2.13,6.86.35.35,0,1,0,.62.31,23.53,23.53,0,0,0,1.7-4.75,7.21,7.21,0,0,0,.3.91,6.94,6.94,0,0,0,2.09,2.82.35.35,0,1,0,.43-.54,6.35,6.35,0,0,1-2.3-5.66h0q.17-1,.28-2h0v0l0-.26a11.71,11.71,0,0,1,2.45,2.78h0A12.49,12.49,0,0,1,391,35a12,12,0,0,1,1,5.95.34.34,0,1,0,.69.06,12.66,12.66,0,0,0-1.1-6.29q-.24-.52-.51-1a6.36,6.36,0,0,1,2.29,1,6.25,6.25,0,0,1,2.1,2.35.34.34,0,1,0,.61-.31,7.05,7.05,0,0,0-5.47-3.77,12.24,12.24,0,0,0-2.87-3.09,35.58,35.58,0,0,0,0-5.66V24a7.22,7.22,0,0,0,.89,1.06,6.94,6.94,0,0,0,3,1.76.35.35,0,1,0,.18-.67,6.35,6.35,0,0,1-4.36-4.27q-.13-.86-.31-1.72v0a30,30,0,0,0-1.6-5.26,12.68,12.68,0,0,0,2.17,1.45,7,7,0,0,0,4.26,5.1.34.34,0,1,0,.26-.64,6.25,6.25,0,0,1-2.54-1.88,6.36,6.36,0,0,1-1.17-2.19q.51.23,1.06.42a12.66,12.66,0,0,0,6.37.52.35.35,0,1,0-.12-.68,12,12,0,0,1-6-.49,12.46,12.46,0,0,1-1.61-.68h0a11.53,11.53,0,0,1-3.38-2.6q-.38-.77-.81-1.52l0,0a26.06,26.06,0,0,0-1.85-2.8.35.35,0,1,0-.55.42,25.41,25.41,0,0,1,1.77,2.67,6.7,6.7,0,0,1-.57,3.09h0a6.1,6.1,0,0,1-2,2.39.35.35,0,1,0,.41.56,6.79,6.79,0,0,0,2.21-2.66h0a7,7,0,0,0,.59-2.18,28.51,28.51,0,0,1,2.45,7,12.25,12.25,0,0,0-2.79,3.13,7,7,0,0,0-5.4,3.87.35.35,0,1,0,.62.3A6.25,6.25,0,0,1,381,25a6.37,6.37,0,0,1,2.27-1q-.27.5-.49,1a12.66,12.66,0,0,0-1,6.31.35.35,0,1,0,.69-.07,12,12,0,0,1,.93-6,12.5,12.5,0,0,1,.8-1.55l0,0a11.7,11.7,0,0,1,2.43-2.85Q386.75,21.46,386.84,22Z"/><path class="cls-15" d="M395.09,17.23c-.53-.37-1.08.13-1.22.66a7.13,7.13,0,0,1-.35,1.69,7.13,7.13,0,0,1,1.47-.92A.89.89,0,0,0,395.09,17.23Z"/><path class="cls-15" d="M395.11,17.27c-.58.29-.4,1,0,1.39a7.14,7.14,0,0,1,1.32,1.11,7.15,7.15,0,0,1-.11-1.73A.89.89,0,0,0,395.11,17.27Z"/><path class="cls-15" d="M395.17,17.21c.64.1.92-.59.82-1.12a7.13,7.13,0,0,1-.42-1.68,7.13,7.13,0,0,1-.92,1.46A.89.89,0,0,0,395.17,17.21Z"/><path class="cls-15" d="M395.12,17.19c.22-.61-.4-1-.95-1a7.11,7.11,0,0,1-1.73.09c.75.47.84.83,1.26,1.19A.89.89,0,0,0,395.12,17.19Z"/><path class="cls-15" d="M395.16,17.26c.11.63.86.67,1.33.4a7.12,7.12,0,0,1,1.45-.95,7.12,7.12,0,0,1-1.69-.39C395.71,16.23,395,16.62,395.16,17.26Z"/><circle class="cls-16" cx="395.13" cy="17.33" r="0.78" transform="translate(294.19 399.75) rotate(-77.73)"/><circle class="cls-17" cx="395.41" cy="17.17" r="0.26" transform="translate(294.55 399.88) rotate(-77.72)"/><path class="cls-15" d="M393,21.87c-.62-.18-1,.47-.95,1a7.15,7.15,0,0,1,.21,1.72,7.12,7.12,0,0,1,1.09-1.34A.89.89,0,0,0,393,21.87Z"/><path class="cls-15" d="M393,21.9c-.45.46-.05,1.09.45,1.32a7.14,7.14,0,0,1,1.61.63,7.15,7.15,0,0,1-.66-1.6A.89.89,0,0,0,393,21.9Z"/><path class="cls-15" d="M393,21.83c.64-.11.68-.85.41-1.33a7.12,7.12,0,0,1-.93-1.46,7.13,7.13,0,0,1-.4,1.68C392,21.27,392.4,21.94,393,21.83Z"/><path class="cls-15" d="M393,21.82c0-.65-.71-.83-1.22-.66a7.12,7.12,0,0,1-1.61.64,7.09,7.09,0,0,1,1.57.72A.89.89,0,0,0,393,21.82Z"/><path class="cls-15" d="M393,21.88c.31.56,1,.36,1.39,0a7.12,7.12,0,0,1,1.07-1.36,7.12,7.12,0,0,1-1.72.17A.89.89,0,0,0,393,21.88Z"/><circle class="cls-16" cx="393.05" cy="21.96" r="0.78" transform="translate(0.03 44.44) rotate(-6.47)"/><circle class="cls-17" cx="393.25" cy="21.71" r="0.26" transform="translate(0.06 44.55) rotate(-6.48)"/><path class="cls-15" d="M392.37,26.89c-.29-.58-1-.41-1.39,0a7.14,7.14,0,0,1-1.12,1.32,7.14,7.14,0,0,1,1.73-.1A.89.89,0,0,0,392.37,26.89Z"/><path class="cls-15" d="M392.38,26.93c-.64,0-.84.7-.67,1.22a7.13,7.13,0,0,1,.63,1.61,7.15,7.15,0,0,1,.73-1.57A.89.89,0,0,0,392.38,26.93Z"/><path class="cls-15" d="M392.45,26.91c.51.4,1.09-.07,1.26-.59a7.14,7.14,0,0,1,.44-1.67,7.13,7.13,0,0,1-1.51.84A.89.89,0,0,0,392.45,26.91Z"/><path class="cls-15" d="M392.42,26.87c.49-.42.14-1.08-.34-1.35a7.1,7.1,0,0,1-1.56-.75,7.12,7.12,0,0,1,.53,1.65A.89.89,0,0,0,392.42,26.87Z"/><path class="cls-15" d="M392.42,26.95c-.21.61.43,1,1,1a7.13,7.13,0,0,1,1.73-.13c-.76-.45-.86-.81-1.29-1.15A.89.89,0,0,0,392.42,26.95Z"/><circle class="cls-16" cx="392.37" cy="27" r="0.78" transform="translate(114.32 305.16) rotate(-48.95)"/><circle class="cls-17" cx="392.68" cy="26.99" r="0.26" transform="matrix(0.66, -0.75, 0.75, 0.66, 114.4, 305.35)"/><path class="cls-15" d="M396.47,37c-.62-.18-1,.47-.95,1a7.14,7.14,0,0,1,.21,1.72,7.12,7.12,0,0,1,1.09-1.34A.89.89,0,0,0,396.47,37Z"/><path class="cls-15" d="M396.5,37c-.45.46-.05,1.09.45,1.32a7.13,7.13,0,0,1,1.61.63,7.15,7.15,0,0,1-.66-1.6A.89.89,0,0,0,396.5,37Z"/><path class="cls-15" d="M396.54,36.94c.64-.11.68-.85.41-1.33a7.12,7.12,0,0,1-.93-1.46,7.13,7.13,0,0,1-.4,1.68C395.51,36.38,395.9,37,396.54,36.94Z"/><path class="cls-15" d="M396.48,36.93c0-.65-.71-.83-1.22-.66a7.11,7.11,0,0,1-1.61.64,7.1,7.1,0,0,1,1.57.72A.89.89,0,0,0,396.48,36.93Z"/><path class="cls-15" d="M396.54,37c.31.56,1,.36,1.39,0A7.13,7.13,0,0,1,399,35.57a7.12,7.12,0,0,1-1.72.17A.89.89,0,0,0,396.54,37Z"/><circle class="cls-16" cx="396.55" cy="37.06" r="0.78" transform="translate(-1.65 44.93) rotate(-6.47)"/><circle class="cls-17" cx="396.75" cy="36.82" r="0.26" transform="translate(-1.62 44.96) rotate(-6.47)"/><path class="cls-15" d="M392.37,41.37c-.29-.58-1-.41-1.39,0a7.13,7.13,0,0,1-1.12,1.32,7.14,7.14,0,0,1,1.73-.1A.89.89,0,0,0,392.37,41.37Z"/><path class="cls-15" d="M392.38,41.41c-.64,0-.84.7-.67,1.22a7.13,7.13,0,0,1,.63,1.61,7.15,7.15,0,0,1,.73-1.57A.89.89,0,0,0,392.38,41.41Z"/><path class="cls-15" d="M392.45,41.39c.51.4,1.09-.07,1.26-.59a7.14,7.14,0,0,1,.44-1.67,7.13,7.13,0,0,1-1.51.84A.89.89,0,0,0,392.45,41.39Z"/><path class="cls-15" d="M392.42,41.35c.49-.42.14-1.08-.34-1.35a7.09,7.09,0,0,1-1.56-.75,7.13,7.13,0,0,1,.53,1.65A.89.89,0,0,0,392.42,41.35Z"/><path class="cls-15" d="M392.42,41.43c-.21.61.43,1,1,1a7.12,7.12,0,0,1,1.73-.13c-.76-.45-.86-.81-1.29-1.15A.89.89,0,0,0,392.42,41.43Z"/><circle class="cls-16" cx="392.37" cy="41.48" r="0.78" transform="translate(103.4 310.13) rotate(-48.95)"/><circle class="cls-17" cx="392.68" cy="41.47" r="0.26" transform="matrix(0.66, -0.75, 0.75, 0.66, 103.48, 310.32)"/><path class="cls-15" d="M388.74,38.71c-.5-.41-1.09.05-1.27.57a7.14,7.14,0,0,1-.47,1.67,7.12,7.12,0,0,1,1.53-.81A.89.89,0,0,0,388.74,38.71Z"/><path class="cls-15" d="M388.76,38.75c-.59.25-.47,1-.1,1.39s.73.48,1.24,1.21a7.15,7.15,0,0,1,0-1.73A.89.89,0,0,0,388.76,38.75Z"/><path class="cls-15" d="M388.82,38.7c.63.15,1-.52.9-1.06a7.12,7.12,0,0,1-.29-1.71,7.14,7.14,0,0,1-1,1.39A.89.89,0,0,0,388.82,38.7Z"/><path class="cls-15" d="M388.78,38.67c.27-.59-.33-1-.87-1.08a7.13,7.13,0,0,1-1.73,0c.71.53.78.89,1.17,1.27A.89.89,0,0,0,388.78,38.67Z"/><path class="cls-15" d="M388.81,38.75c.07.64.81.73,1.3.5a7.12,7.12,0,0,1,1.51-.84,7.12,7.12,0,0,1-1.65-.51A.89.89,0,0,0,388.81,38.75Z"/><circle class="cls-16" cx="388.78" cy="38.82" r="0.78" transform="translate(241.6 400.75) rotate(-73.57)"/><circle class="cls-17" cx="389.07" cy="38.67" r="0.26" transform="translate(242.04 400.96) rotate(-73.59)"/><path class="cls-15" d="M384.65,40.69c-.62-.18-1,.47-.95,1a7.15,7.15,0,0,1,.21,1.72A7.11,7.11,0,0,1,385,42.08.89.89,0,0,0,384.65,40.69Z"/><path class="cls-15" d="M384.68,40.72c-.45.46-.05,1.09.45,1.32a7.13,7.13,0,0,1,1.61.63,7.15,7.15,0,0,1-.66-1.6A.89.89,0,0,0,384.68,40.72Z"/><path class="cls-15" d="M384.71,40.65c.64-.11.68-.85.41-1.33a7.13,7.13,0,0,1-.93-1.46,7.13,7.13,0,0,1-.4,1.68C383.69,40.08,384.08,40.75,384.71,40.65Z"/><path class="cls-15" d="M384.66,40.64c0-.65-.71-.83-1.22-.66a7.12,7.12,0,0,1-1.61.64,7.1,7.1,0,0,1,1.57.72A.89.89,0,0,0,384.66,40.64Z"/><path class="cls-15" d="M384.72,40.69c.31.56,1,.36,1.39,0a7.13,7.13,0,0,1,1.07-1.36,7.12,7.12,0,0,1-1.72.17A.89.89,0,0,0,384.72,40.69Z"/><circle class="cls-16" cx="384.72" cy="40.77" r="0.78" transform="translate(-2.14 43.6) rotate(-6.47)"/><circle class="cls-17" cx="384.93" cy="40.53" r="0.26" transform="translate(-2.12 43.65) rotate(-6.47)"/><path class="cls-15" d="M382.45,35.42c-.5-.41-1.09.05-1.27.57a7.15,7.15,0,0,1-.47,1.67,7.13,7.13,0,0,1,1.53-.81A.89.89,0,0,0,382.45,35.42Z"/><path class="cls-15" d="M382.47,35.46c-.6.25-.47,1-.1,1.39s.73.48,1.24,1.21a7.15,7.15,0,0,1,0-1.73A.89.89,0,0,0,382.47,35.46Z"/><path class="cls-15" d="M382.53,35.41c.63.15,1-.52.9-1.06a7.11,7.11,0,0,1-.29-1.7,7.14,7.14,0,0,1-1,1.39A.89.89,0,0,0,382.53,35.41Z"/><path class="cls-15" d="M382.48,35.39c.27-.59-.33-1-.87-1.08a7.13,7.13,0,0,1-1.73,0c.71.53.78.89,1.17,1.27A.89.89,0,0,0,382.48,35.39Z"/><path class="cls-15" d="M382.52,35.46c.07.64.81.73,1.3.5a7.12,7.12,0,0,1,1.51-.84,7.12,7.12,0,0,1-1.65-.51A.89.89,0,0,0,382.52,35.46Z"/><circle class="cls-16" cx="382.49" cy="35.53" r="0.78" transform="translate(240.21 392.35) rotate(-73.57)"/><circle class="cls-17" cx="382.77" cy="35.39" r="0.26" transform="translate(240.68 392.57) rotate(-73.59)"/><path class="cls-15" d="M385.7,28.83c.06-.64-.65-.88-1.18-.74a7.13,7.13,0,0,1-1.65.53,7.16,7.16,0,0,1,1.52.82A.89.89,0,0,0,385.7,28.83Z"/><path class="cls-15" d="M385.68,28.87c-.54-.36-1.08.15-1.21.69a7.11,7.11,0,0,1-.32,1.7,7.17,7.17,0,0,1,1.45-.95A.89.89,0,0,0,385.68,28.87Z"/><path class="cls-15" d="M385.76,28.89c.22.6,1,.51,1.38.16s.51-.71,1.26-1.19a7.13,7.13,0,0,1-1.73-.08C386.12,27.78,385.53,28.29,385.76,28.89Z"/><path class="cls-15" d="M385.75,28.84c.64-.11.69-.85.42-1.33a7.09,7.09,0,0,1-.93-1.46,7.14,7.14,0,0,1-.41,1.68C384.73,28.27,385.12,28.94,385.75,28.84Z"/><path class="cls-15" d="M385.71,28.91c-.5.41-.16,1.08.31,1.36a7.12,7.12,0,0,1,1.54.79,7.1,7.1,0,0,1-.49-1.66A.89.89,0,0,0,385.71,28.91Z"/><circle class="cls-16" cx="385.63" cy="28.92" r="0.78" transform="translate(8.77 115.65) rotate(-17.25)"/><circle class="cls-17" cx="385.91" cy="29.08" r="0.26" transform="matrix(0.96, -0.3, 0.3, 0.96, 8.72, 115.68)"/><path class="cls-15" d="M381.6,31.29c-.29-.58-1-.41-1.39,0a7.14,7.14,0,0,1-1.12,1.32,7.14,7.14,0,0,1,1.73-.1A.89.89,0,0,0,381.6,31.29Z"/><path class="cls-15" d="M381.6,31.34c-.64,0-.84.7-.67,1.22a7.13,7.13,0,0,1,.63,1.61,7.15,7.15,0,0,1,.73-1.57A.89.89,0,0,0,381.6,31.34Z"/><path class="cls-15" d="M381.68,31.32c.51.4,1.09-.07,1.26-.59a7.14,7.14,0,0,1,.44-1.67,7.14,7.14,0,0,1-1.51.84A.89.89,0,0,0,381.68,31.32Z"/><path class="cls-15" d="M381.65,31.27c.49-.42.14-1.08-.34-1.35a7.1,7.1,0,0,1-1.56-.75,7.12,7.12,0,0,1,.53,1.65A.89.89,0,0,0,381.65,31.27Z"/><path class="cls-15" d="M381.65,31.35c-.21.61.43,1,1,1a7.12,7.12,0,0,1,1.73-.13c-.76-.45-.86-.81-1.29-1.15A.89.89,0,0,0,381.65,31.35Z"/><circle class="cls-16" cx="381.59" cy="31.41" r="0.78" transform="translate(107.3 298.55) rotate(-48.95)"/><circle class="cls-17" cx="381.91" cy="31.39" r="0.26" transform="translate(107.38 298.75) rotate(-48.94)"/><path class="cls-15" d="M378.85,26.94c.06-.64-.65-.88-1.18-.74a7.13,7.13,0,0,1-1.65.53,7.16,7.16,0,0,1,1.52.82A.89.89,0,0,0,378.85,26.94Z"/><path class="cls-15" d="M378.83,27c-.54-.36-1.08.15-1.21.69a7.11,7.11,0,0,1-.32,1.7,7.17,7.17,0,0,1,1.45-.95A.89.89,0,0,0,378.83,27Z"/><path class="cls-15" d="M378.9,27c.22.6,1,.51,1.38.16s.51-.71,1.26-1.19a7.12,7.12,0,0,1-1.73-.08C379.26,25.89,378.68,26.4,378.9,27Z"/><path class="cls-15" d="M378.9,26.95c.64-.11.69-.85.42-1.33a7.09,7.09,0,0,1-.93-1.46,7.13,7.13,0,0,1-.41,1.68C377.87,26.38,378.26,27.05,378.9,26.95Z"/><path class="cls-15" d="M378.86,27c-.5.41-.16,1.08.31,1.36a7.13,7.13,0,0,1,1.54.79,7.1,7.1,0,0,1-.49-1.66A.89.89,0,0,0,378.86,27Z"/><circle class="cls-16" cx="378.78" cy="27.03" r="0.78" transform="translate(9.01 113.5) rotate(-17.24)"/><circle class="cls-17" cx="379.06" cy="27.19" r="0.26" transform="translate(8.99 113.62) rotate(-17.25)"/><path class="cls-15" d="M381.88,17.58c-.29-.58-1-.41-1.39,0a7.14,7.14,0,0,1-1.12,1.32,7.14,7.14,0,0,1,1.73-.1A.89.89,0,0,0,381.88,17.58Z"/><path class="cls-15" d="M381.88,17.63c-.64,0-.84.7-.67,1.22a7.13,7.13,0,0,1,.63,1.61,7.15,7.15,0,0,1,.73-1.57A.89.89,0,0,0,381.88,17.63Z"/><path class="cls-15" d="M382,17.61c.51.4,1.09-.07,1.26-.59a7.14,7.14,0,0,1,.44-1.67,7.13,7.13,0,0,1-1.51.84A.89.89,0,0,0,382,17.61Z"/><path class="cls-15" d="M381.93,17.56c.49-.42.14-1.08-.34-1.35a7.1,7.1,0,0,1-1.56-.75,7.12,7.12,0,0,1,.53,1.65A.89.89,0,0,0,381.93,17.56Z"/><path class="cls-15" d="M381.93,17.64c-.21.61.43,1,1,1a7.12,7.12,0,0,1,1.73-.13c-.76-.45-.86-.81-1.29-1.15A.89.89,0,0,0,381.93,17.64Z"/><circle class="cls-16" cx="381.87" cy="17.7" r="0.78" transform="translate(117.73 294.04) rotate(-48.95)"/><circle class="cls-17" cx="382.19" cy="17.68" r="0.26" transform="translate(117.86 294.29) rotate(-48.95)"/><path class="cls-14" d="M219.39,21.39v0q-.13.86-.21,1.71l0,.37h0a6.73,6.73,0,0,0,.57,3.17h0a6.1,6.1,0,0,0,2,2.39.35.35,0,0,1-.41.56A6.78,6.78,0,0,1,219.08,27h0l-.06-.13c0,.83,0,1.64.11,2.44h0v0q0,.44.08.87a3.37,3.37,0,0,0,1.43,2.29,7.53,7.53,0,0,0,3.48,1.21.35.35,0,1,1-.08.69A8.21,8.21,0,0,1,220.24,33a4.71,4.71,0,0,1-.72-.64,25.38,25.38,0,0,0,2.13,6.86.35.35,0,1,1-.62.31,23.52,23.52,0,0,1-1.7-4.75,7.22,7.22,0,0,1-.3.91,6.94,6.94,0,0,1-2.09,2.82.35.35,0,1,1-.43-.54,6.35,6.35,0,0,0,2.3-5.66h0q-.17-1-.28-2h0v0l0-.26a11.71,11.71,0,0,0-2.45,2.78h0a12.47,12.47,0,0,0-.83,1.54,12,12,0,0,0-1,5.95.34.34,0,0,1-.69.06,12.66,12.66,0,0,1,1.1-6.29q.24-.52.51-1a6.37,6.37,0,0,0-2.29,1,6.25,6.25,0,0,0-2.1,2.35.34.34,0,0,1-.61-.31,7.05,7.05,0,0,1,5.47-3.77,12.24,12.24,0,0,1,2.87-3.09,35.6,35.6,0,0,1,0-5.66V23.4a7.22,7.22,0,0,1-.89,1.06,6.94,6.94,0,0,1-3,1.76.35.35,0,1,1-.18-.67,6.35,6.35,0,0,0,4.36-4.27q.13-.86.31-1.72v0a30,30,0,0,1,1.6-5.26,12.69,12.69,0,0,1-2.17,1.45,7,7,0,0,1-4.26,5.1.34.34,0,1,1-.26-.64,6.25,6.25,0,0,0,2.54-1.88,6.36,6.36,0,0,0,1.17-2.19q-.51.23-1.06.42a12.66,12.66,0,0,1-6.37.52.35.35,0,1,1,.12-.68,12,12,0,0,0,6-.49,12.47,12.47,0,0,0,1.61-.68h0a11.53,11.53,0,0,0,3.38-2.6q.38-.77.81-1.53l0,0a26.08,26.08,0,0,1,1.85-2.8.35.35,0,1,1,.55.42,25.43,25.43,0,0,0-1.77,2.67,6.7,6.7,0,0,0,.57,3.09h0a6.1,6.1,0,0,0,2,2.39.35.35,0,1,1-.41.56,6.78,6.78,0,0,1-2.21-2.66h0a7,7,0,0,1-.59-2.18,28.51,28.51,0,0,0-2.45,7,12.25,12.25,0,0,1,2.79,3.13,7,7,0,0,1,5.4,3.87.35.35,0,1,1-.62.3,6.25,6.25,0,0,0-2.06-2.39,6.37,6.37,0,0,0-2.27-1q.27.5.49,1a12.66,12.66,0,0,1,1,6.31.35.35,0,1,1-.69-.07,12,12,0,0,0-.93-6,12.48,12.48,0,0,0-.8-1.55l0,0a11.7,11.7,0,0,0-2.43-2.85Q219.48,20.82,219.39,21.39Z"/><path class="cls-15" d="M211.15,16.59c.53-.37,1.08.13,1.22.66a7.12,7.12,0,0,0,.35,1.69,7.13,7.13,0,0,0-1.47-.92A.89.89,0,0,1,211.15,16.59Z"/><path class="cls-15" d="M211.13,16.62c.58.29.4,1,0,1.39a7.12,7.12,0,0,0-1.32,1.11,7.15,7.15,0,0,0,.11-1.73A.89.89,0,0,1,211.13,16.62Z"/><path class="cls-15" d="M211.07,16.57c-.64.1-.92-.59-.82-1.12a7.14,7.14,0,0,0,.42-1.68,7.13,7.13,0,0,0,.92,1.46A.89.89,0,0,1,211.07,16.57Z"/><path class="cls-15" d="M211.12,16.55c-.22-.61.4-1,.95-1a7.14,7.14,0,0,0,1.73.09c-.75.47-.84.83-1.26,1.19A.89.89,0,0,1,211.12,16.55Z"/><path class="cls-15" d="M211.08,16.62c-.11.63-.86.67-1.33.4a7.12,7.12,0,0,0-1.45-.95,7.14,7.14,0,0,0,1.69-.39C210.52,15.59,211.19,16,211.08,16.62Z"/><circle class="cls-16" cx="211.1" cy="16.69" r="0.78" transform="translate(1.27 45.23) rotate(-12.27)"/><circle class="cls-17" cx="210.83" cy="16.53" r="0.26" transform="translate(1.31 45.22) rotate(-12.28)"/><path class="cls-15" d="M213.27,21.23c.62-.18,1,.47.95,1A7.14,7.14,0,0,0,214,24a7.12,7.12,0,0,0-1.09-1.34A.89.89,0,0,1,213.27,21.23Z"/><path class="cls-15" d="M213.23,21.26c.45.46.05,1.09-.45,1.32a7.13,7.13,0,0,0-1.61.63,7.11,7.11,0,0,0,.66-1.6A.89.89,0,0,1,213.23,21.26Z"/><path class="cls-15" d="M213.2,21.19c-.64-.11-.68-.85-.41-1.33a7.14,7.14,0,0,0,.93-1.46,7.13,7.13,0,0,0,.4,1.68C214.22,20.63,213.83,21.3,213.2,21.19Z"/><path class="cls-15" d="M213.25,21.18c0-.64.71-.83,1.22-.66a7.13,7.13,0,0,0,1.61.64,7.12,7.12,0,0,0-1.57.72A.89.89,0,0,1,213.25,21.18Z"/><path class="cls-15" d="M213.19,21.24c-.31.56-1,.36-1.39,0a7.13,7.13,0,0,0-1.07-1.36,7.15,7.15,0,0,0,1.72.17A.89.89,0,0,1,213.19,21.24Z"/><circle class="cls-16" cx="213.19" cy="21.31" r="0.78" transform="translate(167.95 230.73) rotate(-83.52)"/><circle class="cls-17" cx="212.98" cy="21.07" r="0.26" transform="translate(167.93 230.29) rotate(-83.5)"/><path class="cls-15" d="M213.86,26.24c.29-.58,1-.41,1.39,0a7.13,7.13,0,0,0,1.12,1.32,7.13,7.13,0,0,0-1.73-.1A.89.89,0,0,1,213.86,26.24Z"/><path class="cls-15" d="M213.86,26.29c.64,0,.84.7.67,1.22a7.14,7.14,0,0,0-.62,1.61,7.15,7.15,0,0,0-.73-1.57A.89.89,0,0,1,213.86,26.29Z"/><path class="cls-15" d="M213.78,26.27c-.51.4-1.09-.07-1.26-.59a7.14,7.14,0,0,0-.44-1.67,7.13,7.13,0,0,0,1.51.84A.89.89,0,0,1,213.78,26.27Z"/><path class="cls-15" d="M213.81,26.22c-.49-.42-.14-1.08.34-1.35a7.13,7.13,0,0,0,1.56-.75,7.14,7.14,0,0,0-.53,1.65A.89.89,0,0,1,213.81,26.22Z"/><path class="cls-15" d="M213.81,26.3c.21.61-.43,1-1,1a7.15,7.15,0,0,0-1.72-.13c.76-.45.86-.81,1.29-1.15A.89.89,0,0,1,213.81,26.3Z"/><circle class="cls-16" cx="213.87" cy="26.36" r="0.78" transform="translate(35.3 146.97) rotate(-41.06)"/><circle class="cls-17" cx="213.55" cy="26.35" r="0.26" transform="translate(35.27 146.82) rotate(-41.08)"/><path class="cls-15" d="M209.77,36.34c.62-.18,1,.47.95,1a7.15,7.15,0,0,0-.21,1.72,7.13,7.13,0,0,0-1.09-1.34A.89.89,0,0,1,209.77,36.34Z"/><path class="cls-15" d="M209.74,36.37c.45.46.05,1.09-.45,1.32a7.14,7.14,0,0,0-1.61.63,7.11,7.11,0,0,0,.66-1.6A.89.89,0,0,1,209.74,36.37Z"/><path class="cls-15" d="M209.7,36.3c-.64-.11-.68-.85-.41-1.33a7.13,7.13,0,0,0,.93-1.46,7.13,7.13,0,0,0,.4,1.68C210.72,35.73,210.33,36.4,209.7,36.3Z"/><path class="cls-15" d="M209.75,36.29c0-.64.71-.83,1.22-.66a7.13,7.13,0,0,0,1.61.64A7.12,7.12,0,0,0,211,37,.89.89,0,0,1,209.75,36.29Z"/><path class="cls-15" d="M209.69,36.34c-.31.56-1,.36-1.39,0a7.13,7.13,0,0,0-1.07-1.36,7.14,7.14,0,0,0,1.72.17A.89.89,0,0,1,209.69,36.34Z"/><circle class="cls-16" cx="209.69" cy="36.42" r="0.78" transform="translate(149.83 240.66) rotate(-83.52)"/><circle class="cls-17" cx="209.48" cy="36.18" r="0.26" transform="matrix(0.11, -0.99, 0.99, 0.11, 149.82, 240.22)"/><path class="cls-15" d="M213.86,40.72c.29-.58,1-.41,1.39,0A7.14,7.14,0,0,0,216.37,42a7.12,7.12,0,0,0-1.73-.1A.89.89,0,0,1,213.86,40.72Z"/><path class="cls-15" d="M213.86,40.77c.64,0,.84.7.67,1.22a7.15,7.15,0,0,0-.62,1.61,7.14,7.14,0,0,0-.73-1.57A.89.89,0,0,1,213.86,40.77Z"/><path class="cls-15" d="M213.78,40.75c-.51.4-1.09-.07-1.26-.59a7.14,7.14,0,0,0-.44-1.67,7.13,7.13,0,0,0,1.51.84A.89.89,0,0,1,213.78,40.75Z"/><path class="cls-15" d="M213.81,40.7c-.49-.42-.14-1.08.34-1.35a7.13,7.13,0,0,0,1.56-.75,7.14,7.14,0,0,0-.53,1.65A.89.89,0,0,1,213.81,40.7Z"/><path class="cls-15" d="M213.81,40.78c.21.61-.43,1-1,1a7.15,7.15,0,0,0-1.72-.13c.76-.45.86-.81,1.29-1.15A.89.89,0,0,1,213.81,40.78Z"/><circle class="cls-16" cx="213.87" cy="40.84" r="0.78" transform="translate(25.78 150.52) rotate(-41.06)"/><circle class="cls-17" cx="213.55" cy="40.82" r="0.26" transform="translate(25.76 150.39) rotate(-41.08)"/><path class="cls-15" d="M217.49,38.07c.5-.4,1.09.05,1.27.57a7.14,7.14,0,0,0,.47,1.66,7.13,7.13,0,0,0-1.53-.81A.89.89,0,0,1,217.49,38.07Z"/><path class="cls-15" d="M217.47,38.11c.59.25.47,1,.1,1.39s-.73.48-1.24,1.21a7.14,7.14,0,0,0,0-1.73A.89.89,0,0,1,217.47,38.11Z"/><path class="cls-15" d="M217.41,38.06c-.63.15-1-.52-.9-1.06a7.14,7.14,0,0,0,.29-1.7,7.14,7.14,0,0,0,1,1.39A.89.89,0,0,1,217.41,38.06Z"/><path class="cls-15" d="M217.46,38c-.27-.59.33-1,.87-1.08a7.11,7.11,0,0,0,1.73,0c-.71.53-.78.89-1.17,1.27A.89.89,0,0,1,217.46,38Z"/><path class="cls-15" d="M217.42,38.1c-.07.64-.81.74-1.3.5a7.12,7.12,0,0,0-1.51-.84,7.14,7.14,0,0,0,1.65-.51A.89.89,0,0,1,217.42,38.1Z"/><circle class="cls-16" cx="217.45" cy="38.18" r="0.78" transform="translate(-1.92 63.03) rotate(-16.42)"/><circle class="cls-17" cx="217.17" cy="38.03" r="0.26" transform="translate(-1.88 63.02) rotate(-16.44)"/><path class="cls-15" d="M221.59,40c.62-.18,1,.47.95,1a7.14,7.14,0,0,0-.21,1.72,7.13,7.13,0,0,0-1.09-1.34A.89.89,0,0,1,221.59,40Z"/><path class="cls-15" d="M221.56,40.07c.45.46.05,1.09-.45,1.32a7.14,7.14,0,0,0-1.61.63,7.11,7.11,0,0,0,.66-1.6A.89.89,0,0,1,221.56,40.07Z"/><path class="cls-15" d="M221.52,40c-.64-.11-.68-.85-.41-1.33a7.13,7.13,0,0,0,.93-1.46,7.14,7.14,0,0,0,.4,1.68C222.54,39.44,222.16,40.11,221.52,40Z"/><path class="cls-15" d="M221.57,40c0-.64.71-.83,1.22-.66a7.13,7.13,0,0,0,1.61.64,7.13,7.13,0,0,0-1.57.72A.89.89,0,0,1,221.57,40Z"/><path class="cls-15" d="M221.51,40.05c-.31.56-1,.36-1.39,0a7.12,7.12,0,0,0-1.07-1.36,7.15,7.15,0,0,0,1.72.17A.89.89,0,0,1,221.51,40.05Z"/><circle class="cls-16" cx="221.51" cy="40.13" r="0.78" transform="translate(156.63 255.69) rotate(-83.52)"/><circle class="cls-17" cx="221.3" cy="39.89" r="0.26" transform="matrix(0.11, -0.99, 0.99, 0.11, 156.62, 255.25)"/><path class="cls-15" d="M223.79,34.78c.5-.4,1.09.05,1.27.57a7.13,7.13,0,0,0,.47,1.66,7.13,7.13,0,0,0-1.53-.81A.89.89,0,0,1,223.79,34.78Z"/><path class="cls-15" d="M223.77,34.82c.59.25.47,1,.1,1.39s-.73.48-1.24,1.21a7.14,7.14,0,0,0,0-1.73A.89.89,0,0,1,223.77,34.82Z"/><path class="cls-15" d="M223.71,34.77c-.63.15-1-.52-.9-1.06a7.14,7.14,0,0,0,.29-1.7,7.14,7.14,0,0,0,1,1.39A.89.89,0,0,1,223.71,34.77Z"/><path class="cls-15" d="M223.75,34.74c-.27-.59.33-1,.87-1.08a7.12,7.12,0,0,0,1.73,0c-.71.53-.78.89-1.17,1.27A.89.89,0,0,1,223.75,34.74Z"/><path class="cls-15" d="M223.72,34.82c-.07.64-.81.74-1.3.5a7.13,7.13,0,0,0-1.51-.84,7.14,7.14,0,0,0,1.65-.51A.89.89,0,0,1,223.72,34.82Z"/><circle class="cls-16" cx="223.75" cy="34.89" r="0.78" transform="translate(-0.74 64.67) rotate(-16.42)"/><circle class="cls-17" cx="223.46" cy="34.74" r="0.26" transform="translate(-0.7 64.66) rotate(-16.44)"/><path class="cls-15" d="M220.53,28.19c-.06-.64.65-.88,1.18-.74a7.13,7.13,0,0,0,1.65.53,7.14,7.14,0,0,0-1.52.82A.89.89,0,0,1,220.53,28.19Z"/><path class="cls-15" d="M220.55,28.23c.54-.36,1.08.15,1.21.69a7.13,7.13,0,0,0,.32,1.7,7.12,7.12,0,0,0-1.45-.95A.89.89,0,0,1,220.55,28.23Z"/><path class="cls-15" d="M220.48,28.25c-.22.6-1,.51-1.38.16s-.51-.71-1.26-1.19a7.14,7.14,0,0,0,1.73-.08C220.12,27.14,220.7,27.64,220.48,28.25Z"/><path class="cls-15" d="M220.48,28.2c-.64-.1-.69-.85-.42-1.33a7.14,7.14,0,0,0,.93-1.46,7.14,7.14,0,0,0,.41,1.68C221.5,27.63,221.12,28.3,220.48,28.2Z"/><path class="cls-15" d="M220.52,28.26c.5.41.16,1.08-.31,1.36a7.12,7.12,0,0,0-1.54.79,7.12,7.12,0,0,0,.49-1.66A.89.89,0,0,1,220.52,28.26Z"/><circle class="cls-16" cx="220.6" cy="28.28" r="0.78" transform="translate(128.18 230.57) rotate(-72.75)"/><circle class="cls-17" cx="220.32" cy="28.44" r="0.26" transform="translate(127.75 230.38) rotate(-72.73)"/><path class="cls-15" d="M224.63,30.65c.29-.58,1-.41,1.39,0A7.14,7.14,0,0,0,227.15,32a7.13,7.13,0,0,0-1.73-.1A.89.89,0,0,1,224.63,30.65Z"/><path class="cls-15" d="M224.63,30.69c.64,0,.84.7.67,1.22a7.15,7.15,0,0,0-.62,1.61,7.14,7.14,0,0,0-.73-1.57A.89.89,0,0,1,224.63,30.69Z"/><path class="cls-15" d="M224.56,30.67c-.51.4-1.09-.07-1.26-.59a7.13,7.13,0,0,0-.44-1.67,7.13,7.13,0,0,0,1.51.84A.89.89,0,0,1,224.56,30.67Z"/><path class="cls-15" d="M224.59,30.63c-.49-.42-.14-1.08.34-1.35a7.14,7.14,0,0,0,1.56-.75,7.13,7.13,0,0,0-.53,1.65A.89.89,0,0,1,224.59,30.63Z"/><path class="cls-15" d="M224.59,30.71c.21.61-.43,1-1,1a7.14,7.14,0,0,0-1.72-.13c.76-.45.86-.81,1.29-1.15A.89.89,0,0,1,224.59,30.71Z"/><circle class="cls-16" cx="224.64" cy="30.77" r="0.78" transform="translate(35.05 155.13) rotate(-41.06)"/><circle class="cls-17" cx="224.32" cy="30.75" r="0.26" transform="translate(35.03 154.99) rotate(-41.08)"/><path class="cls-15" d="M227.39,26.3c-.06-.64.65-.88,1.18-.74a7.14,7.14,0,0,0,1.65.53,7.13,7.13,0,0,0-1.52.82A.89.89,0,0,1,227.39,26.3Z"/><path class="cls-15" d="M227.41,26.34c.54-.36,1.08.15,1.21.69a7.13,7.13,0,0,0,.32,1.7,7.13,7.13,0,0,0-1.45-.95A.89.89,0,0,1,227.41,26.34Z"/><path class="cls-15" d="M227.33,26.36c-.22.6-1,.51-1.38.16s-.51-.71-1.26-1.19a7.14,7.14,0,0,0,1.73-.08C227,25.25,227.56,25.76,227.33,26.36Z"/><path class="cls-15" d="M227.34,26.31c-.64-.1-.69-.85-.42-1.33a7.13,7.13,0,0,0,.93-1.46,7.14,7.14,0,0,0,.41,1.68C228.36,25.74,228,26.41,227.34,26.31Z"/><path class="cls-15" d="M227.38,26.38c.5.41.16,1.08-.31,1.36a7.11,7.11,0,0,0-1.54.79,7.12,7.12,0,0,0,.49-1.66A.89.89,0,0,1,227.38,26.38Z"/><circle class="cls-16" cx="227.45" cy="26.39" r="0.78" transform="translate(134.79 235.79) rotate(-72.75)"/><circle class="cls-17" cx="227.18" cy="26.55" r="0.26" transform="translate(134.37 235.6) rotate(-72.73)"/><path class="cls-15" d="M224.35,16.94c.29-.58,1-.41,1.39,0a7.14,7.14,0,0,0,1.12,1.32,7.13,7.13,0,0,0-1.73-.1A.89.89,0,0,1,224.35,16.94Z"/><path class="cls-15" d="M224.35,17c.64,0,.84.7.67,1.22a7.14,7.14,0,0,0-.62,1.61,7.14,7.14,0,0,0-.73-1.57A.89.89,0,0,1,224.35,17Z"/><path class="cls-15" d="M224.28,17c-.51.4-1.09-.07-1.26-.59a7.14,7.14,0,0,0-.44-1.67,7.13,7.13,0,0,0,1.51.84A.89.89,0,0,1,224.28,17Z"/><path class="cls-15" d="M224.31,16.92c-.49-.42-.14-1.08.34-1.35a7.13,7.13,0,0,0,1.56-.75,7.13,7.13,0,0,0-.53,1.65A.89.89,0,0,1,224.31,16.92Z"/><path class="cls-15" d="M224.31,17c.21.61-.43,1-1,1a7.15,7.15,0,0,0-1.72-.13c.76-.45.86-.81,1.29-1.15A.89.89,0,0,1,224.31,17Z"/><circle class="cls-16" cx="224.36" cy="17.06" r="0.78" transform="translate(43.98 151.56) rotate(-41.06)"/><circle class="cls-17" cx="224.04" cy="17.04" r="0.26" transform="translate(43.97 151.43) rotate(-41.08)"/><path class="cls-14" d="M17.62,22.27v0q.13.86.21,1.71l0,.37h0a6.73,6.73,0,0,1-.57,3.17h0a6.1,6.1,0,0,1-2,2.39.35.35,0,1,0,.41.56,6.78,6.78,0,0,0,2.21-2.66h0l.06-.13c0,.83,0,1.64-.11,2.44h0v0q0,.44-.08.87a3.37,3.37,0,0,1-1.43,2.29,7.52,7.52,0,0,1-3.48,1.21.35.35,0,1,0,.08.69,8.21,8.21,0,0,0,3.81-1.34,4.71,4.71,0,0,0,.72-.64,25.38,25.38,0,0,1-2.13,6.86.35.35,0,1,0,.62.31,23.53,23.53,0,0,0,1.7-4.75,7.21,7.21,0,0,0,.3.91,6.94,6.94,0,0,0,2.09,2.82.35.35,0,1,0,.43-.54,6.35,6.35,0,0,1-2.3-5.66h0q.17-1,.28-2h0v0l0-.26A11.71,11.71,0,0,1,21,33.65h0a12.49,12.49,0,0,1,.83,1.54,12,12,0,0,1,1,5.95.34.34,0,0,0,.69.06,12.66,12.66,0,0,0-1.1-6.29q-.24-.52-.51-1a6.36,6.36,0,0,1,2.29,1,6.25,6.25,0,0,1,2.1,2.35.34.34,0,0,0,.61-.31,7.05,7.05,0,0,0-5.47-3.77A12.24,12.24,0,0,0,18.58,30a35.6,35.6,0,0,0,0-5.66v-.12a7.23,7.23,0,0,0,.89,1.06,6.94,6.94,0,0,0,3,1.76.35.35,0,1,0,.18-.67,6.35,6.35,0,0,1-4.36-4.27q-.13-.86-.31-1.72v0a30,30,0,0,0-1.6-5.26,12.69,12.69,0,0,0,2.17,1.45,7,7,0,0,0,4.26,5.1.34.34,0,1,0,.26-.64,6.25,6.25,0,0,1-2.54-1.88A6.36,6.36,0,0,1,19.36,17q.51.23,1.06.42a12.66,12.66,0,0,0,6.37.52.35.35,0,1,0-.12-.68,12,12,0,0,1-6-.49A12.45,12.45,0,0,1,19,16.07h0a11.53,11.53,0,0,1-3.38-2.6q-.38-.77-.81-1.52l0,0a26.07,26.07,0,0,0-1.85-2.8.35.35,0,1,0-.55.42,25.43,25.43,0,0,1,1.77,2.67,6.7,6.7,0,0,1-.57,3.09h0a6.1,6.1,0,0,1-2,2.39.35.35,0,1,0,.41.56,6.79,6.79,0,0,0,2.21-2.66h0a7,7,0,0,0,.59-2.18,28.51,28.51,0,0,1,2.45,7,12.25,12.25,0,0,0-2.79,3.13,7,7,0,0,0-5.4,3.87.35.35,0,0,0,.62.3,6.25,6.25,0,0,1,2.06-2.39,6.37,6.37,0,0,1,2.27-1q-.27.5-.49,1a12.66,12.66,0,0,0-1,6.31.35.35,0,1,0,.69-.07,12,12,0,0,1,.93-6A12.52,12.52,0,0,1,15,24l0,0a11.7,11.7,0,0,1,2.43-2.85Q17.53,21.69,17.62,22.27Z"/><path class="cls-15" d="M25.86,17.46c-.53-.37-1.08.13-1.22.66a7.14,7.14,0,0,1-.35,1.69,7.12,7.12,0,0,1,1.47-.92A.89.89,0,0,0,25.86,17.46Z"/><path class="cls-15" d="M25.88,17.5c-.58.29-.4,1,0,1.39A7.13,7.13,0,0,1,27.21,20a7.15,7.15,0,0,1-.11-1.73A.89.89,0,0,0,25.88,17.5Z"/><path class="cls-15" d="M25.94,17.45c.64.1.92-.59.82-1.12a7.13,7.13,0,0,1-.42-1.68,7.14,7.14,0,0,1-.92,1.46A.89.89,0,0,0,25.94,17.45Z"/><path class="cls-15" d="M25.89,17.42c.22-.61-.4-1-.95-1a7.11,7.11,0,0,1-1.73.09c.75.47.84.83,1.26,1.19A.89.89,0,0,0,25.89,17.42Z"/><path class="cls-15" d="M25.93,17.49c.11.63.86.67,1.33.4a7.13,7.13,0,0,1,1.45-.95A7.12,7.12,0,0,1,27,16.56C26.48,16.46,25.82,16.86,25.93,17.49Z"/><circle class="cls-16" cx="25.91" cy="17.57" r="0.78" transform="translate(3.23 39.15) rotate(-77.73)"/><circle class="cls-17" cx="26.18" cy="17.4" r="0.26" transform="translate(3.61 39.29) rotate(-77.73)"/><path class="cls-15" d="M23.74,22.11c-.62-.18-1,.47-.95,1A7.14,7.14,0,0,1,23,24.84,7.12,7.12,0,0,1,24.1,23.5.89.89,0,0,0,23.74,22.11Z"/><path class="cls-15" d="M23.78,22.13c-.45.46-.05,1.09.45,1.32a7.14,7.14,0,0,1,1.61.63,7.15,7.15,0,0,1-.66-1.6A.89.89,0,0,0,23.78,22.13Z"/><path class="cls-15" d="M23.81,22.06c.64-.11.68-.85.41-1.33a7.12,7.12,0,0,1-.93-1.46,7.14,7.14,0,0,1-.4,1.68C22.79,21.5,23.18,22.17,23.81,22.06Z"/><path class="cls-15" d="M23.76,22.06c0-.65-.71-.83-1.22-.66a7.11,7.11,0,0,1-1.61.64,7.1,7.1,0,0,1,1.57.72A.89.89,0,0,0,23.76,22.06Z"/><path class="cls-15" d="M23.82,22.11c.31.56,1,.36,1.39,0a7.12,7.12,0,0,1,1.07-1.36,7.12,7.12,0,0,1-1.72.17A.89.89,0,0,0,23.82,22.11Z"/><circle class="cls-16" cx="23.82" cy="22.19" r="0.78" transform="translate(-2.35 2.83) rotate(-6.47)"/><circle class="cls-17" cx="24.03" cy="21.95" r="0.26" transform="translate(-2.32 2.85) rotate(-6.48)"/><path class="cls-15" d="M23.15,27.12c-.29-.58-1-.41-1.39,0a7.14,7.14,0,0,1-1.12,1.32,7.14,7.14,0,0,1,1.73-.1A.89.89,0,0,0,23.15,27.12Z"/><path class="cls-15" d="M23.15,27.16c-.64,0-.84.7-.67,1.22A7.14,7.14,0,0,1,23.1,30a7.15,7.15,0,0,1,.73-1.57A.89.89,0,0,0,23.15,27.16Z"/><path class="cls-15" d="M23.23,27.14c.51.4,1.09-.07,1.26-.59a7.14,7.14,0,0,1,.44-1.67,7.13,7.13,0,0,1-1.51.84A.89.89,0,0,0,23.23,27.14Z"/><path class="cls-15" d="M23.19,27.1c.49-.42.14-1.08-.34-1.35A7.1,7.1,0,0,1,21.3,25a7.12,7.12,0,0,1,.53,1.65A.89.89,0,0,0,23.19,27.1Z"/><path class="cls-15" d="M23.2,27.18c-.21.61.43,1,1,1A7.12,7.12,0,0,1,25.89,28c-.76-.45-.86-.81-1.29-1.15A.89.89,0,0,0,23.2,27.18Z"/><circle class="cls-16" cx="23.14" cy="27.24" r="0.78" transform="translate(-12.6 26.8) rotate(-48.95)"/><circle class="cls-17" cx="23.46" cy="27.22" r="0.26" transform="translate(-12.48 27.03) rotate(-48.93)"/><path class="cls-15" d="M27.24,37.22c-.62-.18-1,.47-.95,1A7.15,7.15,0,0,1,26.51,40a7.11,7.11,0,0,1,1.09-1.34A.89.89,0,0,0,27.24,37.22Z"/><path class="cls-15" d="M27.27,37.24c-.45.46-.05,1.09.45,1.32a7.14,7.14,0,0,1,1.61.63,7.15,7.15,0,0,1-.66-1.6A.89.89,0,0,0,27.27,37.24Z"/><path class="cls-15" d="M27.31,37.17c.64-.11.68-.85.41-1.33a7.13,7.13,0,0,1-.93-1.46,7.13,7.13,0,0,1-.4,1.68C26.29,36.61,26.67,37.28,27.31,37.17Z"/><path class="cls-15" d="M27.26,37.17c0-.65-.71-.83-1.22-.66a7.12,7.12,0,0,1-1.61.64,7.1,7.1,0,0,1,1.57.72A.89.89,0,0,0,27.26,37.17Z"/><path class="cls-15" d="M27.32,37.22c.31.56,1,.36,1.39,0a7.13,7.13,0,0,1,1.07-1.36,7.12,7.12,0,0,1-1.72.17A.89.89,0,0,0,27.32,37.22Z"/><circle class="cls-16" cx="27.32" cy="37.3" r="0.78" transform="translate(-4.03 3.31) rotate(-6.47)"/><circle class="cls-17" cx="27.52" cy="37.05" r="0.26" transform="translate(-4 3.34) rotate(-6.47)"/><path class="cls-15" d="M23.15,41.6c-.29-.58-1-.41-1.39,0a7.13,7.13,0,0,1-1.12,1.32,7.14,7.14,0,0,1,1.73-.1A.89.89,0,0,0,23.15,41.6Z"/><path class="cls-15" d="M23.15,41.64c-.64,0-.84.7-.67,1.22a7.13,7.13,0,0,1,.63,1.61,7.15,7.15,0,0,1,.73-1.57A.89.89,0,0,0,23.15,41.64Z"/><path class="cls-15" d="M23.23,41.62c.51.4,1.09-.07,1.26-.59a7.14,7.14,0,0,1,.44-1.67,7.13,7.13,0,0,1-1.51.84A.89.89,0,0,0,23.23,41.62Z"/><path class="cls-15" d="M23.19,41.58c.49-.42.14-1.08-.34-1.35a7.11,7.11,0,0,1-1.56-.75,7.12,7.12,0,0,1,.53,1.65A.89.89,0,0,0,23.19,41.58Z"/><path class="cls-15" d="M23.2,41.66c-.21.61.43,1,1,1a7.12,7.12,0,0,1,1.73-.13c-.76-.45-.86-.81-1.29-1.15A.89.89,0,0,0,23.2,41.66Z"/><circle class="cls-16" cx="23.14" cy="41.71" r="0.78" transform="translate(-23.52 31.77) rotate(-48.95)"/><circle class="cls-17" cx="23.46" cy="41.7" r="0.26" transform="translate(-23.39 32) rotate(-48.94)"/><path class="cls-15" d="M19.52,38.95c-.5-.4-1.09.05-1.27.57a7.14,7.14,0,0,1-.47,1.66,7.13,7.13,0,0,1,1.53-.81A.89.89,0,0,0,19.52,38.95Z"/><path class="cls-15" d="M19.54,39c-.6.25-.47,1-.1,1.39s.73.48,1.24,1.21a7.16,7.16,0,0,1,0-1.73A.89.89,0,0,0,19.54,39Z"/><path class="cls-15" d="M19.6,38.93c.63.15,1-.52.9-1.06a7.12,7.12,0,0,1-.29-1.7,7.13,7.13,0,0,1-1,1.39A.89.89,0,0,0,19.6,38.93Z"/><path class="cls-15" d="M19.55,38.91c.27-.59-.33-1-.87-1.08a7.13,7.13,0,0,1-1.73,0c.71.53.78.89,1.17,1.27A.89.89,0,0,0,19.55,38.91Z"/><path class="cls-15" d="M19.59,39c.07.64.81.74,1.3.5a7.13,7.13,0,0,1,1.51-.84,7.12,7.12,0,0,1-1.65-.51A.89.89,0,0,0,19.59,39Z"/><circle class="cls-16" cx="19.56" cy="39.05" r="0.78" transform="translate(-23.43 46.77) rotate(-73.57)"/><circle class="cls-17" cx="19.84" cy="38.91" r="0.26" transform="translate(-23.09 46.95) rotate(-73.59)"/><path class="cls-15" d="M15.42,40.92c-.62-.18-1,.47-.95,1a7.14,7.14,0,0,1,.21,1.72,7.12,7.12,0,0,1,1.09-1.34A.89.89,0,0,0,15.42,40.92Z"/><path class="cls-15" d="M15.45,41c-.45.46-.05,1.09.45,1.32a7.13,7.13,0,0,1,1.61.63,7.16,7.16,0,0,1-.66-1.6A.89.89,0,0,0,15.45,41Z"/><path class="cls-15" d="M15.49,40.88c.64-.11.68-.85.41-1.33A7.12,7.12,0,0,1,15,38.1a7.13,7.13,0,0,1-.4,1.68C14.46,40.32,14.85,41,15.49,40.88Z"/><path class="cls-15" d="M15.44,40.88c0-.65-.71-.83-1.22-.66a7.12,7.12,0,0,1-1.61.64,7.09,7.09,0,0,1,1.57.72A.89.89,0,0,0,15.44,40.88Z"/><path class="cls-15" d="M15.5,40.93c.31.56,1,.36,1.39,0A7.12,7.12,0,0,1,18,39.52a7.12,7.12,0,0,1-1.72.17A.89.89,0,0,0,15.5,40.93Z"/><circle class="cls-16" cx="15.5" cy="41.01" r="0.78" transform="translate(-4.52 2.01) rotate(-6.47)"/><circle class="cls-17" cx="15.7" cy="40.76" r="0.26" transform="translate(-4.5 2.03) rotate(-6.47)"/><path class="cls-15" d="M13.22,35.66c-.5-.41-1.09.05-1.27.57a7.15,7.15,0,0,1-.47,1.67A7.12,7.12,0,0,1,13,37.08.89.89,0,0,0,13.22,35.66Z"/><path class="cls-15" d="M13.24,35.7c-.6.25-.47,1-.1,1.39s.73.48,1.24,1.21a7.15,7.15,0,0,1,0-1.73A.89.89,0,0,0,13.24,35.7Z"/><path class="cls-15" d="M13.3,35.65c.63.15,1-.52.9-1.06a7.11,7.11,0,0,1-.29-1.71,7.14,7.14,0,0,1-1,1.39A.89.89,0,0,0,13.3,35.65Z"/><path class="cls-15" d="M13.26,35.62c.27-.59-.33-1-.87-1.08a7.13,7.13,0,0,1-1.73,0c.71.53.78.89,1.17,1.27A.89.89,0,0,0,13.26,35.62Z"/><path class="cls-15" d="M13.29,35.69c.07.64.81.73,1.3.5a7.12,7.12,0,0,1,1.51-.84,7.12,7.12,0,0,1-1.65-.51A.89.89,0,0,0,13.29,35.69Z"/><circle class="cls-16" cx="13.26" cy="35.77" r="0.78" transform="translate(-24.79 38.37) rotate(-73.57)"/><circle class="cls-17" cx="13.55" cy="35.62" r="0.26" transform="translate(-24.45 38.55) rotate(-73.59)"/><path class="cls-15" d="M16.48,29.06c.06-.64-.65-.88-1.18-.74a7.13,7.13,0,0,1-1.65.53,7.16,7.16,0,0,1,1.52.82A.89.89,0,0,0,16.48,29.06Z"/><path class="cls-15" d="M16.46,29.1c-.54-.36-1.08.15-1.21.69a7.11,7.11,0,0,1-.32,1.7,7.17,7.17,0,0,1,1.45-.95A.89.89,0,0,0,16.46,29.1Z"/><path class="cls-15" d="M16.53,29.12c.22.6,1,.51,1.38.16s.51-.71,1.26-1.19A7.13,7.13,0,0,1,17.44,28C16.89,28,16.31,28.52,16.53,29.12Z"/><path class="cls-15" d="M16.53,29.07c.64-.11.69-.85.42-1.33A7.1,7.1,0,0,1,16,26.29,7.13,7.13,0,0,1,15.6,28C15.5,28.51,15.89,29.18,16.53,29.07Z"/><path class="cls-15" d="M16.49,29.14c-.5.41-.16,1.08.31,1.36a7.12,7.12,0,0,1,1.54.79,7.1,7.1,0,0,1-.49-1.66A.89.89,0,0,0,16.49,29.14Z"/><circle class="cls-16" cx="16.41" cy="29.16" r="0.78" transform="translate(-7.91 6.18) rotate(-17.24)"/><circle class="cls-17" cx="16.69" cy="29.31" r="0.26" transform="translate(-7.94 6.26) rotate(-17.24)"/><path class="cls-15" d="M12.38,31.53c-.29-.58-1-.41-1.39,0a7.13,7.13,0,0,1-1.12,1.32,7.14,7.14,0,0,1,1.73-.1A.89.89,0,0,0,12.38,31.53Z"/><path class="cls-15" d="M12.38,31.57c-.64,0-.84.7-.67,1.22a7.13,7.13,0,0,1,.63,1.61,7.15,7.15,0,0,1,.73-1.57A.89.89,0,0,0,12.38,31.57Z"/><path class="cls-15" d="M12.45,31.55c.51.4,1.09-.07,1.26-.59a7.14,7.14,0,0,1,.44-1.67,7.13,7.13,0,0,1-1.51.84A.89.89,0,0,0,12.45,31.55Z"/><path class="cls-15" d="M12.42,31.51c.49-.42.14-1.08-.34-1.35a7.1,7.1,0,0,1-1.56-.75,7.12,7.12,0,0,1,.53,1.65A.89.89,0,0,0,12.42,31.51Z"/><path class="cls-15" d="M12.42,31.59c-.21.61.43,1,1,1a7.12,7.12,0,0,1,1.73-.13c-.76-.45-.86-.81-1.29-1.15A.89.89,0,0,0,12.42,31.59Z"/><circle class="cls-16" cx="12.37" cy="31.64" r="0.78" transform="translate(-19.62 20.19) rotate(-48.95)"/><circle class="cls-17" cx="12.69" cy="31.63" r="0.26" transform="translate(-19.5 20.42) rotate(-48.95)"/><path class="cls-15" d="M9.62,27.18c.06-.64-.65-.88-1.18-.74A7.12,7.12,0,0,1,6.8,27a7.16,7.16,0,0,1,1.52.82A.89.89,0,0,0,9.62,27.18Z"/><path class="cls-15" d="M9.6,27.21c-.54-.36-1.08.15-1.21.69a7.11,7.11,0,0,1-.32,1.7,7.17,7.17,0,0,1,1.45-.95A.89.89,0,0,0,9.6,27.21Z"/><path class="cls-15" d="M9.67,27.24c.22.6,1,.51,1.38.16s.51-.71,1.26-1.19a7.13,7.13,0,0,1-1.73-.08C10,26.13,9.45,26.63,9.67,27.24Z"/><path class="cls-15" d="M9.67,27.18c.64-.11.69-.85.42-1.33a7.1,7.1,0,0,1-.93-1.46,7.13,7.13,0,0,1-.41,1.68C8.65,26.62,9,27.29,9.67,27.18Z"/><path class="cls-15" d="M9.63,27.25c-.5.41-.16,1.08.31,1.36a7.12,7.12,0,0,1,1.54.79A7.11,7.11,0,0,1,11,27.74.89.89,0,0,0,9.63,27.25Z"/><circle class="cls-16" cx="9.55" cy="27.27" r="0.78" transform="translate(-7.65 4.06) rotate(-17.24)"/><circle class="cls-17" cx="9.83" cy="27.43" r="0.26" transform="translate(-7.69 4.15) rotate(-17.25)"/><path class="cls-15" d="M12.66,17.82c-.29-.58-1-.41-1.39,0a7.13,7.13,0,0,1-1.12,1.32,7.13,7.13,0,0,1,1.73-.1A.89.89,0,0,0,12.66,17.82Z"/><path class="cls-15" d="M12.66,17.86c-.64,0-.84.7-.67,1.22a7.14,7.14,0,0,1,.63,1.61,7.15,7.15,0,0,1,.73-1.57A.89.89,0,0,0,12.66,17.86Z"/><path class="cls-15" d="M12.73,17.84c.51.4,1.09-.07,1.26-.59a7.15,7.15,0,0,1,.44-1.67,7.14,7.14,0,0,1-1.51.84A.89.89,0,0,0,12.73,17.84Z"/><path class="cls-15" d="M12.7,17.8c.49-.42.14-1.08-.34-1.35a7.1,7.1,0,0,1-1.56-.75,7.13,7.13,0,0,1,.53,1.65A.89.89,0,0,0,12.7,17.8Z"/><path class="cls-15" d="M12.7,17.88c-.21.61.43,1,1,1a7.12,7.12,0,0,1,1.73-.13c-.76-.45-.86-.81-1.29-1.15A.89.89,0,0,0,12.7,17.88Z"/><circle class="cls-16" cx="12.65" cy="17.93" r="0.78" transform="translate(-9.18 15.69) rotate(-48.95)"/><circle class="cls-17" cx="12.97" cy="17.92" r="0.26" transform="translate(-9.06 15.93) rotate(-48.94)"/><path class="cls-6" d="M144.75,31.61a.48.48,0,0,1-.84.46c-1-1.87-.84-4.37-.6-7.49.36-4.65.83-10.75-2.64-17.95a.48.48,0,1,1,.86-.41c3.58,7.42,3.09,13.66,2.72,18.43C144,27.61,143.85,30,144.75,31.61Z"/><path class="cls-6" d="M144,26.28a.39.39,0,1,0-.54-.57,41,41,0,0,0-3.19,3.61c-1.63,2-3.15,3.8-3.94,3.94a.39.39,0,0,0,.13.78c1.07-.19,2.68-2.13,4.41-4.21A40.57,40.57,0,0,1,144,26.28Z"/><path class="cls-6" d="M144.2,27.59a.39.39,0,0,0-.35.71,19.19,19.19,0,0,0,2.34.87c1.94.64,4.16,1.37,4.87,2.79a.39.39,0,1,0,.7-.35c-.86-1.71-3.24-2.5-5.33-3.19A18.36,18.36,0,0,1,144.2,27.59Z"/><path class="cls-6" d="M148.4,29.51a.39.39,0,0,0-.75-.24,22.84,22.84,0,0,0-.72,2.69,5.56,5.56,0,0,0-.09,1.64.39.39,0,0,0,.78-.08,4.8,4.8,0,0,1,.08-1.42A22.39,22.39,0,0,1,148.4,29.51Z"/><path class="cls-6" d="M145.43,28.18a.39.39,0,1,0,.72.32,2.67,2.67,0,0,1,1.64-1.44,3.42,3.42,0,0,1,2.42.13.39.39,0,1,0,.31-.72,4.2,4.2,0,0,0-3-.16A3.45,3.45,0,0,0,145.43,28.18Z"/><path class="cls-6" d="M139.75,30.5a.39.39,0,1,0-.47.63,5.18,5.18,0,0,1,1.4,1.35,4.71,4.71,0,0,1,.52,1.71.39.39,0,1,0,.78-.13,5.34,5.34,0,0,0-.62-2A5.82,5.82,0,0,0,139.75,30.5Z"/><path class="cls-6" d="M141.35,29a.39.39,0,0,0-.05-.78c-1.3.09-2.79.22-3.94.38a5.5,5.5,0,0,0-2,.52.39.39,0,0,0,.47.63,5.44,5.44,0,0,1,1.62-.38C138.6,29.24,140.07,29.11,141.35,29Z"/><circle class="cls-4" cx="135.99" cy="35.05" r="2.42" transform="translate(-2.87 55.99) rotate(-23.03)"/><circle class="cls-18" cx="136.9" cy="35.44" r="0.82" transform="translate(-2.96 56.38) rotate(-23.03)"/><circle class="cls-4" cx="135.07" cy="29.95" r="2.42" transform="translate(-0.96 55.21) rotate(-23.02)"/><circle class="cls-18" cx="135.99" cy="30.35" r="0.82" transform="translate(-1.04 55.59) rotate(-23.02)"/><circle class="cls-4" cx="141.25" cy="35.78" r="2.42" transform="translate(-2.74 58.11) rotate(-23.03)"/><circle class="cls-18" cx="142.17" cy="36.17" r="0.82" transform="translate(-2.83 58.45) rotate(-23.01)"/><circle class="cls-4" cx="144.33" cy="31.84" r="2.42" transform="translate(-0.96 58.98) rotate(-23.02)"/><circle class="cls-18" cx="145.25" cy="32.24" r="0.82" transform="translate(-1.04 59.37) rotate(-23.02)"/><circle class="cls-4" cx="148.55" cy="34.69" r="2.42" transform="translate(-1.73 60.87) rotate(-23.03)"/><circle class="cls-19" cx="149.46" cy="35.08" r="0.82" transform="translate(-1.82 61.24) rotate(-23.02)"/><circle class="cls-4" cx="152.89" cy="32.33" r="2.42" transform="translate(-0.47 62.38) rotate(-23.03)"/><circle class="cls-18" cx="153.81" cy="32.73" r="0.82" transform="translate(-0.55 62.75) rotate(-23.02)"/><circle class="cls-4" cx="151.37" cy="27.2" r="2.42" transform="translate(1.42 61.37) rotate(-23.03)"/><circle class="cls-18" cx="152.28" cy="27.6" r="0.82" transform="translate(1.34 61.78) rotate(-23.03)"/><path class="cls-6" d="M295,31.53a.48.48,0,0,0,.84.46c1-1.87.84-4.37.6-7.49-.36-4.65-.83-10.75,2.64-17.95a.48.48,0,1,0-.86-.41c-3.58,7.42-3.09,13.66-2.72,18.43C295.76,27.54,295.94,29.91,295,31.53Z"/><path class="cls-6" d="M295.82,26.2a.39.39,0,0,1,.54-.57,41,41,0,0,1,3.19,3.61c1.63,2,3.15,3.8,3.94,3.94a.39.39,0,1,1-.13.78c-1.07-.19-2.68-2.13-4.41-4.21A40.5,40.5,0,0,0,295.82,26.2Z"/><path class="cls-6" d="M295.59,27.52a.39.39,0,1,1,.35.71,19.16,19.16,0,0,1-2.34.87c-1.94.64-4.16,1.37-4.87,2.79a.39.39,0,1,1-.7-.35c.86-1.71,3.24-2.5,5.33-3.19A18.4,18.4,0,0,0,295.59,27.52Z"/><path class="cls-6" d="M291.39,29.43a.39.39,0,0,1,.75-.24,22.86,22.86,0,0,1,.72,2.69,5.56,5.56,0,0,1,.09,1.64.39.39,0,0,1-.78-.08,4.8,4.8,0,0,0-.08-1.42A22.31,22.31,0,0,0,291.39,29.43Z"/><path class="cls-6" d="M294.36,28.1a.39.39,0,0,1-.72.32A2.67,2.67,0,0,0,292,27a3.41,3.41,0,0,0-2.42.13.39.39,0,1,1-.31-.72,4.2,4.2,0,0,1,3-.15A3.45,3.45,0,0,1,294.36,28.1Z"/><path class="cls-6" d="M300,30.42a.39.39,0,0,1,.47.63,5.18,5.18,0,0,0-1.4,1.35,4.71,4.71,0,0,0-.52,1.71.39.39,0,0,1-.78-.13,5.34,5.34,0,0,1,.62-2A5.82,5.82,0,0,1,300,30.42Z"/><path class="cls-6" d="M298.44,28.95a.39.39,0,0,1,.05-.78c1.3.09,2.79.22,3.94.38a5.49,5.49,0,0,1,2,.52.39.39,0,0,1-.47.63,5.45,5.45,0,0,0-1.62-.38C301.19,29.16,299.73,29,298.44,28.95Z"/><circle class="cls-4" cx="303.81" cy="34.97" r="2.42" transform="translate(152.8 300.9) rotate(-66.98)"/><circle class="cls-18" cx="302.89" cy="35.37" r="0.82" transform="translate(151.85 300.28) rotate(-66.97)"/><circle class="cls-4" cx="304.72" cy="29.87" r="2.42" transform="translate(158.04 298.63) rotate(-66.97)"/><circle class="cls-18" cx="303.81" cy="30.27" r="0.82" transform="translate(157.12 298.03) rotate(-66.97)"/><circle class="cls-4" cx="298.54" cy="35.7" r="2.42" transform="translate(148.92 296.5) rotate(-66.97)"/><circle class="cls-18" cx="297.63" cy="36.1" r="0.82" transform="translate(147.99 295.9) rotate(-66.97)"/><circle class="cls-4" cx="295.46" cy="31.76" r="2.42" transform="translate(150.67 291.26) rotate(-66.97)"/><circle class="cls-18" cx="294.55" cy="32.16" r="0.82" transform="translate(149.73 290.65) rotate(-66.97)"/><circle class="cls-4" cx="291.25" cy="34.61" r="2.42" transform="translate(145.47 289.12) rotate(-66.97)"/><circle class="cls-19" cx="290.33" cy="35.01" r="0.82" transform="translate(144.53 288.5) rotate(-66.97)"/><circle class="cls-4" cx="286.9" cy="32.26" r="2.42" transform="translate(145 283.69) rotate(-66.98)"/><circle class="cls-18" cx="285.99" cy="32.66" r="0.82" transform="translate(144.07 283.08) rotate(-66.97)"/><circle class="cls-4" cx="288.43" cy="27.12" r="2.42" transform="translate(150.65 281.96) rotate(-66.97)"/><circle class="cls-18" cx="287.51" cy="27.52" r="0.82" transform="translate(149.7 281.35) rotate(-66.97)"/><path class="cls-6" d="M410.29,35.31a.48.48,0,0,1-.84.46c-1-1.87-.84-4.37-.6-7.49.36-4.66.83-10.75-2.64-17.95a.48.48,0,1,1,.86-.41c3.58,7.42,3.09,13.66,2.72,18.43C409.57,31.31,409.39,33.69,410.29,35.31Z"/><path class="cls-6" d="M409.51,30a.39.39,0,0,0-.54-.57A41,41,0,0,0,405.78,33c-1.63,2-3.15,3.8-3.94,3.94a.39.39,0,1,0,.13.78c1.07-.19,2.68-2.13,4.41-4.21A40.47,40.47,0,0,1,409.51,30Z"/><path class="cls-6" d="M409.74,31.3a.39.39,0,0,0-.35.71,19.17,19.17,0,0,0,2.34.87c1.94.64,4.16,1.37,4.87,2.79a.39.39,0,0,0,.7-.35c-.86-1.71-3.24-2.5-5.33-3.19A18.4,18.4,0,0,1,409.74,31.3Z"/><path class="cls-6" d="M413.94,33.21a.39.39,0,0,0-.75-.24,22.85,22.85,0,0,0-.72,2.69,5.56,5.56,0,0,0-.09,1.64.39.39,0,0,0,.78-.08,4.8,4.8,0,0,1,.08-1.42A22.33,22.33,0,0,1,413.94,33.21Z"/><path class="cls-6" d="M411,31.88a.39.39,0,0,0,.72.32,2.67,2.67,0,0,1,1.64-1.44,3.41,3.41,0,0,1,2.42.13.39.39,0,1,0,.31-.72,4.2,4.2,0,0,0-3-.16A3.45,3.45,0,0,0,411,31.88Z"/><path class="cls-6" d="M405.28,34.2a.39.39,0,0,0-.47.63,5.18,5.18,0,0,1,1.4,1.35,4.71,4.71,0,0,1,.52,1.71.39.39,0,0,0,.78-.13,5.34,5.34,0,0,0-.62-2A5.82,5.82,0,0,0,405.28,34.2Z"/><path class="cls-6" d="M406.89,32.73a.39.39,0,0,0-.05-.78c-1.3.09-2.79.22-3.94.38a5.49,5.49,0,0,0-2,.52.39.39,0,0,0,.47.63A5.45,5.45,0,0,1,403,33.1C404.14,32.94,405.6,32.81,406.89,32.73Z"/><circle class="cls-4" cx="401.53" cy="38.75" r="2.42" transform="translate(16.83 160.14) rotate(-23.03)"/><circle class="cls-18" cx="402.44" cy="39.15" r="0.82" transform="translate(16.76 160.56) rotate(-23.03)"/><circle class="cls-4" cx="400.61" cy="33.65" r="2.42" transform="translate(18.75 159.38) rotate(-23.03)"/><circle class="cls-18" cx="401.52" cy="34.05" r="0.82" transform="translate(18.67 159.78) rotate(-23.03)"/><circle class="cls-4" cx="406.79" cy="39.48" r="2.42" transform="translate(16.97 162.25) rotate(-23.02)"/><circle class="cls-18" cx="407.7" cy="39.88" r="0.82" transform="translate(16.88 162.65) rotate(-23.03)"/><circle class="cls-4" cx="409.87" cy="35.54" r="2.42" transform="translate(18.75 163.14) rotate(-23.03)"/><circle class="cls-18" cx="410.78" cy="35.94" r="0.82" transform="translate(18.68 163.56) rotate(-23.03)"/><circle class="cls-4" cx="414.08" cy="38.39" r="2.42" transform="translate(17.97 165.02) rotate(-23.03)"/><circle class="cls-19" cx="415" cy="38.79" r="0.82" transform="matrix(0.92, -0.39, 0.39, 0.92, 17.9, 165.44)"/><circle class="cls-4" cx="418.43" cy="36.04" r="2.42" transform="translate(19.24 166.54) rotate(-23.03)"/><circle class="cls-18" cx="419.35" cy="36.44" r="0.82" transform="translate(19.16 166.94) rotate(-23.03)"/><circle class="cls-4" cx="416.91" cy="30.9" r="2.42" transform="translate(21.13 165.53) rotate(-23.03)"/><circle class="cls-18" cx="417.82" cy="31.3" r="0.82" transform="translate(21.05 165.95) rotate(-23.03)"/><path class="cls-20" d="M167.39,32.53c-.05.45-.3.74-.56.65s-.43-.53-.38-1c.19-1.61,0-23.36,0-23.42,0-.46.21-.83.47-.84s.48.36.48.82C167.4,8.82,167.59,30.77,167.39,32.53Z"/><path class="cls-11" d="M174.45,40.42c1.34,0,2.68,0,4-.06a4.36,4.36,0,0,1,4.26,2.28,4.61,4.61,0,0,1-.09,4.19,5.48,5.48,0,0,1-4,2.78,15.14,15.14,0,0,1-5.25.18l0,.13q.19.74.39,1.47c.5,1.85,1.06,3.7,1.69,5.52a26.48,26.48,0,0,0,1.68,4,4.38,4.38,0,0,1,0,4.84,4.87,4.87,0,0,1-4.69,1.71,6.7,6.7,0,0,1-4.85-3.74,13.65,13.65,0,0,1-.79-1.92q-.41,1-.91,1.9A6.7,6.7,0,0,1,161,67.35a4.87,4.87,0,0,1-4.65-1.8,4.38,4.38,0,0,1,.09-4.84,27.07,27.07,0,0,0,1.89-4.39c.7-2,1.31-4,1.87-6,0-.13.13-.44.18-.7a13.54,13.54,0,0,1-5.18-.24,5.48,5.48,0,0,1-4-2.87,4.62,4.62,0,0,1,0-4.21,4.34,4.34,0,0,1,4.29-2.16c.72,0,1.44.1,2.16.11s1.21,0,1.82,0a9,9,0,0,1-1.25-5,8.79,8.79,0,1,1,17.58.17A10.65,10.65,0,0,1,174.45,40.42Z"/><path class="cls-21" d="M162.69,36.61a.51.51,0,0,1,.82-.61,4,4,0,0,0,.62.66,4.53,4.53,0,0,0,2.8,1,4.75,4.75,0,0,0,3-.92l0,0a4.65,4.65,0,0,0,.75-.71.51.51,0,0,1,.78.66,5.67,5.67,0,0,1-.92.87l0,0a5.77,5.77,0,0,1-3.6,1.12,5.56,5.56,0,0,1-3.43-1.28A5,5,0,0,1,162.69,36.61Z"/><circle class="cls-21" cx="164.99" cy="33.12" r="1.06" transform="translate(130.3 197.79) rotate(-89.45)"/><circle class="cls-21" cx="169.1" cy="33.16" r="1.06" transform="translate(134.34 201.93) rotate(-89.46)"/><circle class="cls-18" cx="166.8" cy="50.34" r="1.29" transform="translate(114.88 216.66) rotate(-89.46)"/><circle class="cls-18" cx="166.76" cy="54.97" r="1.29" transform="translate(110.21 221.2) rotate(-89.46)"/><path class="cls-22" d="M155.54,40.15c1.21,3.08,1.58,5.58-.34,9.24"/><path class="cls-22" d="M179.26,40.15c-1.21,3.08-1.59,5.58.34,9.24"/><path class="cls-22" d="M164.71,65c-3.29-.32-5.69-1.13-8.07-4.51"/><path class="cls-22" d="M168.57,65c3.29-.32,5.69-1.13,8.07-4.51"/><path class="cls-9" d="M165.57,40.14c-2.17-1.27-5-2.62-4.94.3s1.2,4.79,4.42,2.62S166.7,40.74,165.57,40.14Z"/><path class="cls-9" d="M168.35,40.14c2.17-1.27,5-2.62,4.94.3s-1.2,4.79-4.42,2.62S167.23,40.74,168.35,40.14Z"/><circle class="cls-18" cx="166.8" cy="41.29" r="1.29" transform="translate(123.93 207.69) rotate(-89.46)"/><circle class="cls-18" cx="166.8" cy="45.49" r="1.29" transform="translate(119.74 211.85) rotate(-89.46)"/><path class="cls-20" d="M320.19,31.87c-.05.45-.3.74-.56.65s-.43-.53-.38-1c.19-1.61,0-23.36,0-23.42,0-.46.21-.83.47-.84s.48.36.48.82C320.2,8.16,320.39,30.11,320.19,31.87Z"/><path class="cls-11" d="M327.25,39.76c1.34,0,2.68,0,4-.06A4.36,4.36,0,0,1,335.53,42a4.61,4.61,0,0,1-.09,4.19,5.48,5.48,0,0,1-4,2.78,15.14,15.14,0,0,1-5.25.18l0,.13q.19.74.39,1.47c.5,1.85,1.06,3.7,1.69,5.52a26.49,26.49,0,0,0,1.68,4,4.38,4.38,0,0,1,0,4.84,4.87,4.87,0,0,1-4.69,1.71,6.69,6.69,0,0,1-4.85-3.74,13.64,13.64,0,0,1-.79-1.92q-.41,1-.91,1.9a6.7,6.7,0,0,1-4.93,3.65,4.87,4.87,0,0,1-4.65-1.8,4.38,4.38,0,0,1,.09-4.84,27.08,27.08,0,0,0,1.89-4.39c.7-2,1.31-4,1.87-6,0-.13.13-.44.18-.7a13.54,13.54,0,0,1-5.18-.24,5.48,5.48,0,0,1-4-2.87,4.62,4.62,0,0,1,0-4.21,4.34,4.34,0,0,1,4.29-2.16c.72,0,1.44.1,2.16.11s1.21,0,1.82,0a9,9,0,0,1-1.25-5,8.79,8.79,0,1,1,17.58.17A10.65,10.65,0,0,1,327.25,39.76Z"/><path class="cls-21" d="M315.49,35.94a.51.51,0,1,1,.82-.61,4,4,0,0,0,.62.66,4.53,4.53,0,0,0,2.8,1,4.75,4.75,0,0,0,3-.92l0,0a4.65,4.65,0,0,0,.75-.71.51.51,0,1,1,.78.66,5.67,5.67,0,0,1-.92.87l0,0a5.77,5.77,0,0,1-3.6,1.12,5.56,5.56,0,0,1-3.43-1.28A5,5,0,0,1,315.49,35.94Z"/><circle class="cls-21" cx="317.79" cy="32.46" r="1.06" transform="translate(282.29 349.92) rotate(-89.45)"/><circle class="cls-21" cx="321.9" cy="32.5" r="1.06" transform="translate(286.36 354.07) rotate(-89.46)"/><circle class="cls-18" cx="319.6" cy="49.68" r="1.29" transform="translate(266.89 368.8) rotate(-89.46)"/><circle class="cls-18" cx="319.56" cy="54.31" r="1.29" transform="translate(262.22 373.34) rotate(-89.46)"/><path class="cls-22" d="M308.34,39.48c1.21,3.08,1.58,5.58-.34,9.24"/><path class="cls-22" d="M332.06,39.48c-1.21,3.08-1.59,5.58.34,9.24"/><path class="cls-22" d="M317.51,64.36c-3.29-.32-5.69-1.13-8.07-4.51"/><path class="cls-22" d="M321.37,64.36c3.29-.32,5.69-1.13,8.07-4.51"/><path class="cls-9" d="M318.37,39.48c-2.17-1.27-5-2.62-4.94.3s1.2,4.79,4.42,2.62S319.5,40.08,318.37,39.48Z"/><path class="cls-9" d="M321.15,39.48c2.17-1.27,5-2.62,4.94.3s-1.2,4.79-4.42,2.62S320,40.08,321.15,39.48Z"/><circle class="cls-18" cx="319.6" cy="40.63" r="1.28" transform="translate(275.94 359.83) rotate(-89.46)"/><circle class="cls-18" cx="319.6" cy="44.82" r="1.29" transform="translate(271.75 363.99) rotate(-89.46)"/></g></g></svg>