<svg xmlns="http://www.w3.org/2000/svg" viewBox="0 0 338.93 46.17"><defs><style>.cls-1{fill:#ecc152;}</style></defs><title>pattern-header</title><g id="Layer_2" data-name="Layer 2"><g id="OBJECTS"><path class="cls-1" d="M171.49,19.38l-2,7.18-2-7.18a14.45,14.45,0,0,1,.38-8.65l1.65-3.79,1.65,3.79A14.45,14.45,0,0,1,171.49,19.38Z"/><path class="cls-1" d="M166.88,19.56l2.58,7-5.86-4.61a14.45,14.45,0,0,1-4.78-7.22l-.89-4,3.56,2.1A14.45,14.45,0,0,1,166.88,19.56Z"/><path class="cls-1" d="M163.26,22.41l6.2,4.14L162,26.26a14.45,14.45,0,0,1-8.11-3l-3.09-2.74,4.11-.4A14.45,14.45,0,0,1,163.26,22.41Z"/><path class="cls-1" d="M162,26.84l7.45-.29-6.2,4.14A14.45,14.45,0,0,1,154.92,33l-4.11-.4,3.09-2.74A14.45,14.45,0,0,1,162,26.84Z"/><path class="cls-1" d="M163.61,31.17l5.86-4.61-2.58,7a14.45,14.45,0,0,1-5.39,6.78l-3.56,2.1.89-4A14.45,14.45,0,0,1,163.61,31.17Z"/><path class="cls-1" d="M167.44,33.73l2-7.18,2,7.18a14.45,14.45,0,0,1-.38,8.65l-1.65,3.79-1.65-3.79A14.45,14.45,0,0,1,167.44,33.73Z"/><path class="cls-1" d="M172,33.55l-2.58-7,5.86,4.61a14.45,14.45,0,0,1,4.78,7.22l.89,4-3.56-2.1A14.45,14.45,0,0,1,172,33.55Z"/><path class="cls-1" d="M175.66,30.7l-6.2-4.14,7.45.29a14.45,14.45,0,0,1,8.11,3l3.09,2.74L184,33A14.45,14.45,0,0,1,175.66,30.7Z"/><path class="cls-1" d="M176.91,26.26l-7.45.29,6.2-4.14A14.45,14.45,0,0,1,184,20.09l4.11.4L185,23.23A14.45,14.45,0,0,1,176.91,26.26Z"/><path class="cls-1" d="M175.32,21.94l-5.86,4.61,2.58-7a14.45,14.45,0,0,1,5.39-6.78l3.56-2.1-.89,4A14.45,14.45,0,0,1,175.32,21.94Z"/><path class="cls-1" d="M127.37,31.26a8.09,8.09,0,0,0,1.25.86l.66.4.71.29a7.53,7.53,0,0,0,1.49.48l.46.13.05,0v0l0,.07a.48.48,0,0,0,0,.09v0l-.06-.07s0,0,0,0,.11-.05.19-.15a3,3,0,0,0,.4-1.23,9.82,9.82,0,0,0-.42-3.9,20,20,0,0,0-5-8.21,24.29,24.29,0,0,0-2-1.76A24,24,0,0,0,123,16.8a29.23,29.23,0,0,0-5.16-2.43,49.74,49.74,0,0,0-11.95-2.67,52.72,52.72,0,0,0-13.21.2A43.73,43.73,0,0,0,79.17,16c-.54.28-1.1.53-1.62.84l-1.56,1a32.67,32.67,0,0,0-3,2.17,29.87,29.87,0,0,0-5.22,5.5l-1-.72a31,31,0,0,1,7.12-6.95,36,36,0,0,1,8.07-4.31,49.63,49.63,0,0,1,15.82-3.08,65.67,65.67,0,0,1,13.65,1.1,52,52,0,0,1,11.28,3.35,28.64,28.64,0,0,1,8.64,5.82,22.35,22.35,0,0,1,5.45,8,11.49,11.49,0,0,1,.77,5.11,6.79,6.79,0,0,1-1,3.06,5.52,5.52,0,0,1-3.17,2.29,6.11,6.11,0,0,1-1.82.22,4.56,4.56,0,0,1-.72-.05l-.62-.08L128.94,39c-.4-.1-.79-.23-1.19-.35s-.8-.24-1.17-.4l-1.1-.54a12.34,12.34,0,0,1-2.06-1.29,17.69,17.69,0,0,1-5.72-7.5,17.34,17.34,0,0,1-1.13-9.44l.1-.6.18-.6.38-1.19a12.16,12.16,0,0,1,.54-1.14,6.45,6.45,0,0,1,.63-1.09A9.9,9.9,0,0,1,120,13c.31-.27.62-.55.93-.8l1-.62a13.44,13.44,0,0,1,8.38-1.48,18,18,0,0,1,6.93,2.44l.73.43c.24.15.45.33.67.49.44.33.88.63,1.28,1a20.26,20.26,0,0,1,2.12,2.13,22.9,22.9,0,0,1,4.26,7.61l-.13,0a19.11,19.11,0,0,0-4.54-6.85,16,16,0,0,0-4.86-3.18,14.79,14.79,0,0,0-6.32-1.24,10.26,10.26,0,0,0-6.1,2A6.66,6.66,0,0,0,121.89,20a13.27,13.27,0,0,0,1.48,6.29A14.68,14.68,0,0,0,127.37,31.26Z"/><path class="cls-1" d="M14.93,28a29,29,0,0,0-7.72,8.56l-.9,1.73c-.26.51-.41,1-.57,1.34L5.3,40.81l-.06,0,.36-1.22c.19-.8.59-1.92,1.09-3.34.3-.68.62-1.45,1-2.27s.82-1.68,1.41-2.52a24.5,24.5,0,0,1,4.31-5.23,35.63,35.63,0,0,1,16-8.17,46.83,46.83,0,0,1,17.53-.73A37.3,37.3,0,0,1,56,19.78a22.45,22.45,0,0,1,4.49,2.48,21.4,21.4,0,0,1,3.93,3.67A12.83,12.83,0,0,1,67.13,31a7.58,7.58,0,0,1,.11,3.14,4.86,4.86,0,0,1-.6,1.61,2.85,2.85,0,0,1-.64.75,1.79,1.79,0,0,1-1.16.43,1.69,1.69,0,0,1-1.18-.56,2.9,2.9,0,0,1-.51-.87,5.07,5.07,0,0,1-.23-.85c0-.29,0-.58,0-.88A3.16,3.16,0,0,1,63,33l.13-.82c.13-.53.3-1,.45-1.57a24.25,24.25,0,0,1,3.19-5.83l1,.72c-.48.62-.85,1.32-1.29,2s-.74,1.38-1.06,2.09a11.1,11.1,0,0,0-1.05,4.37,2.13,2.13,0,0,0,.52,1.55s0,0,0,0a.7.7,0,0,0,.16-.12,2,2,0,0,0,.42-.71,6,6,0,0,0-.39-4.12A15.66,15.66,0,0,0,58.87,24a27.3,27.3,0,0,0-8.73-3.1A50.51,50.51,0,0,0,31.52,21,40,40,0,0,0,14.93,28Z"/><path class="cls-1" d="M3.83,28.85a27,27,0,0,0,.1-6.68,17.82,17.82,0,0,0-.31-1.94l-.15-.69.2.7.6,1.92A23.25,23.25,0,0,1,5.63,29a10.53,10.53,0,0,1-.46,3.26,5.49,5.49,0,0,1-1,1.92A3.2,3.2,0,0,1,3,35a2.24,2.24,0,0,1-1,.16,2,2,0,0,1-1.16-.49A2.45,2.45,0,0,1,0,32.88a4.34,4.34,0,0,1,.22-1.46,8,8,0,0,1,1.2-2.27,19,19,0,0,1,1.64-1.87,23.76,23.76,0,0,1,1.87-1.64,41.56,41.56,0,0,1,8.94-5.32A57.1,57.1,0,0,1,24.1,17a53.59,53.59,0,0,1,19.13-.62,29.66,29.66,0,0,1,3.64.69,28.21,28.21,0,0,1,3,.74L53.43,19,49.91,18A23.55,23.55,0,0,0,47,17.45,28.88,28.88,0,0,0,43.35,17,52.32,52.32,0,0,0,24.8,18.94a66.87,66.87,0,0,0-9.65,3.75,50.27,50.27,0,0,0-8.35,5.14,20.84,20.84,0,0,0-3.13,2.92,6.18,6.18,0,0,0-.92,1.49,2.24,2.24,0,0,0-.16.59.47.47,0,0,1,0,.09,0,0,0,0,1,0,0,1.15,1.15,0,0,0-.23.09c-.1.07-.11.06-.17.12s0,0-.05.06a.14.14,0,0,0,0-.06.46.46,0,0,0,0-.19.53.53,0,0,0,0-.22.82.82,0,0,0,.3-.18,3.38,3.38,0,0,0,.72-1.09A9.71,9.71,0,0,0,3.83,28.85Z"/><path class="cls-1" d="M115.81,12.2C102.92,8,103.57,1.9,103.14,0,108.27,2.26,106.74,6.16,115.81,12.2Z"/><path class="cls-1" d="M109.48,13.66C89.68,11.43,86.83,20,85.1,22.28,93.34,22.38,93.66,16.23,109.48,13.66Z"/><circle class="cls-1" cx="94.31" cy="5.36" r="2.36"/><circle class="cls-1" cx="85.18" cy="8.83" r="1.11"/><circle class="cls-1" cx="107.5" cy="22.4" r="3.78"/><circle class="cls-1" cx="97.72" cy="25.04" r="1.18"/><circle class="cls-1" cx="110.91" cy="30.97" r="1.4"/><circle class="cls-1" cx="57.58" cy="29" r="1.83"/><circle class="cls-1" cx="53.57" cy="26.05" r="1"/><circle class="cls-1" cx="64.25" cy="18.1" r="3.06"/><path class="cls-1" d="M215.5,36.43a12.44,12.44,0,0,1-2.11,1.32l-1.15.57-1.26.41a12.15,12.15,0,0,1-2.65.53c-.25,0-.41.07-.73.08a6.41,6.41,0,0,1-1,0,5.93,5.93,0,0,1-2.09-.59,5.77,5.77,0,0,1-2.78-3.17,8.21,8.21,0,0,1-.44-3.31,14.18,14.18,0,0,1,1.61-5.5,25.73,25.73,0,0,1,7.25-8.43c.74-.59,1.57-1.12,2.38-1.66s1.69-1,2.58-1.38a38.89,38.89,0,0,1,5.55-2.16A61.84,61.84,0,0,1,233,10.64a56.56,56.56,0,0,1,13.47.12,43.55,43.55,0,0,1,13.86,4.13c.56.29,1.13.55,1.68.87l1.62,1A34.11,34.11,0,0,1,266.73,19a32.24,32.24,0,0,1,5.46,5.71l-1,.72a29.39,29.39,0,0,0-6.8-6.72,35.17,35.17,0,0,0-7.8-4.23,48.84,48.84,0,0,0-15.44-3.17,57.48,57.48,0,0,0-13.43,1.11,39.54,39.54,0,0,0-10.81,3.73,21.47,21.47,0,0,0-7.26,6.27,17.39,17.39,0,0,0-3.28,7.37,7,7,0,0,0,.1,3.1,1.23,1.23,0,0,0,.41.67c.05,0,.09,0,0,.08s0-.11.07-.2.06,0,.15-.06l.26-.07.35-.1.69-.18c.22-.09.44-.2.66-.29s.45-.17.66-.28l.63-.38a8.06,8.06,0,0,0,1.21-.84,14.85,14.85,0,0,0,4-4.9A13.3,13.3,0,0,0,217,20.15a6.59,6.59,0,0,0-2.4-5.16,10,10,0,0,0-6-2.09A15,15,0,0,0,202.36,14l-.72.28c-.23.1-.45.24-.68.35-.44.25-.9.46-1.31.73a17.13,17.13,0,0,0-2.24,1.74,19.1,19.1,0,0,0-4.75,7.05l-.13,0a23,23,0,0,1,4.06-7.38,19,19,0,0,1,4.7-4.08,17.73,17.73,0,0,1,6.91-2.56,18.89,18.89,0,0,1,2-.17,20,20,0,0,1,2.12.1c.71.09,1.44.28,2.17.44a15.51,15.51,0,0,1,2.15.89,9.62,9.62,0,0,1,2,1.39,11.61,11.61,0,0,1,.92.86l.78,1c.13.17.26.34.38.52l.29.56.57,1.15a16.39,16.39,0,0,1,.7,2.42,17.32,17.32,0,0,1-1.07,9.56A17.61,17.61,0,0,1,215.5,36.43Z"/><path class="cls-1" d="M325.54,26.2a25.62,25.62,0,0,1,4.41,5.3c.58.85,1,1.75,1.43,2.52l1,2.26.66,1.88c.19.55.29,1,.41,1.42l.33,1.19-.06,0-.45-1.18a23.43,23.43,0,0,0-1.5-3.13A29.55,29.55,0,0,0,324,28a39.6,39.6,0,0,0-15.18-6.77,51.42,51.42,0,0,0-16.41-1.05,35.86,35.86,0,0,0-8.61,1.87,20.1,20.1,0,0,0-4.15,2,19.06,19.06,0,0,0-3.7,3.11,10.86,10.86,0,0,0-2.5,4.26,5.87,5.87,0,0,0-.2,2.45A3.32,3.32,0,0,0,273.6,35a1,1,0,0,0,.46.48s0,0,.12-.07a1.5,1.5,0,0,0,.24-.41,3.6,3.6,0,0,0,.17-.59c0-.21,0-.42,0-.63a2.21,2.21,0,0,0,0-.67l-.09-.7c-.11-.47-.25-.94-.38-1.42a22.13,22.13,0,0,0-2.93-5.53l1-.72c.5.65.91,1.37,1.38,2.05s.81,1.45,1.17,2.2a17.41,17.41,0,0,1,.89,2.36,6.54,6.54,0,0,1,.3,1.26,5.28,5.28,0,0,1,.12,1.35c0,.24,0,.48,0,.71a5.23,5.23,0,0,1-.17.69,2.42,2.42,0,0,1-1,1.42,1.62,1.62,0,0,1-1.15.21,2,2,0,0,1-.9-.46,3.53,3.53,0,0,1-.91-1.31,7.73,7.73,0,0,1,.16-5.43,14.47,14.47,0,0,1,2.76-4.47,21.19,21.19,0,0,1,3.87-3.44,28.92,28.92,0,0,1,9.43-3.94,46.84,46.84,0,0,1,19.93-.27A36.65,36.65,0,0,1,325.54,26.2Z"/><path class="cls-1" d="M333.3,29a23.25,23.25,0,0,1,1.34-6.89l.61-1.88.2-.68-.17.71a16.11,16.11,0,0,0-.32,2,26.62,26.62,0,0,0,.13,6.63,9.72,9.72,0,0,0,.71,2.61,3.49,3.49,0,0,0,.72,1.1c.13.1.28.22.31.19s0,0,0,0a.66.66,0,0,0,0,.13,1.16,1.16,0,0,0,0,.21c0,.12,0,.1,0,.07a.35.35,0,0,0-.14-.11.7.7,0,0,0-.27-.12s0,0,0-.12a2,2,0,0,0-.14-.56,5.88,5.88,0,0,0-.9-1.47c-.18-.26-.45-.49-.67-.74a8,8,0,0,0-.73-.74c-.56-.47-1.06-1-1.69-1.44a48.94,48.94,0,0,0-8.29-5.14,64.84,64.84,0,0,0-9.6-3.76,52.12,52.12,0,0,0-18.55-2,27.21,27.21,0,0,0-3.64.45,25.82,25.82,0,0,0-3,.57l-3.64,1L289,17.85a25.46,25.46,0,0,1,2.92-.74,31.55,31.55,0,0,1,3.61-.71,53.81,53.81,0,0,1,19.12.53,58.59,58.59,0,0,1,10.28,3.31,42.42,42.42,0,0,1,9,5.32,20.33,20.33,0,0,1,3.55,3.51,8.32,8.32,0,0,1,1.22,2.27,4.49,4.49,0,0,1,.25,1.44,2.55,2.55,0,0,1-.69,1.84,2.05,2.05,0,0,1-1.14.57,2.81,2.81,0,0,1-.58,0,3.93,3.93,0,0,1-.49-.12,3.2,3.2,0,0,1-1.23-.88,5.39,5.39,0,0,1-1-1.93A10.52,10.52,0,0,1,333.3,29Z"/><path class="cls-1" d="M223.11,12.2C236,8,235.36,1.9,235.79,0,230.65,2.26,232.19,6.16,223.11,12.2Z"/><path class="cls-1" d="M229.45,13.66c19.8-2.24,22.64,6.33,24.37,8.62C245.59,22.38,245.26,16.23,229.45,13.66Z"/><circle class="cls-1" cx="244.62" cy="5.36" r="2.36"/><circle class="cls-1" cx="253.75" cy="8.83" r="1.11"/><circle class="cls-1" cx="231.43" cy="22.4" r="3.78"/><circle class="cls-1" cx="241.2" cy="25.04" r="1.18"/><circle class="cls-1" cx="228.02" cy="30.97" r="1.4"/><circle class="cls-1" cx="281.35" cy="29" r="1.83"/><circle class="cls-1" cx="285.35" cy="26.05" r="1"/><circle class="cls-1" cx="274.68" cy="18.1" r="3.06"/></g></g></svg>