<svg xmlns="http://www.w3.org/2000/svg" viewBox="0 0 419.8 51.37"><defs><style>.cls-1{fill:#d45755;}.cls-2,.cls-9{fill:#a3c5a4;}.cls-11,.cls-12,.cls-13,.cls-17,.cls-19,.cls-2,.cls-4,.cls-5,.cls-6,.cls-7{fill-rule:evenodd;}.cls-11,.cls-3{fill:#3d613d;}.cls-20,.cls-4{fill:#b83c33;}.cls-19,.cls-21,.cls-5{fill:#d6625a;}.cls-6{fill:#c7544c;}.cls-7{fill:#ffd3d1;}.cls-8{fill:#2b524f;}.cls-10{fill:#4d4d4d;}.cls-12{fill:#759c75;}.cls-13,.cls-16{fill:#91ba91;}.cls-14{fill:#f7c481;}.cls-15{fill:#fff;}.cls-17{fill:#ecb469;}.cls-18{fill:#bf8c49;}.cls-19{stroke:#d6625a;stroke-miterlimit:22.93;stroke-width:0.22px;}</style></defs><title>pattern-1</title><g id="Layer_2" data-name="Layer 2"><g id="OBJECTS"><path class="cls-1" d="M419,10.21a.9.9,0,1,0-.21-1.78c-12.18,1.46-34.48,2.06-54.33,1.2-15.72-.69-29.86-2.29-36.13-5.1a.9.9,0,0,0-.73,1.64c6.49,2.91,20.87,4.55,36.78,5.25C384.34,12.29,406.76,11.68,419,10.21Z"/><path class="cls-1" d="M374.89,11.74a.9.9,0,0,0,0-1.79,19,19,0,0,1-8.7-2.71A24,24,0,0,1,358.74.67a.9.9,0,0,0-1.46,1,25.83,25.83,0,0,0,8.07,7.09A20.83,20.83,0,0,0,374.89,11.74Z"/><path class="cls-1" d="M344.71,9.91a.9.9,0,0,0,.23-1.78c-2-.27-5.58.23-9.37,1.06a81.25,81.25,0,0,0-12.17,3.57.9.9,0,1,0,.69,1.66,79.35,79.35,0,0,1,11.86-3.47C339.57,10.16,343,9.68,344.71,9.91Z"/><path class="cls-1" d="M338.73,7.93a.9.9,0,1,1-.21,1.78C326.34,8.25,304,7.65,284.19,8.52c-15.72.69-29.86,2.29-36.13,5.1a.9.9,0,0,1-.73-1.64c6.49-2.91,20.87-4.55,36.78-5.25C304.07,5.85,326.49,6.46,338.73,7.93Z"/><path class="cls-1" d="M294.62,6.4a.9.9,0,0,1,0,1.79A19.05,19.05,0,0,0,286,10.9a24,24,0,0,0-7.49,6.57.9.9,0,0,1-1.46-1,25.84,25.84,0,0,1,8.07-7.09A20.83,20.83,0,0,1,294.62,6.4Z"/><path class="cls-1" d="M264.44,8.23a.9.9,0,0,1,.23,1.78c-2,.27-5.58-.23-9.37-1.06a81.24,81.24,0,0,1-12.17-3.57.9.9,0,0,1,.69-1.66A79.35,79.35,0,0,0,255.68,7.2C259.3,8,262.68,8.47,264.44,8.23Z"/><path class="cls-1" d="M258.76,10.21a.9.9,0,0,0-.21-1.78c-12.18,1.46-34.48,2.06-54.33,1.2-15.72-.69-29.86-2.29-36.13-5.1a.9.9,0,1,0-.73,1.64c6.49,2.91,20.87,4.55,36.78,5.25C224.1,12.29,246.52,11.68,258.76,10.21Z"/><path class="cls-1" d="M214.65,11.74a.9.9,0,0,0,0-1.79A19.05,19.05,0,0,1,206,7.24,24,24,0,0,1,198.5.67a.9.9,0,1,0-1.46,1A25.83,25.83,0,0,0,205.1,8.8,20.83,20.83,0,0,0,214.65,11.74Z"/><path class="cls-1" d="M184.47,9.91a.9.9,0,1,0,.23-1.78c-2-.27-5.58.23-9.37,1.06a81.25,81.25,0,0,0-12.17,3.57.9.9,0,0,0,.69,1.66,79.35,79.35,0,0,1,11.86-3.47C179.33,10.16,182.71,9.68,184.47,9.91Z"/><path class="cls-1" d="M178.49,7.93a.9.9,0,0,1-.21,1.78c-12.18-1.46-34.48-2.06-54.33-1.2-15.72.69-29.86,2.29-36.13,5.1A.9.9,0,1,1,87.09,12C93.58,9.07,108,7.42,123.87,6.73,143.82,5.85,166.24,6.46,178.49,7.93Z"/><path class="cls-1" d="M134.38,6.4a.9.9,0,0,1,0,1.79,19.05,19.05,0,0,0-8.7,2.71,24,24,0,0,0-7.49,6.57.9.9,0,0,1-1.46-1,25.83,25.83,0,0,1,8.07-7.09A20.83,20.83,0,0,1,134.38,6.4Z"/><path class="cls-1" d="M104.19,8.23a.9.9,0,0,1,.23,1.78c-2,.27-5.58-.23-9.37-1.06A81.25,81.25,0,0,1,82.88,5.39a.9.9,0,0,1,.69-1.66A79.35,79.35,0,0,0,95.43,7.2C99.05,8,102.43,8.47,104.19,8.23Z"/><path class="cls-1" d="M98.52,10.21a.9.9,0,0,0-.21-1.78C86.13,9.89,63.83,10.49,44,9.63,28.26,8.94,14.12,7.34,7.85,4.53a.9.9,0,0,0-.73,1.64C13.61,9.08,28,10.72,43.9,11.42,63.85,12.29,86.27,11.68,98.52,10.21Z"/><path class="cls-1" d="M73.1,11.45a.9.9,0,0,0,0-1.79,19,19,0,0,1-8.7-2.71A24,24,0,0,1,57,.38a.9.9,0,0,0-1.46,1,25.83,25.83,0,0,0,8.07,7.09A20.83,20.83,0,0,0,73.1,11.45Z"/><path class="cls-1" d="M24.22,9.91a.9.9,0,1,0,.23-1.78c-2-.27-5.58.23-9.38,1.06A81.25,81.25,0,0,0,2.91,12.76a.9.9,0,0,0,.69,1.66,79.35,79.35,0,0,1,11.86-3.47C19.08,10.16,22.46,9.68,24.22,9.91Z"/><path class="cls-2" d="M352.76,8.07a19.38,19.38,0,0,0,0,24.13,19.38,19.38,0,0,0,0-24.13Z"/><path class="cls-3" d="M353,8.31a.28.28,0,0,0-.55-.08,100.42,100.42,0,0,0-.79,11.12,55.38,55.38,0,0,0,.45,9,.28.28,0,1,0,.55-.09,54.81,54.81,0,0,1-.44-8.92A99.83,99.83,0,0,1,353,8.31Z"/><path class="cls-3" d="M352.18,21.7a.28.28,0,0,0-.56,0,4.18,4.18,0,0,0,1,2.35,4.83,4.83,0,0,0,2.13,1.63.28.28,0,0,0,.17-.53A4.26,4.26,0,0,1,353,23.72,3.63,3.63,0,0,1,352.18,21.7Z"/><path class="cls-3" d="M352.25,17a.28.28,0,0,0-.55.1,4.18,4.18,0,0,0,1.35,2.16,4.82,4.82,0,0,0,2.37,1.26.28.28,0,0,0,.08-.55,4.26,4.26,0,0,1-2.07-1.12A3.63,3.63,0,0,1,352.25,17Z"/><path class="cls-3" d="M352.19,19.27a.28.28,0,0,0-.56,0,3.63,3.63,0,0,1-.77,2.06,4.25,4.25,0,0,1-1.79,1.53.28.28,0,0,0,.19.52,4.82,4.82,0,0,0,2.05-1.73A4.18,4.18,0,0,0,352.19,19.27Z"/><path class="cls-3" d="M352.47,13.19a.28.28,0,1,0-.56,0,3.63,3.63,0,0,1-.77,2.06,4.26,4.26,0,0,1-1.79,1.53.28.28,0,1,0,.19.52,4.82,4.82,0,0,0,2.05-1.73A4.18,4.18,0,0,0,352.47,13.19Z"/><path class="cls-4" d="M352.36,36.85c-.56,2.85,2.5,4.22,4.94,3.84s3.63-1.55,7.61-1.63c-3.66-1.57-4.33-3.1-6.44-4.37S352.92,34,352.36,36.85Z"/><path class="cls-5" d="M352.48,36.69c2.24,1.84,4.9-.2,5.73-2.52s.36-3.93,2.19-7.47c-3.12,2.48-4.79,2.34-6.91,3.59S350.23,34.85,352.48,36.69Z"/><path class="cls-6" d="M352.15,36.56c-.73-2.81-4.08-2.73-6.11-1.33s-2.6,3-6.16,4.76c4-.17,5.25.93,7.7,1.16S352.88,39.37,352.15,36.56Z"/><path class="cls-5" d="M352.14,36.79c-2.9.18-3.46,3.49-2.47,5.75s2.41,3.12,3.49,7c.6-3.94,1.91-5,2.6-7.34S355,36.61,352.14,36.79Z"/><path class="cls-4" d="M352.36,36.51c2.41-1.62,1.23-4.75-.76-6.21s-3.66-1.48-6.53-4.25c1.47,3.7.86,5.26,1.45,7.65S349.95,38.12,352.36,36.51Z"/><path class="cls-7" d="M352.39,37.34c-.37,1.12.79,1.83,1.79,1.8a13,13,0,0,1,3.15-.26c-1.39-.82-1.58-1.47-2.37-2.09A1.62,1.62,0,0,0,352.39,37.34Z"/><path class="cls-7" d="M352.45,37.28c.81.86,2,.17,2.43-.72a13,13,0,0,1,1.27-2.89,13,13,0,0,1-3,1.09A1.62,1.62,0,0,0,352.45,37.28Z"/><path class="cls-7" d="M352.32,37.21c-.15-1.17-1.5-1.31-2.39-.85a13,13,0,0,1-2.72,1.6,13,13,0,0,1,3,.86A1.62,1.62,0,0,0,352.32,37.21Z"/><path class="cls-7" d="M352.31,37.3c-1.17-.08-1.57,1.22-1.29,2.18a13,13,0,0,1,1,3,13,13,0,0,1,1.43-2.82A1.62,1.62,0,0,0,352.31,37.3Z"/><path class="cls-7" d="M352.41,37.2c1.05-.53.74-1.85,0-2.54a13,13,0,0,1-2.41-2,13,13,0,0,1,.19,3.15A1.62,1.62,0,0,0,352.41,37.2Z"/><circle class="cls-8" cx="352.55" cy="37.2" r="1.96" transform="translate(-1.77 25.62) rotate(-4.15)"/><circle class="cls-9" cx="351.96" cy="36.66" r="0.67" transform="translate(-1.73 25.59) rotate(-4.15)"/><path class="cls-2" d="M199.69,7.93a19.38,19.38,0,0,1,0,24.13,19.38,19.38,0,0,1,0-24.13Z"/><path class="cls-3" d="M199.49,8.17a.28.28,0,1,1,.55-.08,100.34,100.34,0,0,1,.79,11.12,55.37,55.37,0,0,1-.45,9,.28.28,0,1,1-.55-.09,54.82,54.82,0,0,0,.44-8.92A99.88,99.88,0,0,0,199.49,8.17Z"/><path class="cls-3" d="M200.28,21.56a.28.28,0,0,1,.56,0,4.18,4.18,0,0,1-1,2.35,4.83,4.83,0,0,1-2.13,1.63.28.28,0,0,1-.17-.53,4.25,4.25,0,0,0,1.86-1.44A3.63,3.63,0,0,0,200.28,21.56Z"/><path class="cls-3" d="M200.21,16.86a.28.28,0,0,1,.55.1,4.18,4.18,0,0,1-1.35,2.16A4.82,4.82,0,0,1,197,20.38a.28.28,0,1,1-.08-.55A4.26,4.26,0,0,0,199,18.71,3.63,3.63,0,0,0,200.21,16.86Z"/><path class="cls-3" d="M200.27,19.13a.28.28,0,0,1,.56,0,3.63,3.63,0,0,0,.77,2.06,4.25,4.25,0,0,0,1.79,1.53.28.28,0,1,1-.19.52,4.83,4.83,0,0,1-2.05-1.73A4.18,4.18,0,0,1,200.27,19.13Z"/><path class="cls-3" d="M200,13.05a.28.28,0,1,1,.56,0,3.63,3.63,0,0,0,.77,2.06,4.26,4.26,0,0,0,1.79,1.53.28.28,0,0,1-.19.52,4.83,4.83,0,0,1-2.05-1.73A4.18,4.18,0,0,1,200,13.05Z"/><path class="cls-4" d="M200.1,36.71c.56,2.85-2.5,4.22-4.94,3.84s-3.63-1.55-7.61-1.63c3.66-1.57,4.33-3.1,6.44-4.37S199.54,33.86,200.1,36.71Z"/><path class="cls-5" d="M200,36.56c-2.24,1.84-4.9-.19-5.73-2.52s-.36-3.93-2.19-7.47c3.12,2.48,4.79,2.34,6.91,3.59S202.23,34.71,200,36.56Z"/><path class="cls-6" d="M200.31,36.42c.73-2.81,4.08-2.73,6.11-1.33s2.6,3,6.16,4.76c-4-.17-5.25.93-7.7,1.16S199.58,39.23,200.31,36.42Z"/><path class="cls-5" d="M200.32,36.65c2.9.18,3.46,3.49,2.47,5.75s-2.41,3.12-3.49,7c-.6-3.94-1.91-5-2.6-7.34S197.42,36.47,200.32,36.65Z"/><path class="cls-4" d="M200.1,36.37c-2.41-1.62-1.23-4.75.76-6.21s3.66-1.48,6.53-4.25c-1.47,3.7-.86,5.26-1.45,7.65S202.51,38,200.1,36.37Z"/><path class="cls-7" d="M200.07,37.2c.37,1.12-.79,1.83-1.79,1.8a13,13,0,0,0-3.15-.26c1.39-.82,1.58-1.47,2.37-2.09A1.62,1.62,0,0,1,200.07,37.2Z"/><path class="cls-7" d="M200,37.14c-.81.86-2,.17-2.43-.72a13,13,0,0,0-1.27-2.89,13,13,0,0,0,3,1.09A1.62,1.62,0,0,1,200,37.14Z"/><path class="cls-7" d="M200.14,37.07c.15-1.17,1.5-1.31,2.39-.85a13,13,0,0,0,2.72,1.6,13,13,0,0,0-3,.86A1.62,1.62,0,0,1,200.14,37.07Z"/><path class="cls-7" d="M200.15,37.16c1.17-.08,1.57,1.22,1.29,2.18a13,13,0,0,0-1,3A13,13,0,0,0,199,39.51,1.62,1.62,0,0,1,200.15,37.16Z"/><path class="cls-7" d="M200.05,37.06c-1.05-.53-.74-1.85,0-2.54a13,13,0,0,0,2.41-2,13,13,0,0,0-.19,3.15A1.62,1.62,0,0,1,200.05,37.06Z"/><circle class="cls-8" cx="199.91" cy="37.06" r="1.96" transform="translate(148.47 233.76) rotate(-85.85)"/><circle class="cls-9" cx="200.5" cy="36.52" r="0.67" transform="translate(149.56 233.85) rotate(-85.85)"/><path class="cls-2" d="M28.64,8.72a19.38,19.38,0,0,1,0,24.13,19.38,19.38,0,0,1,0-24.13Z"/><path class="cls-3" d="M28.44,9A.28.28,0,1,1,29,8.88,100.33,100.33,0,0,1,29.78,20a55.38,55.38,0,0,1-.45,9,.28.28,0,1,1-.55-.09A54.82,54.82,0,0,0,29.22,20,99.88,99.88,0,0,0,28.44,9Z"/><path class="cls-3" d="M29.23,22.35a.28.28,0,1,1,.56,0,4.18,4.18,0,0,1-1,2.35,4.83,4.83,0,0,1-2.13,1.63.28.28,0,0,1-.17-.53,4.26,4.26,0,0,0,1.86-1.44A3.63,3.63,0,0,0,29.23,22.35Z"/><path class="cls-3" d="M29.16,17.65a.28.28,0,0,1,.55.1,4.18,4.18,0,0,1-1.35,2.16A4.82,4.82,0,0,1,26,21.17a.28.28,0,1,1-.08-.55A4.26,4.26,0,0,0,28,19.5,3.63,3.63,0,0,0,29.16,17.65Z"/><path class="cls-3" d="M29.22,19.92a.28.28,0,0,1,.56,0A3.63,3.63,0,0,0,30.54,22a4.25,4.25,0,0,0,1.79,1.53.28.28,0,0,1-.19.52,4.83,4.83,0,0,1-2.05-1.73A4.18,4.18,0,0,1,29.22,19.92Z"/><path class="cls-3" d="M28.94,13.84a.28.28,0,1,1,.56,0,3.63,3.63,0,0,0,.77,2.06A4.25,4.25,0,0,0,32,17.45a.28.28,0,0,1-.19.52,4.83,4.83,0,0,1-2.05-1.73A4.18,4.18,0,0,1,28.94,13.84Z"/><path class="cls-4" d="M29,37.5c.56,2.85-2.5,4.22-4.94,3.84s-3.63-1.55-7.61-1.63c3.66-1.57,4.33-3.1,6.44-4.37S28.49,34.65,29,37.5Z"/><path class="cls-5" d="M28.93,37.35c-2.24,1.84-4.9-.19-5.73-2.52S22.84,30.9,21,27.36c3.12,2.48,4.79,2.34,6.91,3.59S31.17,35.5,28.93,37.35Z"/><path class="cls-6" d="M29.26,37.21c.73-2.81,4.08-2.73,6.11-1.33s2.6,3,6.16,4.76c-4-.17-5.25.93-7.7,1.16S28.53,40,29.26,37.21Z"/><path class="cls-5" d="M29.26,37.45c2.9.18,3.46,3.49,2.47,5.75s-2.41,3.12-3.49,7c-.6-3.94-1.91-5-2.6-7.34S26.37,37.27,29.26,37.45Z"/><path class="cls-4" d="M29,37.16c-2.41-1.62-1.23-4.75.76-6.21s3.66-1.48,6.53-4.25c-1.47,3.7-.86,5.26-1.45,7.65S31.46,38.77,29,37.16Z"/><path class="cls-7" d="M29,38c.37,1.12-.79,1.83-1.79,1.8a13,13,0,0,0-3.15-.26c1.39-.82,1.58-1.47,2.37-2.09A1.62,1.62,0,0,1,29,38Z"/><path class="cls-7" d="M29,37.93c-.81.86-2,.17-2.43-.72a13,13,0,0,0-1.27-2.89,13,13,0,0,0,3,1.09A1.62,1.62,0,0,1,29,37.93Z"/><path class="cls-7" d="M29.08,37.86c.15-1.17,1.5-1.31,2.39-.85a13,13,0,0,0,2.73,1.6,13,13,0,0,0-3,.86A1.62,1.62,0,0,1,29.08,37.86Z"/><path class="cls-7" d="M29.1,38c1.17-.08,1.57,1.22,1.29,2.18a13,13,0,0,0-1,3,13,13,0,0,0-1.43-2.82A1.62,1.62,0,0,1,29.1,38Z"/><path class="cls-7" d="M29,37.85c-1.05-.53-.74-1.85,0-2.54a13,13,0,0,0,2.41-2,13,13,0,0,0-.19,3.15A1.62,1.62,0,0,1,29,37.85Z"/><circle class="cls-8" cx="28.85" cy="37.85" r="1.96" transform="translate(-10.99 63.89) rotate(-85.85)"/><circle class="cls-9" cx="29.45" cy="37.31" r="0.67" transform="translate(-9.89 63.98) rotate(-85.85)"/><path class="cls-3" d="M375,42.28h0a11.11,11.11,0,0,0,1.07,4.18A25.46,25.46,0,0,0,378,49.95a.39.39,0,1,0,.65-.42,24.78,24.78,0,0,1-1.87-3.36,12.67,12.67,0,0,1-.81-2.39l.31.39a.39.39,0,0,0,.6-.5A11.73,11.73,0,0,1,375.73,42l0-.06-.31-.57a7.51,7.51,0,0,1,1.38,1.23,12.8,12.8,0,0,1,.92,3.42.39.39,0,1,0,.77-.11c0-.22-.07-.46-.11-.71a14.27,14.27,0,0,1,.7,2.3.39.39,0,0,0,.76-.17,13.23,13.23,0,0,0-1.42-3.8,9.28,9.28,0,0,0-1-1.35l-.08-.17a8.86,8.86,0,0,0-1.58-2.31.39.39,0,0,0,.62-.36c0-.37-.11-.77-.19-1.2a8.7,8.7,0,0,1,.74.65,12.48,12.48,0,0,1,2.22,3.11.39.39,0,0,0,.69-.36,13.23,13.23,0,0,0-2.36-3.3A9.14,9.14,0,0,0,375.91,37a11.07,11.07,0,0,0-.58-1.57q-.16-.34-.35-.68v2.61l.27.15a14.89,14.89,0,0,1,.37,1.93.39.39,0,0,0,.07.17A8.22,8.22,0,0,0,375,39v1c.15.15.3.3.43.45l-.43-.25v2Zm0-11.19a12.78,12.78,0,0,1,1.83,3.06.39.39,0,1,0,.71-.31,13.22,13.22,0,0,0-2.12-3.46l-.42-.45V31.1Zm0-3.33a.39.39,0,0,0,.1-.33c0-.18-.06-.37-.1-.57v.9Zm0-1.37V25.15a13.54,13.54,0,0,1,2,3.2.39.39,0,0,1-.71.33A13.94,13.94,0,0,0,375,26.4Zm0-3.52c.17.41.31.8.42,1.15a.39.39,0,0,0,.74-.24A14.53,14.53,0,0,0,375,21.11v1.77Zm0-2.28h0a.39.39,0,0,0,.33-.44,15.82,15.82,0,0,0-.37-1.93Zm-.75,27.25a.39.39,0,0,0,.71-.3,25.54,25.54,0,0,1-.71-3.46v3.76Zm0-4.38a9.24,9.24,0,0,1,.52-1.6l.23.42v-2l-.22-.11-.21-.48q.23.19.43.39V39a8.39,8.39,0,0,0-.75-.54v2.36l.08.17-.08.16v2.31Zm.75-8.7a8.78,8.78,0,0,0-.75-1.13V35c.15.25.28.5.39.75s.21.47.3.71q-.33-.15-.69-.27V37a7.43,7.43,0,0,1,.75.34V34.77Zm-.75-4.47q.31.29.59.61l.16.19V29.94a9,9,0,0,0-.75-.68v1Zm0-3.23c0,.17.06.34.09.5a.39.39,0,0,0,.67.21v-.9c0-.21-.09-.44-.14-.67l.14.2V25.15l-.19-.21q-.25-.27-.52-.53l0-.1v2.76Zm0-5.71a12.07,12.07,0,0,1,.75,1.52V21.11a10.76,10.76,0,0,0-.62-1l-.13-.18v1.39Zm0-2.93V16.17l0,.08a11.39,11.39,0,0,1,.71,2V20.6a.39.39,0,0,1-.4-.34A15.16,15.16,0,0,0,374.23,18.43Zm-.6,21,0,.12,0,.18v9.6a.39.39,0,0,0,.24-.38c0-.74-.06-1.64,0-2.6.11.49.23.95.34,1.35a.39.39,0,0,0,0,.1V44.09l0-.32v-.1l0-.21V41.16l-.08.17c0-.18,0-.36.06-.54l0,0V38.46l-.22-.13q-.2-.52-.38-1.06v2.19Zm.6-5.82a8.2,8.2,0,0,0-.6-.68v1.18a8,8,0,0,1,.6.88V33.64Zm-.6-.68V28.82h0c.21.14.41.28.6.44v1l-.35-.31a14.93,14.93,0,0,1,.16,2.59.39.39,0,0,1-.39.38Zm0-8.06a13,13,0,0,1,.6,2.17V24.3c-.1-.25-.22-.49-.34-.74s-.17-.32-.26-.48V24.9Zm0-2.29h0a.39.39,0,0,0,.39-.39c0-.38,0-.8,0-1.25l.24.38V20q-.2-.26-.42-.52c0-.15-.06-.31-.1-.47a.4.4,0,0,0,0-.1c.07-.45.13-1,.16-1.5.13.35.24.7.33,1V16.17c-.11-.22-.22-.44-.35-.65s0-.45-.09-.68-.1-.55-.17-.82v8.6Zm.6,13.6V37l-.6-.2V36Zm-.91,2.48a.39.39,0,0,0,0,.1l.27.68V37.27l-.16-.48.16,0V36l-.44-.1q-.21-.67-.4-1.36l0-.07-.17-.62v2.75l.22.66v0q-.11.2-.21.41v5.36a.39.39,0,0,0,.54-.45c-.17-.68-.36-1.49-.51-2.37a9.58,9.58,0,0,1,.55-1.94l.14.38Zm.31,1.07v9.6l-.13,0a.39.39,0,0,1-.41-.37,25.45,25.45,0,0,1,.08-4c.05-.48.13-1,.22-1.43a11.14,11.14,0,0,1,.23-3.87Zm0-6.8v1.18a7.49,7.49,0,0,0-1-1.08v-1a8.29,8.29,0,0,1,.67.54s0,0,0,0a13.13,13.13,0,0,0-.31-3.25l-.36-.2v-.87l0,0,0-.11V26.4a9,9,0,0,1,1,2.15l.08.27V33h0Zm-1-8.87a8,8,0,0,1,1,.77V23.09a8.81,8.81,0,0,0-1-1.43v1.26l.28.44-.28-.17v.91Zm0-4.76v-1l.16.13h0q-.07-.24-.16-.47V16.17a8.7,8.7,0,0,1,.54,1,11.58,11.58,0,0,0,0-1.45,7.91,7.91,0,0,0-.52-.75V13.83l.25.26a8.11,8.11,0,0,0-.25-.77V11.56a8.45,8.45,0,0,1,1,2.45v8.6a.39.39,0,0,1-.39-.39,14.31,14.31,0,0,0-.17-2.42Q372.85,19.56,372.59,19.33Zm0,7.08a8.24,8.24,0,0,0-.87-1.16V26.5a7.88,7.88,0,0,1,.87,1.66V26.4Zm-.87-2.79a7.5,7.5,0,0,1,.87.48v-.91a8.19,8.19,0,0,0-.87-.42v.85Zm.87-2v1.26a7.7,7.7,0,0,0-.87-1V20.81a8.24,8.24,0,0,1,.87.84Zm-.87-3a7.61,7.61,0,0,1,.87.68v-1a8.19,8.19,0,0,0-.87-.59v.92Zm.87-7.09a8.37,8.37,0,0,0-.86-1.15c.11-.27.23-.53.36-.77a.39.39,0,0,0-.36-.57v2.59a7.51,7.51,0,0,1,.87,1.65V11.56Zm-.87,22.06q.13.5.27,1a8,8,0,0,0-.27,1.15V39.5q0,.38.11.75t-.11.72V45.7a.39.39,0,0,0,.73-.22c-.06-.76-.1-1.68-.08-2.66a.39.39,0,0,0,.22.25V37.71q-.11.23-.2.47a11.55,11.55,0,0,1,.06-2l0,.15a.39.39,0,0,0,0,.1l.06.19V33.87q-.13-.5-.26-1l.26.21v-1l-.53-.35L372,31.2v0q-.11-.53-.22-1.06v3.5Zm.87-19.79V15a7.55,7.55,0,0,0-.87-.93v-1a8.22,8.22,0,0,1,.87.77Zm0,2.35V18a7.94,7.94,0,0,0-.87-1.69V15a8.22,8.22,0,0,1,.87,1.18Zm0,12.07v.87a7.49,7.49,0,0,0-.87-.4v-.83A8.35,8.35,0,0,1,372.59,28.25Zm-.87-3a8.34,8.34,0,0,0-.74-.73v5.86l.17.81-.17.22v1.5c.12-.24.25-.48.4-.7q.17.72.35,1.42v-3.5q-.15-.74-.28-1.49l.28.1v-.83l-.42-.13q-.11-.68-.2-1.36Q371,26,371,25.59a7.46,7.46,0,0,1,.74.91V25.24ZM371,23.32a7.53,7.53,0,0,1,.74.3v-.85q-.36-.15-.74-.27v.82Zm.74-2.5a8.26,8.26,0,0,0-.74-.55v1a7.44,7.44,0,0,1,.74.65V20.81ZM371,18.2a7.62,7.62,0,0,1,.74.44v-.92a8.29,8.29,0,0,0-.74-.39v.87Zm.74-9.13a.39.39,0,0,0-.33.21,9.3,9.3,0,0,0-.41.9v3.3a7.52,7.52,0,0,1,.74.59v-1q-.31-.24-.65-.45.12-.58.28-1.11l0-.06.05-.18.3.4V9.07ZM371,36.55h.1a.39.39,0,0,0,.3-.46c-.14-.65-.29-1.44-.4-2.28v2.75Zm.74-.79a12.78,12.78,0,0,0-.06,3.14c0,.2,0,.4.06.59V35.76Zm0,5.21c0,.2,0,.4-.06.6a25.49,25.49,0,0,0,0,4,.39.39,0,0,0,0,.16V41Zm0-26v1.27a7.47,7.47,0,0,0-.74-.93V14.25A8.42,8.42,0,0,1,371.73,15ZM371,24.51l-.13-.11q-.06-.58-.11-1.16l.25.08V22.5l-.32-.09q0-.4-.05-.8v0q0-.33,0-.65l.41.29v-1l-.44-.27q0-.67,0-1.32a.42.42,0,0,0,0-.05q0-.31,0-.62l.46.22v-.87l-.43-.18q0-.43,0-.86a.39.39,0,0,0,0-.09q0-.59.1-1.16l.29.29V14.25l-.17-.15q0-.34.1-.67l.07,0v-3.3l-.06.15,0,.06q-.13.34-.24.7a7.77,7.77,0,0,0-.66.44v1l.35-.29-.08.35-.28.26V14l0,0V14l0,0V24.69l.08-.11v0h0q.1.93.23,1.86.11.76.23,1.52a11.11,11.11,0,0,0-.5,4.28c0,.21,0,.41,0,.62l-.1.22v2.43l.1-.37c.06-.22.13-.44.2-.66.1.62.21,1.19.32,1.69a.39.39,0,0,0,.36.31V33.8c0-.24-.06-.48-.08-.73l.08-.17V31.4l-.17.24a12.08,12.08,0,0,1,.09-1.67l.08.4Zm-1-13-.43.34v1l.43-.39v-1Zm0,1.32V14l0,0,0,0V24.69l-.22.34c0,.26,0,.51,0,.77a24.78,24.78,0,0,0,.22,3.84.39.39,0,0,1-.34.43h-.05V22.16c.08-.21.16-.42.25-.62q0-.64-.06-1.27a.47.47,0,0,1,0-.07q0-.42,0-.84l-.17.13v-1l.17-.11q0-.32,0-.64l-.18.41V16.46l.25-.37q0-.53.09-1l-.34.26v-2c.14-.16.28-.31.43-.46Zm0,20.3c-.16.37-.3.74-.43,1.12v3.4c.1-.66.24-1.37.43-2.09Zm-.43-21.28a13.05,13.05,0,0,0-2,2.16,25.48,25.48,0,0,0-2.1,3.37.39.39,0,1,0,.69.36,24.73,24.73,0,0,1,2-3.27,13.34,13.34,0,0,1,1.38-1.59v-1Zm0,1.45v2a9.87,9.87,0,0,0-.89.83l-.15.31a24.6,24.6,0,0,0-1.32,3.61.39.39,0,0,1-.75-.21c.13-.43.27-.92.45-1.43-.53.81-1,1.62-1.33,2.28a.39.39,0,1,1-.69-.36A25.43,25.43,0,0,1,367,17,15,15,0,0,1,368,15.69a11.94,11.94,0,0,1,1.54-2.37Zm0,3.14v1.72q-.09.23-.18.46l.18-.12v1c-.19.15-.38.31-.57.48l-.07.28a24.73,24.73,0,0,0-.51,3.81.39.39,0,1,1-.78,0,28,28,0,0,1,.33-3c-.21.25-.42.52-.61.78a24.71,24.71,0,0,0-2,3.3.39.39,0,0,1-.7-.35,25.45,25.45,0,0,1,2-3.4,13.85,13.85,0,0,1,1.56-1.81,11.12,11.12,0,0,1,1.26-3.09Zm0,5.7a10.9,10.9,0,0,0-.55,2.63A13.51,13.51,0,0,0,368,27.19,25.41,25.41,0,0,0,367,31a.39.39,0,1,0,.77.13,24.69,24.69,0,0,1,.92-3.74c.08-.25.18-.49.27-.74a27.84,27.84,0,0,0,.23,3,.39.39,0,0,0,.38.34V22.16Zm0,12.12c-.08.24-.16.49-.22.73a25.44,25.44,0,0,0-.73,3.9.39.39,0,0,0,.77.09c0-.4.1-.85.18-1.32Z"/><path class="cls-3" d="M244.06,13.12a13,13,0,0,1,2,2.16,25.43,25.43,0,0,1,2.1,3.37.39.39,0,1,1-.69.36,24.67,24.67,0,0,0-2-3.27,13.31,13.31,0,0,0-1.39-1.59v-1Zm0,1.45v2a9.88,9.88,0,0,1,.89.83l.15.31a24.66,24.66,0,0,1,1.32,3.61.39.39,0,0,0,.75-.21c-.12-.43-.27-.92-.45-1.43.53.81,1,1.62,1.33,2.28a.39.39,0,1,0,.69-.36,25.37,25.37,0,0,0-2.09-3.38,15.07,15.07,0,0,0-1.06-1.27,11.93,11.93,0,0,0-1.54-2.37Zm0,3.14v1.72q.09.23.18.47l-.18-.12v1q.29.22.57.48l.07.28a24.7,24.7,0,0,1,.51,3.81.39.39,0,1,0,.78,0,27.89,27.89,0,0,0-.33-3c.21.25.42.52.61.78a24.71,24.71,0,0,1,2,3.3.39.39,0,0,0,.7-.35,25.44,25.44,0,0,0-2-3.4,13.87,13.87,0,0,0-1.56-1.81,11.12,11.12,0,0,0-1.26-3.09Zm0,5.7a10.88,10.88,0,0,1,.55,2.63,13.49,13.49,0,0,1,1.08,2.41,25.41,25.41,0,0,1,1,3.85.39.39,0,0,1-.77.13,24.68,24.68,0,0,0-.92-3.74c-.08-.25-.18-.49-.27-.74a27.9,27.9,0,0,1-.23,3,.39.39,0,0,1-.38.34V23.4Zm0,12.12c.08.24.16.49.22.73a25.42,25.42,0,0,1,.73,3.9.39.39,0,0,1-.77.09c0-.4-.1-.85-.18-1.32Zm-.43-22.74.43.34v1l-.43-.39v-1Zm0,1.32v1.17l0,0,0,0V25.94l.22.34q0,.38,0,.77a24.77,24.77,0,0,1-.22,3.84.39.39,0,0,0,.34.43h.05V23.4q-.11-.32-.25-.62,0-.64.06-1.27a.4.4,0,0,0,0-.07q0-.42,0-.84l.17.13v-1l-.17-.11q0-.32,0-.64l.18.41V17.71l-.25-.37q0-.53-.09-1l.34.26v-2q-.21-.24-.43-.46Zm0,20.3c.16.37.3.74.43,1.12v3.4c-.1-.66-.24-1.37-.43-2.09Zm-1-8.64.13-.11q.06-.58.11-1.16l-.25.08v-.82l.32-.09q0-.4.05-.8v0q0-.33,0-.65l-.41.29v-1l.44-.27q0-.67,0-1.32a.42.42,0,0,1,0-.05q0-.31,0-.62l-.46.22v-.87l.43-.18q0-.43,0-.86a.41.41,0,0,1,0-.09q0-.59-.1-1.16l-.29.29V15.5l.17-.15q0-.34-.1-.67l-.07,0v-3.3l.06.15,0,.06q.13.34.24.7a7.76,7.76,0,0,1,.66.44v1l-.35-.29.08.35.28.26v1.17l0,0v.05l0,0V25.94l-.08-.11v.05h0q-.1.93-.23,1.86-.11.76-.23,1.52a11.12,11.12,0,0,1,.5,4.28c0,.21,0,.41,0,.62l.1.22v2.43l-.1-.37c-.06-.22-.13-.44-.2-.66-.1.62-.21,1.19-.32,1.69a.39.39,0,0,1-.36.31V35.05q0-.36.08-.73l-.08-.17v-1.5l.17.24a12.08,12.08,0,0,0-.09-1.67l-.08.4Zm-.74.73a8.37,8.37,0,0,1,.74-.73v5.86l-.17.81.17.22v1.5c-.12-.24-.25-.48-.4-.7q-.17.72-.35,1.42v-3.5q.15-.74.28-1.5l-.28.1v-.83l.42-.13q.11-.68.2-1.36.06-.41.11-.81a7.45,7.45,0,0,0-.74.91V26.49Zm.74-1.93a7.54,7.54,0,0,0-.74.3V24q.36-.15.74-.27v.82Zm-.74-2.5a8.27,8.27,0,0,1,.74-.55v1a7.43,7.43,0,0,0-.74.65V22.06Zm.74-2.61a7.45,7.45,0,0,0-.74.44V19a8.28,8.28,0,0,1,.74-.39v.87Zm-.74-9.13a.39.39,0,0,1,.33.21,9.2,9.2,0,0,1,.41.9v3.3a7.56,7.56,0,0,0-.74.59v-1q.31-.24.65-.45-.12-.58-.28-1.11l0-.06-.05-.18-.3.4V10.32Zm.74,27.48h-.1a.39.39,0,0,1-.3-.46c.14-.65.29-1.44.4-2.28V37.8Zm-.74-.79a12.77,12.77,0,0,1,.06,3.14q0,.3-.06.6V37Zm0,5.21q0,.3.06.6a25.41,25.41,0,0,1,0,4,.39.39,0,0,1,0,.16V42.22Zm.74-26.71v1.08a7.49,7.49,0,0,0-.74.93V16.25A8.33,8.33,0,0,1,242.65,15.5ZM241,27.65a8.2,8.2,0,0,1,.87-1.16v1.26a7.87,7.87,0,0,0-.87,1.66V27.65Zm.87-2.79a7.5,7.5,0,0,0-.87.48v-.91a8.12,8.12,0,0,1,.87-.42v.85Zm-.87-2v1.26a7.7,7.7,0,0,1,.87-1V22.06a8.21,8.21,0,0,0-.87.84Zm.87-3a7.59,7.59,0,0,0-.87.68v-1a8.14,8.14,0,0,1,.87-.59v.92ZM241,12.81a8.36,8.36,0,0,1,.86-1.15c-.11-.27-.23-.53-.36-.77a.39.39,0,0,1,.36-.57v2.59a7.51,7.51,0,0,0-.87,1.65V12.81Zm.87,22.06q-.13.5-.27,1a8,8,0,0,1,.27,1.14v3.74q0,.38-.11.75c0,.24.08.48.11.72V47a.39.39,0,0,1-.73-.22c.06-.76.1-1.68.08-2.66a.39.39,0,0,1-.22.25V39q.11.23.2.47a11.55,11.55,0,0,0-.06-2l0,.15a.4.4,0,0,1,0,.1l-.06.19V35.12q.13-.5.26-1l-.26.21v-1l.53-.35.11-.52v0q.11-.53.22-1.06v3.5Zm0-20.56a8.19,8.19,0,0,0-.87.77v1.18a7.52,7.52,0,0,1,.87-.93v-1Zm0,1.94a8.22,8.22,0,0,0-.87,1.18v1.79a7.94,7.94,0,0,1,.87-1.69V16.25Zm0,12.9a8.22,8.22,0,0,0-.87.35v.87a7.46,7.46,0,0,1,.87-.4Zm-1.59,10.8a.39.39,0,0,1,0,.1l-.27.68V38.52l.16-.48-.16,0v-.81l.44-.1q.21-.67.4-1.36l0-.07.17-.62v2.75l-.22.66v0q.11.2.21.41v5.36a.39.39,0,0,1-.54-.45c.17-.68.36-1.49.51-2.37a9.6,9.6,0,0,0-.56-1.94l-.14.38ZM240,41v9.6l.13,0a.39.39,0,0,0,.41-.37,25.46,25.46,0,0,0-.08-4c-.05-.48-.13-1-.22-1.43A11.15,11.15,0,0,0,240,41Zm0-6.8v1.18a7.48,7.48,0,0,1,1-1.08v-1a8.3,8.3,0,0,0-.67.54.37.37,0,0,0,0,0,13.14,13.14,0,0,1,.31-3.25l.36-.2V29.5l0,0,0-.11V27.65a9,9,0,0,0-1,2.15l-.08.27v4.14h0Zm1-8.87a7.9,7.9,0,0,0-1,.78V24.34a8.81,8.81,0,0,1,1-1.43v1.26q-.15.22-.28.44l.28-.17v.91Zm0-4.76v-1l-.16.13h0q.07-.24.16-.47V17.42a8.71,8.71,0,0,0-.54,1,11.58,11.58,0,0,1,0-1.45,7.93,7.93,0,0,1,.52-.75V15.07l-.25.26a8.05,8.05,0,0,1,.25-.77V12.81a8.45,8.45,0,0,0-1,2.45v8.6a.39.39,0,0,0,.39-.39,14.31,14.31,0,0,1,.17-2.42Q240.79,20.81,241,20.58Zm-1,20.14,0,.12,0,.18v9.6a.39.39,0,0,1-.24-.38c0-.74.06-1.64,0-2.6-.11.49-.23.95-.34,1.35a.4.4,0,0,1,0,.1V45.34l0-.32v-.1l0-.21V42.41l.08.17c0-.18,0-.36-.06-.54l0,0V39.71l.22-.13q.2-.52.38-1.06v2.19Zm-.6-5.82a8.29,8.29,0,0,1,.6-.68v1.18a8,8,0,0,0-.6.88V34.89Zm.6-.68V30.07h0c-.21.14-.41.29-.6.44v1l.35-.31a14.93,14.93,0,0,0-.16,2.6.39.39,0,0,0,.39.38Zm0-8.06a13,13,0,0,0-.6,2.17V25.56c.1-.25.21-.49.34-.74s.17-.32.26-.48v1.81Zm0-2.29h0a.39.39,0,0,1-.39-.39c0-.38,0-.8,0-1.25l-.24.38V21.22q.2-.26.42-.52,0-.23.1-.47a.4.4,0,0,1,0-.1c-.07-.45-.13-1-.16-1.5-.13.35-.24.7-.33,1V17.42q.16-.33.35-.65c0-.22,0-.45.09-.68s.1-.55.17-.82v8.6Zm0,13.41v.81l-.6.2v-.83Zm-.6,11.82a.39.39,0,0,1-.71-.3,25.55,25.55,0,0,0,.71-3.46V49.1Zm0-4.38a9.3,9.3,0,0,0-.52-1.6l-.23.42v-2l.22-.11.21-.48q-.23.19-.43.39v-1a8.33,8.33,0,0,1,.75-.54v2.36l-.08.17.08.16v2.31Zm-.75-8.7a8.82,8.82,0,0,1,.75-1.13v1.38c-.15.25-.28.5-.39.75s-.21.47-.3.71q.33-.15.69-.27v.83a7.45,7.45,0,0,0-.75.34V36Zm.75-4.47c-.21.2-.41.4-.59.61l-.16.19V31.19a9.09,9.09,0,0,1,.75-.68v1Zm0-3.23c0,.17-.06.34-.09.5a.39.39,0,0,1-.44.32.38.38,0,0,1-.22-.12v-.9c0-.21.09-.44.14-.67l-.14.2V26.4l.19-.21c.17-.18.34-.36.52-.53l0-.1v2.76Zm0-5.71a12,12,0,0,0-.75,1.52V22.36a10.78,10.78,0,0,1,.62-1l.13-.18v1.39Zm0-2.94V17.42l0,.08a11.4,11.4,0,0,0-.71,2v2.37a.39.39,0,0,0,.4-.34A15.16,15.16,0,0,1,239.41,19.68Zm-.75,23.86h0a11.11,11.11,0,0,1-1.07,4.18,25.43,25.43,0,0,1-1.93,3.47.39.39,0,0,1-.65-.42,24.72,24.72,0,0,0,1.87-3.36,12.67,12.67,0,0,0,.81-2.39l-.31.39a.39.39,0,0,1-.6-.5,11.68,11.68,0,0,0,1.14-1.64l0-.06.31-.57a7.54,7.54,0,0,0-1.38,1.23A12.8,12.8,0,0,0,236,47.3a.39.39,0,1,1-.77-.11c0-.22.07-.46.11-.71a14.3,14.3,0,0,0-.7,2.3.39.39,0,0,1-.76-.17,13.22,13.22,0,0,1,1.42-3.8,9.28,9.28,0,0,1,1-1.35l.08-.17A8.86,8.86,0,0,1,237.87,41a.39.39,0,0,1-.62-.36c0-.37.11-.77.19-1.2a8.67,8.67,0,0,0-.74.65,12.47,12.47,0,0,0-2.22,3.11.39.39,0,0,1-.69-.36,13.23,13.23,0,0,1,2.36-3.3,9.14,9.14,0,0,1,1.56-1.25,11.05,11.05,0,0,1,.58-1.57q.16-.34.35-.68v2.61l-.27.15a15,15,0,0,0-.37,1.93.39.39,0,0,1-.07.17,8.25,8.25,0,0,1,.7-.63v1c-.15.15-.3.3-.43.45l.43-.25v2Zm0-11.19a12.77,12.77,0,0,0-1.82,3.06.39.39,0,1,1-.71-.31,13.22,13.22,0,0,1,2.12-3.46l.42-.45v1.15Zm0-3.33a.39.39,0,0,1-.1-.33c0-.18.06-.37.1-.57V29Zm0-1.37V26.4a13.54,13.54,0,0,0-2,3.2.39.39,0,1,0,.71.33,13.93,13.93,0,0,1,1.3-2.27Zm0-3.52c-.17.41-.31.8-.42,1.15a.39.39,0,0,1-.74-.24,14.53,14.53,0,0,1,1.17-2.68v1.77Zm0-2.28h0a.39.39,0,0,1-.34-.44,15.82,15.82,0,0,1,.37-1.93Z"/><path class="cls-3" d="M105.85,40.68h0a11.11,11.11,0,0,0,1.07,4.18,25.46,25.46,0,0,0,1.93,3.47.39.39,0,1,0,.65-.42,24.78,24.78,0,0,1-1.87-3.36,12.66,12.66,0,0,1-.81-2.39l.31.39a.39.39,0,1,0,.6-.5,11.74,11.74,0,0,1-1.14-1.64l0-.06-.31-.57A7.51,7.51,0,0,1,107.63,41a12.8,12.8,0,0,1,.92,3.42.39.39,0,1,0,.77-.11c0-.22-.07-.46-.11-.71a14.27,14.27,0,0,1,.7,2.3.39.39,0,0,0,.76-.17,13.23,13.23,0,0,0-1.42-3.8,9.27,9.27,0,0,0-1-1.35l-.08-.17a8.86,8.86,0,0,0-1.58-2.31.39.39,0,0,0,.62-.36c0-.37-.11-.77-.19-1.2a8.7,8.7,0,0,1,.74.65A12.48,12.48,0,0,1,110,40.32a.39.39,0,0,0,.69-.36,13.23,13.23,0,0,0-2.36-3.3,9.14,9.14,0,0,0-1.56-1.25,11,11,0,0,0-.58-1.57q-.16-.34-.35-.68v2.61l.27.15a14.89,14.89,0,0,1,.37,1.93.39.39,0,0,0,.07.17,8.24,8.24,0,0,0-.7-.63v1c.15.15.3.3.43.45l-.43-.25v2Zm0-11.19a12.77,12.77,0,0,1,1.83,3.06.39.39,0,1,0,.71-.31,13.23,13.23,0,0,0-2.12-3.46l-.42-.45v1.15Zm0-3.33a.39.39,0,0,0,.1-.33c0-.18-.06-.37-.1-.57v.9Zm0-1.37V23.54a13.54,13.54,0,0,1,2,3.2.39.39,0,0,1-.71.33,13.94,13.94,0,0,0-1.3-2.27Zm0-3.52c.17.41.31.8.42,1.15a.39.39,0,0,0,.74-.24,14.53,14.53,0,0,0-1.17-2.68v1.77Zm0-2.28h0a.39.39,0,0,0,.34-.44,15.82,15.82,0,0,0-.37-1.93Zm-.75,27.25a.39.39,0,0,0,.71-.3,25.54,25.54,0,0,1-.71-3.46v3.76Zm0-4.38a9.24,9.24,0,0,1,.52-1.6l.23.42v-2l-.22-.11-.21-.48q.23.19.43.39v-1a8.41,8.41,0,0,0-.75-.54v2.36l.08.17-.08.16v2.31Zm.75-8.7A8.78,8.78,0,0,0,105.1,32v1.38c.15.25.28.5.39.75s.21.47.3.71q-.33-.15-.69-.27v.83a7.44,7.44,0,0,1,.75.34V33.17Zm-.75-4.47q.31.29.59.61l.16.19V28.34a9,9,0,0,0-.75-.68v1Zm0-3.23c0,.17.06.34.09.5a.39.39,0,0,0,.67.21v-.9c0-.21-.09-.44-.14-.67l.14.2V23.54l-.19-.21c-.17-.18-.34-.36-.52-.53l0-.1v2.76Zm0-5.71a12.07,12.07,0,0,1,.75,1.52V19.51a10.78,10.78,0,0,0-.62-1l-.13-.18v1.39Zm0-2.93V14.56l0,.08a11.39,11.39,0,0,1,.71,2V19a.39.39,0,0,1-.4-.34A15.17,15.17,0,0,0,105.1,16.82Zm-.6,21,0,.12,0,.18v9.6a.39.39,0,0,0,.24-.38c0-.74-.06-1.64,0-2.6.11.49.23.95.34,1.35a.38.38,0,0,0,0,.1V42.48l0-.32v-.1l0-.21V39.55l-.08.17c0-.18,0-.36.06-.54l0,0V36.86l-.22-.13q-.2-.52-.38-1.06v2.19Zm.6-5.82a8.2,8.2,0,0,0-.6-.68v1.18a8,8,0,0,1,.6.88V32Zm-.6-.68V27.22h0c.21.14.41.28.6.44v1l-.35-.31A14.93,14.93,0,0,1,104.9,31a.39.39,0,0,1-.39.38Zm0-8.06a13,13,0,0,1,.6,2.17V22.7c-.1-.25-.22-.49-.34-.74s-.17-.32-.26-.48V23.3Zm0-2.29h0a.39.39,0,0,0,.39-.39c0-.38,0-.8,0-1.25l.24.38V18.37q-.2-.26-.42-.52c0-.15-.06-.31-.1-.47a.4.4,0,0,0,0-.1c.07-.45.13-1,.16-1.5.13.35.24.7.33,1V14.56c-.11-.22-.22-.44-.35-.65s0-.45-.09-.68-.1-.55-.17-.82V21Zm.6,13.6v.83l-.6-.2v-.81Zm-.91,2.48a.39.39,0,0,0,0,.1l.27.68V35.67l-.16-.48.16,0v-.81l-.44-.1q-.21-.67-.4-1.36l0-.07-.17-.62V35l.22.66v0q-.11.2-.21.41v5.36A.39.39,0,0,0,104,41c-.17-.68-.36-1.49-.51-2.37a9.58,9.58,0,0,1,.55-1.94l.14.38Zm.31,1.07v9.6l-.13,0a.39.39,0,0,1-.41-.37,25.45,25.45,0,0,1,.08-4c.05-.48.13-1,.22-1.43a11.15,11.15,0,0,1,.23-3.87Zm0-6.8v1.18a7.49,7.49,0,0,0-1-1.08v-1a8.31,8.31,0,0,1,.67.54s0,0,0,0a13.12,13.12,0,0,0-.31-3.25l-.36-.2v-.87l0,0,0-.11V24.8a9,9,0,0,1,1,2.15l.08.27v4.14h0Zm-1-8.87a8,8,0,0,1,1,.77V21.48a8.81,8.81,0,0,0-1-1.43v1.26q.15.22.28.44l-.28-.17v.91Zm0-4.76v-1l.16.13h0q-.07-.24-.16-.47V14.57a8.68,8.68,0,0,1,.54,1,11.56,11.56,0,0,0,0-1.45,7.93,7.93,0,0,0-.52-.75V12.22l.25.26a8.05,8.05,0,0,0-.25-.77V10a8.45,8.45,0,0,1,1,2.45V21a.39.39,0,0,1-.39-.39,14.31,14.31,0,0,0-.17-2.42C103.79,18,103.63,17.88,103.46,17.72Zm0,7.08a8.22,8.22,0,0,0-.87-1.16V24.9a7.87,7.87,0,0,1,.87,1.66V24.8ZM102.6,22a7.5,7.5,0,0,1,.87.48v-.91a8.18,8.18,0,0,0-.87-.42V22Zm.87-2v1.26a7.69,7.69,0,0,0-.87-1V19.21a8.24,8.24,0,0,1,.87.84Zm-.87-3a7.6,7.6,0,0,1,.87.68v-1a8.19,8.19,0,0,0-.87-.59V17Zm.87-7.09a8.37,8.37,0,0,0-.86-1.15c.11-.27.23-.53.36-.77a.39.39,0,0,0-.16-.53.39.39,0,0,0-.2,0v2.59a7.5,7.5,0,0,1,.87,1.65V10ZM102.6,32q.13.5.27,1a8,8,0,0,0-.27,1.15v3.74q0,.38.11.75t-.11.72V44.1a.39.39,0,0,0,.73-.22c-.05-.76-.1-1.68-.08-2.66a.39.39,0,0,0,.22.25V36.11q-.11.23-.2.47a11.55,11.55,0,0,1,.06-2l0,.15a.38.38,0,0,0,0,.1l.06.19V32.26q-.13-.5-.26-1l.26.21v-1l-.53-.35-.11-.52v0q-.11-.53-.22-1.06V32Zm.87-19.79V13.4a7.54,7.54,0,0,0-.87-.93v-1a8.2,8.2,0,0,1,.87.77Zm0,2.35v1.79a7.93,7.93,0,0,0-.87-1.69V13.39a8.22,8.22,0,0,1,.87,1.18Zm0,12.07v.87a7.46,7.46,0,0,0-.87-.4v-.83A8.34,8.34,0,0,1,103.46,26.64Zm-.87-3a8.34,8.34,0,0,0-.74-.73v5.86l.17.81-.17.22v1.5c.12-.24.25-.48.4-.7q.17.72.35,1.42v-3.5q-.15-.74-.28-1.49l.28.1v-.83l-.42-.13q-.11-.68-.2-1.36-.06-.41-.11-.81a7.44,7.44,0,0,1,.74.91V23.64Zm-.74-1.93a7.5,7.5,0,0,1,.74.3v-.85q-.36-.15-.74-.27v.82Zm.74-2.5a8.28,8.28,0,0,0-.74-.55v1a7.43,7.43,0,0,1,.74.65V19.21Zm-.74-2.61a7.6,7.6,0,0,1,.74.44v-.92a8.28,8.28,0,0,0-.74-.39v.87Zm.74-9.13a.39.39,0,0,0-.33.21,9.31,9.31,0,0,0-.41.9v3.3a7.51,7.51,0,0,1,.74.59v-1q-.31-.24-.65-.45.12-.58.28-1.11l0-.06.05-.18.3.4V7.47Zm-.74,27.48h.1a.39.39,0,0,0,.3-.46c-.14-.65-.29-1.44-.4-2.28v2.75Zm.74-.79a12.78,12.78,0,0,0-.06,3.14c0,.2,0,.4.06.59V34.16Zm0,5.21q0,.3-.06.6a25.48,25.48,0,0,0,0,4,.39.39,0,0,0,0,.16V39.37Zm0-26v1.27a7.48,7.48,0,0,0-.74-.93V12.65A8.41,8.41,0,0,1,102.6,13.39Zm-.74,9.51-.13-.11q-.06-.58-.11-1.16l.25.08v-.82l-.32-.09q0-.4-.05-.8v0q0-.33,0-.65l.41.29v-1l-.44-.27q0-.67,0-1.32a.46.46,0,0,0,0-.05q0-.31,0-.62l.46.22v-.87l-.43-.18c0-.29,0-.58,0-.86a.39.39,0,0,0,0-.09q0-.59.1-1.16l.29.29V12.65l-.17-.15q0-.34.1-.67l.07,0V8.58l-.06.15,0,.06q-.13.34-.24.7a7.77,7.77,0,0,0-.66.44v1l.35-.29-.08.35-.28.26v1.17l0,0v.05l0,0V23.09L101,23v0h0q.1.93.23,1.86.11.76.23,1.52a11.11,11.11,0,0,0-.5,4.28c0,.21,0,.41,0,.62l-.1.22V34l.1-.37c.06-.22.13-.44.2-.66.1.62.21,1.19.32,1.69a.39.39,0,0,0,.36.31V32.2c0-.24-.06-.48-.08-.73l.08-.17v-1.5l-.17.24a12.08,12.08,0,0,1,.09-1.67l.08.4Zm-1-13-.43.34v1l.43-.39v-1Zm0,1.32v1.17l0,0,0,0V23.09l-.22.34c0,.26,0,.51,0,.77a24.79,24.79,0,0,0,.22,3.84.39.39,0,0,1-.34.43h-.05V20.55c.08-.21.16-.42.25-.62q0-.64-.06-1.27a.46.46,0,0,1,0-.07c0-.28,0-.56,0-.84l-.17.13v-1l.17-.11q0-.32,0-.64l-.18.41V14.86l.25-.37q0-.53.09-1l-.34.26v-2c.14-.16.28-.31.43-.46Zm0,20.3c-.16.37-.3.74-.43,1.12v3.4c.1-.66.24-1.37.43-2.09Zm-.43-21.28a13.05,13.05,0,0,0-2,2.16,25.46,25.46,0,0,0-2.1,3.37.39.39,0,1,0,.69.36,24.72,24.72,0,0,1,2-3.27,13.35,13.35,0,0,1,1.38-1.59v-1Zm0,1.45v2a9.86,9.86,0,0,0-.89.83l-.15.31a24.63,24.63,0,0,0-1.32,3.61.39.39,0,0,1-.75-.21c.13-.43.27-.92.45-1.43-.53.81-1,1.62-1.33,2.28a.39.39,0,1,1-.69-.36,25.42,25.42,0,0,1,2.09-3.38,14.93,14.93,0,0,1,1.06-1.27,11.94,11.94,0,0,1,1.54-2.37Zm0,3.14v1.72q-.09.23-.18.46l.18-.12v1c-.19.15-.38.31-.57.48l-.07.28a24.73,24.73,0,0,0-.51,3.81.39.39,0,1,1-.78,0,28,28,0,0,1,.33-3c-.21.25-.42.52-.61.78a24.73,24.73,0,0,0-2,3.3.39.39,0,1,1-.69-.35,25.44,25.44,0,0,1,2-3.4,13.86,13.86,0,0,1,1.56-1.81,11.12,11.12,0,0,1,1.26-3.09Zm0,5.7a10.9,10.9,0,0,0-.55,2.63,13.5,13.5,0,0,0-1.08,2.41,25.41,25.41,0,0,0-1,3.85.39.39,0,1,0,.77.13,24.69,24.69,0,0,1,.92-3.74c.08-.25.18-.49.27-.74a27.82,27.82,0,0,0,.23,3,.39.39,0,0,0,.38.34V20.55Zm0,12.12c-.08.24-.16.49-.22.73a25.42,25.42,0,0,0-.73,3.9.39.39,0,1,0,.77.09c0-.4.1-.85.18-1.32Z"/><rect class="cls-10" x="326.47" y="35.89" width="1.7" height="6.8"/><path class="cls-11" d="M339.5,33.18c-8.05-6.69-10.73-15.13-12.22-19.09-2.12,4.89-4.91,13.23-12.22,19.09a1.81,1.81,0,0,0,2.56,2.56c-.78,2.42,1.67,3.89,3.57,1.77-.56,2.78,3.47,2.94,3.92.76-.13,2.39,4.42,2.64,4.47,0a1.94,1.94,0,0,0,3.77-.85,1.89,1.89,0,0,0,3.33-1.77C338.32,37.53,341.8,35.45,339.5,33.18Z"/><path class="cls-12" d="M336.85,26.49c-6.3-5.23-8.39-11.83-9.56-14.94-1.66,3.82-3.84,10.35-9.56,14.94-1.25,1.38.86,3,2,2-.61,1.89,1.06,2.92,2.55,1.26-.6,2,2.25,2.38,2.66.65.08,1.87,3.11,2,3.49.1a1.6,1.6,0,0,0,3.11-.63c1.14,1.34,3.41.4,2.73-1.26C335.42,30,338.43,28.45,336.85,26.49Z"/><path class="cls-13" d="M320.41,20.21c4.57-3.8,6.09-8.59,6.94-10.84,1.2,2.77,2.79,7.51,6.94,10.84.9,1-.62,2.19-1.46,1.46.44,1.37-.77,2.12-1.85.91.43,1.49-1.63,1.73-1.93.47a1.29,1.29,0,0,1-2.54.07,1.16,1.16,0,0,1-2.26-.46c-.83,1-2.47.29-2-.92C321.44,22.75,319.26,21.63,320.41,20.21Z"/><rect class="cls-10" x="55.37" y="35.18" width="1.7" height="6.8"/><path class="cls-11" d="M68.4,32.47c-8.05-6.69-10.73-15.13-12.22-19.09C54.06,18.26,51.27,26.6,44,32.47A1.81,1.81,0,0,0,46.52,35c-.78,2.42,1.67,3.89,3.57,1.77-.56,2.78,3.47,2.94,3.92.76-.13,2.39,4.42,2.64,4.47,0a1.94,1.94,0,0,0,3.77-.85,1.89,1.89,0,0,0,3.33-1.77C67.21,36.82,70.69,34.74,68.4,32.47Z"/><path class="cls-12" d="M65.74,25.78c-6.3-5.23-8.39-11.83-9.56-14.94-1.66,3.82-3.84,10.35-9.56,14.94-1.25,1.38.86,3,2,2C48,29.68,49.69,30.7,51.18,29c-.6,2,2.25,2.38,2.66.65.08,1.87,3.11,2,3.49.1a1.6,1.6,0,0,0,3.11-.63c1.14,1.34,3.41.4,2.73-1.26C64.32,29.27,67.32,27.74,65.74,25.78Z"/><path class="cls-13" d="M49.3,19.5c4.57-3.8,6.09-8.59,6.94-10.84,1.2,2.77,2.79,7.51,6.94,10.84.9,1-.62,2.19-1.46,1.45.44,1.37-.77,2.12-1.85.91.43,1.49-1.63,1.73-1.93.47a1.29,1.29,0,0,1-2.54.07A1.16,1.16,0,0,1,53.16,22c-.83,1-2.47.29-2-.92C50.34,22,48.16,20.92,49.3,19.5Z"/><rect class="cls-10" x="175.97" y="32.49" width="1.7" height="6.8"/><path class="cls-11" d="M189,29.78c-8.05-6.69-10.73-15.13-12.22-19.09-2.12,4.89-4.91,13.23-12.22,19.09a1.81,1.81,0,0,0,2.56,2.56c-.78,2.42,1.67,3.89,3.57,1.77-.56,2.78,3.47,2.94,3.92.76-.13,2.39,4.42,2.64,4.47,0a1.94,1.94,0,0,0,3.77-.85,1.89,1.89,0,0,0,3.33-1.77C187.81,34.13,191.29,32.05,189,29.78Z"/><path class="cls-12" d="M186.34,23.09C180,17.86,178,11.25,176.78,8.15c-1.66,3.82-3.84,10.35-9.56,14.94-1.25,1.38.86,3,2,2-.61,1.89,1.06,2.92,2.55,1.26-.6,2,2.25,2.38,2.66.65.08,1.87,3.11,2,3.49.1a1.6,1.6,0,0,0,3.11-.63c1.14,1.34,3.41.4,2.73-1.26C184.92,26.58,187.92,25.05,186.34,23.09Z"/><path class="cls-13" d="M169.9,16.81C174.48,13,176,8.22,176.84,6c1.2,2.77,2.79,7.51,6.94,10.84.9,1-.62,2.19-1.46,1.45.44,1.37-.77,2.12-1.85.91.43,1.49-1.63,1.73-1.93.47a1.29,1.29,0,0,1-2.54.07,1.16,1.16,0,0,1-2.26-.46c-.83,1-2.47.29-2-.92C170.94,19.35,168.76,18.23,169.9,16.81Z"/><path class="cls-3" d="M384.75,8.88a.27.27,0,1,0-.28.47c2.94,1.74,3.62,5.53,4.44,10,.85,4.68,1.83,10.14,5.58,15a.27.27,0,1,0,.43-.33c-3.67-4.76-4.64-10.15-5.48-14.77S387.9,10.75,384.75,8.88Z"/><path class="cls-2" d="M392.46,26.75a6.76,6.76,0,0,0,7.84,3.06,6.76,6.76,0,0,0-7.84-3.06Z"/><path class="cls-3" d="M390.19,23.14a.27.27,0,0,0-.52.14,8.37,8.37,0,0,0,3.6,4.3,11.2,11.2,0,0,0,5.79,1.95.27.27,0,1,0,0-.54,10.65,10.65,0,0,1-5.5-1.86A7.84,7.84,0,0,1,390.19,23.14Z"/><path class="cls-2" d="M390.95,30.83a6.76,6.76,0,0,1-4.37,7.2,6.76,6.76,0,0,1,4.37-7.2Z"/><path class="cls-3" d="M391.06,26.37a.27.27,0,1,0-.5.21,7.84,7.84,0,0,1-.26,5.22,10.65,10.65,0,0,1-3.24,4.81.27.27,0,1,0,.34.43A11.2,11.2,0,0,0,390.81,32,8.37,8.37,0,0,0,391.06,26.37Z"/><path class="cls-3" d="M389.91,21.69a.27.27,0,0,0-.52.16,7.84,7.84,0,0,1-.74,5.17,10.65,10.65,0,0,1-3.67,4.5.27.27,0,0,0,.3.45,11.2,11.2,0,0,0,3.86-4.73A8.37,8.37,0,0,0,389.91,21.69Z"/><path class="cls-2" d="M390.47,20.6a6.76,6.76,0,0,0,7.09,4.53,6.76,6.76,0,0,0-7.09-4.53Z"/><path class="cls-3" d="M388.94,16.62a.27.27,0,0,0-.54,0,8.37,8.37,0,0,0,2.7,4.92,11.2,11.2,0,0,0,5.3,3,.27.27,0,0,0,.11-.53,10.65,10.65,0,0,1-5-2.89A7.84,7.84,0,0,1,388.94,16.62Z"/><path class="cls-2" d="M388.55,19.83A6.76,6.76,0,0,1,384.16,27a6.76,6.76,0,0,1,4.38-7.19Z"/><path class="cls-3" d="M388.67,15.37a.27.27,0,0,0-.5.21,7.84,7.84,0,0,1-.27,5.22,10.65,10.65,0,0,1-3.25,4.81A.27.27,0,0,0,385,26,11.2,11.2,0,0,0,388.41,21,8.37,8.37,0,0,0,388.67,15.37Z"/><path class="cls-3" d="M388.26,13.81a.27.27,0,0,0-.53.12,8.37,8.37,0,0,0,3.47,4.4,11.2,11.2,0,0,0,5.73,2.12.27.27,0,1,0,0-.54,10.65,10.65,0,0,1-5.44-2A7.84,7.84,0,0,1,388.26,13.81Z"/><path class="cls-3" d="M387.06,11.29a.27.27,0,1,0-.48.25,7.84,7.84,0,0,1,.16,5.22,10.65,10.65,0,0,1-2.84,5.06.27.27,0,1,0,.37.4,11.2,11.2,0,0,0,3-5.33A8.37,8.37,0,0,0,387.06,11.29Z"/><path class="cls-2" d="M388.76,12.66a6.76,6.76,0,0,0,8.16,2.07,6.76,6.76,0,0,0-8.16-2.07Z"/><path class="cls-3" d="M385.88,9.79a.27.27,0,0,0-.39.37,17.16,17.16,0,0,0,5,3.68,9.5,9.5,0,0,0,5,1,.27.27,0,0,0-.06-.54,9,9,0,0,1-4.73-.91A16.6,16.6,0,0,1,385.88,9.79Z"/><circle class="cls-14" cx="397.19" cy="19.42" r="2.28" transform="translate(77.56 256) rotate(-39.31)"/><circle class="cls-15" cx="398.13" cy="19.49" r="0.77" transform="translate(77.68 256.55) rotate(-39.3)"/><circle class="cls-14" cx="383.04" cy="20.88" r="2.28" transform="translate(73.44 247.38) rotate(-39.31)"/><circle class="cls-15" cx="383.98" cy="20.95" r="0.77" transform="translate(73.56 247.92) rotate(-39.3)"/><circle class="cls-14" cx="385.72" cy="31.14" r="2.28" transform="translate(67.54 251.39) rotate(-39.31)"/><circle class="cls-15" cx="386.65" cy="31.21" r="0.77" transform="translate(67.67 251.95) rotate(-39.3)"/><circle class="cls-14" cx="395.55" cy="34.97" r="2.28" transform="translate(67.34 258.49) rotate(-39.31)"/><circle class="cls-15" cx="396.49" cy="35.03" r="0.77" transform="translate(67.47 259.03) rotate(-39.3)"/><path class="cls-3" d="M269.88,6.68a.27.27,0,1,1,.28.47c-2.94,1.74-3.62,5.53-4.44,10-.85,4.68-1.83,10.14-5.58,15a.27.27,0,1,1-.43-.33c3.67-4.76,4.64-10.15,5.48-14.77S266.73,8.55,269.88,6.68Z"/><path class="cls-2" d="M262.17,24.55a6.76,6.76,0,0,1-7.84,3.06,6.76,6.76,0,0,1,7.84-3.06Z"/><path class="cls-3" d="M264.45,20.94a.27.27,0,0,1,.52.14,8.37,8.37,0,0,1-3.6,4.3,11.2,11.2,0,0,1-5.79,1.95.27.27,0,1,1,0-.54,10.65,10.65,0,0,0,5.5-1.86A7.84,7.84,0,0,0,264.45,20.94Z"/><path class="cls-2" d="M263.69,28.63a6.76,6.76,0,0,0,4.37,7.2,6.76,6.76,0,0,0-4.37-7.2Z"/><path class="cls-3" d="M263.57,24.17a.27.27,0,1,1,.5.21,7.84,7.84,0,0,0,.26,5.22,10.65,10.65,0,0,0,3.24,4.81.27.27,0,1,1-.34.43,11.2,11.2,0,0,1-3.41-5.06A8.37,8.37,0,0,1,263.57,24.17Z"/><path class="cls-3" d="M264.72,19.49a.27.27,0,0,1,.52.16,7.84,7.84,0,0,0,.74,5.17,10.65,10.65,0,0,0,3.67,4.5.27.27,0,0,1-.3.45A11.2,11.2,0,0,1,265.48,25,8.37,8.37,0,0,1,264.72,19.49Z"/><path class="cls-2" d="M264.17,18.4a6.76,6.76,0,0,1-7.09,4.53,6.76,6.76,0,0,1,7.09-4.53Z"/><path class="cls-3" d="M265.7,14.42a.27.27,0,0,1,.54,0,8.37,8.37,0,0,1-2.7,4.92,11.2,11.2,0,0,1-5.3,3,.27.27,0,1,1-.11-.53,10.65,10.65,0,0,0,5-2.89A7.84,7.84,0,0,0,265.7,14.42Z"/><path class="cls-2" d="M266.09,17.63a6.76,6.76,0,0,0,4.38,7.19,6.76,6.76,0,0,0-4.38-7.19Z"/><path class="cls-3" d="M266,13.17a.27.27,0,0,1,.5.21,7.84,7.84,0,0,0,.27,5.22A10.65,10.65,0,0,0,270,23.4a.27.27,0,0,1-.33.43,11.2,11.2,0,0,1-3.43-5.06A8.37,8.37,0,0,1,266,13.17Z"/><path class="cls-3" d="M266.38,11.61a.27.27,0,0,1,.53.12,8.37,8.37,0,0,1-3.47,4.4,11.2,11.2,0,0,1-5.73,2.12.27.27,0,1,1,0-.54,10.65,10.65,0,0,0,5.44-2A7.84,7.84,0,0,0,266.38,11.61Z"/><path class="cls-3" d="M267.57,9.09a.27.27,0,0,1,.48.25,7.84,7.84,0,0,0-.16,5.22,10.65,10.65,0,0,0,2.84,5.06.27.27,0,1,1-.37.4,11.2,11.2,0,0,1-3-5.33A8.37,8.37,0,0,1,267.57,9.09Z"/><path class="cls-2" d="M265.87,10.46a6.76,6.76,0,0,1-8.16,2.07,6.76,6.76,0,0,1,8.16-2.07Z"/><path class="cls-3" d="M268.76,7.59a.27.27,0,0,1,.39.37,17.16,17.16,0,0,1-5,3.68,9.5,9.5,0,0,1-5,1,.27.27,0,0,1,.06-.54,9,9,0,0,0,4.73-.91A16.59,16.59,0,0,0,268.76,7.59Z"/><circle class="cls-14" cx="257.44" cy="17.22" r="2.28" transform="translate(81.04 205.51) rotate(-50.69)"/><circle class="cls-15" cx="256.51" cy="17.29" r="0.77" transform="translate(80.62 204.8) rotate(-50.69)"/><circle class="cls-14" cx="271.59" cy="18.68" r="2.28" transform="translate(85.09 216.99) rotate(-50.69)"/><circle class="cls-15" cx="270.66" cy="18.75" r="0.77" transform="translate(84.68 216.28) rotate(-50.69)"/><circle class="cls-14" cx="268.92" cy="28.94" r="2.28" transform="translate(76.18 218.69) rotate(-50.69)"/><circle class="cls-15" cx="267.98" cy="29.01" r="0.77" transform="translate(75.75 217.96) rotate(-50.69)"/><circle class="cls-14" cx="259.08" cy="32.77" r="2.28" transform="translate(69.6 212.47) rotate(-50.69)"/><circle class="cls-15" cx="258.15" cy="32.83" r="0.77" transform="translate(69.19 211.75) rotate(-50.69)"/><path class="cls-3" d="M113.6,6.65a.27.27,0,1,0-.28.47c2.94,1.74,3.62,5.53,4.44,10,.85,4.68,1.83,10.14,5.58,15a.27.27,0,1,0,.43-.33c-3.67-4.76-4.64-10.15-5.48-14.77S116.75,8.52,113.6,6.65Z"/><path class="cls-2" d="M121.31,24.52a6.76,6.76,0,0,0,7.84,3.06,6.76,6.76,0,0,0-7.84-3.06Z"/><path class="cls-3" d="M119,20.91a.27.27,0,0,0-.52.14,8.37,8.37,0,0,0,3.6,4.3,11.2,11.2,0,0,0,5.79,1.95.27.27,0,1,0,0-.54,10.65,10.65,0,0,1-5.5-1.86A7.84,7.84,0,0,1,119,20.91Z"/><path class="cls-2" d="M119.8,28.6a6.76,6.76,0,0,1-4.37,7.2,6.76,6.76,0,0,1,4.37-7.2Z"/><path class="cls-3" d="M119.91,24.14a.27.27,0,1,0-.5.21,7.84,7.84,0,0,1-.26,5.22,10.65,10.65,0,0,1-3.24,4.81.27.27,0,1,0,.34.43,11.2,11.2,0,0,0,3.41-5.06A8.37,8.37,0,0,0,119.91,24.14Z"/><path class="cls-3" d="M118.76,19.46a.27.27,0,0,0-.52.16,7.84,7.84,0,0,1-.74,5.17,10.65,10.65,0,0,1-3.67,4.5.27.27,0,0,0,.3.45A11.2,11.2,0,0,0,118,25,8.37,8.37,0,0,0,118.76,19.46Z"/><path class="cls-2" d="M119.32,18.37a6.76,6.76,0,0,0,7.09,4.53,6.76,6.76,0,0,0-7.09-4.53Z"/><path class="cls-3" d="M117.79,14.39a.27.27,0,0,0-.54,0,8.37,8.37,0,0,0,2.7,4.92,11.2,11.2,0,0,0,5.3,3,.27.27,0,0,0,.11-.53,10.65,10.65,0,0,1-5-2.89A7.84,7.84,0,0,1,117.79,14.39Z"/><path class="cls-2" d="M117.4,17.6A6.76,6.76,0,0,1,113,24.78a6.76,6.76,0,0,1,4.38-7.19Z"/><path class="cls-3" d="M117.52,13.14a.27.27,0,0,0-.5.21,7.84,7.84,0,0,1-.27,5.22,10.65,10.65,0,0,1-3.25,4.81.27.27,0,0,0,.33.43,11.2,11.2,0,0,0,3.43-5.06A8.37,8.37,0,0,0,117.52,13.14Z"/><path class="cls-3" d="M117.11,11.58a.27.27,0,1,0-.53.12,8.37,8.37,0,0,0,3.47,4.4,11.2,11.2,0,0,0,5.73,2.12.27.27,0,1,0,0-.54,10.65,10.65,0,0,1-5.44-2A7.84,7.84,0,0,1,117.11,11.58Z"/><path class="cls-3" d="M115.91,9.06a.27.27,0,0,0-.48.25,7.84,7.84,0,0,1,.16,5.22,10.64,10.64,0,0,1-2.84,5.06.27.27,0,0,0,.37.4,11.2,11.2,0,0,0,3-5.33A8.37,8.37,0,0,0,115.91,9.06Z"/><path class="cls-2" d="M117.61,10.43a6.76,6.76,0,0,0,8.16,2.07,6.76,6.76,0,0,0-8.16-2.07Z"/><path class="cls-3" d="M114.73,7.56a.27.27,0,1,0-.39.37,17.16,17.16,0,0,0,5,3.68,9.5,9.5,0,0,0,5,1,.27.27,0,1,0-.06-.54,9,9,0,0,1-4.73-.91A16.59,16.59,0,0,1,114.73,7.56Z"/><circle class="cls-14" cx="126.04" cy="17.19" r="2.28" transform="translate(17.63 83.73) rotate(-39.31)"/><circle class="cls-15" cx="126.98" cy="17.26" r="0.77" transform="translate(17.79 84.33) rotate(-39.3)"/><circle class="cls-14" cx="111.89" cy="18.65" r="2.28" transform="translate(13.5 75.1) rotate(-39.31)"/><circle class="cls-15" cx="112.83" cy="18.72" r="0.77" transform="translate(13.66 75.69) rotate(-39.3)"/><circle class="cls-14" cx="114.57" cy="28.91" r="2.28" transform="translate(7.6 79.11) rotate(-39.31)"/><circle class="cls-15" cx="115.5" cy="28.98" r="0.77" transform="translate(7.76 79.7) rotate(-39.3)"/><circle class="cls-14" cx="124.4" cy="32.74" r="2.28" transform="translate(7.41 86.21) rotate(-39.31)"/><circle class="cls-15" cx="125.34" cy="32.8" r="0.77" transform="translate(7.57 86.8) rotate(-39.3)"/><path class="cls-16" d="M309.31,8.76a13,13,0,0,1,2,2.16,25.43,25.43,0,0,1,2.1,3.37.39.39,0,1,1-.69.36,24.68,24.68,0,0,0-2-3.27,13.32,13.32,0,0,0-1.39-1.59v-1Zm0,1.45v2a9.87,9.87,0,0,1,.89.83l.15.31A24.66,24.66,0,0,1,311.68,17a.39.39,0,0,0,.75-.21c-.12-.43-.27-.92-.45-1.43.53.81,1,1.62,1.33,2.28a.39.39,0,1,0,.69-.36,25.37,25.37,0,0,0-2.09-3.38,15.06,15.06,0,0,0-1.06-1.27,11.92,11.92,0,0,0-1.54-2.37Zm0,3.14v1.72q.09.23.18.47l-.18-.12v1q.29.22.57.48l.07.28a24.69,24.69,0,0,1,.51,3.81.39.39,0,1,0,.78,0,27.89,27.89,0,0,0-.33-3c.21.25.42.52.61.78a24.73,24.73,0,0,1,2,3.3.39.39,0,0,0,.69-.35,25.44,25.44,0,0,0-2-3.4,13.88,13.88,0,0,0-1.56-1.81,11.12,11.12,0,0,0-1.26-3.09Zm0,5.7a10.88,10.88,0,0,1,.55,2.63,13.49,13.49,0,0,1,1.08,2.41,25.43,25.43,0,0,1,1,3.85.39.39,0,0,1-.77.13,24.69,24.69,0,0,0-.92-3.74c-.08-.25-.18-.49-.27-.74a27.9,27.9,0,0,1-.23,3,.39.39,0,0,1-.38.34V19.05Zm0,12.12c.08.24.16.49.22.73a25.42,25.42,0,0,1,.73,3.9.39.39,0,0,1-.77.09c0-.4-.1-.85-.18-1.32Zm-.43-22.74.43.34v1l-.43-.39v-1Zm0,1.32v1.17l0,0,0,0V21.59l.22.34q0,.38,0,.77a24.77,24.77,0,0,1-.22,3.84.39.39,0,0,0,.34.43h.05V19.05q-.11-.32-.25-.62,0-.64.06-1.27a.4.4,0,0,0,0-.07q0-.42,0-.84l.17.13v-1l-.17-.11q0-.32,0-.64l.18.41V13.36l-.25-.37q0-.53-.09-1l.34.26v-2q-.21-.24-.43-.46Zm0,20.3c.16.37.3.74.43,1.12v3.4c-.1-.66-.24-1.37-.43-2.09Zm-1-8.64.13-.11q.06-.58.11-1.16l-.25.08v-.82l.32-.09q0-.4.05-.8v0q0-.33,0-.65l-.41.29v-1l.44-.27q0-.67,0-1.32a.42.42,0,0,1,0-.05q0-.31,0-.62l-.46.22v-.87l.43-.18q0-.43,0-.86a.4.4,0,0,1,0-.09q0-.59-.1-1.16l-.29.29V11.15l.17-.15q0-.34-.1-.67l-.07,0V7.08l.06.15,0,.06q.13.34.24.7a7.76,7.76,0,0,1,.66.44v1l-.35-.29.08.35.28.26v1.17l0,0v.05l0,0V21.59l-.08-.11v.05h0q-.1.93-.23,1.86-.11.76-.23,1.52a11.12,11.12,0,0,1,.5,4.28q0,.31,0,.62l.1.22v2.43l-.1-.37q-.09-.33-.2-.66c-.1.62-.21,1.19-.32,1.69a.39.39,0,0,1-.36.31V30.7q0-.36.08-.73l-.08-.17v-1.5l.17.24a12.08,12.08,0,0,0-.09-1.67l-.08.4Zm-.74.73a8.37,8.37,0,0,1,.74-.73v5.86l-.17.81.17.22v1.5c-.12-.24-.25-.48-.4-.7q-.17.72-.35,1.42V27q.15-.74.28-1.5l-.28.1v-.83l.42-.13q.11-.68.2-1.36.06-.41.11-.81a7.45,7.45,0,0,0-.74.91V22.14Zm.74-1.93a7.56,7.56,0,0,0-.74.3v-.85q.36-.15.74-.27v.82Zm-.74-2.5a8.27,8.27,0,0,1,.74-.55v1a7.43,7.43,0,0,0-.74.65V17.71Zm.74-2.61a7.46,7.46,0,0,0-.74.44v-.92a8.27,8.27,0,0,1,.74-.39v.87ZM307.17,6a.39.39,0,0,1,.33.21,9.18,9.18,0,0,1,.41.9v3.3a7.56,7.56,0,0,0-.74.59V10q.31-.24.65-.45-.12-.58-.28-1.11l0-.06-.05-.18-.3.4V6Zm.74,27.48h-.1a.39.39,0,0,1-.3-.46c.14-.65.29-1.44.4-2.28v2.75Zm-.74-.79a12.77,12.77,0,0,1,.06,3.14q0,.3-.06.6V32.66Zm0,5.21q0,.3.06.6a25.41,25.41,0,0,1,0,4,.39.39,0,0,1,0,.16V37.86Zm.74-26.71v1.08a7.49,7.49,0,0,0-.74.93V11.89A8.33,8.33,0,0,1,307.91,11.15ZM306.3,23.3a8.2,8.2,0,0,1,.87-1.16V23.4a7.87,7.87,0,0,0-.87,1.66V23.3Zm.87-2.79a7.5,7.5,0,0,0-.87.48v-.91a8.12,8.12,0,0,1,.87-.42v.85Zm-.87-2v1.26a7.7,7.7,0,0,1,.87-1V17.71a8.2,8.2,0,0,0-.87.84Zm.87-3a7.59,7.59,0,0,0-.87.68v-1a8.15,8.15,0,0,1,.87-.59v.92Zm-.87-7.09a8.37,8.37,0,0,1,.86-1.15c-.11-.27-.23-.53-.36-.77a.39.39,0,0,1,.36-.57V8.56a7.5,7.5,0,0,0-.87,1.65V8.46Zm.87,22.06q-.13.5-.27,1a8,8,0,0,1,.27,1.14V36.4q0,.38-.11.75t.11.72V42.6a.39.39,0,0,1-.73-.22c.06-.76.1-1.68.08-2.66a.39.39,0,0,1-.22.25V34.61q.11.23.2.47a11.55,11.55,0,0,0-.06-2l0,.15a.39.39,0,0,1,0,.1l-.06.19V30.76q.13-.5.26-1l-.26.21V29l.53-.35.11-.52v0q.11-.53.22-1.06v3.5Zm0-20.56a8.21,8.21,0,0,0-.87.77V11.9a7.53,7.53,0,0,1,.87-.93V10Zm0,1.94a8.22,8.22,0,0,0-.87,1.18v1.79a7.94,7.94,0,0,1,.87-1.69V11.89Zm0,12.9a8.26,8.26,0,0,0-.87.35V26a7.46,7.46,0,0,1,.87-.4Zm-1.59,10.8a.39.39,0,0,1,0,.1l-.27.68V34.17l.16-.48-.16,0v-.81l.44-.1q.21-.67.4-1.36l0-.07.17-.62v2.75l-.22.66v0q.11.2.2.41V40a.39.39,0,0,1-.54-.45c.17-.68.36-1.49.51-2.37a9.6,9.6,0,0,0-.56-1.94l-.14.38Zm-.31,1.07v9.6l.13,0a.39.39,0,0,0,.41-.37,25.46,25.46,0,0,0-.08-4c-.05-.48-.13-1-.22-1.43a11.15,11.15,0,0,0-.23-3.87Zm0-6.8V31a7.48,7.48,0,0,1,1-1.08V29a8.27,8.27,0,0,0-.67.54.37.37,0,0,0,0,0,13.14,13.14,0,0,1,.31-3.25l.36-.2v-.87l0,0,0-.11V23.3a9,9,0,0,0-1,2.15l-.08.27v4.14h0Zm1-8.87a7.9,7.9,0,0,0-1,.78V20a8.81,8.81,0,0,1,1-1.43v1.26q-.15.22-.28.44l.28-.17V21Zm0-4.76v-1l-.16.13h0q.07-.24.16-.47V13.07a8.71,8.71,0,0,0-.54,1,11.57,11.57,0,0,1,0-1.45,8,8,0,0,1,.52-.75V10.72l-.25.26a8,8,0,0,1,.25-.77V8.46a8.45,8.45,0,0,0-1,2.45v8.6a.39.39,0,0,0,.39-.39,14.31,14.31,0,0,1,.17-2.42Q306.05,16.46,306.3,16.22Zm-1,20.14,0,.12,0,.18v9.6a.39.39,0,0,1-.24-.38c0-.74.06-1.64,0-2.6-.11.49-.23.95-.34,1.35a.39.39,0,0,1,0,.1V41l0-.32v-.1l0-.21V38.06l.08.17c0-.18,0-.36-.06-.54l0,0V35.36l.22-.13q.2-.52.38-1.06v2.19Zm-.6-5.82a8.28,8.28,0,0,1,.6-.68V31a8,8,0,0,0-.6.88V30.54Zm.6-.68V25.72h0c-.21.14-.41.29-.6.44v1l.35-.31a14.94,14.94,0,0,0-.16,2.6.39.39,0,0,0,.39.38Zm0-8.06a13,13,0,0,0-.6,2.17V21.2c.1-.25.21-.49.34-.74s.17-.32.26-.48V21.8Zm0-2.29h0a.39.39,0,0,1-.39-.39c0-.38,0-.8,0-1.25l-.24.38V16.87q.2-.26.42-.52c0-.15.06-.31.1-.47a.4.4,0,0,1,0-.1c-.07-.45-.13-1-.16-1.5-.13.35-.24.7-.33,1V13.06q.16-.33.35-.65c0-.22,0-.45.08-.68s.1-.55.17-.82v8.6Zm0,13.41v.81l-.6.2v-.83Zm-.6,11.82a.39.39,0,0,1-.71-.3,25.55,25.55,0,0,0,.71-3.46v3.76Zm0-4.38a9.3,9.3,0,0,0-.52-1.6l-.23.42v-2l.22-.11.21-.48q-.23.19-.43.39v-1a8.32,8.32,0,0,1,.75-.54v2.36l-.08.17.08.16v2.31Zm-.75-8.7a8.81,8.81,0,0,1,.75-1.13v1.38c-.15.25-.28.5-.39.75s-.21.47-.3.71q.33-.15.69-.27v.83a7.43,7.43,0,0,0-.75.34V31.67Zm.75-4.47c-.21.2-.41.4-.59.61l-.17.19V26.84a9.09,9.09,0,0,1,.75-.68v1Zm0-3.23c0,.17-.06.34-.09.5a.39.39,0,0,1-.45.32.38.38,0,0,1-.22-.12v-.9c0-.21.09-.44.14-.67l-.14.2V22l.19-.21c.17-.18.34-.36.52-.53l0-.1V24Zm0-5.71a12,12,0,0,0-.75,1.52V18a10.77,10.77,0,0,1,.62-1l.13-.18v1.39Zm0-2.94V13.06l0,.08a11.41,11.41,0,0,0-.71,2V17.5a.39.39,0,0,0,.4-.34A15.18,15.18,0,0,1,304.67,15.33Zm-.75,23.86h0a11.12,11.12,0,0,1-1.07,4.18,25.43,25.43,0,0,1-1.93,3.47.39.39,0,0,1-.65-.42,24.74,24.74,0,0,0,1.87-3.36,12.66,12.66,0,0,0,.81-2.39l-.31.39a.39.39,0,0,1-.6-.5,11.69,11.69,0,0,0,1.14-1.64l0-.06.31-.57a7.54,7.54,0,0,0-1.38,1.23,12.8,12.8,0,0,0-.92,3.42.39.39,0,1,1-.77-.11c0-.22.07-.46.11-.71a14.29,14.29,0,0,0-.7,2.3.39.39,0,0,1-.76-.17,13.23,13.23,0,0,1,1.42-3.8,9.28,9.28,0,0,1,1-1.35l.08-.17a8.86,8.86,0,0,1,1.58-2.31.39.39,0,0,1-.62-.36c0-.37.11-.77.19-1.2a8.67,8.67,0,0,0-.74.65,12.47,12.47,0,0,0-2.22,3.11.39.39,0,0,1-.69-.36,13.24,13.24,0,0,1,2.36-3.3A9.14,9.14,0,0,1,303,33.92a11.05,11.05,0,0,1,.58-1.57q.16-.34.35-.68v2.61l-.27.15a15,15,0,0,0-.37,1.93.39.39,0,0,1-.07.17,8.25,8.25,0,0,1,.7-.63v1q-.23.22-.43.45l.43-.25v2Zm0-11.19a12.77,12.77,0,0,0-1.82,3.06.39.39,0,1,1-.71-.31,13.22,13.22,0,0,1,2.12-3.46l.42-.45V28Zm0-3.33a.39.39,0,0,1-.1-.33c0-.18.06-.37.1-.57v.9Zm0-1.37V22a13.54,13.54,0,0,0-2,3.2.39.39,0,1,0,.71.33,13.94,13.94,0,0,1,1.3-2.27Zm0-3.52c-.17.41-.31.8-.42,1.15a.39.39,0,0,1-.74-.24A14.53,14.53,0,0,1,303.92,18v1.77Zm0-2.28h0a.39.39,0,0,1-.33-.44,15.82,15.82,0,0,1,.37-1.93Z"/><path class="cls-16" d="M157.87,37.59a12.77,12.77,0,0,1,.68,2.63c.21.43.4.88.57,1.33a25.48,25.48,0,0,1,1.05,3.83.39.39,0,1,1-.76.15c-.15-.73-.34-1.6-.62-2.52,0,.5,0,1,0,1.4a.39.39,0,0,1-.78,0,26,26,0,0,0-.14-3.37V37.59Zm0-26.69c.75.69,1.41,1.38,1.93,2a.39.39,0,0,1-.58.52c-.38-.43-.84-.91-1.35-1.41V10.9Zm0,1.61v1.9c.34.51.64,1,.89,1.44a.39.39,0,0,0,.67-.39c-.23-.39-.49-.82-.78-1.28.72.66,1.34,1.33,1.85,1.89a.39.39,0,1,0,.58-.52,25.35,25.35,0,0,0-2.85-2.76l-.36-.28Zm0,3.3a14.45,14.45,0,0,1,1.66,1.2,25.42,25.42,0,0,1,2.82,2.8.39.39,0,0,1-.59.51A24.73,24.73,0,0,0,159,17.61c-.25-.21-.52-.42-.78-.61a28,28,0,0,1,1.05,2.8.39.39,0,1,1-.74.24c-.18-.57-.41-1.23-.68-1.92v-2.3Zm0,4.32v2.49a26.33,26.33,0,0,1,.57,3.19.39.39,0,1,0,.77-.1,27.84,27.84,0,0,0-.51-3c.15.21.3.43.45.65a24.69,24.69,0,0,1,1.81,3.4.39.39,0,0,0,.71-.32A25.41,25.41,0,0,0,159.8,23a13.5,13.5,0,0,0-1.63-2.07q-.13-.38-.29-.75Zm0,4.93A12.16,12.16,0,0,1,159,28.44c0,.2.08.41.11.61a14.12,14.12,0,0,1,1.23,1.83A25.42,25.42,0,0,1,162,34.48a.39.39,0,0,1-.73.27,24.7,24.7,0,0,0-1.61-3.5c-.11-.2-.23-.4-.36-.59.06.62.09,1.21.11,1.72a.39.39,0,0,1-.78,0,26.84,26.84,0,0,0-.26-3c-.16-.19-.33-.38-.51-.56V27.76l.24.21c-.07-.29-.15-.58-.24-.87v-2Zm0,6.38v2a12.54,12.54,0,0,1,.31,1.25l-.31-.41v1.35a10.6,10.6,0,0,1,.6,1.13c.07.89.09,1.72.09,2.42a.39.39,0,0,0,.78,0c.26.94.44,1.85.57,2.6a.39.39,0,1,0,.77-.14,25.42,25.42,0,0,0-1-3.85c-.14-.42-.31-.83-.49-1.24s-.09-.89-.16-1.34A11.59,11.59,0,0,0,157.87,31.44Zm-.46,4a.41.41,0,0,1,0,.1q-.05.43-.11.85a8.24,8.24,0,0,1,.59,1.22V41q0-.24-.06-.47v-.1a10.22,10.22,0,0,0-.66-1.15V38l.12.14-.12-.32V21.28q.11.79.19,1.59t.15,1.53q.21.31.39.65v2c-.08-.25-.16-.49-.26-.73q0,.62.06,1.23l.2.16v1.06l-.17-.17c0,.84,0,1.68,0,2.49l.17.3v2c-.07-.23-.15-.46-.24-.68v.16a.39.39,0,0,1,0,.1q0,.45-.06.89l0,0,.3.34v1.35c-.13-.21-.27-.42-.42-.62l0,.4Zm-.27-25.16c.25.21.5.43.73.64V12c-.23-.23-.48-.46-.73-.69v-1Zm0,1.72c.25.17.5.35.73.53v1.9c-.23-.34-.47-.7-.73-1V12Zm0,2.91c.15.24.3.49.44.75l.3.18v2.3c-.21-.54-.46-1.09-.73-1.64V14.89Zm0,3.81V21l.35.32c.08.24.16.49.23.73s.11.39.16.59V20.13A10.31,10.31,0,0,0,157.14,18.7Zm0,20.61q-.16-.24-.34-.46l-.12.47a11.12,11.12,0,0,1,0,4.32,22.1,22.1,0,0,1-.56,2.39v-4.6q0-.13,0-.25V37.4l.26-.23c0-.17.06-.34.09-.52q-.19.26-.35.52V35.84q.25-.31.55-.6c.06-.53.11-1.07.15-1.63a7.5,7.5,0,0,0-.7.44v-.94a8.39,8.39,0,0,1,.76-.42q0-.7.06-1.42a.38.38,0,0,1,0-.08q0-.83,0-1.69a7.47,7.47,0,0,0-.83,1.33V29.32a8.37,8.37,0,0,1,.81-1q0-.26,0-.53v0c0-.86-.08-1.73-.14-2.6a7.57,7.57,0,0,0-.65.47v-1q.28-.19.58-.37-.06-.68-.13-1.37,0-.41-.09-.81a7.49,7.49,0,0,0-.36.72V21.24l.2-.29q-.08-.58-.17-1.15l0,0V15l.19.07-.19-.28V13.49a11.1,11.1,0,0,1,1,1.4v1.58h0L157,16.2a8.35,8.35,0,0,0-.86-.41q.1.41.19.82a.39.39,0,0,1,0,.07q.13.62.26,1.25a7.73,7.73,0,0,1,.54.77V21l0,0v0h0l0,.27V37.85l-.07-.18,0,.23.12.13v1.28Zm-1-29.84c.29.2.57.41.84.63l.19.16v1l-.68-.58-.35-.27v-1Zm0,1.51v1.27l.27.16.22.26c.19.23.37.46.54.69V12l-.24-.16C156.65,11.53,156.38,11.25,156.11,11Zm0,35c-.15.53-.31,1-.46,1.45a.39.39,0,0,1-.49.24l-.11-.06v-.82a23.65,23.65,0,0,0,.86-3.33,13.38,13.38,0,0,0,.21-2.08V46Zm0-4.86V37.4l-.29.28q.13-.25.29-.51V35.84a8.23,8.23,0,0,0-.75,1.07.39.39,0,0,0,0-.18,15,15,0,0,1-.12-2,7.51,7.51,0,0,1,.85-.71v-.94a8.2,8.2,0,0,0-.78.55c0-.25.06-.5.11-.76a8.19,8.19,0,0,1,.67-2.06V29.32l-.13.18v0a13.13,13.13,0,0,1-.5-3.22,7.45,7.45,0,0,1,.63-.57v-1q-.31.21-.58.44a7.81,7.81,0,0,1,.58-2.27V21.24A8.24,8.24,0,0,0,155,23.55v5.39c.06.26.12.5.18.73a.39.39,0,0,0,.48.27h0a8.41,8.41,0,0,0-.67,1.45v5.77a.39.39,0,0,0,.25-.14q-.14.24-.25.48v2.57a7.54,7.54,0,0,1,1-1.52q-.08.32-.17.63l0,.06a11.69,11.69,0,0,1-.7,1.87.39.39,0,0,0,.7.34c.07-.15.14-.3.21-.46v.18Zm0-21.35a7.49,7.49,0,0,0-1.07.78v-1a8.34,8.34,0,0,1,1-.62q-.07-.4-.14-.79v0l-.13-.64a7.47,7.47,0,0,0-.68.88V17.11q.23-.26.48-.51-.14-.65-.3-1.29v-.05l-.16-.6h0V12l.22.65a8,8,0,0,1,.85.84v1.26q-.18-.25-.36-.48l.17.62.2.07v4.86ZM155,8.79a12.61,12.61,0,0,1,1.07.68v1c-.34-.26-.7-.51-1.07-.74v-.9Zm0,1.27V11.7a9.14,9.14,0,0,1,1.07.54V11A10.89,10.89,0,0,0,155,10.06Zm0,37.59a.39.39,0,0,1-.13-.43l.13-.39v.82Zm0-7.58h0a12.79,12.79,0,0,0-.05,3.54.39.39,0,0,1-.34.43h-.06v-5.4A8.73,8.73,0,0,1,155,37.5v2.57Zm0-2.91h0a.39.39,0,0,1-.43-.34l0-.18V33.29q0-.26.09-.53a9.35,9.35,0,0,1,.37-1.38v5.77Zm0-8.22a13.88,13.88,0,0,1-.3-1.83l-.16.23V26.06l.11-.13c0-.1,0-.19,0-.29a9.08,9.08,0,0,1,.33-2.1v5.39Zm0-8.34q-.24.21-.46.44V20l.46-.37v1Zm-.46-2.91c.14-.19.29-.39.46-.57v1.28a7.48,7.48,0,0,0-.46.79v-1.5Zm.46-3q-.24.19-.46.38V14l.24-.18q-.12-.4-.24-.79V10.71l.05,0-.05,0v-1l.46.32V11.7l-.12,0L155,12v2.67Zm-.46-6.12.46.24v.9l-.46-.27Zm0,35.49a.39.39,0,0,1-.37-.35c0-.22,0-.46-.06-.72a14.31,14.31,0,0,0-.12,2.4.39.39,0,0,1-.61.33V42.62a10.81,10.81,0,0,1,.28-1.25,9.24,9.24,0,0,1,.6-1.54l0-.19a9.54,9.54,0,0,1,.26-1V44Zm0-7.41c0-.32-.07-.66-.09-1a8.69,8.69,0,0,0-.56.81,10,10,0,0,0-.53,1V35.8a9,9,0,0,1,1.07-1.37c0-.37,0-.75.1-1.13v3.34Zm0-9.3a8.62,8.62,0,0,0-.53.9,10.39,10.39,0,0,0-.64,1.57v-2a9,9,0,0,1,1.17-1.72v1.28Zm0-6.3a7.93,7.93,0,0,0-.84,1,13.72,13.72,0,0,0,0,2.79.39.39,0,0,1-.31.42V20a8.44,8.44,0,0,1,1.17-2.29v1.5a8,8,0,0,0-.5,1.25q.24-.24.5-.47V21Zm0-6a7.48,7.48,0,0,0-1.17,1.36V15.13a8.27,8.27,0,0,1,1.17-1.1v1Zm-1.17,4.2v.47a.39.39,0,0,0,0-.3l0-.17Zm0-11.19a8.48,8.48,0,0,1,1.17.48v.88c-.26-.14-.52-.27-.78-.38l.16.32q.32.17.62.37v1l0,0,0,.05h0V13a.41.41,0,0,1,0-.08q-.18-.57-.38-1.1a7.47,7.47,0,0,0-.75,1.58V11.59q.19-.31.41-.62l-.27-.63-.15.17Zm0,37.64a.39.39,0,0,1-.17-.31,14.63,14.63,0,0,1,.17-2.78v3.09Zm0-8.29a12,12,0,0,0-.5,1.29v-2q.17-.33.36-.65l.14-.22v1.62Zm0-7.62a14.74,14.74,0,0,0-.49,2.08v-3a10.75,10.75,0,0,1,.45-1l0-.1v2Zm0-4.51h0a.39.39,0,0,1-.42-.35c0-.17,0-.35,0-.53V21.93l.08-.13c0-.3.09-.6.16-.91s.15-.61.25-.91v5.31Zm0-8.88c-.14.21-.27.42-.39.64a14,14,0,0,0,.39,2.21v.47a.39.39,0,0,1-.5.15V12.57a8.23,8.23,0,0,1,.5-1v1.85a8.18,8.18,0,0,0-.41,2.2h0q.19-.26.41-.51v1.27Zm-.5-8.9.32.5.18.06v2.44a7.54,7.54,0,0,0-.5.68V9.9l.29-.32L152.91,9Zm0,31.2c-.15.45-.26.88-.36,1.27a.39.39,0,0,1-.76-.18,14,14,0,0,1,1.11-3.12v2Zm0-6.78a.39.39,0,0,1-.76-.18,14.42,14.42,0,0,1,.76-2.86v3Zm0-7.51c0-.23,0-.48,0-.73a13.62,13.62,0,0,0-.8,2.75.39.39,0,1,1-.77-.14,13.25,13.25,0,0,1,1.3-3.84c.09-.17.19-.34.3-.51v2.48Zm0-4.54V12.57a8.47,8.47,0,0,0-.57,2,11.59,11.59,0,0,1-.34-1.41,7.67,7.67,0,0,1,.92-1.94V9.9a8.24,8.24,0,0,0-1.06,1.55,7.59,7.59,0,0,1,.68-3.09l.1.16,0,.05.25.44V7.51l-.08-.12,0-.06a9.47,9.47,0,0,0-.71-.9.39.39,0,1,0-.58.52c.18.2.36.42.54.66a8.49,8.49,0,0,0-.92,4.79c0,.23,0,.46.08.68s-.14.54-.2.81a13.23,13.23,0,0,0-.1,4.06.39.39,0,0,0,.77-.09,13.51,13.51,0,0,1,0-3c.17.52.35,1,.53,1.41l.05.09c0,.16,0,.32,0,.48s-.26.54-.37.81a13.24,13.24,0,0,0-.84,4,.39.39,0,0,0,.78.05,13,13,0,0,1,.63-3.31c.08.44.18.85.27,1.22A.39.39,0,0,0,152.91,19.87Z"/><path class="cls-16" d="M10.3,11.82a13,13,0,0,1,2,2.16,25.44,25.44,0,0,1,2.1,3.37.39.39,0,0,1-.69.36,24.67,24.67,0,0,0-2-3.27,13.3,13.3,0,0,0-1.39-1.59v-1Zm0,1.45v2a9.88,9.88,0,0,1,.89.83l.15.31A24.65,24.65,0,0,1,12.66,20a.39.39,0,0,0,.75-.21c-.12-.43-.27-.92-.45-1.43.53.81,1,1.62,1.33,2.28a.39.39,0,1,0,.69-.36,25.36,25.36,0,0,0-2.09-3.38,15.06,15.06,0,0,0-1.06-1.27,11.93,11.93,0,0,0-1.54-2.37Zm0,3.14v1.72q.09.23.18.47l-.18-.12v1q.29.22.57.48l.07.28A24.69,24.69,0,0,1,11.44,24a.39.39,0,1,0,.78,0,27.89,27.89,0,0,0-.33-3c.21.25.42.52.61.78a24.71,24.71,0,0,1,2,3.3.39.39,0,1,0,.7-.35,25.44,25.44,0,0,0-2-3.4,13.87,13.87,0,0,0-1.56-1.81,11.12,11.12,0,0,0-1.26-3.09Zm0,5.7a10.88,10.88,0,0,1,.55,2.63,13.5,13.5,0,0,1,1.08,2.41,25.41,25.41,0,0,1,1,3.85.39.39,0,0,1-.77.13,24.69,24.69,0,0,0-.92-3.74c-.08-.25-.18-.49-.27-.74a27.92,27.92,0,0,1-.23,3,.39.39,0,0,1-.38.34V22.1Zm0,12.12c.08.24.16.49.22.73a25.42,25.42,0,0,1,.73,3.9.39.39,0,0,1-.77.09c0-.4-.1-.85-.18-1.32ZM9.87,11.48l.43.34v1l-.43-.39v-1Zm0,1.32V14l0,0,0,0V24.64l.22.34c0,.26,0,.51,0,.77a24.76,24.76,0,0,1-.22,3.84.39.39,0,0,0,.34.43h.05V22.1c-.08-.21-.16-.42-.25-.62q0-.64.06-1.27a.39.39,0,0,0,0-.07q0-.42,0-.84l.17.13v-1l-.17-.11q0-.32,0-.64l.18.41V16.41L10,16q0-.53-.09-1l.34.26v-2q-.21-.24-.43-.46Zm0,20.3c.16.37.3.74.43,1.12v3.4c-.1-.66-.24-1.37-.43-2.09Zm-1-8.64L9,24.34q.06-.58.11-1.16l-.25.08v-.82l.32-.09q0-.4.05-.8v0q0-.33,0-.65l-.41.29v-1l.44-.27q0-.67,0-1.32a.46.46,0,0,1,0-.05q0-.31,0-.62l-.46.22v-.87l.43-.18q0-.43,0-.86a.41.41,0,0,1,0-.09q0-.59-.1-1.16l-.29.29V14.2l.17-.15q0-.34-.1-.67l-.07,0v-3.3l.06.15,0,.06q.13.34.24.7a7.71,7.71,0,0,1,.66.44v1l-.35-.29.08.35.28.26V14l0,0V14l0,0V24.64l-.08-.11v.05h0q-.1.93-.23,1.86-.11.76-.23,1.52a11.12,11.12,0,0,1,.5,4.28q0,.31,0,.62l.1.22v2.43l-.1-.37q-.09-.33-.2-.66c-.1.62-.21,1.19-.32,1.69a.39.39,0,0,1-.36.31V33.75q0-.36.08-.73l-.08-.17v-1.5l.17.24A12.08,12.08,0,0,0,9,29.92l-.08.4Zm-.74.73a8.39,8.39,0,0,1,.74-.73v5.86l-.17.81.17.22v1.5c-.12-.24-.25-.48-.4-.7q-.17.72-.35,1.42v-3.5q.15-.74.28-1.5l-.28.1v-.83l.42-.13q.11-.68.2-1.36.06-.41.11-.81a7.45,7.45,0,0,0-.74.91V25.19Zm.74-1.93a7.57,7.57,0,0,0-.74.3v-.85q.36-.15.74-.27v.82Zm-.74-2.5a8.27,8.27,0,0,1,.74-.55v1a7.46,7.46,0,0,0-.74.65V20.76Zm.74-2.61a7.47,7.47,0,0,0-.74.44v-.92a8.28,8.28,0,0,1,.74-.39v.87ZM8.15,9a.39.39,0,0,1,.33.21,9.18,9.18,0,0,1,.41.9v3.3a7.57,7.57,0,0,0-.74.59V13q.31-.24.65-.45-.13-.58-.28-1.11l0-.06-.05-.18-.3.4V9ZM8.89,36.5h-.1a.39.39,0,0,1-.3-.46c.14-.65.29-1.44.4-2.28V36.5Zm-.74-.79a12.77,12.77,0,0,1,.06,3.14q0,.3-.06.6V35.71Zm0,5.21q0,.3.06.6a25.41,25.41,0,0,1,0,4,.39.39,0,0,1,0,.16V40.92ZM8.89,14.2v1.08a7.5,7.5,0,0,0-.74.93V14.95A8.36,8.36,0,0,1,8.89,14.2ZM7.29,26.35a8.21,8.21,0,0,1,.87-1.16v1.26a7.88,7.88,0,0,0-.87,1.66V26.35Zm.87-2.79a7.52,7.52,0,0,0-.87.48v-.91a8.15,8.15,0,0,1,.87-.42v.85Zm-.87-2v1.26a7.72,7.72,0,0,1,.87-1V20.76a8.22,8.22,0,0,0-.87.84Zm.87-3a7.61,7.61,0,0,0-.87.68v-1a8.15,8.15,0,0,1,.87-.59v.92Zm-.87-7.09a8.37,8.37,0,0,1,.86-1.15c-.11-.27-.23-.53-.36-.77A.39.39,0,0,1,8.15,9v2.59a7.51,7.51,0,0,0-.87,1.65V11.51Zm.87,22.06q-.13.5-.27,1a8,8,0,0,1,.27,1.14v3.74q0,.38-.11.75t.11.72v4.73a.39.39,0,0,1-.73-.22c.05-.76.1-1.68.08-2.66a.39.39,0,0,1-.22.25V37.66q.11.23.2.47a11.56,11.56,0,0,0-.06-2l0,.15a.39.39,0,0,1,0,.1l-.06.19V33.82q.13-.5.26-1L7.29,33V32l.53-.35.11-.52v0q.11-.53.22-1.06v3.5ZM8.15,13a8.21,8.21,0,0,0-.87.77V15A7.53,7.53,0,0,1,8.15,14V13Zm0,1.94a8.23,8.23,0,0,0-.87,1.18v1.79a8,8,0,0,1,.87-1.69V14.95Zm0,12.9a8.28,8.28,0,0,0-.87.35v.87a7.48,7.48,0,0,1,.87-.4ZM6.56,38.64a.4.4,0,0,1,0,.1l-.27.68V37.22l.16-.48-.16,0V36l.44-.1q.21-.67.4-1.36a.38.38,0,0,1,0-.07l.17-.62v2.75l-.22.66v0q.11.2.2.41V43a.39.39,0,0,1-.54-.45c.17-.68.36-1.49.51-2.37a9.6,9.6,0,0,0-.56-1.94l-.14.38Zm-.31,1.07v9.6l.13,0A.39.39,0,0,0,6.79,49a25.48,25.48,0,0,0-.08-4c-.05-.48-.13-1-.22-1.43a11.15,11.15,0,0,0-.23-3.87Zm0-6.8v1.18a7.48,7.48,0,0,1,1-1.08V32a8.31,8.31,0,0,0-.67.54.39.39,0,0,0,0,0,13.14,13.14,0,0,1,.31-3.25l.36-.2V28.2l0,0,0-.11V26.35a9,9,0,0,0-1,2.15l-.08.27v4.14h0Zm1-8.87a7.91,7.91,0,0,0-1,.78V23a8.81,8.81,0,0,1,1-1.43v1.26L7,23.3l.28-.17V24Zm0-4.76v-1l-.16.13h0q.07-.24.16-.47V16.12a8.74,8.74,0,0,0-.54,1,11.58,11.58,0,0,1,0-1.45A7.93,7.93,0,0,1,7.29,15V13.77L7,14a8.08,8.08,0,0,1,.25-.77V11.51a8.46,8.46,0,0,0-1,2.45v8.6a.39.39,0,0,0,.39-.39,14.31,14.31,0,0,1,.17-2.42Q7,19.51,7.29,19.28Zm-1,20.14,0,.12,0,.18v9.6A.39.39,0,0,1,6,48.94c0-.74.06-1.64,0-2.6-.11.49-.23.95-.34,1.35a.4.4,0,0,1,0,.1V44l0-.32v-.1l0-.21V41.11l.08.17c0-.18,0-.36-.06-.54l0,0V38.41l.22-.13q.2-.52.38-1.06v2.19Zm-.6-5.82a8.26,8.26,0,0,1,.6-.68v1.18a7.94,7.94,0,0,0-.6.88V33.59Zm.6-.68V28.77h0c-.21.14-.41.29-.6.44v1L6,29.93a14.93,14.93,0,0,0-.16,2.6.39.39,0,0,0,.39.38Zm0-8.06A13,13,0,0,0,5.65,27V24.26c.1-.25.21-.49.34-.74s.17-.32.26-.48v1.81Zm0-2.29h0a.39.39,0,0,1-.39-.39c0-.38,0-.8,0-1.25l-.24.38V19.92q.2-.26.42-.52,0-.23.1-.47a.4.4,0,0,1,0-.1c-.07-.45-.13-1-.16-1.5-.13.35-.24.7-.33,1V16.12q.16-.33.35-.65c0-.22,0-.45.08-.68s.1-.55.17-.82v8.6ZM6.25,36v.81l-.6.2v-.83ZM5.65,47.8a.39.39,0,0,1-.71-.3A25.56,25.56,0,0,0,5.65,44V47.8Zm0-4.38a9.31,9.31,0,0,0-.52-1.6l-.23.42v-2l.22-.11.21-.48q-.23.19-.43.39V39a8.35,8.35,0,0,1,.75-.54v2.36L5.57,41l.08.16v2.31Zm-.75-8.7a8.81,8.81,0,0,1,.75-1.13V35c-.15.25-.28.5-.39.75s-.21.47-.3.71q.33-.15.69-.27V37a7.47,7.47,0,0,0-.75.34V34.72Zm.75-4.47c-.21.2-.41.4-.59.61L4.9,31V29.89a9.1,9.1,0,0,1,.75-.68v1Zm0-3.23c0,.17-.06.34-.09.5a.39.39,0,0,1-.67.21v-.9c0-.21.09-.44.14-.67l-.14.2V25.1l.19-.21c.17-.18.34-.36.52-.53l0-.1V27Zm0-5.71a12.06,12.06,0,0,0-.75,1.52V21.06a10.79,10.79,0,0,1,.62-1l.13-.18v1.39Zm0-2.94V16.12l0,.08a11.41,11.41,0,0,0-.71,2v2.37a.39.39,0,0,0,.4-.34A15.15,15.15,0,0,1,5.65,18.38ZM4.9,42.23h0a11.11,11.11,0,0,1-1.07,4.18A25.43,25.43,0,0,1,1.9,49.9a.39.39,0,0,1-.65-.42,24.74,24.74,0,0,0,1.87-3.36,12.67,12.67,0,0,0,.81-2.39l-.31.39a.39.39,0,0,1-.6-.5A11.7,11.7,0,0,0,4.15,42l0-.06.31-.57a7.53,7.53,0,0,0-1.38,1.23A12.8,12.8,0,0,0,2.2,46a.39.39,0,1,1-.77-.11c0-.22.07-.46.11-.71a14.3,14.3,0,0,0-.7,2.3.39.39,0,0,1-.76-.17,13.23,13.23,0,0,1,1.42-3.8,9.27,9.27,0,0,1,1-1.35L2.53,42a8.87,8.87,0,0,1,1.58-2.31.39.39,0,0,1-.62-.36c0-.37.11-.77.19-1.2a8.65,8.65,0,0,0-.74.65A12.47,12.47,0,0,0,.73,41.88.39.39,0,0,1,0,41.51a13.24,13.24,0,0,1,2.36-3.3A9.13,9.13,0,0,1,4,37a11.06,11.06,0,0,1,.58-1.57q.16-.34.35-.68v2.61l-.27.15a15,15,0,0,0-.37,1.93.39.39,0,0,1-.07.17A8.27,8.27,0,0,1,4.9,39v1q-.23.22-.43.45l.43-.25v2ZM4.9,31a12.77,12.77,0,0,0-1.82,3.06.39.39,0,0,1-.71-.31,13.23,13.23,0,0,1,2.12-3.46l.42-.45V31Zm0-3.33a.39.39,0,0,1-.1-.33c0-.18.06-.37.1-.57v.9Zm0-1.37V25.1a13.54,13.54,0,0,0-2,3.2.39.39,0,1,0,.71.33,13.94,13.94,0,0,1,1.3-2.27Zm0-3.52c-.17.41-.31.8-.42,1.15a.39.39,0,0,1-.74-.24A14.53,14.53,0,0,1,4.9,21.06v1.77Zm0-2.28h0a.39.39,0,0,1-.33-.44,15.84,15.84,0,0,1,.37-1.93Z"/><path class="cls-17" d="M411.5,18.64a24.21,24.21,0,0,1-.34,30.13,24.21,24.21,0,0,1,.34-30.13Z"/><path class="cls-18" d="M411,15.71a.41.41,0,0,1,.82-.1,148.14,148.14,0,0,1,1,16.43,81.71,81.71,0,0,1-.83,13.29.41.41,0,0,1-.81-.14A81,81,0,0,0,411.95,32,147.27,147.27,0,0,0,411,15.71Z"/><circle class="cls-3" cx="411.46" cy="11.9" r="4.89" transform="matrix(0.05, -1, 1, 0.05, 378, 422.17)"/><circle class="cls-9" cx="410.72" cy="9.67" r="1.66" transform="translate(379.47 419.31) rotate(-86.99)"/><path class="cls-17" d="M288.6,16.7a24.21,24.21,0,0,1-.34,30.13,24.21,24.21,0,0,1,.34-30.13Z"/><path class="cls-18" d="M288.11,13.77a.41.41,0,0,1,.82-.1,148.14,148.14,0,0,1,1,16.43A81.71,81.71,0,0,1,289,43.39a.41.41,0,0,1-.81-.14A81,81,0,0,0,289,30.1,147.27,147.27,0,0,0,288.11,13.77Z"/><circle class="cls-3" cx="288.56" cy="9.95" r="4.89" transform="translate(263.49 297.59) rotate(-86.99)"/><circle class="cls-9" cx="287.82" cy="7.73" r="1.66" transform="translate(264.97 294.74) rotate(-86.99)"/><path class="cls-17" d="M138.48,17.86A24.21,24.21,0,0,1,138.14,48a24.21,24.21,0,0,1,.34-30.13Z"/><path class="cls-18" d="M138,14.93a.41.41,0,0,1,.82-.1,148.11,148.11,0,0,1,1,16.43,81.71,81.71,0,0,1-.83,13.29.41.41,0,0,1-.81-.14,81,81,0,0,0,.82-13.15A147.24,147.24,0,0,0,138,14.93Z"/><circle class="cls-3" cx="138.43" cy="11.11" r="4.89" transform="translate(120.08 148.78) rotate(-86.99)"/><circle class="cls-9" cx="137.69" cy="8.89" r="1.66" transform="translate(121.58 145.93) rotate(-86.99)"/><path class="cls-14" d="M224.63,25.33a.45.45,0,0,1-.51.41.53.53,0,0,1-.34-.62c.17-1,0-14.8,0-14.84a.49.49,0,0,1,.43-.53.48.48,0,0,1,.44.52S224.82,24.22,224.63,25.33Z"/><path class="cls-19" d="M222.68,39.27c.6,2.63,1.79,8.39-.74,6.57s-2.26.06-3.58-.45-.16-2.5-2.64-1.54.77-4.25,3.17-5.7S222.21,37.23,222.68,39.27Z"/><path class="cls-4" d="M222.19,38.52c.56,1.66,1.68,5.29-.23,4s-1.64.54-2.62.17-.23-2.17-2-1.69.36-2.6,2-3.39S221.76,37.23,222.19,38.52Z"/><path class="cls-5" d="M225.31,29c1.92-1.9,6-6.12,2.9-5.94s-1.88-1.26-3.27-1.54-1.48,2-3.05-.12-1.63,4-.38,6.51S223.82,30.5,225.31,29Z"/><path class="cls-4" d="M224.5,29.4c1.36-1.1,4.26-3.56,2-3.53s-1.09-1.34-2.12-1.54-1.36,1.71-2.57.37-1.09,2.39-.1,4S223.44,30.25,224.5,29.4Z"/><circle class="cls-20" cx="222.24" cy="33.87" r="6.16" transform="matrix(0.28, -0.96, 0.96, 0.28, 126.82, 237.42)"/><circle class="cls-21" cx="223.23" cy="33.65" r="4.49" transform="translate(127.74 238.22) rotate(-73.55)"/><path class="cls-14" d="M78.28,24.31a.45.45,0,0,0,.51.41.53.53,0,0,0,.34-.62c-.17-1,0-14.8,0-14.84a.49.49,0,0,0-.43-.53.48.48,0,0,0-.44.52S78.09,23.2,78.28,24.31Z"/><path class="cls-13" d="M80.23,38.25c-.6,2.63-1.79,8.39.74,6.57s2.26.06,3.58-.45.16-2.5,2.64-1.54-.77-4.25-3.17-5.7S80.7,36.21,80.23,38.25Z"/><path class="cls-11" d="M80.72,37.5c-.56,1.66-1.68,5.29.23,4s1.64.54,2.62.17.23-2.17,2-1.69-.36-2.6-2-3.39S81.15,36.21,80.72,37.5Z"/><path class="cls-13" d="M77.6,28c-1.92-1.9-6-6.12-2.9-5.94s1.88-1.26,3.26-1.54,1.48,2,3.05-.12,1.63,4,.38,6.51S79.09,29.48,77.6,28Z"/><path class="cls-11" d="M78.41,28.38c-1.36-1.1-4.26-3.56-2-3.53s1.09-1.34,2.12-1.54,1.36,1.71,2.57.37,1.09,2.39.1,4S79.47,29.23,78.41,28.38Z"/><circle class="cls-3" cx="80.67" cy="32.85" r="6.16" transform="translate(-6 24.19) rotate(-16.45)"/><circle class="cls-16" cx="79.68" cy="32.63" r="4.49" transform="translate(-5.98 23.9) rotate(-16.45)"/></g></g></svg>