<svg xmlns="http://www.w3.org/2000/svg" viewBox="0 0 125.84 175.65"><defs><style>.cls-1,.cls-2,.cls-3{fill:#fff;}.cls-2{opacity:0.22;}.cls-3{opacity:0.5;}</style></defs><title>popup-wrapper</title><g id="Layer_2" data-name="Layer 2"><g id="Objects"><circle class="cls-1" cx="47.49" cy="35.99" r="1.49"/><circle class="cls-1" cx="4.47" cy="66.23" r="1.49"/><circle class="cls-1" cx="34.29" cy="124.59" r="1.49"/><circle class="cls-1" cx="93.96" cy="1.49" r="1.49"/><circle class="cls-1" cx="18.95" cy="99.03" r="1.49"/><circle class="cls-1" cx="71.64" cy="135.05" r="0.64"/><circle class="cls-1" cx="58.78" cy="128.93" r="0.64"/><circle class="cls-1" cx="84.31" cy="105.63" r="0.64"/><circle class="cls-1" cx="60.06" cy="140.14" r="0.64"/><circle class="cls-1" cx="72.49" cy="158.47" r="0.64"/><circle class="cls-1" cx="61.98" cy="174.16" r="0.64"/><circle class="cls-1" cx="93.47" cy="174.16" r="0.64"/><circle class="cls-2" cx="70.9" cy="147.18" r="0.37" transform="translate(-90.54 172.19) rotate(-73.08)"/><circle class="cls-2" cx="85.7" cy="111.38" r="0.37" transform="translate(-33.79 185.36) rotate(-84.18)"/><circle class="cls-3" cx="81.33" cy="82.63" r="0.64" transform="translate(-12.69 14.78) rotate(-9.64)"/><circle class="cls-1" cx="86.3" cy="27.47" r="1.49"/><circle class="cls-1" cx="112" cy="79.65" r="1.49"/><circle class="cls-1" cx="77.77" cy="174.16" r="1.49"/><circle class="cls-1" cx="99.64" cy="115.43" r="1.07"/><circle class="cls-1" cx="82.24" cy="123.1" r="1.06"/><circle class="cls-1" cx="86.87" cy="156.75" r="1.06"/><circle class="cls-1" cx="124.35" cy="103.08" r="1.06"/><circle class="cls-1" cx="96.66" cy="80.93" r="1.06"/><circle class="cls-1" cx="4.96" cy="5.96" r="1.06"/><circle class="cls-1" cx="86.04" cy="45.91" r="1.06"/><circle class="cls-1" cx="58.78" cy="59.97" r="1.07"/><circle class="cls-1" cx="44.51" cy="54.73" r="1.06"/><circle class="cls-1" cx="1.92" cy="107.98" r="1.06"/><circle class="cls-1" cx="28.33" cy="72.62" r="1.06"/><circle class="cls-1" cx="16.4" cy="119.9" r="1.06"/><circle class="cls-1" cx="32.16" cy="139.07" r="1.06"/><circle class="cls-3" cx="5.54" cy="126.08" r="0.85" transform="translate(-38.39 7.77) rotate(-17.85)"/><circle class="cls-3" cx="21.3" cy="145.25" r="0.85" transform="translate(-43.52 13.53) rotate(-17.86)"/><circle class="cls-3" cx="48.56" cy="149.51" r="0.85" transform="translate(-43.59 22.16) rotate(-17.9)"/><circle class="cls-3" cx="13.2" cy="162.71" r="0.85" transform="translate(-49.34 11.92) rotate(-17.89)"/><circle class="cls-3" cx="23" cy="128.21" r="0.85" transform="translate(-38.26 13.26) rotate(-17.88)"/><circle class="cls-3" cx="31.09" cy="103.5" r="0.85" transform="translate(-30.23 14.52) rotate(-17.85)"/><circle class="cls-3" cx="3.83" cy="80.08" r="0.85" transform="translate(-24.42 5.05) rotate(-17.89)"/><circle class="cls-3" cx="60.06" cy="48.56" r="0.85" transform="translate(-12.02 20.81) rotate(-17.9)"/><circle class="cls-3" cx="31.09" cy="33.65" r="0.85" transform="translate(-8.82 11.15) rotate(-17.85)"/><circle class="cls-3" cx="50.69" cy="13.2" r="0.85" transform="translate(-1.61 16.18) rotate(-17.85)"/><circle class="cls-3" cx="0.85" cy="51" r="0.85" transform="translate(-15.63 2.73) rotate(-17.89)"/><circle class="cls-3" cx="82.42" cy="67.42" r="0.85" transform="translate(-16.71 28.54) rotate(-17.86)"/><circle class="cls-3" cx="73.05" cy="49.96" r="0.85" transform="translate(-11.82 24.86) rotate(-17.89)"/><circle class="cls-3" cx="69.9" cy="9.65" r="0.85" transform="translate(0.41 21.93) rotate(-17.88)"/><circle class="cls-3" cx="8.07" cy="35.99" r="0.85" transform="translate(-10.66 4.22) rotate(-17.88)"/><circle class="cls-3" cx="115.9" cy="5.96" r="0.85" transform="translate(3.77 35.88) rotate(-17.89)"/><circle class="cls-3" cx="84.81" cy="12.35" r="0.85" transform="translate(0.3 26.64) rotate(-17.88)"/><circle class="cls-3" cx="100.14" cy="15.33" r="0.85" transform="translate(0.13 31.52) rotate(-17.9)"/><circle class="cls-3" cx="124.99" cy="77.31" r="0.85" transform="translate(-17.72 42.2) rotate(-17.92)"/><circle class="cls-3" cx="107.1" cy="96.05" r="0.85" transform="translate(-24.33 37.55) rotate(-17.89)"/><circle class="cls-3" cx="119.88" cy="117.35" r="0.85" transform="translate(-30.25 42.49) rotate(-17.89)"/><circle class="cls-3" cx="114.62" cy="30.24" r="0.85" transform="translate(-3.75 36.68) rotate(-17.89)"/><circle class="cls-3" cx="93.47" cy="70.92" r="0.85" transform="matrix(0.95, -0.31, 0.31, 0.95, -17.26, 32.13)"/><circle class="cls-3" cx="69.05" cy="25.13" r="0.85" transform="translate(-4.38 22.39) rotate(-17.86)"/><circle class="cls-3" cx="5.96" cy="17.04" r="0.85" transform="translate(-4.95 2.66) rotate(-17.9)"/><circle class="cls-1" cx="28.33" cy="159.94" r="1.06"/><circle class="cls-1" cx="21.3" cy="53.67" r="1.06"/><circle class="cls-1" cx="27.05" cy="18.95" r="1.06"/><circle class="cls-1" cx="122.16" cy="46.9" r="1.06"/><circle class="cls-1" cx="121.79" cy="163.14" r="1.49"/><circle class="cls-1" cx="5.32" cy="146.74" r="1.49"/></g></g></svg>