<svg xmlns="http://www.w3.org/2000/svg" viewBox="0 0 136.13 45.35"><defs><style>.cls-1{fill:#ecc152;}</style></defs><title>tracer</title><g id="Layer_2" data-name="Layer 2"><g id="OBJECTS"><path class="cls-1" d="M114.89,24.09a12.17,12.17,0,0,0-3.22,2.77,11.06,11.06,0,0,0-1.21,1.87,10.29,10.29,0,0,0-.44,1l-.16.5c0,.15-.06.24-.1.37a.65.65,0,0,0-.09.38.37.37,0,0,0,.32.31h.14a.53.53,0,0,0,.21,0,5.68,5.68,0,0,0,1-.44,8.31,8.31,0,0,0,2.22-1.69A9.27,9.27,0,0,0,116,23.5a9.41,9.41,0,0,0-1.89-6.55,6.82,6.82,0,0,0-2.85-2.11,8.48,8.48,0,0,0-3.83-.46A5.72,5.72,0,0,0,103.91,16a3.65,3.65,0,0,0-.95,1.6,1.14,1.14,0,0,0,0,.29s0,0,0,0a.48.48,0,0,0-.19.1.19.19,0,0,0-.08.07s0,0,0,0a.24.24,0,0,0,0-.13.69.69,0,0,0,0-.17l.14,0a1.3,1.3,0,0,0,.34-.21c2.23-2.51,1.16-9.87-3.9-10.39a8.32,8.32,0,0,0-3.59.42,24.8,24.8,0,0,0-3.47,1.53l-7,3.56L85,12.32l7.48-3.83a19.43,19.43,0,0,1,3.69-1.56,8,8,0,0,1,3.9-.22,5.8,5.8,0,0,1,3.24,2A8.45,8.45,0,0,1,105,11.91a10.47,10.47,0,0,1,.33,3.46,7.18,7.18,0,0,1-.32,1.71,3.71,3.71,0,0,1-1,1.63,3,3,0,0,1-.77.47,1.5,1.5,0,0,1-.63.1,1.17,1.17,0,0,1-.76-.35,1.65,1.65,0,0,1-.42-1.15,3.46,3.46,0,0,1,.12-.9,6,6,0,0,1,1.65-2.68,8.51,8.51,0,0,1,5.34-2.26,10.16,10.16,0,0,1,5.43,1,10.72,10.72,0,0,1,4,3.54,14.19,14.19,0,0,1-4.67,20.2,8.9,8.9,0,0,1-5.5,1.23,5.79,5.79,0,0,1-4.28-3.17l-.3-.62c-.08-.22-.15-.44-.22-.67a7.06,7.06,0,0,1-.27-1.39,7.53,7.53,0,0,1-.06-1.44,7.67,7.67,0,0,1,.09-1.27,15.14,15.14,0,0,1,3-7.12,17,17,0,0,1,5.59-4.7,18.18,18.18,0,0,1,9-2,20.93,20.93,0,0,1,4.5.62A15.74,15.74,0,0,1,131,19.34,15.26,15.26,0,0,1,132.62,21a13.84,13.84,0,0,1,2.28,3.78,16.51,16.51,0,0,1,1.15,7.9c-.44,5-3.15,9.24-6.43,11A10.4,10.4,0,0,1,125,45a13.41,13.41,0,0,1-2,0c-.59-.07-1.11-.18-1.58-.25l0-.13,1.47.16a13.35,13.35,0,0,0,1.83-.07A8.93,8.93,0,0,0,129,43.16a9.89,9.89,0,0,0,3.37-4.22,13,13,0,0,0,.94-6,12.72,12.72,0,0,0-.61-3.16,11.61,11.61,0,0,0-1.36-2.9A9.68,9.68,0,0,0,126.66,23a11.1,11.1,0,0,0-2.94-.7,18.06,18.06,0,0,0-3.19,0A13.6,13.6,0,0,0,114.89,24.09Z"/><path class="cls-1" d="M15.61,37.45A37.22,37.22,0,0,1,4.17,35.6c-.67-.24-1.28-.43-1.79-.63l-1.29-.58L0,33.92l0-.06,1.15.37,1.37.41c.55.11,1.18.21,1.87.33a48,48,0,0,0,11.1,0,109,109,0,0,0,16.12-2.78c5.15-1.23,10.22-2.67,15.57-4.37A241.57,241.57,0,0,0,85,12.32l.18.36c-5.48,2.79-11,5.61-16.62,8.38S57.3,26.57,51.51,29A130.68,130.68,0,0,1,33.8,35,71.18,71.18,0,0,1,15.61,37.45Z"/><path class="cls-1" d="M27,38.79C54.62,30.67,60.81,42.17,63.84,45,52.13,47.19,50.14,38.51,27,38.79Z"/><path class="cls-1" d="M41.59,27.48C69,18.59,67.61,5.6,68.52,1.56,57.61,6.35,60.87,14.64,41.59,27.48Z"/><path class="cls-1" d="M45.49,33.84c23.12-5,27.52,4.75,29.84,7.24C65.6,42.2,64.48,35,45.49,33.84Z"/><path class="cls-1" d="M62.3,19.9C81.26,12.06,79.57,2.92,80,0,72.51,4,75.28,9.71,62.3,19.9Z"/><circle class="cls-1" cx="67.26" cy="28.87" r="2.93" transform="translate(-1.64 4.16) rotate(-3.5)"/><circle class="cls-1" cx="74.03" cy="32.18" r="1.96" transform="translate(-1.83 4.58) rotate(-3.5)"/><circle class="cls-1" cx="73.18" cy="25" r="1.16" transform="translate(-1.39 4.52) rotate(-3.5)"/><circle class="cls-1" cx="33.76" cy="21.02" r="5.93" transform="translate(-1.22 2.1) rotate(-3.5)"/><circle class="cls-1" cx="42.7" cy="21.49" r="1.59" transform="translate(-1.23 2.65) rotate(-3.5)"/><circle class="cls-1" cx="26.83" cy="28.49" r="1.44" transform="translate(-1.69 1.69) rotate(-3.5)"/><circle class="cls-1" cx="19.45" cy="22.69" r="2.39" transform="translate(-1.35 1.23) rotate(-3.5)"/></g></g></svg>